<?xml version="1.0" encoding="UTF-8"?>
<!DOCTYPE xmeml>
<xmeml version="5">
    <sequence>
        <name>riccipovery8_v1 (Resolve)</name>
        <duration>125744</duration>
        <rate>
            <timebase>25</timebase>
            <ntsc>false</ntsc>
        </rate>
        <in>-1</in>
        <out>-1</out>
        <timecode>
            <string>00:00:00:00</string>
            <frame>0</frame>
            <displayformat>NDF</displayformat>
            <rate>
                <timebase>25</timebase>
                <ntsc>false</ntsc>
            </rate>
        </timecode>
        <media>
            <video>
                <track>
                    <clipitem id="КАССЕТНАЯ КАМЕРА 1_1_DE758C9E73CD453BB83E.mov 0">
                        <name>КАССЕТНАЯ КАМЕРА 1_1_DE758C9E73CD453BB83E.mov</name>
                        <duration>436</duration>
                        <rate>
                            <timebase>25</timebase>
                            <ntsc>false</ntsc>
                        </rate>
                        <start>4720</start>
                        <end>5157</end>
                        <enabled>true</enabled>
                        <in>0</in>
                        <out>437</out>
                        <file id="КАССЕТНАЯ КАМЕРА 1_1_DE758C9E73CD453BB83E.mov 2">
                            <duration>437</duration>
                            <rate>
                                <timebase>25</timebase>
                                <ntsc>false</ntsc>
                            </rate>
                            <name>КАССЕТНАЯ КАМЕРА 1_1_DE758C9E73CD453BB83E.mov</name>
                            <pathurl>file:///Capture1/EDIUS/EDIUS7_Color/colored/pasyans_v3/%D0%9A%D0%90%D0%A1%D0%A1%D0%95%D0%A2%D0%9D%D0%90%D0%AF%20%D0%9A%D0%90%D0%9C%D0%95%D0%A0%D0%90%201_1_DE758C9E73CD453BB83E_V1-0001.mov</pathurl>
                            <timecode>
                                <string>00:03:08:20</string>
                                <displayformat>NDF</displayformat>
                                <rate>
                                    <timebase>25</timebase>
                                    <ntsc>false</ntsc>
                                </rate>
                            </timecode>
                            <media>
                                <video>
                                    <duration>437</duration>
                                    <samplecharacteristics>
                                        <width>1920</width>
                                        <height>1080</height>
                                    </samplecharacteristics>
                                </video>
                            </media>
                        </file>
                        <compositemode>normal</compositemode>
                        <filter>
                            <enabled>true</enabled>
                            <start>0</start>
                            <end>436</end>
                            <effect>
                                <name>Opacity</name>
                                <effectid>opacity</effectid>
                                <effecttype>motion</effecttype>
                                <mediatype>video</mediatype>
                                <effectcategory>motion</effectcategory>
                                <parameter>
                                    <name>opacity</name>
                                    <parameterid>opacity</parameterid>
                                    <value>100</value>
                                    <valuemin>0</valuemin>
                                    <valuemax>100</valuemax>
                                </parameter>
                            </effect>
                        </filter>
                    </clipitem>
                    <clipitem id="общий план 1_1_B23311E1139149049BF1.mov 0">
                        <name>общий план 1_1_B23311E1139149049BF1.mov</name>
                        <duration>135</duration>
                        <rate>
                            <timebase>25</timebase>
                            <ntsc>false</ntsc>
                        </rate>
                        <start>5157</start>
                        <end>5293</end>
                        <enabled>true</enabled>
                        <in>0</in>
                        <out>136</out>
                        <file id="общий план 1_1_B23311E1139149049BF1.mov 2">
                            <duration>136</duration>
                            <rate>
                                <timebase>25</timebase>
                                <ntsc>false</ntsc>
                            </rate>
                            <name>общий план 1_1_B23311E1139149049BF1.mov</name>
                            <pathurl>file:///Capture1/EDIUS/EDIUS7_Color/colored/pasyans_v3/%D0%BE%D0%B1%D1%89%D0%B8%D0%B9%20%D0%BF%D0%BB%D0%B0%D0%BD%201_1_B23311E1139149049BF1_V1-0002.mov</pathurl>
                            <timecode>
                                <string>00:03:26:07</string>
                                <displayformat>NDF</displayformat>
                                <rate>
                                    <timebase>25</timebase>
                                    <ntsc>false</ntsc>
                                </rate>
                            </timecode>
                            <media>
                                <video>
                                    <duration>136</duration>
                                    <samplecharacteristics>
                                        <width>1920</width>
                                        <height>1080</height>
                                    </samplecharacteristics>
                                </video>
                            </media>
                        </file>
                        <compositemode>normal</compositemode>
                        <filter>
                            <enabled>true</enabled>
                            <start>0</start>
                            <end>135</end>
                            <effect>
                                <name>Opacity</name>
                                <effectid>opacity</effectid>
                                <effecttype>motion</effecttype>
                                <mediatype>video</mediatype>
                                <effectcategory>motion</effectcategory>
                                <parameter>
                                    <name>opacity</name>
                                    <parameterid>opacity</parameterid>
                                    <value>100</value>
                                    <valuemin>0</valuemin>
                                    <valuemax>100</valuemax>
                                </parameter>
                            </effect>
                        </filter>
                    </clipitem>
                    <clipitem id="КАССЕТНАЯ КАМЕРА 1_2_F3604AC39030452B90B2.mov 0">
                        <name>КАССЕТНАЯ КАМЕРА 1_2_F3604AC39030452B90B2.mov</name>
                        <duration>142</duration>
                        <rate>
                            <timebase>25</timebase>
                            <ntsc>false</ntsc>
                        </rate>
                        <start>5958</start>
                        <end>6100</end>
                        <enabled>true</enabled>
                        <in>0</in>
                        <out>142</out>
                        <file id="КАССЕТНАЯ КАМЕРА 1_2_F3604AC39030452B90B2.mov 2">
                            <duration>142</duration>
                            <rate>
                                <timebase>25</timebase>
                                <ntsc>false</ntsc>
                            </rate>
                            <name>КАССЕТНАЯ КАМЕРА 1_2_F3604AC39030452B90B2.mov</name>
                            <pathurl>file:///Capture1/EDIUS/EDIUS7_Color/colored/pasyans_v3/%D0%9A%D0%90%D0%A1%D0%A1%D0%95%D0%A2%D0%9D%D0%90%D0%AF%20%D0%9A%D0%90%D0%9C%D0%95%D0%A0%D0%90%201_2_F3604AC39030452B90B2_V1-0003.mov</pathurl>
                            <timecode>
                                <string>00:03:58:08</string>
                                <displayformat>NDF</displayformat>
                                <rate>
                                    <timebase>25</timebase>
                                    <ntsc>false</ntsc>
                                </rate>
                            </timecode>
                            <media>
                                <video>
                                    <duration>142</duration>
                                    <samplecharacteristics>
                                        <width>1920</width>
                                        <height>1080</height>
                                    </samplecharacteristics>
                                </video>
                            </media>
                        </file>
                        <compositemode>normal</compositemode>
                        <filter>
                            <enabled>true</enabled>
                            <start>0</start>
                            <end>142</end>
                            <effect>
                                <name>Opacity</name>
                                <effectid>opacity</effectid>
                                <effecttype>motion</effecttype>
                                <mediatype>video</mediatype>
                                <effectcategory>motion</effectcategory>
                                <parameter>
                                    <name>opacity</name>
                                    <parameterid>opacity</parameterid>
                                    <value>100</value>
                                    <valuemin>0</valuemin>
                                    <valuemax>100</valuemax>
                                </parameter>
                            </effect>
                        </filter>
                    </clipitem>
                    <clipitem id="GOPR8363_1_926FC29E7B9E43F18D71.mov 0">
                        <name>GOPR8363_1_926FC29E7B9E43F18D71.mov</name>
                        <duration>145</duration>
                        <rate>
                            <timebase>25</timebase>
                            <ntsc>false</ntsc>
                        </rate>
                        <start>6100</start>
                        <end>6245</end>
                        <enabled>true</enabled>
                        <in>0</in>
                        <out>145</out>
                        <file id="GOPR8363_1_926FC29E7B9E43F18D71.mov 2">
                            <duration>145</duration>
                            <rate>
                                <timebase>25</timebase>
                                <ntsc>false</ntsc>
                            </rate>
                            <name>GOPR8363_1_926FC29E7B9E43F18D71.mov</name>
                            <pathurl>file:///Capture1/EDIUS/EDIUS7_Color/colored/pasyans_v3/GOPR8363_1_926FC29E7B9E43F18D71_V1-0004.mov</pathurl>
                            <timecode>
                                <string>00:04:04:00</string>
                                <displayformat>NDF</displayformat>
                                <rate>
                                    <timebase>25</timebase>
                                    <ntsc>false</ntsc>
                                </rate>
                            </timecode>
                            <media>
                                <video>
                                    <duration>145</duration>
                                    <samplecharacteristics>
                                        <width>1920</width>
                                        <height>1080</height>
                                    </samplecharacteristics>
                                </video>
                            </media>
                        </file>
                        <compositemode>normal</compositemode>
                        <filter>
                            <enabled>true</enabled>
                            <start>0</start>
                            <end>145</end>
                            <effect>
                                <name>Opacity</name>
                                <effectid>opacity</effectid>
                                <effecttype>motion</effecttype>
                                <mediatype>video</mediatype>
                                <effectcategory>motion</effectcategory>
                                <parameter>
                                    <name>opacity</name>
                                    <parameterid>opacity</parameterid>
                                    <value>100</value>
                                    <valuemin>0</valuemin>
                                    <valuemax>100</valuemax>
                                </parameter>
                            </effect>
                        </filter>
                    </clipitem>
                    <clipitem id="КАССЕТНАЯ КАМЕРА 1_3_7E75646E3E484DF3BFBF.mov 0">
                        <name>КАССЕТНАЯ КАМЕРА 1_3_7E75646E3E484DF3BFBF.mov</name>
                        <duration>159</duration>
                        <rate>
                            <timebase>25</timebase>
                            <ntsc>false</ntsc>
                        </rate>
                        <start>6245</start>
                        <end>6405</end>
                        <enabled>true</enabled>
                        <in>0</in>
                        <out>160</out>
                        <file id="КАССЕТНАЯ КАМЕРА 1_3_7E75646E3E484DF3BFBF.mov 2">
                            <duration>160</duration>
                            <rate>
                                <timebase>25</timebase>
                                <ntsc>false</ntsc>
                            </rate>
                            <name>КАССЕТНАЯ КАМЕРА 1_3_7E75646E3E484DF3BFBF.mov</name>
                            <pathurl>file:///Capture1/EDIUS/EDIUS7_Color/colored/pasyans_v3/%D0%9A%D0%90%D0%A1%D0%A1%D0%95%D0%A2%D0%9D%D0%90%D0%AF%20%D0%9A%D0%90%D0%9C%D0%95%D0%A0%D0%90%201_3_7E75646E3E484DF3BFBF_V1-0005.mov</pathurl>
                            <timecode>
                                <string>00:04:09:20</string>
                                <displayformat>NDF</displayformat>
                                <rate>
                                    <timebase>25</timebase>
                                    <ntsc>false</ntsc>
                                </rate>
                            </timecode>
                            <media>
                                <video>
                                    <duration>160</duration>
                                    <samplecharacteristics>
                                        <width>1920</width>
                                        <height>1080</height>
                                    </samplecharacteristics>
                                </video>
                            </media>
                        </file>
                        <compositemode>normal</compositemode>
                        <filter>
                            <enabled>true</enabled>
                            <start>0</start>
                            <end>159</end>
                            <effect>
                                <name>Opacity</name>
                                <effectid>opacity</effectid>
                                <effecttype>motion</effecttype>
                                <mediatype>video</mediatype>
                                <effectcategory>motion</effectcategory>
                                <parameter>
                                    <name>opacity</name>
                                    <parameterid>opacity</parameterid>
                                    <value>100</value>
                                    <valuemin>0</valuemin>
                                    <valuemax>100</valuemax>
                                </parameter>
                            </effect>
                        </filter>
                    </clipitem>
                    <clipitem id="общий план 1_2_3B0E4189A52E4D75A36E.mov 0">
                        <name>общий план 1_2_3B0E4189A52E4D75A36E.mov</name>
                        <duration>234</duration>
                        <rate>
                            <timebase>25</timebase>
                            <ntsc>false</ntsc>
                        </rate>
                        <start>6405</start>
                        <end>6640</end>
                        <enabled>true</enabled>
                        <in>0</in>
                        <out>235</out>
                        <file id="общий план 1_2_3B0E4189A52E4D75A36E.mov 2">
                            <duration>235</duration>
                            <rate>
                                <timebase>25</timebase>
                                <ntsc>false</ntsc>
                            </rate>
                            <name>общий план 1_2_3B0E4189A52E4D75A36E.mov</name>
                            <pathurl>file:///Capture1/EDIUS/EDIUS7_Color/colored/pasyans_v3/%D0%BE%D0%B1%D1%89%D0%B8%D0%B9%20%D0%BF%D0%BB%D0%B0%D0%BD%201_2_3B0E4189A52E4D75A36E_V1-0006.mov</pathurl>
                            <timecode>
                                <string>00:04:16:05</string>
                                <displayformat>NDF</displayformat>
                                <rate>
                                    <timebase>25</timebase>
                                    <ntsc>false</ntsc>
                                </rate>
                            </timecode>
                            <media>
                                <video>
                                    <duration>235</duration>
                                    <samplecharacteristics>
                                        <width>1920</width>
                                        <height>1080</height>
                                    </samplecharacteristics>
                                </video>
                            </media>
                        </file>
                        <compositemode>normal</compositemode>
                        <filter>
                            <enabled>true</enabled>
                            <start>0</start>
                            <end>234</end>
                            <effect>
                                <name>Opacity</name>
                                <effectid>opacity</effectid>
                                <effecttype>motion</effecttype>
                                <mediatype>video</mediatype>
                                <effectcategory>motion</effectcategory>
                                <parameter>
                                    <name>opacity</name>
                                    <parameterid>opacity</parameterid>
                                    <value>100</value>
                                    <valuemin>0</valuemin>
                                    <valuemax>100</valuemax>
                                </parameter>
                            </effect>
                        </filter>
                    </clipitem>
                    <clipitem id="КАССЕТНАЯ КАМЕРА 1_4_BDE089BED13747E5AAF3.mov 0">
                        <name>КАССЕТНАЯ КАМЕРА 1_4_BDE089BED13747E5AAF3.mov</name>
                        <duration>110</duration>
                        <rate>
                            <timebase>25</timebase>
                            <ntsc>false</ntsc>
                        </rate>
                        <start>6640</start>
                        <end>6751</end>
                        <enabled>true</enabled>
                        <in>0</in>
                        <out>111</out>
                        <file id="КАССЕТНАЯ КАМЕРА 1_4_BDE089BED13747E5AAF3.mov 2">
                            <duration>111</duration>
                            <rate>
                                <timebase>25</timebase>
                                <ntsc>false</ntsc>
                            </rate>
                            <name>КАССЕТНАЯ КАМЕРА 1_4_BDE089BED13747E5AAF3.mov</name>
                            <pathurl>file:///Capture1/EDIUS/EDIUS7_Color/colored/pasyans_v3/%D0%9A%D0%90%D0%A1%D0%A1%D0%95%D0%A2%D0%9D%D0%90%D0%AF%20%D0%9A%D0%90%D0%9C%D0%95%D0%A0%D0%90%201_4_BDE089BED13747E5AAF3_V1-0007.mov</pathurl>
                            <timecode>
                                <string>00:04:25:15</string>
                                <displayformat>NDF</displayformat>
                                <rate>
                                    <timebase>25</timebase>
                                    <ntsc>false</ntsc>
                                </rate>
                            </timecode>
                            <media>
                                <video>
                                    <duration>111</duration>
                                    <samplecharacteristics>
                                        <width>1920</width>
                                        <height>1080</height>
                                    </samplecharacteristics>
                                </video>
                            </media>
                        </file>
                        <compositemode>normal</compositemode>
                        <filter>
                            <enabled>true</enabled>
                            <start>0</start>
                            <end>110</end>
                            <effect>
                                <name>Opacity</name>
                                <effectid>opacity</effectid>
                                <effecttype>motion</effecttype>
                                <mediatype>video</mediatype>
                                <effectcategory>motion</effectcategory>
                                <parameter>
                                    <name>opacity</name>
                                    <parameterid>opacity</parameterid>
                                    <value>100</value>
                                    <valuemin>0</valuemin>
                                    <valuemax>100</valuemax>
                                </parameter>
                            </effect>
                        </filter>
                    </clipitem>
                    <clipitem id="246_0922_01_1_42448F382BB44787801E.mov 0">
                        <name>246_0922_01_1_42448F382BB44787801E.mov</name>
                        <duration>81</duration>
                        <rate>
                            <timebase>25</timebase>
                            <ntsc>false</ntsc>
                        </rate>
                        <start>6751</start>
                        <end>6832</end>
                        <enabled>true</enabled>
                        <in>0</in>
                        <out>81</out>
                        <file id="246_0922_01_1_42448F382BB44787801E.mov 2">
                            <duration>81</duration>
                            <rate>
                                <timebase>25</timebase>
                                <ntsc>false</ntsc>
                            </rate>
                            <name>246_0922_01_1_42448F382BB44787801E.mov</name>
                            <pathurl>file:///Capture1/EDIUS/EDIUS7_Color/colored/pasyans_v3/246_0922_01_1_42448F382BB44787801E_V1-0008.mov</pathurl>
                            <timecode>
                                <string>00:04:30:01</string>
                                <displayformat>NDF</displayformat>
                                <rate>
                                    <timebase>25</timebase>
                                    <ntsc>false</ntsc>
                                </rate>
                            </timecode>
                            <media>
                                <video>
                                    <duration>81</duration>
                                    <samplecharacteristics>
                                        <width>1920</width>
                                        <height>1080</height>
                                    </samplecharacteristics>
                                </video>
                            </media>
                        </file>
                        <compositemode>normal</compositemode>
                        <filter>
                            <enabled>true</enabled>
                            <start>0</start>
                            <end>81</end>
                            <effect>
                                <name>Opacity</name>
                                <effectid>opacity</effectid>
                                <effecttype>motion</effecttype>
                                <mediatype>video</mediatype>
                                <effectcategory>motion</effectcategory>
                                <parameter>
                                    <name>opacity</name>
                                    <parameterid>opacity</parameterid>
                                    <value>100</value>
                                    <valuemin>0</valuemin>
                                    <valuemax>100</valuemax>
                                </parameter>
                            </effect>
                        </filter>
                    </clipitem>
                    <clipitem id="общий план 1_3_77EF17D3B5774B908D78.mov 0">
                        <name>общий план 1_3_77EF17D3B5774B908D78.mov</name>
                        <duration>135</duration>
                        <rate>
                            <timebase>25</timebase>
                            <ntsc>false</ntsc>
                        </rate>
                        <start>6832</start>
                        <end>6968</end>
                        <enabled>true</enabled>
                        <in>0</in>
                        <out>136</out>
                        <file id="общий план 1_3_77EF17D3B5774B908D78.mov 2">
                            <duration>136</duration>
                            <rate>
                                <timebase>25</timebase>
                                <ntsc>false</ntsc>
                            </rate>
                            <name>общий план 1_3_77EF17D3B5774B908D78.mov</name>
                            <pathurl>file:///Capture1/EDIUS/EDIUS7_Color/colored/pasyans_v3/%D0%BE%D0%B1%D1%89%D0%B8%D0%B9%20%D0%BF%D0%BB%D0%B0%D0%BD%201_3_77EF17D3B5774B908D78_V1-0009.mov</pathurl>
                            <timecode>
                                <string>00:04:33:07</string>
                                <displayformat>NDF</displayformat>
                                <rate>
                                    <timebase>25</timebase>
                                    <ntsc>false</ntsc>
                                </rate>
                            </timecode>
                            <media>
                                <video>
                                    <duration>136</duration>
                                    <samplecharacteristics>
                                        <width>1920</width>
                                        <height>1080</height>
                                    </samplecharacteristics>
                                </video>
                            </media>
                        </file>
                        <compositemode>normal</compositemode>
                        <filter>
                            <enabled>true</enabled>
                            <start>0</start>
                            <end>135</end>
                            <effect>
                                <name>Opacity</name>
                                <effectid>opacity</effectid>
                                <effecttype>motion</effecttype>
                                <mediatype>video</mediatype>
                                <effectcategory>motion</effectcategory>
                                <parameter>
                                    <name>opacity</name>
                                    <parameterid>opacity</parameterid>
                                    <value>100</value>
                                    <valuemin>0</valuemin>
                                    <valuemax>100</valuemax>
                                </parameter>
                            </effect>
                        </filter>
                    </clipitem>
                    <clipitem id="КАССЕТНАЯ КАМЕРА 1_5_A3A3F416E08941398322.mov 0">
                        <name>КАССЕТНАЯ КАМЕРА 1_5_A3A3F416E08941398322.mov</name>
                        <duration>143</duration>
                        <rate>
                            <timebase>25</timebase>
                            <ntsc>false</ntsc>
                        </rate>
                        <start>6968</start>
                        <end>7111</end>
                        <enabled>true</enabled>
                        <in>0</in>
                        <out>143</out>
                        <file id="КАССЕТНАЯ КАМЕРА 1_5_A3A3F416E08941398322.mov 2">
                            <duration>143</duration>
                            <rate>
                                <timebase>25</timebase>
                                <ntsc>false</ntsc>
                            </rate>
                            <name>КАССЕТНАЯ КАМЕРА 1_5_A3A3F416E08941398322.mov</name>
                            <pathurl>file:///Capture1/EDIUS/EDIUS7_Color/colored/pasyans_v3/%D0%9A%D0%90%D0%A1%D0%A1%D0%95%D0%A2%D0%9D%D0%90%D0%AF%20%D0%9A%D0%90%D0%9C%D0%95%D0%A0%D0%90%201_5_A3A3F416E08941398322_V1-0010.mov</pathurl>
                            <timecode>
                                <string>00:04:38:18</string>
                                <displayformat>NDF</displayformat>
                                <rate>
                                    <timebase>25</timebase>
                                    <ntsc>false</ntsc>
                                </rate>
                            </timecode>
                            <media>
                                <video>
                                    <duration>143</duration>
                                    <samplecharacteristics>
                                        <width>1920</width>
                                        <height>1080</height>
                                    </samplecharacteristics>
                                </video>
                            </media>
                        </file>
                        <compositemode>normal</compositemode>
                        <filter>
                            <enabled>true</enabled>
                            <start>0</start>
                            <end>143</end>
                            <effect>
                                <name>Opacity</name>
                                <effectid>opacity</effectid>
                                <effecttype>motion</effecttype>
                                <mediatype>video</mediatype>
                                <effectcategory>motion</effectcategory>
                                <parameter>
                                    <name>opacity</name>
                                    <parameterid>opacity</parameterid>
                                    <value>100</value>
                                    <valuemin>0</valuemin>
                                    <valuemax>100</valuemax>
                                </parameter>
                            </effect>
                        </filter>
                    </clipitem>
                    <clipitem id="общий план 1_4_BBAAF1F2EC994E3F87BA.mov 0">
                        <name>общий план 1_4_BBAAF1F2EC994E3F87BA.mov</name>
                        <duration>139</duration>
                        <rate>
                            <timebase>25</timebase>
                            <ntsc>false</ntsc>
                        </rate>
                        <start>7111</start>
                        <end>7250</end>
                        <enabled>true</enabled>
                        <in>0</in>
                        <out>139</out>
                        <file id="общий план 1_4_BBAAF1F2EC994E3F87BA.mov 2">
                            <duration>139</duration>
                            <rate>
                                <timebase>25</timebase>
                                <ntsc>false</ntsc>
                            </rate>
                            <name>общий план 1_4_BBAAF1F2EC994E3F87BA.mov</name>
                            <pathurl>file:///Capture1/EDIUS/EDIUS7_Color/colored/pasyans_v3/%D0%BE%D0%B1%D1%89%D0%B8%D0%B9%20%D0%BF%D0%BB%D0%B0%D0%BD%201_4_BBAAF1F2EC994E3F87BA_V1-0011.mov</pathurl>
                            <timecode>
                                <string>00:04:44:11</string>
                                <displayformat>NDF</displayformat>
                                <rate>
                                    <timebase>25</timebase>
                                    <ntsc>false</ntsc>
                                </rate>
                            </timecode>
                            <media>
                                <video>
                                    <duration>139</duration>
                                    <samplecharacteristics>
                                        <width>1920</width>
                                        <height>1080</height>
                                    </samplecharacteristics>
                                </video>
                            </media>
                        </file>
                        <compositemode>normal</compositemode>
                        <filter>
                            <enabled>true</enabled>
                            <start>0</start>
                            <end>139</end>
                            <effect>
                                <name>Opacity</name>
                                <effectid>opacity</effectid>
                                <effecttype>motion</effecttype>
                                <mediatype>video</mediatype>
                                <effectcategory>motion</effectcategory>
                                <parameter>
                                    <name>opacity</name>
                                    <parameterid>opacity</parameterid>
                                    <value>100</value>
                                    <valuemin>0</valuemin>
                                    <valuemax>100</valuemax>
                                </parameter>
                            </effect>
                        </filter>
                    </clipitem>
                    <clipitem id="246_0922_01_2_C4E1CA1256C14069BE82.mov 0">
                        <name>246_0922_01_2_C4E1CA1256C14069BE82.mov</name>
                        <duration>181</duration>
                        <rate>
                            <timebase>25</timebase>
                            <ntsc>false</ntsc>
                        </rate>
                        <start>7250</start>
                        <end>7431</end>
                        <enabled>true</enabled>
                        <in>0</in>
                        <out>181</out>
                        <file id="246_0922_01_2_C4E1CA1256C14069BE82.mov 2">
                            <duration>181</duration>
                            <rate>
                                <timebase>25</timebase>
                                <ntsc>false</ntsc>
                            </rate>
                            <name>246_0922_01_2_C4E1CA1256C14069BE82.mov</name>
                            <pathurl>file:///Capture1/EDIUS/EDIUS7_Color/colored/pasyans_v3/246_0922_01_2_C4E1CA1256C14069BE82_V1-0012.mov</pathurl>
                            <timecode>
                                <string>00:04:50:00</string>
                                <displayformat>NDF</displayformat>
                                <rate>
                                    <timebase>25</timebase>
                                    <ntsc>false</ntsc>
                                </rate>
                            </timecode>
                            <media>
                                <video>
                                    <duration>181</duration>
                                    <samplecharacteristics>
                                        <width>1920</width>
                                        <height>1080</height>
                                    </samplecharacteristics>
                                </video>
                            </media>
                        </file>
                        <compositemode>normal</compositemode>
                        <filter>
                            <enabled>true</enabled>
                            <start>0</start>
                            <end>181</end>
                            <effect>
                                <name>Opacity</name>
                                <effectid>opacity</effectid>
                                <effecttype>motion</effecttype>
                                <mediatype>video</mediatype>
                                <effectcategory>motion</effectcategory>
                                <parameter>
                                    <name>opacity</name>
                                    <parameterid>opacity</parameterid>
                                    <value>100</value>
                                    <valuemin>0</valuemin>
                                    <valuemax>100</valuemax>
                                </parameter>
                            </effect>
                        </filter>
                    </clipitem>
                    <clipitem id="GOPR8503_1_E693DFAA4131405F954E.mov 0">
                        <name>GOPR8503_1_E693DFAA4131405F954E.mov</name>
                        <duration>132</duration>
                        <rate>
                            <timebase>25</timebase>
                            <ntsc>false</ntsc>
                        </rate>
                        <start>7431</start>
                        <end>7564</end>
                        <enabled>true</enabled>
                        <in>0</in>
                        <out>133</out>
                        <file id="GOPR8503_1_E693DFAA4131405F954E.mov 2">
                            <duration>133</duration>
                            <rate>
                                <timebase>25</timebase>
                                <ntsc>false</ntsc>
                            </rate>
                            <name>GOPR8503_1_E693DFAA4131405F954E.mov</name>
                            <pathurl>file:///Capture1/EDIUS/EDIUS7_Color/colored/pasyans_v3/GOPR8503_1_E693DFAA4131405F954E_V1-0013.mov</pathurl>
                            <timecode>
                                <string>00:04:57:06</string>
                                <displayformat>NDF</displayformat>
                                <rate>
                                    <timebase>25</timebase>
                                    <ntsc>false</ntsc>
                                </rate>
                            </timecode>
                            <media>
                                <video>
                                    <duration>133</duration>
                                    <samplecharacteristics>
                                        <width>1920</width>
                                        <height>1080</height>
                                    </samplecharacteristics>
                                </video>
                            </media>
                        </file>
                        <compositemode>normal</compositemode>
                        <filter>
                            <enabled>true</enabled>
                            <start>0</start>
                            <end>132</end>
                            <effect>
                                <name>Opacity</name>
                                <effectid>opacity</effectid>
                                <effecttype>motion</effecttype>
                                <mediatype>video</mediatype>
                                <effectcategory>motion</effectcategory>
                                <parameter>
                                    <name>opacity</name>
                                    <parameterid>opacity</parameterid>
                                    <value>100</value>
                                    <valuemin>0</valuemin>
                                    <valuemax>100</valuemax>
                                </parameter>
                            </effect>
                        </filter>
                    </clipitem>
                    <clipitem id="246_0922_01_3_00AA08426F434465B09C.mov 0">
                        <name>246_0922_01_3_00AA08426F434465B09C.mov</name>
                        <duration>115</duration>
                        <rate>
                            <timebase>25</timebase>
                            <ntsc>false</ntsc>
                        </rate>
                        <start>7564</start>
                        <end>7680</end>
                        <enabled>true</enabled>
                        <in>0</in>
                        <out>116</out>
                        <file id="246_0922_01_3_00AA08426F434465B09C.mov 2">
                            <duration>116</duration>
                            <rate>
                                <timebase>25</timebase>
                                <ntsc>false</ntsc>
                            </rate>
                            <name>246_0922_01_3_00AA08426F434465B09C.mov</name>
                            <pathurl>file:///Capture1/EDIUS/EDIUS7_Color/colored/pasyans_v3/246_0922_01_3_00AA08426F434465B09C_V1-0014.mov</pathurl>
                            <timecode>
                                <string>00:05:02:14</string>
                                <displayformat>NDF</displayformat>
                                <rate>
                                    <timebase>25</timebase>
                                    <ntsc>false</ntsc>
                                </rate>
                            </timecode>
                            <media>
                                <video>
                                    <duration>116</duration>
                                    <samplecharacteristics>
                                        <width>1920</width>
                                        <height>1080</height>
                                    </samplecharacteristics>
                                </video>
                            </media>
                        </file>
                        <compositemode>normal</compositemode>
                        <filter>
                            <enabled>true</enabled>
                            <start>0</start>
                            <end>115</end>
                            <effect>
                                <name>Opacity</name>
                                <effectid>opacity</effectid>
                                <effecttype>motion</effecttype>
                                <mediatype>video</mediatype>
                                <effectcategory>motion</effectcategory>
                                <parameter>
                                    <name>opacity</name>
                                    <parameterid>opacity</parameterid>
                                    <value>100</value>
                                    <valuemin>0</valuemin>
                                    <valuemax>100</valuemax>
                                </parameter>
                            </effect>
                        </filter>
                    </clipitem>
                    <clipitem id="общий план 1_5_EC3875402ACC4B1EA57A.mov 0">
                        <name>общий план 1_5_EC3875402ACC4B1EA57A.mov</name>
                        <duration>126</duration>
                        <rate>
                            <timebase>25</timebase>
                            <ntsc>false</ntsc>
                        </rate>
                        <start>7680</start>
                        <end>7806</end>
                        <enabled>true</enabled>
                        <in>0</in>
                        <out>126</out>
                        <file id="общий план 1_5_EC3875402ACC4B1EA57A.mov 2">
                            <duration>126</duration>
                            <rate>
                                <timebase>25</timebase>
                                <ntsc>false</ntsc>
                            </rate>
                            <name>общий план 1_5_EC3875402ACC4B1EA57A.mov</name>
                            <pathurl>file:///Capture1/EDIUS/EDIUS7_Color/colored/pasyans_v3/%D0%BE%D0%B1%D1%89%D0%B8%D0%B9%20%D0%BF%D0%BB%D0%B0%D0%BD%201_5_EC3875402ACC4B1EA57A_V1-0015.mov</pathurl>
                            <timecode>
                                <string>00:05:07:05</string>
                                <displayformat>NDF</displayformat>
                                <rate>
                                    <timebase>25</timebase>
                                    <ntsc>false</ntsc>
                                </rate>
                            </timecode>
                            <media>
                                <video>
                                    <duration>126</duration>
                                    <samplecharacteristics>
                                        <width>1920</width>
                                        <height>1080</height>
                                    </samplecharacteristics>
                                </video>
                            </media>
                        </file>
                        <compositemode>normal</compositemode>
                        <filter>
                            <enabled>true</enabled>
                            <start>0</start>
                            <end>126</end>
                            <effect>
                                <name>Opacity</name>
                                <effectid>opacity</effectid>
                                <effecttype>motion</effecttype>
                                <mediatype>video</mediatype>
                                <effectcategory>motion</effectcategory>
                                <parameter>
                                    <name>opacity</name>
                                    <parameterid>opacity</parameterid>
                                    <value>100</value>
                                    <valuemin>0</valuemin>
                                    <valuemax>100</valuemax>
                                </parameter>
                            </effect>
                        </filter>
                    </clipitem>
                    <clipitem id="972_0437_01_1_AD1678C5CD474A428AA7.mov 0">
                        <name>972_0437_01_1_AD1678C5CD474A428AA7.mov</name>
                        <duration>248</duration>
                        <rate>
                            <timebase>25</timebase>
                            <ntsc>false</ntsc>
                        </rate>
                        <start>7806</start>
                        <end>8055</end>
                        <enabled>true</enabled>
                        <in>0</in>
                        <out>249</out>
                        <file id="972_0437_01_1_AD1678C5CD474A428AA7.mov 2">
                            <duration>249</duration>
                            <rate>
                                <timebase>25</timebase>
                                <ntsc>false</ntsc>
                            </rate>
                            <name>972_0437_01_1_AD1678C5CD474A428AA7.mov</name>
                            <pathurl>file:///Capture1/EDIUS/EDIUS7_Color/colored/pasyans_v3/972_0437_01_1_AD1678C5CD474A428AA7_V1-0016.mov</pathurl>
                            <timecode>
                                <string>00:05:12:06</string>
                                <displayformat>NDF</displayformat>
                                <rate>
                                    <timebase>25</timebase>
                                    <ntsc>false</ntsc>
                                </rate>
                            </timecode>
                            <media>
                                <video>
                                    <duration>249</duration>
                                    <samplecharacteristics>
                                        <width>1920</width>
                                        <height>1080</height>
                                    </samplecharacteristics>
                                </video>
                            </media>
                        </file>
                        <compositemode>normal</compositemode>
                        <filter>
                            <enabled>true</enabled>
                            <start>0</start>
                            <end>248</end>
                            <effect>
                                <name>Opacity</name>
                                <effectid>opacity</effectid>
                                <effecttype>motion</effecttype>
                                <mediatype>video</mediatype>
                                <effectcategory>motion</effectcategory>
                                <parameter>
                                    <name>opacity</name>
                                    <parameterid>opacity</parameterid>
                                    <value>100</value>
                                    <valuemin>0</valuemin>
                                    <valuemax>100</valuemax>
                                </parameter>
                            </effect>
                        </filter>
                    </clipitem>
                    <clipitem id="GOPR8363_2_3AAF9AECF50B4C61835A.mov 0">
                        <name>GOPR8363_2_3AAF9AECF50B4C61835A.mov</name>
                        <duration>195</duration>
                        <rate>
                            <timebase>25</timebase>
                            <ntsc>false</ntsc>
                        </rate>
                        <start>8055</start>
                        <end>8250</end>
                        <enabled>true</enabled>
                        <in>0</in>
                        <out>195</out>
                        <file id="GOPR8363_2_3AAF9AECF50B4C61835A.mov 2">
                            <duration>195</duration>
                            <rate>
                                <timebase>25</timebase>
                                <ntsc>false</ntsc>
                            </rate>
                            <name>GOPR8363_2_3AAF9AECF50B4C61835A.mov</name>
                            <pathurl>file:///Capture1/EDIUS/EDIUS7_Color/colored/pasyans_v3/GOPR8363_2_3AAF9AECF50B4C61835A_V1-0017.mov</pathurl>
                            <timecode>
                                <string>00:05:22:05</string>
                                <displayformat>NDF</displayformat>
                                <rate>
                                    <timebase>25</timebase>
                                    <ntsc>false</ntsc>
                                </rate>
                            </timecode>
                            <media>
                                <video>
                                    <duration>195</duration>
                                    <samplecharacteristics>
                                        <width>1920</width>
                                        <height>1080</height>
                                    </samplecharacteristics>
                                </video>
                            </media>
                        </file>
                        <compositemode>normal</compositemode>
                        <filter>
                            <enabled>true</enabled>
                            <start>0</start>
                            <end>195</end>
                            <effect>
                                <name>Opacity</name>
                                <effectid>opacity</effectid>
                                <effecttype>motion</effecttype>
                                <mediatype>video</mediatype>
                                <effectcategory>motion</effectcategory>
                                <parameter>
                                    <name>opacity</name>
                                    <parameterid>opacity</parameterid>
                                    <value>100</value>
                                    <valuemin>0</valuemin>
                                    <valuemax>100</valuemax>
                                </parameter>
                            </effect>
                        </filter>
                    </clipitem>
                    <clipitem id="КАССЕТНАЯ КАМЕРА 1_6_4DC68AD38477451C9466.mov 0">
                        <name>КАССЕТНАЯ КАМЕРА 1_6_4DC68AD38477451C9466.mov</name>
                        <duration>95</duration>
                        <rate>
                            <timebase>25</timebase>
                            <ntsc>false</ntsc>
                        </rate>
                        <start>8250</start>
                        <end>8346</end>
                        <enabled>true</enabled>
                        <in>0</in>
                        <out>96</out>
                        <file id="КАССЕТНАЯ КАМЕРА 1_6_4DC68AD38477451C9466.mov 2">
                            <duration>96</duration>
                            <rate>
                                <timebase>25</timebase>
                                <ntsc>false</ntsc>
                            </rate>
                            <name>КАССЕТНАЯ КАМЕРА 1_6_4DC68AD38477451C9466.mov</name>
                            <pathurl>file:///Capture1/EDIUS/EDIUS7_Color/colored/pasyans_v3/%D0%9A%D0%90%D0%A1%D0%A1%D0%95%D0%A2%D0%9D%D0%90%D0%AF%20%D0%9A%D0%90%D0%9C%D0%95%D0%A0%D0%90%201_6_4DC68AD38477451C9466_V1-0018.mov</pathurl>
                            <timecode>
                                <string>00:05:30:00</string>
                                <displayformat>NDF</displayformat>
                                <rate>
                                    <timebase>25</timebase>
                                    <ntsc>false</ntsc>
                                </rate>
                            </timecode>
                            <media>
                                <video>
                                    <duration>96</duration>
                                    <samplecharacteristics>
                                        <width>1920</width>
                                        <height>1080</height>
                                    </samplecharacteristics>
                                </video>
                            </media>
                        </file>
                        <compositemode>normal</compositemode>
                        <filter>
                            <enabled>true</enabled>
                            <start>0</start>
                            <end>95</end>
                            <effect>
                                <name>Opacity</name>
                                <effectid>opacity</effectid>
                                <effecttype>motion</effecttype>
                                <mediatype>video</mediatype>
                                <effectcategory>motion</effectcategory>
                                <parameter>
                                    <name>opacity</name>
                                    <parameterid>opacity</parameterid>
                                    <value>100</value>
                                    <valuemin>0</valuemin>
                                    <valuemax>100</valuemax>
                                </parameter>
                            </effect>
                        </filter>
                    </clipitem>
                    <clipitem id="общий план 2_1_EDCFAE481389464F9841.mov 0">
                        <name>общий план 2_1_EDCFAE481389464F9841.mov</name>
                        <duration>98</duration>
                        <rate>
                            <timebase>25</timebase>
                            <ntsc>false</ntsc>
                        </rate>
                        <start>8346</start>
                        <end>8444</end>
                        <enabled>true</enabled>
                        <in>0</in>
                        <out>98</out>
                        <file id="общий план 2_1_EDCFAE481389464F9841.mov 2">
                            <duration>98</duration>
                            <rate>
                                <timebase>25</timebase>
                                <ntsc>false</ntsc>
                            </rate>
                            <name>общий план 2_1_EDCFAE481389464F9841.mov</name>
                            <pathurl>file:///Capture1/EDIUS/EDIUS7_Color/colored/pasyans_v3/%D0%BE%D0%B1%D1%89%D0%B8%D0%B9%20%D0%BF%D0%BB%D0%B0%D0%BD%202_1_EDCFAE481389464F9841_V1-0019.mov</pathurl>
                            <timecode>
                                <string>00:05:33:21</string>
                                <displayformat>NDF</displayformat>
                                <rate>
                                    <timebase>25</timebase>
                                    <ntsc>false</ntsc>
                                </rate>
                            </timecode>
                            <media>
                                <video>
                                    <duration>98</duration>
                                    <samplecharacteristics>
                                        <width>1920</width>
                                        <height>1080</height>
                                    </samplecharacteristics>
                                </video>
                            </media>
                        </file>
                        <compositemode>normal</compositemode>
                        <filter>
                            <enabled>true</enabled>
                            <start>0</start>
                            <end>98</end>
                            <effect>
                                <name>Opacity</name>
                                <effectid>opacity</effectid>
                                <effecttype>motion</effecttype>
                                <mediatype>video</mediatype>
                                <effectcategory>motion</effectcategory>
                                <parameter>
                                    <name>opacity</name>
                                    <parameterid>opacity</parameterid>
                                    <value>100</value>
                                    <valuemin>0</valuemin>
                                    <valuemax>100</valuemax>
                                </parameter>
                            </effect>
                        </filter>
                    </clipitem>
                    <clipitem id="972_0437_01_2_9A81EBA1D816415D8C3A.mov 0">
                        <name>972_0437_01_2_9A81EBA1D816415D8C3A.mov</name>
                        <duration>115</duration>
                        <rate>
                            <timebase>25</timebase>
                            <ntsc>false</ntsc>
                        </rate>
                        <start>9322</start>
                        <end>9438</end>
                        <enabled>true</enabled>
                        <in>0</in>
                        <out>116</out>
                        <file id="972_0437_01_2_9A81EBA1D816415D8C3A.mov 2">
                            <duration>116</duration>
                            <rate>
                                <timebase>25</timebase>
                                <ntsc>false</ntsc>
                            </rate>
                            <name>972_0437_01_2_9A81EBA1D816415D8C3A.mov</name>
                            <pathurl>file:///Capture1/EDIUS/EDIUS7_Color/colored/pasyans_v3/972_0437_01_2_9A81EBA1D816415D8C3A_V1-0020.mov</pathurl>
                            <timecode>
                                <string>00:06:12:22</string>
                                <displayformat>NDF</displayformat>
                                <rate>
                                    <timebase>25</timebase>
                                    <ntsc>false</ntsc>
                                </rate>
                            </timecode>
                            <media>
                                <video>
                                    <duration>116</duration>
                                    <samplecharacteristics>
                                        <width>1920</width>
                                        <height>1080</height>
                                    </samplecharacteristics>
                                </video>
                            </media>
                        </file>
                        <compositemode>normal</compositemode>
                        <filter>
                            <enabled>true</enabled>
                            <start>0</start>
                            <end>115</end>
                            <effect>
                                <name>Opacity</name>
                                <effectid>opacity</effectid>
                                <effecttype>motion</effecttype>
                                <mediatype>video</mediatype>
                                <effectcategory>motion</effectcategory>
                                <parameter>
                                    <name>opacity</name>
                                    <parameterid>opacity</parameterid>
                                    <value>100</value>
                                    <valuemin>0</valuemin>
                                    <valuemax>100</valuemax>
                                </parameter>
                            </effect>
                        </filter>
                    </clipitem>
                    <clipitem id="246_0922_01_4_B2E99C1B539248F198A0.mov 0">
                        <name>246_0922_01_4_B2E99C1B539248F198A0.mov</name>
                        <duration>87</duration>
                        <rate>
                            <timebase>25</timebase>
                            <ntsc>false</ntsc>
                        </rate>
                        <start>9438</start>
                        <end>9526</end>
                        <enabled>true</enabled>
                        <in>0</in>
                        <out>88</out>
                        <file id="246_0922_01_4_B2E99C1B539248F198A0.mov 2">
                            <duration>88</duration>
                            <rate>
                                <timebase>25</timebase>
                                <ntsc>false</ntsc>
                            </rate>
                            <name>246_0922_01_4_B2E99C1B539248F198A0.mov</name>
                            <pathurl>file:///Capture1/EDIUS/EDIUS7_Color/colored/pasyans_v3/246_0922_01_4_B2E99C1B539248F198A0_V1-0021.mov</pathurl>
                            <timecode>
                                <string>00:06:17:13</string>
                                <displayformat>NDF</displayformat>
                                <rate>
                                    <timebase>25</timebase>
                                    <ntsc>false</ntsc>
                                </rate>
                            </timecode>
                            <media>
                                <video>
                                    <duration>88</duration>
                                    <samplecharacteristics>
                                        <width>1920</width>
                                        <height>1080</height>
                                    </samplecharacteristics>
                                </video>
                            </media>
                        </file>
                        <compositemode>normal</compositemode>
                        <filter>
                            <enabled>true</enabled>
                            <start>0</start>
                            <end>87</end>
                            <effect>
                                <name>Opacity</name>
                                <effectid>opacity</effectid>
                                <effecttype>motion</effecttype>
                                <mediatype>video</mediatype>
                                <effectcategory>motion</effectcategory>
                                <parameter>
                                    <name>opacity</name>
                                    <parameterid>opacity</parameterid>
                                    <value>100</value>
                                    <valuemin>0</valuemin>
                                    <valuemax>100</valuemax>
                                </parameter>
                            </effect>
                        </filter>
                    </clipitem>
                    <clipitem id="972_0437_01_3_452D1A6E028040668673.mov 0">
                        <name>972_0437_01_3_452D1A6E028040668673.mov</name>
                        <duration>145</duration>
                        <rate>
                            <timebase>25</timebase>
                            <ntsc>false</ntsc>
                        </rate>
                        <start>9526</start>
                        <end>9672</end>
                        <enabled>true</enabled>
                        <in>0</in>
                        <out>146</out>
                        <file id="972_0437_01_3_452D1A6E028040668673.mov 2">
                            <duration>146</duration>
                            <rate>
                                <timebase>25</timebase>
                                <ntsc>false</ntsc>
                            </rate>
                            <name>972_0437_01_3_452D1A6E028040668673.mov</name>
                            <pathurl>file:///Capture1/EDIUS/EDIUS7_Color/colored/pasyans_v3/972_0437_01_3_452D1A6E028040668673_V1-0022.mov</pathurl>
                            <timecode>
                                <string>00:06:21:01</string>
                                <displayformat>NDF</displayformat>
                                <rate>
                                    <timebase>25</timebase>
                                    <ntsc>false</ntsc>
                                </rate>
                            </timecode>
                            <media>
                                <video>
                                    <duration>146</duration>
                                    <samplecharacteristics>
                                        <width>1920</width>
                                        <height>1080</height>
                                    </samplecharacteristics>
                                </video>
                            </media>
                        </file>
                        <compositemode>normal</compositemode>
                        <filter>
                            <enabled>true</enabled>
                            <start>0</start>
                            <end>145</end>
                            <effect>
                                <name>Opacity</name>
                                <effectid>opacity</effectid>
                                <effecttype>motion</effecttype>
                                <mediatype>video</mediatype>
                                <effectcategory>motion</effectcategory>
                                <parameter>
                                    <name>opacity</name>
                                    <parameterid>opacity</parameterid>
                                    <value>100</value>
                                    <valuemin>0</valuemin>
                                    <valuemax>100</valuemax>
                                </parameter>
                            </effect>
                        </filter>
                    </clipitem>
                    <clipitem id="общий план 2_2_DE19B0360E074BD39420.mov 0">
                        <name>общий план 2_2_DE19B0360E074BD39420.mov</name>
                        <duration>123</duration>
                        <rate>
                            <timebase>25</timebase>
                            <ntsc>false</ntsc>
                        </rate>
                        <start>9672</start>
                        <end>9796</end>
                        <enabled>true</enabled>
                        <in>0</in>
                        <out>124</out>
                        <file id="общий план 2_2_DE19B0360E074BD39420.mov 2">
                            <duration>124</duration>
                            <rate>
                                <timebase>25</timebase>
                                <ntsc>false</ntsc>
                            </rate>
                            <name>общий план 2_2_DE19B0360E074BD39420.mov</name>
                            <pathurl>file:///Capture1/EDIUS/EDIUS7_Color/colored/pasyans_v3/%D0%BE%D0%B1%D1%89%D0%B8%D0%B9%20%D0%BF%D0%BB%D0%B0%D0%BD%202_2_DE19B0360E074BD39420_V1-0023.mov</pathurl>
                            <timecode>
                                <string>00:06:26:22</string>
                                <displayformat>NDF</displayformat>
                                <rate>
                                    <timebase>25</timebase>
                                    <ntsc>false</ntsc>
                                </rate>
                            </timecode>
                            <media>
                                <video>
                                    <duration>124</duration>
                                    <samplecharacteristics>
                                        <width>1920</width>
                                        <height>1080</height>
                                    </samplecharacteristics>
                                </video>
                            </media>
                        </file>
                        <compositemode>normal</compositemode>
                        <filter>
                            <enabled>true</enabled>
                            <start>0</start>
                            <end>123</end>
                            <effect>
                                <name>Opacity</name>
                                <effectid>opacity</effectid>
                                <effecttype>motion</effecttype>
                                <mediatype>video</mediatype>
                                <effectcategory>motion</effectcategory>
                                <parameter>
                                    <name>opacity</name>
                                    <parameterid>opacity</parameterid>
                                    <value>100</value>
                                    <valuemin>0</valuemin>
                                    <valuemax>100</valuemax>
                                </parameter>
                            </effect>
                        </filter>
                    </clipitem>
                    <clipitem id="972_0437_01_4_57E6DC7CE8274868BA6D.mov 0">
                        <name>972_0437_01_4_57E6DC7CE8274868BA6D.mov</name>
                        <duration>79</duration>
                        <rate>
                            <timebase>25</timebase>
                            <ntsc>false</ntsc>
                        </rate>
                        <start>9796</start>
                        <end>9875</end>
                        <enabled>true</enabled>
                        <in>0</in>
                        <out>79</out>
                        <file id="972_0437_01_4_57E6DC7CE8274868BA6D.mov 2">
                            <duration>79</duration>
                            <rate>
                                <timebase>25</timebase>
                                <ntsc>false</ntsc>
                            </rate>
                            <name>972_0437_01_4_57E6DC7CE8274868BA6D.mov</name>
                            <pathurl>file:///Capture1/EDIUS/EDIUS7_Color/colored/pasyans_v3/972_0437_01_4_57E6DC7CE8274868BA6D_V1-0024.mov</pathurl>
                            <timecode>
                                <string>00:06:31:21</string>
                                <displayformat>NDF</displayformat>
                                <rate>
                                    <timebase>25</timebase>
                                    <ntsc>false</ntsc>
                                </rate>
                            </timecode>
                            <media>
                                <video>
                                    <duration>79</duration>
                                    <samplecharacteristics>
                                        <width>1920</width>
                                        <height>1080</height>
                                    </samplecharacteristics>
                                </video>
                            </media>
                        </file>
                        <compositemode>normal</compositemode>
                        <filter>
                            <enabled>true</enabled>
                            <start>0</start>
                            <end>79</end>
                            <effect>
                                <name>Opacity</name>
                                <effectid>opacity</effectid>
                                <effecttype>motion</effecttype>
                                <mediatype>video</mediatype>
                                <effectcategory>motion</effectcategory>
                                <parameter>
                                    <name>opacity</name>
                                    <parameterid>opacity</parameterid>
                                    <value>100</value>
                                    <valuemin>0</valuemin>
                                    <valuemax>100</valuemax>
                                </parameter>
                            </effect>
                        </filter>
                    </clipitem>
                    <clipitem id="общий план 2_3_C5EDF29C6C934D3084A2.mov 0">
                        <name>общий план 2_3_C5EDF29C6C934D3084A2.mov</name>
                        <duration>134</duration>
                        <rate>
                            <timebase>25</timebase>
                            <ntsc>false</ntsc>
                        </rate>
                        <start>9875</start>
                        <end>10010</end>
                        <enabled>true</enabled>
                        <in>0</in>
                        <out>135</out>
                        <file id="общий план 2_3_C5EDF29C6C934D3084A2.mov 2">
                            <duration>135</duration>
                            <rate>
                                <timebase>25</timebase>
                                <ntsc>false</ntsc>
                            </rate>
                            <name>общий план 2_3_C5EDF29C6C934D3084A2.mov</name>
                            <pathurl>file:///Capture1/EDIUS/EDIUS7_Color/colored/pasyans_v3/%D0%BE%D0%B1%D1%89%D0%B8%D0%B9%20%D0%BF%D0%BB%D0%B0%D0%BD%202_3_C5EDF29C6C934D3084A2_V1-0025.mov</pathurl>
                            <timecode>
                                <string>00:06:35:00</string>
                                <displayformat>NDF</displayformat>
                                <rate>
                                    <timebase>25</timebase>
                                    <ntsc>false</ntsc>
                                </rate>
                            </timecode>
                            <media>
                                <video>
                                    <duration>135</duration>
                                    <samplecharacteristics>
                                        <width>1920</width>
                                        <height>1080</height>
                                    </samplecharacteristics>
                                </video>
                            </media>
                        </file>
                        <compositemode>normal</compositemode>
                        <filter>
                            <enabled>true</enabled>
                            <start>0</start>
                            <end>134</end>
                            <effect>
                                <name>Opacity</name>
                                <effectid>opacity</effectid>
                                <effecttype>motion</effecttype>
                                <mediatype>video</mediatype>
                                <effectcategory>motion</effectcategory>
                                <parameter>
                                    <name>opacity</name>
                                    <parameterid>opacity</parameterid>
                                    <value>100</value>
                                    <valuemin>0</valuemin>
                                    <valuemax>100</valuemax>
                                </parameter>
                            </effect>
                        </filter>
                    </clipitem>
                    <clipitem id="972_0437_01_5_3E91C4C8AD1A41E885DB.mov 0">
                        <name>972_0437_01_5_3E91C4C8AD1A41E885DB.mov</name>
                        <duration>106</duration>
                        <rate>
                            <timebase>25</timebase>
                            <ntsc>false</ntsc>
                        </rate>
                        <start>10010</start>
                        <end>10117</end>
                        <enabled>true</enabled>
                        <in>0</in>
                        <out>107</out>
                        <file id="972_0437_01_5_3E91C4C8AD1A41E885DB.mov 2">
                            <duration>107</duration>
                            <rate>
                                <timebase>25</timebase>
                                <ntsc>false</ntsc>
                            </rate>
                            <name>972_0437_01_5_3E91C4C8AD1A41E885DB.mov</name>
                            <pathurl>file:///Capture1/EDIUS/EDIUS7_Color/colored/pasyans_v3/972_0437_01_5_3E91C4C8AD1A41E885DB_V1-0026.mov</pathurl>
                            <timecode>
                                <string>00:06:40:10</string>
                                <displayformat>NDF</displayformat>
                                <rate>
                                    <timebase>25</timebase>
                                    <ntsc>false</ntsc>
                                </rate>
                            </timecode>
                            <media>
                                <video>
                                    <duration>107</duration>
                                    <samplecharacteristics>
                                        <width>1920</width>
                                        <height>1080</height>
                                    </samplecharacteristics>
                                </video>
                            </media>
                        </file>
                        <compositemode>normal</compositemode>
                        <filter>
                            <enabled>true</enabled>
                            <start>0</start>
                            <end>106</end>
                            <effect>
                                <name>Opacity</name>
                                <effectid>opacity</effectid>
                                <effecttype>motion</effecttype>
                                <mediatype>video</mediatype>
                                <effectcategory>motion</effectcategory>
                                <parameter>
                                    <name>opacity</name>
                                    <parameterid>opacity</parameterid>
                                    <value>100</value>
                                    <valuemin>0</valuemin>
                                    <valuemax>100</valuemax>
                                </parameter>
                            </effect>
                        </filter>
                    </clipitem>
                    <clipitem id="246_0922_01_5_05B42472D05949AEBC8F.mov 0">
                        <name>246_0922_01_5_05B42472D05949AEBC8F.mov</name>
                        <duration>101</duration>
                        <rate>
                            <timebase>25</timebase>
                            <ntsc>false</ntsc>
                        </rate>
                        <start>10117</start>
                        <end>10219</end>
                        <enabled>true</enabled>
                        <in>0</in>
                        <out>102</out>
                        <file id="246_0922_01_5_05B42472D05949AEBC8F.mov 2">
                            <duration>102</duration>
                            <rate>
                                <timebase>25</timebase>
                                <ntsc>false</ntsc>
                            </rate>
                            <name>246_0922_01_5_05B42472D05949AEBC8F.mov</name>
                            <pathurl>file:///Capture1/EDIUS/EDIUS7_Color/colored/pasyans_v3/246_0922_01_5_05B42472D05949AEBC8F_V1-0027.mov</pathurl>
                            <timecode>
                                <string>00:06:44:17</string>
                                <displayformat>NDF</displayformat>
                                <rate>
                                    <timebase>25</timebase>
                                    <ntsc>false</ntsc>
                                </rate>
                            </timecode>
                            <media>
                                <video>
                                    <duration>102</duration>
                                    <samplecharacteristics>
                                        <width>1920</width>
                                        <height>1080</height>
                                    </samplecharacteristics>
                                </video>
                            </media>
                        </file>
                        <compositemode>normal</compositemode>
                        <filter>
                            <enabled>true</enabled>
                            <start>0</start>
                            <end>101</end>
                            <effect>
                                <name>Opacity</name>
                                <effectid>opacity</effectid>
                                <effecttype>motion</effecttype>
                                <mediatype>video</mediatype>
                                <effectcategory>motion</effectcategory>
                                <parameter>
                                    <name>opacity</name>
                                    <parameterid>opacity</parameterid>
                                    <value>100</value>
                                    <valuemin>0</valuemin>
                                    <valuemax>100</valuemax>
                                </parameter>
                            </effect>
                        </filter>
                    </clipitem>
                    <clipitem id="КАССЕТНАЯ КАМЕРА 1_7_3B39A25F2FDE491793D1.mov 0">
                        <name>КАССЕТНАЯ КАМЕРА 1_7_3B39A25F2FDE491793D1.mov</name>
                        <duration>105</duration>
                        <rate>
                            <timebase>25</timebase>
                            <ntsc>false</ntsc>
                        </rate>
                        <start>13980</start>
                        <end>14085</end>
                        <enabled>true</enabled>
                        <in>0</in>
                        <out>105</out>
                        <file id="КАССЕТНАЯ КАМЕРА 1_7_3B39A25F2FDE491793D1.mov 2">
                            <duration>105</duration>
                            <rate>
                                <timebase>25</timebase>
                                <ntsc>false</ntsc>
                            </rate>
                            <name>КАССЕТНАЯ КАМЕРА 1_7_3B39A25F2FDE491793D1.mov</name>
                            <pathurl>file:///Capture1/EDIUS/EDIUS7_Color/colored/pasyans_v3/%D0%9A%D0%90%D0%A1%D0%A1%D0%95%D0%A2%D0%9D%D0%90%D0%AF%20%D0%9A%D0%90%D0%9C%D0%95%D0%A0%D0%90%201_7_3B39A25F2FDE491793D1_V1-0028.mov</pathurl>
                            <timecode>
                                <string>00:09:19:05</string>
                                <displayformat>NDF</displayformat>
                                <rate>
                                    <timebase>25</timebase>
                                    <ntsc>false</ntsc>
                                </rate>
                            </timecode>
                            <media>
                                <video>
                                    <duration>105</duration>
                                    <samplecharacteristics>
                                        <width>1920</width>
                                        <height>1080</height>
                                    </samplecharacteristics>
                                </video>
                            </media>
                        </file>
                        <compositemode>normal</compositemode>
                        <filter>
                            <enabled>true</enabled>
                            <start>0</start>
                            <end>105</end>
                            <effect>
                                <name>Opacity</name>
                                <effectid>opacity</effectid>
                                <effecttype>motion</effecttype>
                                <mediatype>video</mediatype>
                                <effectcategory>motion</effectcategory>
                                <parameter>
                                    <name>opacity</name>
                                    <parameterid>opacity</parameterid>
                                    <value>100</value>
                                    <valuemin>0</valuemin>
                                    <valuemax>100</valuemax>
                                </parameter>
                            </effect>
                        </filter>
                    </clipitem>
                    <clipitem id="общий план 2_4_EC593A862BCA45139E97.mov 0">
                        <name>общий план 2_4_EC593A862BCA45139E97.mov</name>
                        <duration>143</duration>
                        <rate>
                            <timebase>25</timebase>
                            <ntsc>false</ntsc>
                        </rate>
                        <start>14085</start>
                        <end>14228</end>
                        <enabled>true</enabled>
                        <in>0</in>
                        <out>143</out>
                        <file id="общий план 2_4_EC593A862BCA45139E97.mov 2">
                            <duration>143</duration>
                            <rate>
                                <timebase>25</timebase>
                                <ntsc>false</ntsc>
                            </rate>
                            <name>общий план 2_4_EC593A862BCA45139E97.mov</name>
                            <pathurl>file:///Capture1/EDIUS/EDIUS7_Color/colored/pasyans_v3/%D0%BE%D0%B1%D1%89%D0%B8%D0%B9%20%D0%BF%D0%BB%D0%B0%D0%BD%202_4_EC593A862BCA45139E97_V1-0029.mov</pathurl>
                            <timecode>
                                <string>00:09:23:10</string>
                                <displayformat>NDF</displayformat>
                                <rate>
                                    <timebase>25</timebase>
                                    <ntsc>false</ntsc>
                                </rate>
                            </timecode>
                            <media>
                                <video>
                                    <duration>143</duration>
                                    <samplecharacteristics>
                                        <width>1920</width>
                                        <height>1080</height>
                                    </samplecharacteristics>
                                </video>
                            </media>
                        </file>
                        <compositemode>normal</compositemode>
                        <filter>
                            <enabled>true</enabled>
                            <start>0</start>
                            <end>143</end>
                            <effect>
                                <name>Opacity</name>
                                <effectid>opacity</effectid>
                                <effecttype>motion</effecttype>
                                <mediatype>video</mediatype>
                                <effectcategory>motion</effectcategory>
                                <parameter>
                                    <name>opacity</name>
                                    <parameterid>opacity</parameterid>
                                    <value>100</value>
                                    <valuemin>0</valuemin>
                                    <valuemax>100</valuemax>
                                </parameter>
                            </effect>
                        </filter>
                    </clipitem>
                    <clipitem id="972_0437_01_6_C980118EB7124C50BCA0.mov 0">
                        <name>972_0437_01_6_C980118EB7124C50BCA0.mov</name>
                        <duration>131</duration>
                        <rate>
                            <timebase>25</timebase>
                            <ntsc>false</ntsc>
                        </rate>
                        <start>14228</start>
                        <end>14359</end>
                        <enabled>true</enabled>
                        <in>0</in>
                        <out>131</out>
                        <file id="972_0437_01_6_C980118EB7124C50BCA0.mov 2">
                            <duration>131</duration>
                            <rate>
                                <timebase>25</timebase>
                                <ntsc>false</ntsc>
                            </rate>
                            <name>972_0437_01_6_C980118EB7124C50BCA0.mov</name>
                            <pathurl>file:///Capture1/EDIUS/EDIUS7_Color/colored/pasyans_v3/972_0437_01_6_C980118EB7124C50BCA0_V1-0030.mov</pathurl>
                            <timecode>
                                <string>00:09:29:03</string>
                                <displayformat>NDF</displayformat>
                                <rate>
                                    <timebase>25</timebase>
                                    <ntsc>false</ntsc>
                                </rate>
                            </timecode>
                            <media>
                                <video>
                                    <duration>131</duration>
                                    <samplecharacteristics>
                                        <width>1920</width>
                                        <height>1080</height>
                                    </samplecharacteristics>
                                </video>
                            </media>
                        </file>
                        <compositemode>normal</compositemode>
                        <filter>
                            <enabled>true</enabled>
                            <start>0</start>
                            <end>131</end>
                            <effect>
                                <name>Opacity</name>
                                <effectid>opacity</effectid>
                                <effecttype>motion</effecttype>
                                <mediatype>video</mediatype>
                                <effectcategory>motion</effectcategory>
                                <parameter>
                                    <name>opacity</name>
                                    <parameterid>opacity</parameterid>
                                    <value>100</value>
                                    <valuemin>0</valuemin>
                                    <valuemax>100</valuemax>
                                </parameter>
                            </effect>
                        </filter>
                    </clipitem>
                    <clipitem id="общий план 2_5_ADC786FEE61C478AA463.mov 0">
                        <name>общий план 2_5_ADC786FEE61C478AA463.mov</name>
                        <duration>115</duration>
                        <rate>
                            <timebase>25</timebase>
                            <ntsc>false</ntsc>
                        </rate>
                        <start>14359</start>
                        <end>14474</end>
                        <enabled>true</enabled>
                        <in>0</in>
                        <out>115</out>
                        <file id="общий план 2_5_ADC786FEE61C478AA463.mov 2">
                            <duration>115</duration>
                            <rate>
                                <timebase>25</timebase>
                                <ntsc>false</ntsc>
                            </rate>
                            <name>общий план 2_5_ADC786FEE61C478AA463.mov</name>
                            <pathurl>file:///Capture1/EDIUS/EDIUS7_Color/colored/pasyans_v3/%D0%BE%D0%B1%D1%89%D0%B8%D0%B9%20%D0%BF%D0%BB%D0%B0%D0%BD%202_5_ADC786FEE61C478AA463_V1-0031.mov</pathurl>
                            <timecode>
                                <string>00:09:34:09</string>
                                <displayformat>NDF</displayformat>
                                <rate>
                                    <timebase>25</timebase>
                                    <ntsc>false</ntsc>
                                </rate>
                            </timecode>
                            <media>
                                <video>
                                    <duration>115</duration>
                                    <samplecharacteristics>
                                        <width>1920</width>
                                        <height>1080</height>
                                    </samplecharacteristics>
                                </video>
                            </media>
                        </file>
                        <compositemode>normal</compositemode>
                        <filter>
                            <enabled>true</enabled>
                            <start>0</start>
                            <end>115</end>
                            <effect>
                                <name>Opacity</name>
                                <effectid>opacity</effectid>
                                <effecttype>motion</effecttype>
                                <mediatype>video</mediatype>
                                <effectcategory>motion</effectcategory>
                                <parameter>
                                    <name>opacity</name>
                                    <parameterid>opacity</parameterid>
                                    <value>100</value>
                                    <valuemin>0</valuemin>
                                    <valuemax>100</valuemax>
                                </parameter>
                            </effect>
                        </filter>
                    </clipitem>
                    <clipitem id="246_0922_01_6_9158B641807C4A81A6D0.mov 0">
                        <name>246_0922_01_6_9158B641807C4A81A6D0.mov</name>
                        <duration>81</duration>
                        <rate>
                            <timebase>25</timebase>
                            <ntsc>false</ntsc>
                        </rate>
                        <start>14474</start>
                        <end>14556</end>
                        <enabled>true</enabled>
                        <in>0</in>
                        <out>82</out>
                        <file id="246_0922_01_6_9158B641807C4A81A6D0.mov 2">
                            <duration>82</duration>
                            <rate>
                                <timebase>25</timebase>
                                <ntsc>false</ntsc>
                            </rate>
                            <name>246_0922_01_6_9158B641807C4A81A6D0.mov</name>
                            <pathurl>file:///Capture1/EDIUS/EDIUS7_Color/colored/pasyans_v3/246_0922_01_6_9158B641807C4A81A6D0_V1-0032.mov</pathurl>
                            <timecode>
                                <string>00:09:38:24</string>
                                <displayformat>NDF</displayformat>
                                <rate>
                                    <timebase>25</timebase>
                                    <ntsc>false</ntsc>
                                </rate>
                            </timecode>
                            <media>
                                <video>
                                    <duration>82</duration>
                                    <samplecharacteristics>
                                        <width>1920</width>
                                        <height>1080</height>
                                    </samplecharacteristics>
                                </video>
                            </media>
                        </file>
                        <compositemode>normal</compositemode>
                        <filter>
                            <enabled>true</enabled>
                            <start>0</start>
                            <end>81</end>
                            <effect>
                                <name>Opacity</name>
                                <effectid>opacity</effectid>
                                <effecttype>motion</effecttype>
                                <mediatype>video</mediatype>
                                <effectcategory>motion</effectcategory>
                                <parameter>
                                    <name>opacity</name>
                                    <parameterid>opacity</parameterid>
                                    <value>100</value>
                                    <valuemin>0</valuemin>
                                    <valuemax>100</valuemax>
                                </parameter>
                            </effect>
                        </filter>
                    </clipitem>
                    <clipitem id="КАССЕТНАЯ КАМЕРА 1_8_3B01E5F1C83247B0B60E.mov 0">
                        <name>КАССЕТНАЯ КАМЕРА 1_8_3B01E5F1C83247B0B60E.mov</name>
                        <duration>78</duration>
                        <rate>
                            <timebase>25</timebase>
                            <ntsc>false</ntsc>
                        </rate>
                        <start>14556</start>
                        <end>14635</end>
                        <enabled>true</enabled>
                        <in>0</in>
                        <out>79</out>
                        <file id="КАССЕТНАЯ КАМЕРА 1_8_3B01E5F1C83247B0B60E.mov 2">
                            <duration>79</duration>
                            <rate>
                                <timebase>25</timebase>
                                <ntsc>false</ntsc>
                            </rate>
                            <name>КАССЕТНАЯ КАМЕРА 1_8_3B01E5F1C83247B0B60E.mov</name>
                            <pathurl>file:///Capture1/EDIUS/EDIUS7_Color/colored/pasyans_v3/%D0%9A%D0%90%D0%A1%D0%A1%D0%95%D0%A2%D0%9D%D0%90%D0%AF%20%D0%9A%D0%90%D0%9C%D0%95%D0%A0%D0%90%201_8_3B01E5F1C83247B0B60E_V1-0033.mov</pathurl>
                            <timecode>
                                <string>00:09:42:06</string>
                                <displayformat>NDF</displayformat>
                                <rate>
                                    <timebase>25</timebase>
                                    <ntsc>false</ntsc>
                                </rate>
                            </timecode>
                            <media>
                                <video>
                                    <duration>79</duration>
                                    <samplecharacteristics>
                                        <width>1920</width>
                                        <height>1080</height>
                                    </samplecharacteristics>
                                </video>
                            </media>
                        </file>
                        <compositemode>normal</compositemode>
                        <filter>
                            <enabled>true</enabled>
                            <start>0</start>
                            <end>78</end>
                            <effect>
                                <name>Opacity</name>
                                <effectid>opacity</effectid>
                                <effecttype>motion</effecttype>
                                <mediatype>video</mediatype>
                                <effectcategory>motion</effectcategory>
                                <parameter>
                                    <name>opacity</name>
                                    <parameterid>opacity</parameterid>
                                    <value>100</value>
                                    <valuemin>0</valuemin>
                                    <valuemax>100</valuemax>
                                </parameter>
                            </effect>
                        </filter>
                    </clipitem>
                    <clipitem id="КАССЕТНАЯ КАМЕРА 1_9_A6F7A57AC4064CE6A04B.mov 0">
                        <name>КАССЕТНАЯ КАМЕРА 1_9_A6F7A57AC4064CE6A04B.mov</name>
                        <duration>94</duration>
                        <rate>
                            <timebase>25</timebase>
                            <ntsc>false</ntsc>
                        </rate>
                        <start>15198</start>
                        <end>15293</end>
                        <enabled>true</enabled>
                        <in>0</in>
                        <out>95</out>
                        <file id="КАССЕТНАЯ КАМЕРА 1_9_A6F7A57AC4064CE6A04B.mov 2">
                            <duration>95</duration>
                            <rate>
                                <timebase>25</timebase>
                                <ntsc>false</ntsc>
                            </rate>
                            <name>КАССЕТНАЯ КАМЕРА 1_9_A6F7A57AC4064CE6A04B.mov</name>
                            <pathurl>file:///Capture1/EDIUS/EDIUS7_Color/colored/pasyans_v3/%D0%9A%D0%90%D0%A1%D0%A1%D0%95%D0%A2%D0%9D%D0%90%D0%AF%20%D0%9A%D0%90%D0%9C%D0%95%D0%A0%D0%90%201_9_A6F7A57AC4064CE6A04B_V1-0034.mov</pathurl>
                            <timecode>
                                <string>00:10:07:23</string>
                                <displayformat>NDF</displayformat>
                                <rate>
                                    <timebase>25</timebase>
                                    <ntsc>false</ntsc>
                                </rate>
                            </timecode>
                            <media>
                                <video>
                                    <duration>95</duration>
                                    <samplecharacteristics>
                                        <width>1920</width>
                                        <height>1080</height>
                                    </samplecharacteristics>
                                </video>
                            </media>
                        </file>
                        <compositemode>normal</compositemode>
                        <filter>
                            <enabled>true</enabled>
                            <start>0</start>
                            <end>94</end>
                            <effect>
                                <name>Opacity</name>
                                <effectid>opacity</effectid>
                                <effecttype>motion</effecttype>
                                <mediatype>video</mediatype>
                                <effectcategory>motion</effectcategory>
                                <parameter>
                                    <name>opacity</name>
                                    <parameterid>opacity</parameterid>
                                    <value>100</value>
                                    <valuemin>0</valuemin>
                                    <valuemax>100</valuemax>
                                </parameter>
                            </effect>
                        </filter>
                    </clipitem>
                    <clipitem id="общий план 2_6_0BBBD3CA68F045CA909B.mov 0">
                        <name>общий план 2_6_0BBBD3CA68F045CA909B.mov</name>
                        <duration>88</duration>
                        <rate>
                            <timebase>25</timebase>
                            <ntsc>false</ntsc>
                        </rate>
                        <start>15293</start>
                        <end>15382</end>
                        <enabled>true</enabled>
                        <in>0</in>
                        <out>89</out>
                        <file id="общий план 2_6_0BBBD3CA68F045CA909B.mov 2">
                            <duration>89</duration>
                            <rate>
                                <timebase>25</timebase>
                                <ntsc>false</ntsc>
                            </rate>
                            <name>общий план 2_6_0BBBD3CA68F045CA909B.mov</name>
                            <pathurl>file:///Capture1/EDIUS/EDIUS7_Color/colored/pasyans_v3/%D0%BE%D0%B1%D1%89%D0%B8%D0%B9%20%D0%BF%D0%BB%D0%B0%D0%BD%202_6_0BBBD3CA68F045CA909B_V1-0035.mov</pathurl>
                            <timecode>
                                <string>00:10:11:18</string>
                                <displayformat>NDF</displayformat>
                                <rate>
                                    <timebase>25</timebase>
                                    <ntsc>false</ntsc>
                                </rate>
                            </timecode>
                            <media>
                                <video>
                                    <duration>89</duration>
                                    <samplecharacteristics>
                                        <width>1920</width>
                                        <height>1080</height>
                                    </samplecharacteristics>
                                </video>
                            </media>
                        </file>
                        <compositemode>normal</compositemode>
                        <filter>
                            <enabled>true</enabled>
                            <start>0</start>
                            <end>88</end>
                            <effect>
                                <name>Opacity</name>
                                <effectid>opacity</effectid>
                                <effecttype>motion</effecttype>
                                <mediatype>video</mediatype>
                                <effectcategory>motion</effectcategory>
                                <parameter>
                                    <name>opacity</name>
                                    <parameterid>opacity</parameterid>
                                    <value>100</value>
                                    <valuemin>0</valuemin>
                                    <valuemax>100</valuemax>
                                </parameter>
                            </effect>
                        </filter>
                    </clipitem>
                    <clipitem id="972_0437_01_7_A553E3C9175C4C5C9C04.mov 0">
                        <name>972_0437_01_7_A553E3C9175C4C5C9C04.mov</name>
                        <duration>78</duration>
                        <rate>
                            <timebase>25</timebase>
                            <ntsc>false</ntsc>
                        </rate>
                        <start>15382</start>
                        <end>15461</end>
                        <enabled>true</enabled>
                        <in>0</in>
                        <out>79</out>
                        <file id="972_0437_01_7_A553E3C9175C4C5C9C04.mov 2">
                            <duration>79</duration>
                            <rate>
                                <timebase>25</timebase>
                                <ntsc>false</ntsc>
                            </rate>
                            <name>972_0437_01_7_A553E3C9175C4C5C9C04.mov</name>
                            <pathurl>file:///Capture1/EDIUS/EDIUS7_Color/colored/pasyans_v3/972_0437_01_7_A553E3C9175C4C5C9C04_V1-0036.mov</pathurl>
                            <timecode>
                                <string>00:10:15:07</string>
                                <displayformat>NDF</displayformat>
                                <rate>
                                    <timebase>25</timebase>
                                    <ntsc>false</ntsc>
                                </rate>
                            </timecode>
                            <media>
                                <video>
                                    <duration>79</duration>
                                    <samplecharacteristics>
                                        <width>1920</width>
                                        <height>1080</height>
                                    </samplecharacteristics>
                                </video>
                            </media>
                        </file>
                        <compositemode>normal</compositemode>
                        <filter>
                            <enabled>true</enabled>
                            <start>0</start>
                            <end>78</end>
                            <effect>
                                <name>Opacity</name>
                                <effectid>opacity</effectid>
                                <effecttype>motion</effecttype>
                                <mediatype>video</mediatype>
                                <effectcategory>motion</effectcategory>
                                <parameter>
                                    <name>opacity</name>
                                    <parameterid>opacity</parameterid>
                                    <value>100</value>
                                    <valuemin>0</valuemin>
                                    <valuemax>100</valuemax>
                                </parameter>
                            </effect>
                        </filter>
                    </clipitem>
                    <clipitem id="246_0922_01_7_53846EE8BDD0469796F9.mov 0">
                        <name>246_0922_01_7_53846EE8BDD0469796F9.mov</name>
                        <duration>128</duration>
                        <rate>
                            <timebase>25</timebase>
                            <ntsc>false</ntsc>
                        </rate>
                        <start>15461</start>
                        <end>15590</end>
                        <enabled>true</enabled>
                        <in>0</in>
                        <out>129</out>
                        <file id="246_0922_01_7_53846EE8BDD0469796F9.mov 2">
                            <duration>129</duration>
                            <rate>
                                <timebase>25</timebase>
                                <ntsc>false</ntsc>
                            </rate>
                            <name>246_0922_01_7_53846EE8BDD0469796F9.mov</name>
                            <pathurl>file:///Capture1/EDIUS/EDIUS7_Color/colored/pasyans_v3/246_0922_01_7_53846EE8BDD0469796F9_V1-0037.mov</pathurl>
                            <timecode>
                                <string>00:10:18:11</string>
                                <displayformat>NDF</displayformat>
                                <rate>
                                    <timebase>25</timebase>
                                    <ntsc>false</ntsc>
                                </rate>
                            </timecode>
                            <media>
                                <video>
                                    <duration>129</duration>
                                    <samplecharacteristics>
                                        <width>1920</width>
                                        <height>1080</height>
                                    </samplecharacteristics>
                                </video>
                            </media>
                        </file>
                        <compositemode>normal</compositemode>
                        <filter>
                            <enabled>true</enabled>
                            <start>0</start>
                            <end>128</end>
                            <effect>
                                <name>Opacity</name>
                                <effectid>opacity</effectid>
                                <effecttype>motion</effecttype>
                                <mediatype>video</mediatype>
                                <effectcategory>motion</effectcategory>
                                <parameter>
                                    <name>opacity</name>
                                    <parameterid>opacity</parameterid>
                                    <value>100</value>
                                    <valuemin>0</valuemin>
                                    <valuemax>100</valuemax>
                                </parameter>
                            </effect>
                        </filter>
                    </clipitem>
                    <clipitem id="GOPR8503_2_E2BDD05679AB4E9C9719.mov 0">
                        <name>GOPR8503_2_E2BDD05679AB4E9C9719.mov</name>
                        <duration>112</duration>
                        <rate>
                            <timebase>25</timebase>
                            <ntsc>false</ntsc>
                        </rate>
                        <start>15590</start>
                        <end>15703</end>
                        <enabled>true</enabled>
                        <in>0</in>
                        <out>113</out>
                        <file id="GOPR8503_2_E2BDD05679AB4E9C9719.mov 2">
                            <duration>113</duration>
                            <rate>
                                <timebase>25</timebase>
                                <ntsc>false</ntsc>
                            </rate>
                            <name>GOPR8503_2_E2BDD05679AB4E9C9719.mov</name>
                            <pathurl>file:///Capture1/EDIUS/EDIUS7_Color/colored/pasyans_v3/GOPR8503_2_E2BDD05679AB4E9C9719_V1-0038.mov</pathurl>
                            <timecode>
                                <string>00:10:23:15</string>
                                <displayformat>NDF</displayformat>
                                <rate>
                                    <timebase>25</timebase>
                                    <ntsc>false</ntsc>
                                </rate>
                            </timecode>
                            <media>
                                <video>
                                    <duration>113</duration>
                                    <samplecharacteristics>
                                        <width>1920</width>
                                        <height>1080</height>
                                    </samplecharacteristics>
                                </video>
                            </media>
                        </file>
                        <compositemode>normal</compositemode>
                        <filter>
                            <enabled>true</enabled>
                            <start>0</start>
                            <end>112</end>
                            <effect>
                                <name>Opacity</name>
                                <effectid>opacity</effectid>
                                <effecttype>motion</effecttype>
                                <mediatype>video</mediatype>
                                <effectcategory>motion</effectcategory>
                                <parameter>
                                    <name>opacity</name>
                                    <parameterid>opacity</parameterid>
                                    <value>100</value>
                                    <valuemin>0</valuemin>
                                    <valuemax>100</valuemax>
                                </parameter>
                            </effect>
                        </filter>
                    </clipitem>
                    <clipitem id="246_0922_01_8_AB506249357A496E9522.mov 0">
                        <name>246_0922_01_8_AB506249357A496E9522.mov</name>
                        <duration>61</duration>
                        <rate>
                            <timebase>25</timebase>
                            <ntsc>false</ntsc>
                        </rate>
                        <start>15703</start>
                        <end>15764</end>
                        <enabled>true</enabled>
                        <in>0</in>
                        <out>61</out>
                        <file id="246_0922_01_8_AB506249357A496E9522.mov 2">
                            <duration>61</duration>
                            <rate>
                                <timebase>25</timebase>
                                <ntsc>false</ntsc>
                            </rate>
                            <name>246_0922_01_8_AB506249357A496E9522.mov</name>
                            <pathurl>file:///Capture1/EDIUS/EDIUS7_Color/colored/pasyans_v3/246_0922_01_8_AB506249357A496E9522_V1-0039.mov</pathurl>
                            <timecode>
                                <string>00:10:28:03</string>
                                <displayformat>NDF</displayformat>
                                <rate>
                                    <timebase>25</timebase>
                                    <ntsc>false</ntsc>
                                </rate>
                            </timecode>
                            <media>
                                <video>
                                    <duration>61</duration>
                                    <samplecharacteristics>
                                        <width>1920</width>
                                        <height>1080</height>
                                    </samplecharacteristics>
                                </video>
                            </media>
                        </file>
                        <compositemode>normal</compositemode>
                        <filter>
                            <enabled>true</enabled>
                            <start>0</start>
                            <end>61</end>
                            <effect>
                                <name>Opacity</name>
                                <effectid>opacity</effectid>
                                <effecttype>motion</effecttype>
                                <mediatype>video</mediatype>
                                <effectcategory>motion</effectcategory>
                                <parameter>
                                    <name>opacity</name>
                                    <parameterid>opacity</parameterid>
                                    <value>100</value>
                                    <valuemin>0</valuemin>
                                    <valuemax>100</valuemax>
                                </parameter>
                            </effect>
                        </filter>
                    </clipitem>
                    <clipitem id="общий план 2_7_D53B7481AFE143588A8A.mov 0">
                        <name>общий план 2_7_D53B7481AFE143588A8A.mov</name>
                        <duration>106</duration>
                        <rate>
                            <timebase>25</timebase>
                            <ntsc>false</ntsc>
                        </rate>
                        <start>15764</start>
                        <end>15871</end>
                        <enabled>true</enabled>
                        <in>0</in>
                        <out>107</out>
                        <file id="общий план 2_7_D53B7481AFE143588A8A.mov 2">
                            <duration>107</duration>
                            <rate>
                                <timebase>25</timebase>
                                <ntsc>false</ntsc>
                            </rate>
                            <name>общий план 2_7_D53B7481AFE143588A8A.mov</name>
                            <pathurl>file:///Capture1/EDIUS/EDIUS7_Color/colored/pasyans_v3/%D0%BE%D0%B1%D1%89%D0%B8%D0%B9%20%D0%BF%D0%BB%D0%B0%D0%BD%202_7_D53B7481AFE143588A8A_V1-0040.mov</pathurl>
                            <timecode>
                                <string>00:10:30:14</string>
                                <displayformat>NDF</displayformat>
                                <rate>
                                    <timebase>25</timebase>
                                    <ntsc>false</ntsc>
                                </rate>
                            </timecode>
                            <media>
                                <video>
                                    <duration>107</duration>
                                    <samplecharacteristics>
                                        <width>1920</width>
                                        <height>1080</height>
                                    </samplecharacteristics>
                                </video>
                            </media>
                        </file>
                        <compositemode>normal</compositemode>
                        <filter>
                            <enabled>true</enabled>
                            <start>0</start>
                            <end>106</end>
                            <effect>
                                <name>Opacity</name>
                                <effectid>opacity</effectid>
                                <effecttype>motion</effecttype>
                                <mediatype>video</mediatype>
                                <effectcategory>motion</effectcategory>
                                <parameter>
                                    <name>opacity</name>
                                    <parameterid>opacity</parameterid>
                                    <value>100</value>
                                    <valuemin>0</valuemin>
                                    <valuemax>100</valuemax>
                                </parameter>
                            </effect>
                        </filter>
                    </clipitem>
                    <clipitem id="КАССЕТНАЯ КАМЕРА 1_10_0D352A26C6F04AF391DD.mov 0">
                        <name>КАССЕТНАЯ КАМЕРА 1_10_0D352A26C6F04AF391DD.mov</name>
                        <duration>153</duration>
                        <rate>
                            <timebase>25</timebase>
                            <ntsc>false</ntsc>
                        </rate>
                        <start>15871</start>
                        <end>16025</end>
                        <enabled>true</enabled>
                        <in>0</in>
                        <out>154</out>
                        <file id="КАССЕТНАЯ КАМЕРА 1_10_0D352A26C6F04AF391DD.mov 2">
                            <duration>154</duration>
                            <rate>
                                <timebase>25</timebase>
                                <ntsc>false</ntsc>
                            </rate>
                            <name>КАССЕТНАЯ КАМЕРА 1_10_0D352A26C6F04AF391DD.mov</name>
                            <pathurl>file:///Capture1/EDIUS/EDIUS7_Color/colored/pasyans_v3/%D0%9A%D0%90%D0%A1%D0%A1%D0%95%D0%A2%D0%9D%D0%90%D0%AF%20%D0%9A%D0%90%D0%9C%D0%95%D0%A0%D0%90%201_10_0D352A26C6F04AF391DD_V1-0041.mov</pathurl>
                            <timecode>
                                <string>00:10:34:21</string>
                                <displayformat>NDF</displayformat>
                                <rate>
                                    <timebase>25</timebase>
                                    <ntsc>false</ntsc>
                                </rate>
                            </timecode>
                            <media>
                                <video>
                                    <duration>154</duration>
                                    <samplecharacteristics>
                                        <width>1920</width>
                                        <height>1080</height>
                                    </samplecharacteristics>
                                </video>
                            </media>
                        </file>
                        <compositemode>normal</compositemode>
                        <filter>
                            <enabled>true</enabled>
                            <start>0</start>
                            <end>153</end>
                            <effect>
                                <name>Opacity</name>
                                <effectid>opacity</effectid>
                                <effecttype>motion</effecttype>
                                <mediatype>video</mediatype>
                                <effectcategory>motion</effectcategory>
                                <parameter>
                                    <name>opacity</name>
                                    <parameterid>opacity</parameterid>
                                    <value>100</value>
                                    <valuemin>0</valuemin>
                                    <valuemax>100</valuemax>
                                </parameter>
                            </effect>
                        </filter>
                    </clipitem>
                    <clipitem id="972_0437_01_8_2BAD4B44E4494593B0EB.mov 0">
                        <name>972_0437_01_8_2BAD4B44E4494593B0EB.mov</name>
                        <duration>81</duration>
                        <rate>
                            <timebase>25</timebase>
                            <ntsc>false</ntsc>
                        </rate>
                        <start>16025</start>
                        <end>16106</end>
                        <enabled>true</enabled>
                        <in>0</in>
                        <out>81</out>
                        <file id="972_0437_01_8_2BAD4B44E4494593B0EB.mov 2">
                            <duration>81</duration>
                            <rate>
                                <timebase>25</timebase>
                                <ntsc>false</ntsc>
                            </rate>
                            <name>972_0437_01_8_2BAD4B44E4494593B0EB.mov</name>
                            <pathurl>file:///Capture1/EDIUS/EDIUS7_Color/colored/pasyans_v3/972_0437_01_8_2BAD4B44E4494593B0EB_V1-0042.mov</pathurl>
                            <timecode>
                                <string>00:10:41:00</string>
                                <displayformat>NDF</displayformat>
                                <rate>
                                    <timebase>25</timebase>
                                    <ntsc>false</ntsc>
                                </rate>
                            </timecode>
                            <media>
                                <video>
                                    <duration>81</duration>
                                    <samplecharacteristics>
                                        <width>1920</width>
                                        <height>1080</height>
                                    </samplecharacteristics>
                                </video>
                            </media>
                        </file>
                        <compositemode>normal</compositemode>
                        <filter>
                            <enabled>true</enabled>
                            <start>0</start>
                            <end>81</end>
                            <effect>
                                <name>Opacity</name>
                                <effectid>opacity</effectid>
                                <effecttype>motion</effecttype>
                                <mediatype>video</mediatype>
                                <effectcategory>motion</effectcategory>
                                <parameter>
                                    <name>opacity</name>
                                    <parameterid>opacity</parameterid>
                                    <value>100</value>
                                    <valuemin>0</valuemin>
                                    <valuemax>100</valuemax>
                                </parameter>
                            </effect>
                        </filter>
                    </clipitem>
                    <clipitem id="КАССЕТНАЯ КАМЕРА 1_11_CBCEF700305B4C279C90.mov 0">
                        <name>КАССЕТНАЯ КАМЕРА 1_11_CBCEF700305B4C279C90.mov</name>
                        <duration>137</duration>
                        <rate>
                            <timebase>25</timebase>
                            <ntsc>false</ntsc>
                        </rate>
                        <start>16106</start>
                        <end>16243</end>
                        <enabled>true</enabled>
                        <in>0</in>
                        <out>137</out>
                        <file id="КАССЕТНАЯ КАМЕРА 1_11_CBCEF700305B4C279C90.mov 2">
                            <duration>137</duration>
                            <rate>
                                <timebase>25</timebase>
                                <ntsc>false</ntsc>
                            </rate>
                            <name>КАССЕТНАЯ КАМЕРА 1_11_CBCEF700305B4C279C90.mov</name>
                            <pathurl>file:///Capture1/EDIUS/EDIUS7_Color/colored/pasyans_v3/%D0%9A%D0%90%D0%A1%D0%A1%D0%95%D0%A2%D0%9D%D0%90%D0%AF%20%D0%9A%D0%90%D0%9C%D0%95%D0%A0%D0%90%201_11_CBCEF700305B4C279C90_V1-0043.mov</pathurl>
                            <timecode>
                                <string>00:10:44:06</string>
                                <displayformat>NDF</displayformat>
                                <rate>
                                    <timebase>25</timebase>
                                    <ntsc>false</ntsc>
                                </rate>
                            </timecode>
                            <media>
                                <video>
                                    <duration>137</duration>
                                    <samplecharacteristics>
                                        <width>1920</width>
                                        <height>1080</height>
                                    </samplecharacteristics>
                                </video>
                            </media>
                        </file>
                        <compositemode>normal</compositemode>
                        <filter>
                            <enabled>true</enabled>
                            <start>0</start>
                            <end>137</end>
                            <effect>
                                <name>Opacity</name>
                                <effectid>opacity</effectid>
                                <effecttype>motion</effecttype>
                                <mediatype>video</mediatype>
                                <effectcategory>motion</effectcategory>
                                <parameter>
                                    <name>opacity</name>
                                    <parameterid>opacity</parameterid>
                                    <value>100</value>
                                    <valuemin>0</valuemin>
                                    <valuemax>100</valuemax>
                                </parameter>
                            </effect>
                        </filter>
                    </clipitem>
                    <clipitem id="общий план 2_8_630F3C18594E485084C3.mov 0">
                        <name>общий план 2_8_630F3C18594E485084C3.mov</name>
                        <duration>265</duration>
                        <rate>
                            <timebase>25</timebase>
                            <ntsc>false</ntsc>
                        </rate>
                        <start>21139</start>
                        <end>21404</end>
                        <enabled>true</enabled>
                        <in>0</in>
                        <out>265</out>
                        <file id="общий план 2_8_630F3C18594E485084C3.mov 2">
                            <duration>265</duration>
                            <rate>
                                <timebase>25</timebase>
                                <ntsc>false</ntsc>
                            </rate>
                            <name>общий план 2_8_630F3C18594E485084C3.mov</name>
                            <pathurl>file:///Capture1/EDIUS/EDIUS7_Color/colored/pasyans_v3/%D0%BE%D0%B1%D1%89%D0%B8%D0%B9%20%D0%BF%D0%BB%D0%B0%D0%BD%202_8_630F3C18594E485084C3_V1-0044.mov</pathurl>
                            <timecode>
                                <string>00:14:05:14</string>
                                <displayformat>NDF</displayformat>
                                <rate>
                                    <timebase>25</timebase>
                                    <ntsc>false</ntsc>
                                </rate>
                            </timecode>
                            <media>
                                <video>
                                    <duration>265</duration>
                                    <samplecharacteristics>
                                        <width>1920</width>
                                        <height>1080</height>
                                    </samplecharacteristics>
                                </video>
                            </media>
                        </file>
                        <compositemode>normal</compositemode>
                        <filter>
                            <enabled>true</enabled>
                            <start>0</start>
                            <end>265</end>
                            <effect>
                                <name>Opacity</name>
                                <effectid>opacity</effectid>
                                <effecttype>motion</effecttype>
                                <mediatype>video</mediatype>
                                <effectcategory>motion</effectcategory>
                                <parameter>
                                    <name>opacity</name>
                                    <parameterid>opacity</parameterid>
                                    <value>100</value>
                                    <valuemin>0</valuemin>
                                    <valuemax>100</valuemax>
                                </parameter>
                            </effect>
                        </filter>
                    </clipitem>
                    <clipitem id="972_0437_01_9_8C16FF61FD8E45BF9152.mov 0">
                        <name>972_0437_01_9_8C16FF61FD8E45BF9152.mov</name>
                        <duration>200</duration>
                        <rate>
                            <timebase>25</timebase>
                            <ntsc>false</ntsc>
                        </rate>
                        <start>21404</start>
                        <end>21604</end>
                        <enabled>true</enabled>
                        <in>0</in>
                        <out>200</out>
                        <file id="972_0437_01_9_8C16FF61FD8E45BF9152.mov 2">
                            <duration>200</duration>
                            <rate>
                                <timebase>25</timebase>
                                <ntsc>false</ntsc>
                            </rate>
                            <name>972_0437_01_9_8C16FF61FD8E45BF9152.mov</name>
                            <pathurl>file:///Capture1/EDIUS/EDIUS7_Color/colored/pasyans_v3/972_0437_01_9_8C16FF61FD8E45BF9152_V1-0045.mov</pathurl>
                            <timecode>
                                <string>00:14:16:04</string>
                                <displayformat>NDF</displayformat>
                                <rate>
                                    <timebase>25</timebase>
                                    <ntsc>false</ntsc>
                                </rate>
                            </timecode>
                            <media>
                                <video>
                                    <duration>200</duration>
                                    <samplecharacteristics>
                                        <width>1920</width>
                                        <height>1080</height>
                                    </samplecharacteristics>
                                </video>
                            </media>
                        </file>
                        <compositemode>normal</compositemode>
                        <filter>
                            <enabled>true</enabled>
                            <start>0</start>
                            <end>200</end>
                            <effect>
                                <name>Opacity</name>
                                <effectid>opacity</effectid>
                                <effecttype>motion</effecttype>
                                <mediatype>video</mediatype>
                                <effectcategory>motion</effectcategory>
                                <parameter>
                                    <name>opacity</name>
                                    <parameterid>opacity</parameterid>
                                    <value>100</value>
                                    <valuemin>0</valuemin>
                                    <valuemax>100</valuemax>
                                </parameter>
                            </effect>
                        </filter>
                    </clipitem>
                    <clipitem id="972_0437_01_10_06D2D014D5BD4EC4A77F.mov 0">
                        <name>972_0437_01_10_06D2D014D5BD4EC4A77F.mov</name>
                        <duration>133</duration>
                        <rate>
                            <timebase>25</timebase>
                            <ntsc>false</ntsc>
                        </rate>
                        <start>22948</start>
                        <end>23081</end>
                        <enabled>true</enabled>
                        <in>0</in>
                        <out>133</out>
                        <file id="972_0437_01_10_06D2D014D5BD4EC4A77F.mov 2">
                            <duration>133</duration>
                            <rate>
                                <timebase>25</timebase>
                                <ntsc>false</ntsc>
                            </rate>
                            <name>972_0437_01_10_06D2D014D5BD4EC4A77F.mov</name>
                            <pathurl>file:///Capture1/EDIUS/EDIUS7_Color/colored/pasyans_v3/972_0437_01_10_06D2D014D5BD4EC4A77F_V1-0046.mov</pathurl>
                            <timecode>
                                <string>00:15:17:23</string>
                                <displayformat>NDF</displayformat>
                                <rate>
                                    <timebase>25</timebase>
                                    <ntsc>false</ntsc>
                                </rate>
                            </timecode>
                            <media>
                                <video>
                                    <duration>133</duration>
                                    <samplecharacteristics>
                                        <width>1920</width>
                                        <height>1080</height>
                                    </samplecharacteristics>
                                </video>
                            </media>
                        </file>
                        <compositemode>normal</compositemode>
                        <filter>
                            <enabled>true</enabled>
                            <start>0</start>
                            <end>133</end>
                            <effect>
                                <name>Opacity</name>
                                <effectid>opacity</effectid>
                                <effecttype>motion</effecttype>
                                <mediatype>video</mediatype>
                                <effectcategory>motion</effectcategory>
                                <parameter>
                                    <name>opacity</name>
                                    <parameterid>opacity</parameterid>
                                    <value>100</value>
                                    <valuemin>0</valuemin>
                                    <valuemax>100</valuemax>
                                </parameter>
                            </effect>
                        </filter>
                    </clipitem>
                    <clipitem id="GOPR8363_3_BEE99350B2D342C9B7FA.mov 0">
                        <name>GOPR8363_3_BEE99350B2D342C9B7FA.mov</name>
                        <duration>153</duration>
                        <rate>
                            <timebase>25</timebase>
                            <ntsc>false</ntsc>
                        </rate>
                        <start>23081</start>
                        <end>23235</end>
                        <enabled>true</enabled>
                        <in>0</in>
                        <out>154</out>
                        <file id="GOPR8363_3_BEE99350B2D342C9B7FA.mov 2">
                            <duration>154</duration>
                            <rate>
                                <timebase>25</timebase>
                                <ntsc>false</ntsc>
                            </rate>
                            <name>GOPR8363_3_BEE99350B2D342C9B7FA.mov</name>
                            <pathurl>file:///Capture1/EDIUS/EDIUS7_Color/colored/pasyans_v3/GOPR8363_3_BEE99350B2D342C9B7FA_V1-0047.mov</pathurl>
                            <timecode>
                                <string>00:15:23:06</string>
                                <displayformat>NDF</displayformat>
                                <rate>
                                    <timebase>25</timebase>
                                    <ntsc>false</ntsc>
                                </rate>
                            </timecode>
                            <media>
                                <video>
                                    <duration>154</duration>
                                    <samplecharacteristics>
                                        <width>1920</width>
                                        <height>1080</height>
                                    </samplecharacteristics>
                                </video>
                            </media>
                        </file>
                        <compositemode>normal</compositemode>
                        <filter>
                            <enabled>true</enabled>
                            <start>0</start>
                            <end>153</end>
                            <effect>
                                <name>Opacity</name>
                                <effectid>opacity</effectid>
                                <effecttype>motion</effecttype>
                                <mediatype>video</mediatype>
                                <effectcategory>motion</effectcategory>
                                <parameter>
                                    <name>opacity</name>
                                    <parameterid>opacity</parameterid>
                                    <value>100</value>
                                    <valuemin>0</valuemin>
                                    <valuemax>100</valuemax>
                                </parameter>
                            </effect>
                        </filter>
                    </clipitem>
                    <clipitem id="246_0922_01_9_EC6B45209E2548B8BC41.mov 0">
                        <name>246_0922_01_9_EC6B45209E2548B8BC41.mov</name>
                        <duration>128</duration>
                        <rate>
                            <timebase>25</timebase>
                            <ntsc>false</ntsc>
                        </rate>
                        <start>23235</start>
                        <end>23364</end>
                        <enabled>true</enabled>
                        <in>0</in>
                        <out>129</out>
                        <file id="246_0922_01_9_EC6B45209E2548B8BC41.mov 2">
                            <duration>129</duration>
                            <rate>
                                <timebase>25</timebase>
                                <ntsc>false</ntsc>
                            </rate>
                            <name>246_0922_01_9_EC6B45209E2548B8BC41.mov</name>
                            <pathurl>file:///Capture1/EDIUS/EDIUS7_Color/colored/pasyans_v3/246_0922_01_9_EC6B45209E2548B8BC41_V1-0048.mov</pathurl>
                            <timecode>
                                <string>00:15:29:10</string>
                                <displayformat>NDF</displayformat>
                                <rate>
                                    <timebase>25</timebase>
                                    <ntsc>false</ntsc>
                                </rate>
                            </timecode>
                            <media>
                                <video>
                                    <duration>129</duration>
                                    <samplecharacteristics>
                                        <width>1920</width>
                                        <height>1080</height>
                                    </samplecharacteristics>
                                </video>
                            </media>
                        </file>
                        <compositemode>normal</compositemode>
                        <filter>
                            <enabled>true</enabled>
                            <start>0</start>
                            <end>128</end>
                            <effect>
                                <name>Opacity</name>
                                <effectid>opacity</effectid>
                                <effecttype>motion</effecttype>
                                <mediatype>video</mediatype>
                                <effectcategory>motion</effectcategory>
                                <parameter>
                                    <name>opacity</name>
                                    <parameterid>opacity</parameterid>
                                    <value>100</value>
                                    <valuemin>0</valuemin>
                                    <valuemax>100</valuemax>
                                </parameter>
                            </effect>
                        </filter>
                    </clipitem>
                    <clipitem id="общий план 3_1_54F9AB489CCE40DB8CC0.mov 0">
                        <name>общий план 3_1_54F9AB489CCE40DB8CC0.mov</name>
                        <duration>158</duration>
                        <rate>
                            <timebase>25</timebase>
                            <ntsc>false</ntsc>
                        </rate>
                        <start>23364</start>
                        <end>23522</end>
                        <enabled>true</enabled>
                        <in>0</in>
                        <out>158</out>
                        <file id="общий план 3_1_54F9AB489CCE40DB8CC0.mov 2">
                            <duration>158</duration>
                            <rate>
                                <timebase>25</timebase>
                                <ntsc>false</ntsc>
                            </rate>
                            <name>общий план 3_1_54F9AB489CCE40DB8CC0.mov</name>
                            <pathurl>file:///Capture1/EDIUS/EDIUS7_Color/colored/pasyans_v3/%D0%BE%D0%B1%D1%89%D0%B8%D0%B9%20%D0%BF%D0%BB%D0%B0%D0%BD%203_1_54F9AB489CCE40DB8CC0_V1-0049.mov</pathurl>
                            <timecode>
                                <string>00:15:34:14</string>
                                <displayformat>NDF</displayformat>
                                <rate>
                                    <timebase>25</timebase>
                                    <ntsc>false</ntsc>
                                </rate>
                            </timecode>
                            <media>
                                <video>
                                    <duration>158</duration>
                                    <samplecharacteristics>
                                        <width>1920</width>
                                        <height>1080</height>
                                    </samplecharacteristics>
                                </video>
                            </media>
                        </file>
                        <compositemode>normal</compositemode>
                        <filter>
                            <enabled>true</enabled>
                            <start>0</start>
                            <end>158</end>
                            <effect>
                                <name>Opacity</name>
                                <effectid>opacity</effectid>
                                <effecttype>motion</effecttype>
                                <mediatype>video</mediatype>
                                <effectcategory>motion</effectcategory>
                                <parameter>
                                    <name>opacity</name>
                                    <parameterid>opacity</parameterid>
                                    <value>100</value>
                                    <valuemin>0</valuemin>
                                    <valuemax>100</valuemax>
                                </parameter>
                            </effect>
                        </filter>
                    </clipitem>
                    <clipitem id="246_0922_01_10_D0EAAE9ED54D42209E18.mov 0">
                        <name>246_0922_01_10_D0EAAE9ED54D42209E18.mov</name>
                        <duration>78</duration>
                        <rate>
                            <timebase>25</timebase>
                            <ntsc>false</ntsc>
                        </rate>
                        <start>23522</start>
                        <end>23600</end>
                        <enabled>true</enabled>
                        <in>0</in>
                        <out>78</out>
                        <file id="246_0922_01_10_D0EAAE9ED54D42209E18.mov 2">
                            <duration>78</duration>
                            <rate>
                                <timebase>25</timebase>
                                <ntsc>false</ntsc>
                            </rate>
                            <name>246_0922_01_10_D0EAAE9ED54D42209E18.mov</name>
                            <pathurl>file:///Capture1/EDIUS/EDIUS7_Color/colored/pasyans_v3/246_0922_01_10_D0EAAE9ED54D42209E18_V1-0050.mov</pathurl>
                            <timecode>
                                <string>00:15:40:22</string>
                                <displayformat>NDF</displayformat>
                                <rate>
                                    <timebase>25</timebase>
                                    <ntsc>false</ntsc>
                                </rate>
                            </timecode>
                            <media>
                                <video>
                                    <duration>78</duration>
                                    <samplecharacteristics>
                                        <width>1920</width>
                                        <height>1080</height>
                                    </samplecharacteristics>
                                </video>
                            </media>
                        </file>
                        <compositemode>normal</compositemode>
                        <filter>
                            <enabled>true</enabled>
                            <start>0</start>
                            <end>78</end>
                            <effect>
                                <name>Opacity</name>
                                <effectid>opacity</effectid>
                                <effecttype>motion</effecttype>
                                <mediatype>video</mediatype>
                                <effectcategory>motion</effectcategory>
                                <parameter>
                                    <name>opacity</name>
                                    <parameterid>opacity</parameterid>
                                    <value>100</value>
                                    <valuemin>0</valuemin>
                                    <valuemax>100</valuemax>
                                </parameter>
                            </effect>
                        </filter>
                    </clipitem>
                    <clipitem id="972_0437_01_11_85056B7B547F411AB5D9.mov 0">
                        <name>972_0437_01_11_85056B7B547F411AB5D9.mov</name>
                        <duration>96</duration>
                        <rate>
                            <timebase>25</timebase>
                            <ntsc>false</ntsc>
                        </rate>
                        <start>23600</start>
                        <end>23696</end>
                        <enabled>true</enabled>
                        <in>0</in>
                        <out>96</out>
                        <file id="972_0437_01_11_85056B7B547F411AB5D9.mov 2">
                            <duration>96</duration>
                            <rate>
                                <timebase>25</timebase>
                                <ntsc>false</ntsc>
                            </rate>
                            <name>972_0437_01_11_85056B7B547F411AB5D9.mov</name>
                            <pathurl>file:///Capture1/EDIUS/EDIUS7_Color/colored/pasyans_v3/972_0437_01_11_85056B7B547F411AB5D9_V1-0051.mov</pathurl>
                            <timecode>
                                <string>00:15:44:00</string>
                                <displayformat>NDF</displayformat>
                                <rate>
                                    <timebase>25</timebase>
                                    <ntsc>false</ntsc>
                                </rate>
                            </timecode>
                            <media>
                                <video>
                                    <duration>96</duration>
                                    <samplecharacteristics>
                                        <width>1920</width>
                                        <height>1080</height>
                                    </samplecharacteristics>
                                </video>
                            </media>
                        </file>
                        <compositemode>normal</compositemode>
                        <filter>
                            <enabled>true</enabled>
                            <start>0</start>
                            <end>96</end>
                            <effect>
                                <name>Opacity</name>
                                <effectid>opacity</effectid>
                                <effecttype>motion</effecttype>
                                <mediatype>video</mediatype>
                                <effectcategory>motion</effectcategory>
                                <parameter>
                                    <name>opacity</name>
                                    <parameterid>opacity</parameterid>
                                    <value>100</value>
                                    <valuemin>0</valuemin>
                                    <valuemax>100</valuemax>
                                </parameter>
                            </effect>
                        </filter>
                    </clipitem>
                    <clipitem id="246_0922_01_11_3C5DB22DFB544F7D8BB1.mov 0">
                        <name>246_0922_01_11_3C5DB22DFB544F7D8BB1.mov</name>
                        <duration>59</duration>
                        <rate>
                            <timebase>25</timebase>
                            <ntsc>false</ntsc>
                        </rate>
                        <start>23696</start>
                        <end>23756</end>
                        <enabled>true</enabled>
                        <in>0</in>
                        <out>60</out>
                        <file id="246_0922_01_11_3C5DB22DFB544F7D8BB1.mov 2">
                            <duration>60</duration>
                            <rate>
                                <timebase>25</timebase>
                                <ntsc>false</ntsc>
                            </rate>
                            <name>246_0922_01_11_3C5DB22DFB544F7D8BB1.mov</name>
                            <pathurl>file:///Capture1/EDIUS/EDIUS7_Color/colored/pasyans_v3/246_0922_01_11_3C5DB22DFB544F7D8BB1_V1-0052.mov</pathurl>
                            <timecode>
                                <string>00:15:47:21</string>
                                <displayformat>NDF</displayformat>
                                <rate>
                                    <timebase>25</timebase>
                                    <ntsc>false</ntsc>
                                </rate>
                            </timecode>
                            <media>
                                <video>
                                    <duration>60</duration>
                                    <samplecharacteristics>
                                        <width>1920</width>
                                        <height>1080</height>
                                    </samplecharacteristics>
                                </video>
                            </media>
                        </file>
                        <compositemode>normal</compositemode>
                        <filter>
                            <enabled>true</enabled>
                            <start>0</start>
                            <end>59</end>
                            <effect>
                                <name>Opacity</name>
                                <effectid>opacity</effectid>
                                <effecttype>motion</effecttype>
                                <mediatype>video</mediatype>
                                <effectcategory>motion</effectcategory>
                                <parameter>
                                    <name>opacity</name>
                                    <parameterid>opacity</parameterid>
                                    <value>100</value>
                                    <valuemin>0</valuemin>
                                    <valuemax>100</valuemax>
                                </parameter>
                            </effect>
                        </filter>
                    </clipitem>
                    <clipitem id="общий план 3_2_C3A029AA9B2C4D11AAE5.mov 0">
                        <name>общий план 3_2_C3A029AA9B2C4D11AAE5.mov</name>
                        <duration>77</duration>
                        <rate>
                            <timebase>25</timebase>
                            <ntsc>false</ntsc>
                        </rate>
                        <start>23756</start>
                        <end>23833</end>
                        <enabled>true</enabled>
                        <in>0</in>
                        <out>77</out>
                        <file id="общий план 3_2_C3A029AA9B2C4D11AAE5.mov 2">
                            <duration>77</duration>
                            <rate>
                                <timebase>25</timebase>
                                <ntsc>false</ntsc>
                            </rate>
                            <name>общий план 3_2_C3A029AA9B2C4D11AAE5.mov</name>
                            <pathurl>file:///Capture1/EDIUS/EDIUS7_Color/colored/pasyans_v3/%D0%BE%D0%B1%D1%89%D0%B8%D0%B9%20%D0%BF%D0%BB%D0%B0%D0%BD%203_2_C3A029AA9B2C4D11AAE5_V1-0053.mov</pathurl>
                            <timecode>
                                <string>00:15:50:06</string>
                                <displayformat>NDF</displayformat>
                                <rate>
                                    <timebase>25</timebase>
                                    <ntsc>false</ntsc>
                                </rate>
                            </timecode>
                            <media>
                                <video>
                                    <duration>77</duration>
                                    <samplecharacteristics>
                                        <width>1920</width>
                                        <height>1080</height>
                                    </samplecharacteristics>
                                </video>
                            </media>
                        </file>
                        <compositemode>normal</compositemode>
                        <filter>
                            <enabled>true</enabled>
                            <start>0</start>
                            <end>77</end>
                            <effect>
                                <name>Opacity</name>
                                <effectid>opacity</effectid>
                                <effecttype>motion</effecttype>
                                <mediatype>video</mediatype>
                                <effectcategory>motion</effectcategory>
                                <parameter>
                                    <name>opacity</name>
                                    <parameterid>opacity</parameterid>
                                    <value>100</value>
                                    <valuemin>0</valuemin>
                                    <valuemax>100</valuemax>
                                </parameter>
                            </effect>
                        </filter>
                    </clipitem>
                    <clipitem id="972_0437_01_12_0587373E74D84B888B8D.mov 0">
                        <name>972_0437_01_12_0587373E74D84B888B8D.mov</name>
                        <duration>124</duration>
                        <rate>
                            <timebase>25</timebase>
                            <ntsc>false</ntsc>
                        </rate>
                        <start>28349</start>
                        <end>28473</end>
                        <enabled>true</enabled>
                        <in>0</in>
                        <out>124</out>
                        <file id="972_0437_01_12_0587373E74D84B888B8D.mov 2">
                            <duration>124</duration>
                            <rate>
                                <timebase>25</timebase>
                                <ntsc>false</ntsc>
                            </rate>
                            <name>972_0437_01_12_0587373E74D84B888B8D.mov</name>
                            <pathurl>file:///Capture1/EDIUS/EDIUS7_Color/colored/pasyans_v3/972_0437_01_12_0587373E74D84B888B8D_V1-0054.mov</pathurl>
                            <timecode>
                                <string>00:18:53:24</string>
                                <displayformat>NDF</displayformat>
                                <rate>
                                    <timebase>25</timebase>
                                    <ntsc>false</ntsc>
                                </rate>
                            </timecode>
                            <media>
                                <video>
                                    <duration>124</duration>
                                    <samplecharacteristics>
                                        <width>1920</width>
                                        <height>1080</height>
                                    </samplecharacteristics>
                                </video>
                            </media>
                        </file>
                        <compositemode>normal</compositemode>
                        <filter>
                            <enabled>true</enabled>
                            <start>0</start>
                            <end>124</end>
                            <effect>
                                <name>Opacity</name>
                                <effectid>opacity</effectid>
                                <effecttype>motion</effecttype>
                                <mediatype>video</mediatype>
                                <effectcategory>motion</effectcategory>
                                <parameter>
                                    <name>opacity</name>
                                    <parameterid>opacity</parameterid>
                                    <value>100</value>
                                    <valuemin>0</valuemin>
                                    <valuemax>100</valuemax>
                                </parameter>
                            </effect>
                        </filter>
                    </clipitem>
                    <clipitem id="246_0922_01_12_0A00D627F7E8475AB125.mov 0">
                        <name>246_0922_01_12_0A00D627F7E8475AB125.mov</name>
                        <duration>86</duration>
                        <rate>
                            <timebase>25</timebase>
                            <ntsc>false</ntsc>
                        </rate>
                        <start>28473</start>
                        <end>28559</end>
                        <enabled>true</enabled>
                        <in>0</in>
                        <out>86</out>
                        <file id="246_0922_01_12_0A00D627F7E8475AB125.mov 2">
                            <duration>86</duration>
                            <rate>
                                <timebase>25</timebase>
                                <ntsc>false</ntsc>
                            </rate>
                            <name>246_0922_01_12_0A00D627F7E8475AB125.mov</name>
                            <pathurl>file:///Capture1/EDIUS/EDIUS7_Color/colored/pasyans_v3/246_0922_01_12_0A00D627F7E8475AB125_V1-0055.mov</pathurl>
                            <timecode>
                                <string>00:18:58:23</string>
                                <displayformat>NDF</displayformat>
                                <rate>
                                    <timebase>25</timebase>
                                    <ntsc>false</ntsc>
                                </rate>
                            </timecode>
                            <media>
                                <video>
                                    <duration>86</duration>
                                    <samplecharacteristics>
                                        <width>1920</width>
                                        <height>1080</height>
                                    </samplecharacteristics>
                                </video>
                            </media>
                        </file>
                        <compositemode>normal</compositemode>
                        <filter>
                            <enabled>true</enabled>
                            <start>0</start>
                            <end>86</end>
                            <effect>
                                <name>Opacity</name>
                                <effectid>opacity</effectid>
                                <effecttype>motion</effecttype>
                                <mediatype>video</mediatype>
                                <effectcategory>motion</effectcategory>
                                <parameter>
                                    <name>opacity</name>
                                    <parameterid>opacity</parameterid>
                                    <value>100</value>
                                    <valuemin>0</valuemin>
                                    <valuemax>100</valuemax>
                                </parameter>
                            </effect>
                        </filter>
                    </clipitem>
                    <clipitem id="общий план 3_3_E25D066A71FF46A0B483.mov 0">
                        <name>общий план 3_3_E25D066A71FF46A0B483.mov</name>
                        <duration>143</duration>
                        <rate>
                            <timebase>25</timebase>
                            <ntsc>false</ntsc>
                        </rate>
                        <start>28559</start>
                        <end>28702</end>
                        <enabled>true</enabled>
                        <in>0</in>
                        <out>143</out>
                        <file id="общий план 3_3_E25D066A71FF46A0B483.mov 2">
                            <duration>143</duration>
                            <rate>
                                <timebase>25</timebase>
                                <ntsc>false</ntsc>
                            </rate>
                            <name>общий план 3_3_E25D066A71FF46A0B483.mov</name>
                            <pathurl>file:///Capture1/EDIUS/EDIUS7_Color/colored/pasyans_v3/%D0%BE%D0%B1%D1%89%D0%B8%D0%B9%20%D0%BF%D0%BB%D0%B0%D0%BD%203_3_E25D066A71FF46A0B483_V1-0056.mov</pathurl>
                            <timecode>
                                <string>00:19:02:09</string>
                                <displayformat>NDF</displayformat>
                                <rate>
                                    <timebase>25</timebase>
                                    <ntsc>false</ntsc>
                                </rate>
                            </timecode>
                            <media>
                                <video>
                                    <duration>143</duration>
                                    <samplecharacteristics>
                                        <width>1920</width>
                                        <height>1080</height>
                                    </samplecharacteristics>
                                </video>
                            </media>
                        </file>
                        <compositemode>normal</compositemode>
                        <filter>
                            <enabled>true</enabled>
                            <start>0</start>
                            <end>143</end>
                            <effect>
                                <name>Opacity</name>
                                <effectid>opacity</effectid>
                                <effecttype>motion</effecttype>
                                <mediatype>video</mediatype>
                                <effectcategory>motion</effectcategory>
                                <parameter>
                                    <name>opacity</name>
                                    <parameterid>opacity</parameterid>
                                    <value>100</value>
                                    <valuemin>0</valuemin>
                                    <valuemax>100</valuemax>
                                </parameter>
                            </effect>
                        </filter>
                    </clipitem>
                    <clipitem id="КАССЕТНАЯ КАМЕРА 1_12_2BA55F32B2A34B76B0F1.mov 0">
                        <name>КАССЕТНАЯ КАМЕРА 1_12_2BA55F32B2A34B76B0F1.mov</name>
                        <duration>108</duration>
                        <rate>
                            <timebase>25</timebase>
                            <ntsc>false</ntsc>
                        </rate>
                        <start>28702</start>
                        <end>28811</end>
                        <enabled>true</enabled>
                        <in>0</in>
                        <out>109</out>
                        <file id="КАССЕТНАЯ КАМЕРА 1_12_2BA55F32B2A34B76B0F1.mov 2">
                            <duration>109</duration>
                            <rate>
                                <timebase>25</timebase>
                                <ntsc>false</ntsc>
                            </rate>
                            <name>КАССЕТНАЯ КАМЕРА 1_12_2BA55F32B2A34B76B0F1.mov</name>
                            <pathurl>file:///Capture1/EDIUS/EDIUS7_Color/colored/pasyans_v3/%D0%9A%D0%90%D0%A1%D0%A1%D0%95%D0%A2%D0%9D%D0%90%D0%AF%20%D0%9A%D0%90%D0%9C%D0%95%D0%A0%D0%90%201_12_2BA55F32B2A34B76B0F1_V1-0057.mov</pathurl>
                            <timecode>
                                <string>00:19:08:02</string>
                                <displayformat>NDF</displayformat>
                                <rate>
                                    <timebase>25</timebase>
                                    <ntsc>false</ntsc>
                                </rate>
                            </timecode>
                            <media>
                                <video>
                                    <duration>109</duration>
                                    <samplecharacteristics>
                                        <width>1920</width>
                                        <height>1080</height>
                                    </samplecharacteristics>
                                </video>
                            </media>
                        </file>
                        <compositemode>normal</compositemode>
                        <filter>
                            <enabled>true</enabled>
                            <start>0</start>
                            <end>108</end>
                            <effect>
                                <name>Opacity</name>
                                <effectid>opacity</effectid>
                                <effecttype>motion</effecttype>
                                <mediatype>video</mediatype>
                                <effectcategory>motion</effectcategory>
                                <parameter>
                                    <name>opacity</name>
                                    <parameterid>opacity</parameterid>
                                    <value>100</value>
                                    <valuemin>0</valuemin>
                                    <valuemax>100</valuemax>
                                </parameter>
                            </effect>
                        </filter>
                    </clipitem>
                    <clipitem id="972_0437_01_13_BDB68570EA464C4D9323.mov 0">
                        <name>972_0437_01_13_BDB68570EA464C4D9323.mov</name>
                        <duration>112</duration>
                        <rate>
                            <timebase>25</timebase>
                            <ntsc>false</ntsc>
                        </rate>
                        <start>28811</start>
                        <end>28924</end>
                        <enabled>true</enabled>
                        <in>0</in>
                        <out>113</out>
                        <file id="972_0437_01_13_BDB68570EA464C4D9323.mov 2">
                            <duration>113</duration>
                            <rate>
                                <timebase>25</timebase>
                                <ntsc>false</ntsc>
                            </rate>
                            <name>972_0437_01_13_BDB68570EA464C4D9323.mov</name>
                            <pathurl>file:///Capture1/EDIUS/EDIUS7_Color/colored/pasyans_v3/972_0437_01_13_BDB68570EA464C4D9323_V1-0058.mov</pathurl>
                            <timecode>
                                <string>00:19:12:11</string>
                                <displayformat>NDF</displayformat>
                                <rate>
                                    <timebase>25</timebase>
                                    <ntsc>false</ntsc>
                                </rate>
                            </timecode>
                            <media>
                                <video>
                                    <duration>113</duration>
                                    <samplecharacteristics>
                                        <width>1920</width>
                                        <height>1080</height>
                                    </samplecharacteristics>
                                </video>
                            </media>
                        </file>
                        <compositemode>normal</compositemode>
                        <filter>
                            <enabled>true</enabled>
                            <start>0</start>
                            <end>112</end>
                            <effect>
                                <name>Opacity</name>
                                <effectid>opacity</effectid>
                                <effecttype>motion</effecttype>
                                <mediatype>video</mediatype>
                                <effectcategory>motion</effectcategory>
                                <parameter>
                                    <name>opacity</name>
                                    <parameterid>opacity</parameterid>
                                    <value>100</value>
                                    <valuemin>0</valuemin>
                                    <valuemax>100</valuemax>
                                </parameter>
                            </effect>
                        </filter>
                    </clipitem>
                    <clipitem id="общий план 3_4_5A07FF77787B436FA458.mov 0">
                        <name>общий план 3_4_5A07FF77787B436FA458.mov</name>
                        <duration>135</duration>
                        <rate>
                            <timebase>25</timebase>
                            <ntsc>false</ntsc>
                        </rate>
                        <start>28924</start>
                        <end>29059</end>
                        <enabled>true</enabled>
                        <in>0</in>
                        <out>135</out>
                        <file id="общий план 3_4_5A07FF77787B436FA458.mov 2">
                            <duration>135</duration>
                            <rate>
                                <timebase>25</timebase>
                                <ntsc>false</ntsc>
                            </rate>
                            <name>общий план 3_4_5A07FF77787B436FA458.mov</name>
                            <pathurl>file:///Capture1/EDIUS/EDIUS7_Color/colored/pasyans_v3/%D0%BE%D0%B1%D1%89%D0%B8%D0%B9%20%D0%BF%D0%BB%D0%B0%D0%BD%203_4_5A07FF77787B436FA458_V1-0059.mov</pathurl>
                            <timecode>
                                <string>00:19:16:24</string>
                                <displayformat>NDF</displayformat>
                                <rate>
                                    <timebase>25</timebase>
                                    <ntsc>false</ntsc>
                                </rate>
                            </timecode>
                            <media>
                                <video>
                                    <duration>135</duration>
                                    <samplecharacteristics>
                                        <width>1920</width>
                                        <height>1080</height>
                                    </samplecharacteristics>
                                </video>
                            </media>
                        </file>
                        <compositemode>normal</compositemode>
                        <filter>
                            <enabled>true</enabled>
                            <start>0</start>
                            <end>135</end>
                            <effect>
                                <name>Opacity</name>
                                <effectid>opacity</effectid>
                                <effecttype>motion</effecttype>
                                <mediatype>video</mediatype>
                                <effectcategory>motion</effectcategory>
                                <parameter>
                                    <name>opacity</name>
                                    <parameterid>opacity</parameterid>
                                    <value>100</value>
                                    <valuemin>0</valuemin>
                                    <valuemax>100</valuemax>
                                </parameter>
                            </effect>
                        </filter>
                    </clipitem>
                    <clipitem id="972_0437_02_1_2DE4F5AE4F8D466699A6.mov 0">
                        <name>972_0437_02_1_2DE4F5AE4F8D466699A6.mov</name>
                        <duration>93</duration>
                        <rate>
                            <timebase>25</timebase>
                            <ntsc>false</ntsc>
                        </rate>
                        <start>29059</start>
                        <end>29152</end>
                        <enabled>true</enabled>
                        <in>0</in>
                        <out>93</out>
                        <file id="972_0437_02_1_2DE4F5AE4F8D466699A6.mov 2">
                            <duration>93</duration>
                            <rate>
                                <timebase>25</timebase>
                                <ntsc>false</ntsc>
                            </rate>
                            <name>972_0437_02_1_2DE4F5AE4F8D466699A6.mov</name>
                            <pathurl>file:///Capture1/EDIUS/EDIUS7_Color/colored/pasyans_v3/972_0437_02_1_2DE4F5AE4F8D466699A6_V1-0060.mov</pathurl>
                            <timecode>
                                <string>00:19:22:09</string>
                                <displayformat>NDF</displayformat>
                                <rate>
                                    <timebase>25</timebase>
                                    <ntsc>false</ntsc>
                                </rate>
                            </timecode>
                            <media>
                                <video>
                                    <duration>93</duration>
                                    <samplecharacteristics>
                                        <width>1920</width>
                                        <height>1080</height>
                                    </samplecharacteristics>
                                </video>
                            </media>
                        </file>
                        <compositemode>normal</compositemode>
                        <filter>
                            <enabled>true</enabled>
                            <start>0</start>
                            <end>93</end>
                            <effect>
                                <name>Opacity</name>
                                <effectid>opacity</effectid>
                                <effecttype>motion</effecttype>
                                <mediatype>video</mediatype>
                                <effectcategory>motion</effectcategory>
                                <parameter>
                                    <name>opacity</name>
                                    <parameterid>opacity</parameterid>
                                    <value>100</value>
                                    <valuemin>0</valuemin>
                                    <valuemax>100</valuemax>
                                </parameter>
                            </effect>
                        </filter>
                    </clipitem>
                    <clipitem id="246_0922_02_1_1528C6BDD61B4108B6CD.mov 0">
                        <name>246_0922_02_1_1528C6BDD61B4108B6CD.mov</name>
                        <duration>120</duration>
                        <rate>
                            <timebase>25</timebase>
                            <ntsc>false</ntsc>
                        </rate>
                        <start>29152</start>
                        <end>29273</end>
                        <enabled>true</enabled>
                        <in>0</in>
                        <out>121</out>
                        <file id="246_0922_02_1_1528C6BDD61B4108B6CD.mov 2">
                            <duration>121</duration>
                            <rate>
                                <timebase>25</timebase>
                                <ntsc>false</ntsc>
                            </rate>
                            <name>246_0922_02_1_1528C6BDD61B4108B6CD.mov</name>
                            <pathurl>file:///Capture1/EDIUS/EDIUS7_Color/colored/pasyans_v3/246_0922_02_1_1528C6BDD61B4108B6CD_V1-0061.mov</pathurl>
                            <timecode>
                                <string>00:19:26:02</string>
                                <displayformat>NDF</displayformat>
                                <rate>
                                    <timebase>25</timebase>
                                    <ntsc>false</ntsc>
                                </rate>
                            </timecode>
                            <media>
                                <video>
                                    <duration>121</duration>
                                    <samplecharacteristics>
                                        <width>1920</width>
                                        <height>1080</height>
                                    </samplecharacteristics>
                                </video>
                            </media>
                        </file>
                        <compositemode>normal</compositemode>
                        <filter>
                            <enabled>true</enabled>
                            <start>0</start>
                            <end>120</end>
                            <effect>
                                <name>Opacity</name>
                                <effectid>opacity</effectid>
                                <effecttype>motion</effecttype>
                                <mediatype>video</mediatype>
                                <effectcategory>motion</effectcategory>
                                <parameter>
                                    <name>opacity</name>
                                    <parameterid>opacity</parameterid>
                                    <value>100</value>
                                    <valuemin>0</valuemin>
                                    <valuemax>100</valuemax>
                                </parameter>
                            </effect>
                        </filter>
                    </clipitem>
                    <clipitem id="КАССЕТНАЯ КАМЕРА 1_13_FACDDBB9925C447B80F4.mov 0">
                        <name>КАССЕТНАЯ КАМЕРА 1_13_FACDDBB9925C447B80F4.mov</name>
                        <duration>85</duration>
                        <rate>
                            <timebase>25</timebase>
                            <ntsc>false</ntsc>
                        </rate>
                        <start>29885</start>
                        <end>29970</end>
                        <enabled>true</enabled>
                        <in>0</in>
                        <out>85</out>
                        <file id="КАССЕТНАЯ КАМЕРА 1_13_FACDDBB9925C447B80F4.mov 2">
                            <duration>85</duration>
                            <rate>
                                <timebase>25</timebase>
                                <ntsc>false</ntsc>
                            </rate>
                            <name>КАССЕТНАЯ КАМЕРА 1_13_FACDDBB9925C447B80F4.mov</name>
                            <pathurl>file:///Capture1/EDIUS/EDIUS7_Color/colored/pasyans_v3/%D0%9A%D0%90%D0%A1%D0%A1%D0%95%D0%A2%D0%9D%D0%90%D0%AF%20%D0%9A%D0%90%D0%9C%D0%95%D0%A0%D0%90%201_13_FACDDBB9925C447B80F4_V1-0062.mov</pathurl>
                            <timecode>
                                <string>00:19:55:10</string>
                                <displayformat>NDF</displayformat>
                                <rate>
                                    <timebase>25</timebase>
                                    <ntsc>false</ntsc>
                                </rate>
                            </timecode>
                            <media>
                                <video>
                                    <duration>85</duration>
                                    <samplecharacteristics>
                                        <width>1920</width>
                                        <height>1080</height>
                                    </samplecharacteristics>
                                </video>
                            </media>
                        </file>
                        <compositemode>normal</compositemode>
                        <filter>
                            <enabled>true</enabled>
                            <start>0</start>
                            <end>85</end>
                            <effect>
                                <name>Opacity</name>
                                <effectid>opacity</effectid>
                                <effecttype>motion</effecttype>
                                <mediatype>video</mediatype>
                                <effectcategory>motion</effectcategory>
                                <parameter>
                                    <name>opacity</name>
                                    <parameterid>opacity</parameterid>
                                    <value>100</value>
                                    <valuemin>0</valuemin>
                                    <valuemax>100</valuemax>
                                </parameter>
                            </effect>
                        </filter>
                    </clipitem>
                    <clipitem id="972_0437_02_2_4B42FBDA77024EFB8C0C.mov 0">
                        <name>972_0437_02_2_4B42FBDA77024EFB8C0C.mov</name>
                        <duration>82</duration>
                        <rate>
                            <timebase>25</timebase>
                            <ntsc>false</ntsc>
                        </rate>
                        <start>29970</start>
                        <end>30053</end>
                        <enabled>true</enabled>
                        <in>0</in>
                        <out>83</out>
                        <file id="972_0437_02_2_4B42FBDA77024EFB8C0C.mov 2">
                            <duration>83</duration>
                            <rate>
                                <timebase>25</timebase>
                                <ntsc>false</ntsc>
                            </rate>
                            <name>972_0437_02_2_4B42FBDA77024EFB8C0C.mov</name>
                            <pathurl>file:///Capture1/EDIUS/EDIUS7_Color/colored/pasyans_v3/972_0437_02_2_4B42FBDA77024EFB8C0C_V1-0063.mov</pathurl>
                            <timecode>
                                <string>00:19:58:20</string>
                                <displayformat>NDF</displayformat>
                                <rate>
                                    <timebase>25</timebase>
                                    <ntsc>false</ntsc>
                                </rate>
                            </timecode>
                            <media>
                                <video>
                                    <duration>83</duration>
                                    <samplecharacteristics>
                                        <width>1920</width>
                                        <height>1080</height>
                                    </samplecharacteristics>
                                </video>
                            </media>
                        </file>
                        <compositemode>normal</compositemode>
                        <filter>
                            <enabled>true</enabled>
                            <start>0</start>
                            <end>82</end>
                            <effect>
                                <name>Opacity</name>
                                <effectid>opacity</effectid>
                                <effecttype>motion</effecttype>
                                <mediatype>video</mediatype>
                                <effectcategory>motion</effectcategory>
                                <parameter>
                                    <name>opacity</name>
                                    <parameterid>opacity</parameterid>
                                    <value>100</value>
                                    <valuemin>0</valuemin>
                                    <valuemax>100</valuemax>
                                </parameter>
                            </effect>
                        </filter>
                    </clipitem>
                    <clipitem id="общий план 3_5_4BA8DFFB4C0A45609F06.mov 0">
                        <name>общий план 3_5_4BA8DFFB4C0A45609F06.mov</name>
                        <duration>174</duration>
                        <rate>
                            <timebase>25</timebase>
                            <ntsc>false</ntsc>
                        </rate>
                        <start>30053</start>
                        <end>30227</end>
                        <enabled>true</enabled>
                        <in>0</in>
                        <out>174</out>
                        <file id="общий план 3_5_4BA8DFFB4C0A45609F06.mov 2">
                            <duration>174</duration>
                            <rate>
                                <timebase>25</timebase>
                                <ntsc>false</ntsc>
                            </rate>
                            <name>общий план 3_5_4BA8DFFB4C0A45609F06.mov</name>
                            <pathurl>file:///Capture1/EDIUS/EDIUS7_Color/colored/pasyans_v3/%D0%BE%D0%B1%D1%89%D0%B8%D0%B9%20%D0%BF%D0%BB%D0%B0%D0%BD%203_5_4BA8DFFB4C0A45609F06_V1-0064.mov</pathurl>
                            <timecode>
                                <string>00:20:02:03</string>
                                <displayformat>NDF</displayformat>
                                <rate>
                                    <timebase>25</timebase>
                                    <ntsc>false</ntsc>
                                </rate>
                            </timecode>
                            <media>
                                <video>
                                    <duration>174</duration>
                                    <samplecharacteristics>
                                        <width>1920</width>
                                        <height>1080</height>
                                    </samplecharacteristics>
                                </video>
                            </media>
                        </file>
                        <compositemode>normal</compositemode>
                        <filter>
                            <enabled>true</enabled>
                            <start>0</start>
                            <end>174</end>
                            <effect>
                                <name>Opacity</name>
                                <effectid>opacity</effectid>
                                <effecttype>motion</effecttype>
                                <mediatype>video</mediatype>
                                <effectcategory>motion</effectcategory>
                                <parameter>
                                    <name>opacity</name>
                                    <parameterid>opacity</parameterid>
                                    <value>100</value>
                                    <valuemin>0</valuemin>
                                    <valuemax>100</valuemax>
                                </parameter>
                            </effect>
                        </filter>
                    </clipitem>
                    <clipitem id="КАССЕТНАЯ КАМЕРА 1_14_5A8BB2943A5F48E286AD.mov 0">
                        <name>КАССЕТНАЯ КАМЕРА 1_14_5A8BB2943A5F48E286AD.mov</name>
                        <duration>97</duration>
                        <rate>
                            <timebase>25</timebase>
                            <ntsc>false</ntsc>
                        </rate>
                        <start>30227</start>
                        <end>30324</end>
                        <enabled>true</enabled>
                        <in>0</in>
                        <out>97</out>
                        <file id="КАССЕТНАЯ КАМЕРА 1_14_5A8BB2943A5F48E286AD.mov 2">
                            <duration>97</duration>
                            <rate>
                                <timebase>25</timebase>
                                <ntsc>false</ntsc>
                            </rate>
                            <name>КАССЕТНАЯ КАМЕРА 1_14_5A8BB2943A5F48E286AD.mov</name>
                            <pathurl>file:///Capture1/EDIUS/EDIUS7_Color/colored/pasyans_v3/%D0%9A%D0%90%D0%A1%D0%A1%D0%95%D0%A2%D0%9D%D0%90%D0%AF%20%D0%9A%D0%90%D0%9C%D0%95%D0%A0%D0%90%201_14_5A8BB2943A5F48E286AD_V1-0065.mov</pathurl>
                            <timecode>
                                <string>00:20:09:02</string>
                                <displayformat>NDF</displayformat>
                                <rate>
                                    <timebase>25</timebase>
                                    <ntsc>false</ntsc>
                                </rate>
                            </timecode>
                            <media>
                                <video>
                                    <duration>97</duration>
                                    <samplecharacteristics>
                                        <width>1920</width>
                                        <height>1080</height>
                                    </samplecharacteristics>
                                </video>
                            </media>
                        </file>
                        <compositemode>normal</compositemode>
                        <filter>
                            <enabled>true</enabled>
                            <start>0</start>
                            <end>97</end>
                            <effect>
                                <name>Opacity</name>
                                <effectid>opacity</effectid>
                                <effecttype>motion</effecttype>
                                <mediatype>video</mediatype>
                                <effectcategory>motion</effectcategory>
                                <parameter>
                                    <name>opacity</name>
                                    <parameterid>opacity</parameterid>
                                    <value>100</value>
                                    <valuemin>0</valuemin>
                                    <valuemax>100</valuemax>
                                </parameter>
                            </effect>
                        </filter>
                    </clipitem>
                    <clipitem id="972_0437_02_3_6F71E663C5B04070A9EE.mov 0">
                        <name>972_0437_02_3_6F71E663C5B04070A9EE.mov</name>
                        <duration>99</duration>
                        <rate>
                            <timebase>25</timebase>
                            <ntsc>false</ntsc>
                        </rate>
                        <start>30324</start>
                        <end>30423</end>
                        <enabled>true</enabled>
                        <in>0</in>
                        <out>99</out>
                        <file id="972_0437_02_3_6F71E663C5B04070A9EE.mov 2">
                            <duration>99</duration>
                            <rate>
                                <timebase>25</timebase>
                                <ntsc>false</ntsc>
                            </rate>
                            <name>972_0437_02_3_6F71E663C5B04070A9EE.mov</name>
                            <pathurl>file:///Capture1/EDIUS/EDIUS7_Color/colored/pasyans_v3/972_0437_02_3_6F71E663C5B04070A9EE_V1-0066.mov</pathurl>
                            <timecode>
                                <string>00:20:12:24</string>
                                <displayformat>NDF</displayformat>
                                <rate>
                                    <timebase>25</timebase>
                                    <ntsc>false</ntsc>
                                </rate>
                            </timecode>
                            <media>
                                <video>
                                    <duration>99</duration>
                                    <samplecharacteristics>
                                        <width>1920</width>
                                        <height>1080</height>
                                    </samplecharacteristics>
                                </video>
                            </media>
                        </file>
                        <compositemode>normal</compositemode>
                        <filter>
                            <enabled>true</enabled>
                            <start>0</start>
                            <end>99</end>
                            <effect>
                                <name>Opacity</name>
                                <effectid>opacity</effectid>
                                <effecttype>motion</effecttype>
                                <mediatype>video</mediatype>
                                <effectcategory>motion</effectcategory>
                                <parameter>
                                    <name>opacity</name>
                                    <parameterid>opacity</parameterid>
                                    <value>100</value>
                                    <valuemin>0</valuemin>
                                    <valuemax>100</valuemax>
                                </parameter>
                            </effect>
                        </filter>
                    </clipitem>
                    <clipitem id="общий план 3_6_57C2542A57A443CB8B36.mov 0">
                        <name>общий план 3_6_57C2542A57A443CB8B36.mov</name>
                        <duration>82</duration>
                        <rate>
                            <timebase>25</timebase>
                            <ntsc>false</ntsc>
                        </rate>
                        <start>30423</start>
                        <end>30506</end>
                        <enabled>true</enabled>
                        <in>0</in>
                        <out>83</out>
                        <file id="общий план 3_6_57C2542A57A443CB8B36.mov 2">
                            <duration>83</duration>
                            <rate>
                                <timebase>25</timebase>
                                <ntsc>false</ntsc>
                            </rate>
                            <name>общий план 3_6_57C2542A57A443CB8B36.mov</name>
                            <pathurl>file:///Capture1/EDIUS/EDIUS7_Color/colored/pasyans_v3/%D0%BE%D0%B1%D1%89%D0%B8%D0%B9%20%D0%BF%D0%BB%D0%B0%D0%BD%203_6_57C2542A57A443CB8B36_V1-0067.mov</pathurl>
                            <timecode>
                                <string>00:20:16:23</string>
                                <displayformat>NDF</displayformat>
                                <rate>
                                    <timebase>25</timebase>
                                    <ntsc>false</ntsc>
                                </rate>
                            </timecode>
                            <media>
                                <video>
                                    <duration>83</duration>
                                    <samplecharacteristics>
                                        <width>1920</width>
                                        <height>1080</height>
                                    </samplecharacteristics>
                                </video>
                            </media>
                        </file>
                        <compositemode>normal</compositemode>
                        <filter>
                            <enabled>true</enabled>
                            <start>0</start>
                            <end>82</end>
                            <effect>
                                <name>Opacity</name>
                                <effectid>opacity</effectid>
                                <effecttype>motion</effecttype>
                                <mediatype>video</mediatype>
                                <effectcategory>motion</effectcategory>
                                <parameter>
                                    <name>opacity</name>
                                    <parameterid>opacity</parameterid>
                                    <value>100</value>
                                    <valuemin>0</valuemin>
                                    <valuemax>100</valuemax>
                                </parameter>
                            </effect>
                        </filter>
                    </clipitem>
                    <clipitem id="КАССЕТНАЯ КАМЕРА 1_15_B8CA422FBCDB4311AFE6.mov 0">
                        <name>КАССЕТНАЯ КАМЕРА 1_15_B8CA422FBCDB4311AFE6.mov</name>
                        <duration>79</duration>
                        <rate>
                            <timebase>25</timebase>
                            <ntsc>false</ntsc>
                        </rate>
                        <start>30506</start>
                        <end>30585</end>
                        <enabled>true</enabled>
                        <in>0</in>
                        <out>79</out>
                        <file id="КАССЕТНАЯ КАМЕРА 1_15_B8CA422FBCDB4311AFE6.mov 2">
                            <duration>79</duration>
                            <rate>
                                <timebase>25</timebase>
                                <ntsc>false</ntsc>
                            </rate>
                            <name>КАССЕТНАЯ КАМЕРА 1_15_B8CA422FBCDB4311AFE6.mov</name>
                            <pathurl>file:///Capture1/EDIUS/EDIUS7_Color/colored/pasyans_v3/%D0%9A%D0%90%D0%A1%D0%A1%D0%95%D0%A2%D0%9D%D0%90%D0%AF%20%D0%9A%D0%90%D0%9C%D0%95%D0%A0%D0%90%201_15_B8CA422FBCDB4311AFE6_V1-0068.mov</pathurl>
                            <timecode>
                                <string>00:20:20:06</string>
                                <displayformat>NDF</displayformat>
                                <rate>
                                    <timebase>25</timebase>
                                    <ntsc>false</ntsc>
                                </rate>
                            </timecode>
                            <media>
                                <video>
                                    <duration>79</duration>
                                    <samplecharacteristics>
                                        <width>1920</width>
                                        <height>1080</height>
                                    </samplecharacteristics>
                                </video>
                            </media>
                        </file>
                        <compositemode>normal</compositemode>
                        <filter>
                            <enabled>true</enabled>
                            <start>0</start>
                            <end>79</end>
                            <effect>
                                <name>Opacity</name>
                                <effectid>opacity</effectid>
                                <effecttype>motion</effecttype>
                                <mediatype>video</mediatype>
                                <effectcategory>motion</effectcategory>
                                <parameter>
                                    <name>opacity</name>
                                    <parameterid>opacity</parameterid>
                                    <value>100</value>
                                    <valuemin>0</valuemin>
                                    <valuemax>100</valuemax>
                                </parameter>
                            </effect>
                        </filter>
                    </clipitem>
                    <clipitem id="GOPR8503_3_33DB8AC23F74424E86E8.mov 0">
                        <name>GOPR8503_3_33DB8AC23F74424E86E8.mov</name>
                        <duration>101</duration>
                        <rate>
                            <timebase>25</timebase>
                            <ntsc>false</ntsc>
                        </rate>
                        <start>30585</start>
                        <end>30687</end>
                        <enabled>true</enabled>
                        <in>0</in>
                        <out>102</out>
                        <file id="GOPR8503_3_33DB8AC23F74424E86E8.mov 2">
                            <duration>102</duration>
                            <rate>
                                <timebase>25</timebase>
                                <ntsc>false</ntsc>
                            </rate>
                            <name>GOPR8503_3_33DB8AC23F74424E86E8.mov</name>
                            <pathurl>file:///Capture1/EDIUS/EDIUS7_Color/colored/pasyans_v3/GOPR8503_3_33DB8AC23F74424E86E8_V1-0069.mov</pathurl>
                            <timecode>
                                <string>00:20:23:10</string>
                                <displayformat>NDF</displayformat>
                                <rate>
                                    <timebase>25</timebase>
                                    <ntsc>false</ntsc>
                                </rate>
                            </timecode>
                            <media>
                                <video>
                                    <duration>102</duration>
                                    <samplecharacteristics>
                                        <width>1920</width>
                                        <height>1080</height>
                                    </samplecharacteristics>
                                </video>
                            </media>
                        </file>
                        <compositemode>normal</compositemode>
                        <filter>
                            <enabled>true</enabled>
                            <start>0</start>
                            <end>101</end>
                            <effect>
                                <name>Opacity</name>
                                <effectid>opacity</effectid>
                                <effecttype>motion</effecttype>
                                <mediatype>video</mediatype>
                                <effectcategory>motion</effectcategory>
                                <parameter>
                                    <name>opacity</name>
                                    <parameterid>opacity</parameterid>
                                    <value>100</value>
                                    <valuemin>0</valuemin>
                                    <valuemax>100</valuemax>
                                </parameter>
                            </effect>
                        </filter>
                    </clipitem>
                    <clipitem id="КАССЕТНАЯ КАМЕРА 1_16_297B29735BDD46DE863C.mov 0">
                        <name>КАССЕТНАЯ КАМЕРА 1_16_297B29735BDD46DE863C.mov</name>
                        <duration>131</duration>
                        <rate>
                            <timebase>25</timebase>
                            <ntsc>false</ntsc>
                        </rate>
                        <start>30687</start>
                        <end>30818</end>
                        <enabled>true</enabled>
                        <in>0</in>
                        <out>131</out>
                        <file id="КАССЕТНАЯ КАМЕРА 1_16_297B29735BDD46DE863C.mov 2">
                            <duration>131</duration>
                            <rate>
                                <timebase>25</timebase>
                                <ntsc>false</ntsc>
                            </rate>
                            <name>КАССЕТНАЯ КАМЕРА 1_16_297B29735BDD46DE863C.mov</name>
                            <pathurl>file:///Capture1/EDIUS/EDIUS7_Color/colored/pasyans_v3/%D0%9A%D0%90%D0%A1%D0%A1%D0%95%D0%A2%D0%9D%D0%90%D0%AF%20%D0%9A%D0%90%D0%9C%D0%95%D0%A0%D0%90%201_16_297B29735BDD46DE863C_V1-0070.mov</pathurl>
                            <timecode>
                                <string>00:20:27:12</string>
                                <displayformat>NDF</displayformat>
                                <rate>
                                    <timebase>25</timebase>
                                    <ntsc>false</ntsc>
                                </rate>
                            </timecode>
                            <media>
                                <video>
                                    <duration>131</duration>
                                    <samplecharacteristics>
                                        <width>1920</width>
                                        <height>1080</height>
                                    </samplecharacteristics>
                                </video>
                            </media>
                        </file>
                        <compositemode>normal</compositemode>
                        <filter>
                            <enabled>true</enabled>
                            <start>0</start>
                            <end>131</end>
                            <effect>
                                <name>Opacity</name>
                                <effectid>opacity</effectid>
                                <effecttype>motion</effecttype>
                                <mediatype>video</mediatype>
                                <effectcategory>motion</effectcategory>
                                <parameter>
                                    <name>opacity</name>
                                    <parameterid>opacity</parameterid>
                                    <value>100</value>
                                    <valuemin>0</valuemin>
                                    <valuemax>100</valuemax>
                                </parameter>
                            </effect>
                        </filter>
                    </clipitem>
                    <clipitem id="общий план 3_7_0B5C6CDAA9774FF59F87.mov 0">
                        <name>общий план 3_7_0B5C6CDAA9774FF59F87.mov</name>
                        <duration>175</duration>
                        <rate>
                            <timebase>25</timebase>
                            <ntsc>false</ntsc>
                        </rate>
                        <start>30818</start>
                        <end>30993</end>
                        <enabled>true</enabled>
                        <in>0</in>
                        <out>175</out>
                        <file id="общий план 3_7_0B5C6CDAA9774FF59F87.mov 2">
                            <duration>175</duration>
                            <rate>
                                <timebase>25</timebase>
                                <ntsc>false</ntsc>
                            </rate>
                            <name>общий план 3_7_0B5C6CDAA9774FF59F87.mov</name>
                            <pathurl>file:///Capture1/EDIUS/EDIUS7_Color/colored/pasyans_v3/%D0%BE%D0%B1%D1%89%D0%B8%D0%B9%20%D0%BF%D0%BB%D0%B0%D0%BD%203_7_0B5C6CDAA9774FF59F87_V1-0071.mov</pathurl>
                            <timecode>
                                <string>00:20:32:18</string>
                                <displayformat>NDF</displayformat>
                                <rate>
                                    <timebase>25</timebase>
                                    <ntsc>false</ntsc>
                                </rate>
                            </timecode>
                            <media>
                                <video>
                                    <duration>175</duration>
                                    <samplecharacteristics>
                                        <width>1920</width>
                                        <height>1080</height>
                                    </samplecharacteristics>
                                </video>
                            </media>
                        </file>
                        <compositemode>normal</compositemode>
                        <filter>
                            <enabled>true</enabled>
                            <start>0</start>
                            <end>175</end>
                            <effect>
                                <name>Opacity</name>
                                <effectid>opacity</effectid>
                                <effecttype>motion</effecttype>
                                <mediatype>video</mediatype>
                                <effectcategory>motion</effectcategory>
                                <parameter>
                                    <name>opacity</name>
                                    <parameterid>opacity</parameterid>
                                    <value>100</value>
                                    <valuemin>0</valuemin>
                                    <valuemax>100</valuemax>
                                </parameter>
                            </effect>
                        </filter>
                    </clipitem>
                    <clipitem id="КАССЕТНАЯ КАМЕРА 1_17_02057D771C9843FA84B6.mov 0">
                        <name>КАССЕТНАЯ КАМЕРА 1_17_02057D771C9843FA84B6.mov</name>
                        <duration>225</duration>
                        <rate>
                            <timebase>25</timebase>
                            <ntsc>false</ntsc>
                        </rate>
                        <start>30993</start>
                        <end>31218</end>
                        <enabled>true</enabled>
                        <in>0</in>
                        <out>225</out>
                        <file id="КАССЕТНАЯ КАМЕРА 1_17_02057D771C9843FA84B6.mov 2">
                            <duration>225</duration>
                            <rate>
                                <timebase>25</timebase>
                                <ntsc>false</ntsc>
                            </rate>
                            <name>КАССЕТНАЯ КАМЕРА 1_17_02057D771C9843FA84B6.mov</name>
                            <pathurl>file:///Capture1/EDIUS/EDIUS7_Color/colored/pasyans_v3/%D0%9A%D0%90%D0%A1%D0%A1%D0%95%D0%A2%D0%9D%D0%90%D0%AF%20%D0%9A%D0%90%D0%9C%D0%95%D0%A0%D0%90%201_17_02057D771C9843FA84B6_V1-0072.mov</pathurl>
                            <timecode>
                                <string>00:20:39:18</string>
                                <displayformat>NDF</displayformat>
                                <rate>
                                    <timebase>25</timebase>
                                    <ntsc>false</ntsc>
                                </rate>
                            </timecode>
                            <media>
                                <video>
                                    <duration>225</duration>
                                    <samplecharacteristics>
                                        <width>1920</width>
                                        <height>1080</height>
                                    </samplecharacteristics>
                                </video>
                            </media>
                        </file>
                        <compositemode>normal</compositemode>
                        <filter>
                            <enabled>true</enabled>
                            <start>0</start>
                            <end>225</end>
                            <effect>
                                <name>Opacity</name>
                                <effectid>opacity</effectid>
                                <effecttype>motion</effecttype>
                                <mediatype>video</mediatype>
                                <effectcategory>motion</effectcategory>
                                <parameter>
                                    <name>opacity</name>
                                    <parameterid>opacity</parameterid>
                                    <value>100</value>
                                    <valuemin>0</valuemin>
                                    <valuemax>100</valuemax>
                                </parameter>
                            </effect>
                        </filter>
                    </clipitem>
                    <clipitem id="GOPR8503_4_3A36151330B54514A1B7.mov 0">
                        <name>GOPR8503_4_3A36151330B54514A1B7.mov</name>
                        <duration>156</duration>
                        <rate>
                            <timebase>25</timebase>
                            <ntsc>false</ntsc>
                        </rate>
                        <start>31218</start>
                        <end>31374</end>
                        <enabled>true</enabled>
                        <in>0</in>
                        <out>156</out>
                        <file id="GOPR8503_4_3A36151330B54514A1B7.mov 2">
                            <duration>156</duration>
                            <rate>
                                <timebase>25</timebase>
                                <ntsc>false</ntsc>
                            </rate>
                            <name>GOPR8503_4_3A36151330B54514A1B7.mov</name>
                            <pathurl>file:///Capture1/EDIUS/EDIUS7_Color/colored/pasyans_v3/GOPR8503_4_3A36151330B54514A1B7_V1-0073.mov</pathurl>
                            <timecode>
                                <string>00:20:48:18</string>
                                <displayformat>NDF</displayformat>
                                <rate>
                                    <timebase>25</timebase>
                                    <ntsc>false</ntsc>
                                </rate>
                            </timecode>
                            <media>
                                <video>
                                    <duration>156</duration>
                                    <samplecharacteristics>
                                        <width>1920</width>
                                        <height>1080</height>
                                    </samplecharacteristics>
                                </video>
                            </media>
                        </file>
                        <compositemode>normal</compositemode>
                        <filter>
                            <enabled>true</enabled>
                            <start>0</start>
                            <end>156</end>
                            <effect>
                                <name>Opacity</name>
                                <effectid>opacity</effectid>
                                <effecttype>motion</effecttype>
                                <mediatype>video</mediatype>
                                <effectcategory>motion</effectcategory>
                                <parameter>
                                    <name>opacity</name>
                                    <parameterid>opacity</parameterid>
                                    <value>100</value>
                                    <valuemin>0</valuemin>
                                    <valuemax>100</valuemax>
                                </parameter>
                            </effect>
                        </filter>
                    </clipitem>
                    <clipitem id="972_0437_02_4_23CB98384F43457B83B7.mov 0">
                        <name>972_0437_02_4_23CB98384F43457B83B7.mov</name>
                        <duration>151</duration>
                        <rate>
                            <timebase>25</timebase>
                            <ntsc>false</ntsc>
                        </rate>
                        <start>31374</start>
                        <end>31526</end>
                        <enabled>true</enabled>
                        <in>0</in>
                        <out>152</out>
                        <file id="972_0437_02_4_23CB98384F43457B83B7.mov 2">
                            <duration>152</duration>
                            <rate>
                                <timebase>25</timebase>
                                <ntsc>false</ntsc>
                            </rate>
                            <name>972_0437_02_4_23CB98384F43457B83B7.mov</name>
                            <pathurl>file:///Capture1/EDIUS/EDIUS7_Color/colored/pasyans_v3/972_0437_02_4_23CB98384F43457B83B7_V1-0074.mov</pathurl>
                            <timecode>
                                <string>00:20:54:24</string>
                                <displayformat>NDF</displayformat>
                                <rate>
                                    <timebase>25</timebase>
                                    <ntsc>false</ntsc>
                                </rate>
                            </timecode>
                            <media>
                                <video>
                                    <duration>152</duration>
                                    <samplecharacteristics>
                                        <width>1920</width>
                                        <height>1080</height>
                                    </samplecharacteristics>
                                </video>
                            </media>
                        </file>
                        <compositemode>normal</compositemode>
                        <filter>
                            <enabled>true</enabled>
                            <start>0</start>
                            <end>151</end>
                            <effect>
                                <name>Opacity</name>
                                <effectid>opacity</effectid>
                                <effecttype>motion</effecttype>
                                <mediatype>video</mediatype>
                                <effectcategory>motion</effectcategory>
                                <parameter>
                                    <name>opacity</name>
                                    <parameterid>opacity</parameterid>
                                    <value>100</value>
                                    <valuemin>0</valuemin>
                                    <valuemax>100</valuemax>
                                </parameter>
                            </effect>
                        </filter>
                    </clipitem>
                    <clipitem id="общий план 3_8_69B66525A24740AE9484.mov 0">
                        <name>общий план 3_8_69B66525A24740AE9484.mov</name>
                        <duration>138</duration>
                        <rate>
                            <timebase>25</timebase>
                            <ntsc>false</ntsc>
                        </rate>
                        <start>31526</start>
                        <end>31665</end>
                        <enabled>true</enabled>
                        <in>0</in>
                        <out>139</out>
                        <file id="общий план 3_8_69B66525A24740AE9484.mov 2">
                            <duration>139</duration>
                            <rate>
                                <timebase>25</timebase>
                                <ntsc>false</ntsc>
                            </rate>
                            <name>общий план 3_8_69B66525A24740AE9484.mov</name>
                            <pathurl>file:///Capture1/EDIUS/EDIUS7_Color/colored/pasyans_v3/%D0%BE%D0%B1%D1%89%D0%B8%D0%B9%20%D0%BF%D0%BB%D0%B0%D0%BD%203_8_69B66525A24740AE9484_V1-0075.mov</pathurl>
                            <timecode>
                                <string>00:21:01:01</string>
                                <displayformat>NDF</displayformat>
                                <rate>
                                    <timebase>25</timebase>
                                    <ntsc>false</ntsc>
                                </rate>
                            </timecode>
                            <media>
                                <video>
                                    <duration>139</duration>
                                    <samplecharacteristics>
                                        <width>1920</width>
                                        <height>1080</height>
                                    </samplecharacteristics>
                                </video>
                            </media>
                        </file>
                        <compositemode>normal</compositemode>
                        <filter>
                            <enabled>true</enabled>
                            <start>0</start>
                            <end>138</end>
                            <effect>
                                <name>Opacity</name>
                                <effectid>opacity</effectid>
                                <effecttype>motion</effecttype>
                                <mediatype>video</mediatype>
                                <effectcategory>motion</effectcategory>
                                <parameter>
                                    <name>opacity</name>
                                    <parameterid>opacity</parameterid>
                                    <value>100</value>
                                    <valuemin>0</valuemin>
                                    <valuemax>100</valuemax>
                                </parameter>
                            </effect>
                        </filter>
                    </clipitem>
                    <clipitem id="246_0922_02_2_40AAF91EDCCF4DF9A07E.mov 0">
                        <name>246_0922_02_2_40AAF91EDCCF4DF9A07E.mov</name>
                        <duration>118</duration>
                        <rate>
                            <timebase>25</timebase>
                            <ntsc>false</ntsc>
                        </rate>
                        <start>31665</start>
                        <end>31783</end>
                        <enabled>true</enabled>
                        <in>0</in>
                        <out>118</out>
                        <file id="246_0922_02_2_40AAF91EDCCF4DF9A07E.mov 2">
                            <duration>118</duration>
                            <rate>
                                <timebase>25</timebase>
                                <ntsc>false</ntsc>
                            </rate>
                            <name>246_0922_02_2_40AAF91EDCCF4DF9A07E.mov</name>
                            <pathurl>file:///Capture1/EDIUS/EDIUS7_Color/colored/pasyans_v3/246_0922_02_2_40AAF91EDCCF4DF9A07E_V1-0076.mov</pathurl>
                            <timecode>
                                <string>00:21:06:15</string>
                                <displayformat>NDF</displayformat>
                                <rate>
                                    <timebase>25</timebase>
                                    <ntsc>false</ntsc>
                                </rate>
                            </timecode>
                            <media>
                                <video>
                                    <duration>118</duration>
                                    <samplecharacteristics>
                                        <width>1920</width>
                                        <height>1080</height>
                                    </samplecharacteristics>
                                </video>
                            </media>
                        </file>
                        <compositemode>normal</compositemode>
                        <filter>
                            <enabled>true</enabled>
                            <start>0</start>
                            <end>118</end>
                            <effect>
                                <name>Opacity</name>
                                <effectid>opacity</effectid>
                                <effecttype>motion</effecttype>
                                <mediatype>video</mediatype>
                                <effectcategory>motion</effectcategory>
                                <parameter>
                                    <name>opacity</name>
                                    <parameterid>opacity</parameterid>
                                    <value>100</value>
                                    <valuemin>0</valuemin>
                                    <valuemax>100</valuemax>
                                </parameter>
                            </effect>
                        </filter>
                    </clipitem>
                    <clipitem id="общий план 3_9_1C2037E7468D41D59EB1.mov 0">
                        <name>общий план 3_9_1C2037E7468D41D59EB1.mov</name>
                        <duration>111</duration>
                        <rate>
                            <timebase>25</timebase>
                            <ntsc>false</ntsc>
                        </rate>
                        <start>31783</start>
                        <end>31894</end>
                        <enabled>true</enabled>
                        <in>0</in>
                        <out>111</out>
                        <file id="общий план 3_9_1C2037E7468D41D59EB1.mov 2">
                            <duration>111</duration>
                            <rate>
                                <timebase>25</timebase>
                                <ntsc>false</ntsc>
                            </rate>
                            <name>общий план 3_9_1C2037E7468D41D59EB1.mov</name>
                            <pathurl>file:///Capture1/EDIUS/EDIUS7_Color/colored/pasyans_v3/%D0%BE%D0%B1%D1%89%D0%B8%D0%B9%20%D0%BF%D0%BB%D0%B0%D0%BD%203_9_1C2037E7468D41D59EB1_V1-0077.mov</pathurl>
                            <timecode>
                                <string>00:21:11:08</string>
                                <displayformat>NDF</displayformat>
                                <rate>
                                    <timebase>25</timebase>
                                    <ntsc>false</ntsc>
                                </rate>
                            </timecode>
                            <media>
                                <video>
                                    <duration>111</duration>
                                    <samplecharacteristics>
                                        <width>1920</width>
                                        <height>1080</height>
                                    </samplecharacteristics>
                                </video>
                            </media>
                        </file>
                        <compositemode>normal</compositemode>
                        <filter>
                            <enabled>true</enabled>
                            <start>0</start>
                            <end>111</end>
                            <effect>
                                <name>Opacity</name>
                                <effectid>opacity</effectid>
                                <effecttype>motion</effecttype>
                                <mediatype>video</mediatype>
                                <effectcategory>motion</effectcategory>
                                <parameter>
                                    <name>opacity</name>
                                    <parameterid>opacity</parameterid>
                                    <value>100</value>
                                    <valuemin>0</valuemin>
                                    <valuemax>100</valuemax>
                                </parameter>
                            </effect>
                        </filter>
                    </clipitem>
                    <clipitem id="КАССЕТНАЯ КАМЕРА 1_18_14B73945EEFF482EA621.mov 0">
                        <name>КАССЕТНАЯ КАМЕРА 1_18_14B73945EEFF482EA621.mov</name>
                        <duration>83</duration>
                        <rate>
                            <timebase>25</timebase>
                            <ntsc>false</ntsc>
                        </rate>
                        <start>31894</start>
                        <end>31978</end>
                        <enabled>true</enabled>
                        <in>0</in>
                        <out>84</out>
                        <file id="КАССЕТНАЯ КАМЕРА 1_18_14B73945EEFF482EA621.mov 2">
                            <duration>84</duration>
                            <rate>
                                <timebase>25</timebase>
                                <ntsc>false</ntsc>
                            </rate>
                            <name>КАССЕТНАЯ КАМЕРА 1_18_14B73945EEFF482EA621.mov</name>
                            <pathurl>file:///Capture1/EDIUS/EDIUS7_Color/colored/pasyans_v3/%D0%9A%D0%90%D0%A1%D0%A1%D0%95%D0%A2%D0%9D%D0%90%D0%AF%20%D0%9A%D0%90%D0%9C%D0%95%D0%A0%D0%90%201_18_14B73945EEFF482EA621_V1-0078.mov</pathurl>
                            <timecode>
                                <string>00:21:15:19</string>
                                <displayformat>NDF</displayformat>
                                <rate>
                                    <timebase>25</timebase>
                                    <ntsc>false</ntsc>
                                </rate>
                            </timecode>
                            <media>
                                <video>
                                    <duration>84</duration>
                                    <samplecharacteristics>
                                        <width>1920</width>
                                        <height>1080</height>
                                    </samplecharacteristics>
                                </video>
                            </media>
                        </file>
                        <compositemode>normal</compositemode>
                        <filter>
                            <enabled>true</enabled>
                            <start>0</start>
                            <end>83</end>
                            <effect>
                                <name>Opacity</name>
                                <effectid>opacity</effectid>
                                <effecttype>motion</effecttype>
                                <mediatype>video</mediatype>
                                <effectcategory>motion</effectcategory>
                                <parameter>
                                    <name>opacity</name>
                                    <parameterid>opacity</parameterid>
                                    <value>100</value>
                                    <valuemin>0</valuemin>
                                    <valuemax>100</valuemax>
                                </parameter>
                            </effect>
                        </filter>
                    </clipitem>
                    <clipitem id="972_0437_02_5_75D75334E7864FB4BB73.mov 0">
                        <name>972_0437_02_5_75D75334E7864FB4BB73.mov</name>
                        <duration>66</duration>
                        <rate>
                            <timebase>25</timebase>
                            <ntsc>false</ntsc>
                        </rate>
                        <start>31978</start>
                        <end>32044</end>
                        <enabled>true</enabled>
                        <in>0</in>
                        <out>66</out>
                        <file id="972_0437_02_5_75D75334E7864FB4BB73.mov 2">
                            <duration>66</duration>
                            <rate>
                                <timebase>25</timebase>
                                <ntsc>false</ntsc>
                            </rate>
                            <name>972_0437_02_5_75D75334E7864FB4BB73.mov</name>
                            <pathurl>file:///Capture1/EDIUS/EDIUS7_Color/colored/pasyans_v3/972_0437_02_5_75D75334E7864FB4BB73_V1-0079.mov</pathurl>
                            <timecode>
                                <string>00:21:19:03</string>
                                <displayformat>NDF</displayformat>
                                <rate>
                                    <timebase>25</timebase>
                                    <ntsc>false</ntsc>
                                </rate>
                            </timecode>
                            <media>
                                <video>
                                    <duration>66</duration>
                                    <samplecharacteristics>
                                        <width>1920</width>
                                        <height>1080</height>
                                    </samplecharacteristics>
                                </video>
                            </media>
                        </file>
                        <compositemode>normal</compositemode>
                        <filter>
                            <enabled>true</enabled>
                            <start>0</start>
                            <end>66</end>
                            <effect>
                                <name>Opacity</name>
                                <effectid>opacity</effectid>
                                <effecttype>motion</effecttype>
                                <mediatype>video</mediatype>
                                <effectcategory>motion</effectcategory>
                                <parameter>
                                    <name>opacity</name>
                                    <parameterid>opacity</parameterid>
                                    <value>100</value>
                                    <valuemin>0</valuemin>
                                    <valuemax>100</valuemax>
                                </parameter>
                            </effect>
                        </filter>
                    </clipitem>
                    <clipitem id="246_0922_02_3_532B9E5EC6DE4175AED5.mov 0">
                        <name>246_0922_02_3_532B9E5EC6DE4175AED5.mov</name>
                        <duration>51</duration>
                        <rate>
                            <timebase>25</timebase>
                            <ntsc>false</ntsc>
                        </rate>
                        <start>32044</start>
                        <end>32096</end>
                        <enabled>true</enabled>
                        <in>0</in>
                        <out>52</out>
                        <file id="246_0922_02_3_532B9E5EC6DE4175AED5.mov 2">
                            <duration>52</duration>
                            <rate>
                                <timebase>25</timebase>
                                <ntsc>false</ntsc>
                            </rate>
                            <name>246_0922_02_3_532B9E5EC6DE4175AED5.mov</name>
                            <pathurl>file:///Capture1/EDIUS/EDIUS7_Color/colored/pasyans_v3/246_0922_02_3_532B9E5EC6DE4175AED5_V1-0080.mov</pathurl>
                            <timecode>
                                <string>00:21:21:19</string>
                                <displayformat>NDF</displayformat>
                                <rate>
                                    <timebase>25</timebase>
                                    <ntsc>false</ntsc>
                                </rate>
                            </timecode>
                            <media>
                                <video>
                                    <duration>52</duration>
                                    <samplecharacteristics>
                                        <width>1920</width>
                                        <height>1080</height>
                                    </samplecharacteristics>
                                </video>
                            </media>
                        </file>
                        <compositemode>normal</compositemode>
                        <filter>
                            <enabled>true</enabled>
                            <start>0</start>
                            <end>51</end>
                            <effect>
                                <name>Opacity</name>
                                <effectid>opacity</effectid>
                                <effecttype>motion</effecttype>
                                <mediatype>video</mediatype>
                                <effectcategory>motion</effectcategory>
                                <parameter>
                                    <name>opacity</name>
                                    <parameterid>opacity</parameterid>
                                    <value>100</value>
                                    <valuemin>0</valuemin>
                                    <valuemax>100</valuemax>
                                </parameter>
                            </effect>
                        </filter>
                    </clipitem>
                    <clipitem id="КАССЕТНАЯ КАМЕРА 1_19_15B5980A8C544DD18452.mov 0">
                        <name>КАССЕТНАЯ КАМЕРА 1_19_15B5980A8C544DD18452.mov</name>
                        <duration>66</duration>
                        <rate>
                            <timebase>25</timebase>
                            <ntsc>false</ntsc>
                        </rate>
                        <start>32096</start>
                        <end>32162</end>
                        <enabled>true</enabled>
                        <in>0</in>
                        <out>66</out>
                        <file id="КАССЕТНАЯ КАМЕРА 1_19_15B5980A8C544DD18452.mov 2">
                            <duration>66</duration>
                            <rate>
                                <timebase>25</timebase>
                                <ntsc>false</ntsc>
                            </rate>
                            <name>КАССЕТНАЯ КАМЕРА 1_19_15B5980A8C544DD18452.mov</name>
                            <pathurl>file:///Capture1/EDIUS/EDIUS7_Color/colored/pasyans_v3/%D0%9A%D0%90%D0%A1%D0%A1%D0%95%D0%A2%D0%9D%D0%90%D0%AF%20%D0%9A%D0%90%D0%9C%D0%95%D0%A0%D0%90%201_19_15B5980A8C544DD18452_V1-0081.mov</pathurl>
                            <timecode>
                                <string>00:21:23:21</string>
                                <displayformat>NDF</displayformat>
                                <rate>
                                    <timebase>25</timebase>
                                    <ntsc>false</ntsc>
                                </rate>
                            </timecode>
                            <media>
                                <video>
                                    <duration>66</duration>
                                    <samplecharacteristics>
                                        <width>1920</width>
                                        <height>1080</height>
                                    </samplecharacteristics>
                                </video>
                            </media>
                        </file>
                        <compositemode>normal</compositemode>
                        <filter>
                            <enabled>true</enabled>
                            <start>0</start>
                            <end>66</end>
                            <effect>
                                <name>Opacity</name>
                                <effectid>opacity</effectid>
                                <effecttype>motion</effecttype>
                                <mediatype>video</mediatype>
                                <effectcategory>motion</effectcategory>
                                <parameter>
                                    <name>opacity</name>
                                    <parameterid>opacity</parameterid>
                                    <value>100</value>
                                    <valuemin>0</valuemin>
                                    <valuemax>100</valuemax>
                                </parameter>
                            </effect>
                        </filter>
                    </clipitem>
                    <clipitem id="972_0437_02_6_1E6B5DA030564693A246.mov 0">
                        <name>972_0437_02_6_1E6B5DA030564693A246.mov</name>
                        <duration>49</duration>
                        <rate>
                            <timebase>25</timebase>
                            <ntsc>false</ntsc>
                        </rate>
                        <start>32162</start>
                        <end>32211</end>
                        <enabled>true</enabled>
                        <in>0</in>
                        <out>49</out>
                        <file id="972_0437_02_6_1E6B5DA030564693A246.mov 2">
                            <duration>49</duration>
                            <rate>
                                <timebase>25</timebase>
                                <ntsc>false</ntsc>
                            </rate>
                            <name>972_0437_02_6_1E6B5DA030564693A246.mov</name>
                            <pathurl>file:///Capture1/EDIUS/EDIUS7_Color/colored/pasyans_v3/972_0437_02_6_1E6B5DA030564693A246_V1-0082.mov</pathurl>
                            <timecode>
                                <string>00:21:26:12</string>
                                <displayformat>NDF</displayformat>
                                <rate>
                                    <timebase>25</timebase>
                                    <ntsc>false</ntsc>
                                </rate>
                            </timecode>
                            <media>
                                <video>
                                    <duration>49</duration>
                                    <samplecharacteristics>
                                        <width>1920</width>
                                        <height>1080</height>
                                    </samplecharacteristics>
                                </video>
                            </media>
                        </file>
                        <compositemode>normal</compositemode>
                        <filter>
                            <enabled>true</enabled>
                            <start>0</start>
                            <end>49</end>
                            <effect>
                                <name>Opacity</name>
                                <effectid>opacity</effectid>
                                <effecttype>motion</effecttype>
                                <mediatype>video</mediatype>
                                <effectcategory>motion</effectcategory>
                                <parameter>
                                    <name>opacity</name>
                                    <parameterid>opacity</parameterid>
                                    <value>100</value>
                                    <valuemin>0</valuemin>
                                    <valuemax>100</valuemax>
                                </parameter>
                            </effect>
                        </filter>
                    </clipitem>
                    <clipitem id="общий план 3_10_D67B91F91A454A949430.mov 0">
                        <name>общий план 3_10_D67B91F91A454A949430.mov</name>
                        <duration>125</duration>
                        <rate>
                            <timebase>25</timebase>
                            <ntsc>false</ntsc>
                        </rate>
                        <start>32211</start>
                        <end>32337</end>
                        <enabled>true</enabled>
                        <in>0</in>
                        <out>126</out>
                        <file id="общий план 3_10_D67B91F91A454A949430.mov 2">
                            <duration>126</duration>
                            <rate>
                                <timebase>25</timebase>
                                <ntsc>false</ntsc>
                            </rate>
                            <name>общий план 3_10_D67B91F91A454A949430.mov</name>
                            <pathurl>file:///Capture1/EDIUS/EDIUS7_Color/colored/pasyans_v3/%D0%BE%D0%B1%D1%89%D0%B8%D0%B9%20%D0%BF%D0%BB%D0%B0%D0%BD%203_10_D67B91F91A454A949430_V1-0083.mov</pathurl>
                            <timecode>
                                <string>00:21:28:11</string>
                                <displayformat>NDF</displayformat>
                                <rate>
                                    <timebase>25</timebase>
                                    <ntsc>false</ntsc>
                                </rate>
                            </timecode>
                            <media>
                                <video>
                                    <duration>126</duration>
                                    <samplecharacteristics>
                                        <width>1920</width>
                                        <height>1080</height>
                                    </samplecharacteristics>
                                </video>
                            </media>
                        </file>
                        <compositemode>normal</compositemode>
                        <filter>
                            <enabled>true</enabled>
                            <start>0</start>
                            <end>125</end>
                            <effect>
                                <name>Opacity</name>
                                <effectid>opacity</effectid>
                                <effecttype>motion</effecttype>
                                <mediatype>video</mediatype>
                                <effectcategory>motion</effectcategory>
                                <parameter>
                                    <name>opacity</name>
                                    <parameterid>opacity</parameterid>
                                    <value>100</value>
                                    <valuemin>0</valuemin>
                                    <valuemax>100</valuemax>
                                </parameter>
                            </effect>
                        </filter>
                    </clipitem>
                    <clipitem id="общий план 4_1_9CC2BC0B32EB445FBCE6.mov 0">
                        <name>общий план 4_1_9CC2BC0B32EB445FBCE6.mov</name>
                        <duration>168</duration>
                        <rate>
                            <timebase>25</timebase>
                            <ntsc>false</ntsc>
                        </rate>
                        <start>35562</start>
                        <end>35731</end>
                        <enabled>true</enabled>
                        <in>0</in>
                        <out>169</out>
                        <file id="общий план 4_1_9CC2BC0B32EB445FBCE6.mov 2">
                            <duration>169</duration>
                            <rate>
                                <timebase>25</timebase>
                                <ntsc>false</ntsc>
                            </rate>
                            <name>общий план 4_1_9CC2BC0B32EB445FBCE6.mov</name>
                            <pathurl>file:///Capture1/EDIUS/EDIUS7_Color/colored/pasyans_v3/%D0%BE%D0%B1%D1%89%D0%B8%D0%B9%20%D0%BF%D0%BB%D0%B0%D0%BD%204_1_9CC2BC0B32EB445FBCE6_V1-0084.mov</pathurl>
                            <timecode>
                                <string>00:23:42:12</string>
                                <displayformat>NDF</displayformat>
                                <rate>
                                    <timebase>25</timebase>
                                    <ntsc>false</ntsc>
                                </rate>
                            </timecode>
                            <media>
                                <video>
                                    <duration>169</duration>
                                    <samplecharacteristics>
                                        <width>1920</width>
                                        <height>1080</height>
                                    </samplecharacteristics>
                                </video>
                            </media>
                        </file>
                        <compositemode>normal</compositemode>
                        <filter>
                            <enabled>true</enabled>
                            <start>0</start>
                            <end>168</end>
                            <effect>
                                <name>Opacity</name>
                                <effectid>opacity</effectid>
                                <effecttype>motion</effecttype>
                                <mediatype>video</mediatype>
                                <effectcategory>motion</effectcategory>
                                <parameter>
                                    <name>opacity</name>
                                    <parameterid>opacity</parameterid>
                                    <value>100</value>
                                    <valuemin>0</valuemin>
                                    <valuemax>100</valuemax>
                                </parameter>
                            </effect>
                        </filter>
                    </clipitem>
                    <clipitem id="КАССЕТНАЯ КАМЕРА 1_20_687D1AE6594C4E76BC51.mov 0">
                        <name>КАССЕТНАЯ КАМЕРА 1_20_687D1AE6594C4E76BC51.mov</name>
                        <duration>89</duration>
                        <rate>
                            <timebase>25</timebase>
                            <ntsc>false</ntsc>
                        </rate>
                        <start>35731</start>
                        <end>35821</end>
                        <enabled>true</enabled>
                        <in>0</in>
                        <out>90</out>
                        <file id="КАССЕТНАЯ КАМЕРА 1_20_687D1AE6594C4E76BC51.mov 2">
                            <duration>90</duration>
                            <rate>
                                <timebase>25</timebase>
                                <ntsc>false</ntsc>
                            </rate>
                            <name>КАССЕТНАЯ КАМЕРА 1_20_687D1AE6594C4E76BC51.mov</name>
                            <pathurl>file:///Capture1/EDIUS/EDIUS7_Color/colored/pasyans_v3/%D0%9A%D0%90%D0%A1%D0%A1%D0%95%D0%A2%D0%9D%D0%90%D0%AF%20%D0%9A%D0%90%D0%9C%D0%95%D0%A0%D0%90%201_20_687D1AE6594C4E76BC51_V1-0085.mov</pathurl>
                            <timecode>
                                <string>00:23:49:06</string>
                                <displayformat>NDF</displayformat>
                                <rate>
                                    <timebase>25</timebase>
                                    <ntsc>false</ntsc>
                                </rate>
                            </timecode>
                            <media>
                                <video>
                                    <duration>90</duration>
                                    <samplecharacteristics>
                                        <width>1920</width>
                                        <height>1080</height>
                                    </samplecharacteristics>
                                </video>
                            </media>
                        </file>
                        <compositemode>normal</compositemode>
                        <filter>
                            <enabled>true</enabled>
                            <start>0</start>
                            <end>89</end>
                            <effect>
                                <name>Opacity</name>
                                <effectid>opacity</effectid>
                                <effecttype>motion</effecttype>
                                <mediatype>video</mediatype>
                                <effectcategory>motion</effectcategory>
                                <parameter>
                                    <name>opacity</name>
                                    <parameterid>opacity</parameterid>
                                    <value>100</value>
                                    <valuemin>0</valuemin>
                                    <valuemax>100</valuemax>
                                </parameter>
                            </effect>
                        </filter>
                    </clipitem>
                    <clipitem id="общий план 4_2_4E8C3B787B004C5B92CE.mov 0">
                        <name>общий план 4_2_4E8C3B787B004C5B92CE.mov</name>
                        <duration>336</duration>
                        <rate>
                            <timebase>25</timebase>
                            <ntsc>false</ntsc>
                        </rate>
                        <start>35968</start>
                        <end>36304</end>
                        <enabled>true</enabled>
                        <in>0</in>
                        <out>336</out>
                        <file id="общий план 4_2_4E8C3B787B004C5B92CE.mov 2">
                            <duration>336</duration>
                            <rate>
                                <timebase>25</timebase>
                                <ntsc>false</ntsc>
                            </rate>
                            <name>общий план 4_2_4E8C3B787B004C5B92CE.mov</name>
                            <pathurl>file:///Capture1/EDIUS/EDIUS7_Color/colored/pasyans_v3/%D0%BE%D0%B1%D1%89%D0%B8%D0%B9%20%D0%BF%D0%BB%D0%B0%D0%BD%204_2_4E8C3B787B004C5B92CE_V1-0086.mov</pathurl>
                            <timecode>
                                <string>00:23:58:18</string>
                                <displayformat>NDF</displayformat>
                                <rate>
                                    <timebase>25</timebase>
                                    <ntsc>false</ntsc>
                                </rate>
                            </timecode>
                            <media>
                                <video>
                                    <duration>336</duration>
                                    <samplecharacteristics>
                                        <width>1920</width>
                                        <height>1080</height>
                                    </samplecharacteristics>
                                </video>
                            </media>
                        </file>
                        <compositemode>normal</compositemode>
                        <filter>
                            <enabled>true</enabled>
                            <start>0</start>
                            <end>336</end>
                            <effect>
                                <name>Opacity</name>
                                <effectid>opacity</effectid>
                                <effecttype>motion</effecttype>
                                <mediatype>video</mediatype>
                                <effectcategory>motion</effectcategory>
                                <parameter>
                                    <name>opacity</name>
                                    <parameterid>opacity</parameterid>
                                    <value>100</value>
                                    <valuemin>0</valuemin>
                                    <valuemax>100</valuemax>
                                </parameter>
                            </effect>
                        </filter>
                    </clipitem>
                    <clipitem id="КАССЕТНАЯ КАМЕРА 1_21_6B5B162F90E546AFA1DB.mov 0">
                        <name>КАССЕТНАЯ КАМЕРА 1_21_6B5B162F90E546AFA1DB.mov</name>
                        <duration>324</duration>
                        <rate>
                            <timebase>25</timebase>
                            <ntsc>false</ntsc>
                        </rate>
                        <start>36304</start>
                        <end>36628</end>
                        <enabled>true</enabled>
                        <in>0</in>
                        <out>324</out>
                        <file id="КАССЕТНАЯ КАМЕРА 1_21_6B5B162F90E546AFA1DB.mov 2">
                            <duration>324</duration>
                            <rate>
                                <timebase>25</timebase>
                                <ntsc>false</ntsc>
                            </rate>
                            <name>КАССЕТНАЯ КАМЕРА 1_21_6B5B162F90E546AFA1DB.mov</name>
                            <pathurl>file:///Capture1/EDIUS/EDIUS7_Color/colored/pasyans_v3/%D0%9A%D0%90%D0%A1%D0%A1%D0%95%D0%A2%D0%9D%D0%90%D0%AF%20%D0%9A%D0%90%D0%9C%D0%95%D0%A0%D0%90%201_21_6B5B162F90E546AFA1DB_V1-0087.mov</pathurl>
                            <timecode>
                                <string>00:24:12:04</string>
                                <displayformat>NDF</displayformat>
                                <rate>
                                    <timebase>25</timebase>
                                    <ntsc>false</ntsc>
                                </rate>
                            </timecode>
                            <media>
                                <video>
                                    <duration>324</duration>
                                    <samplecharacteristics>
                                        <width>1920</width>
                                        <height>1080</height>
                                    </samplecharacteristics>
                                </video>
                            </media>
                        </file>
                        <compositemode>normal</compositemode>
                        <filter>
                            <enabled>true</enabled>
                            <start>0</start>
                            <end>324</end>
                            <effect>
                                <name>Opacity</name>
                                <effectid>opacity</effectid>
                                <effecttype>motion</effecttype>
                                <mediatype>video</mediatype>
                                <effectcategory>motion</effectcategory>
                                <parameter>
                                    <name>opacity</name>
                                    <parameterid>opacity</parameterid>
                                    <value>100</value>
                                    <valuemin>0</valuemin>
                                    <valuemax>100</valuemax>
                                </parameter>
                            </effect>
                        </filter>
                    </clipitem>
                    <clipitem id="GOPR8363_4_979070884D6740FC9F60.mov 0">
                        <name>GOPR8363_4_979070884D6740FC9F60.mov</name>
                        <duration>166</duration>
                        <rate>
                            <timebase>25</timebase>
                            <ntsc>false</ntsc>
                        </rate>
                        <start>36628</start>
                        <end>36794</end>
                        <enabled>true</enabled>
                        <in>0</in>
                        <out>166</out>
                        <file id="GOPR8363_4_979070884D6740FC9F60.mov 2">
                            <duration>166</duration>
                            <rate>
                                <timebase>25</timebase>
                                <ntsc>false</ntsc>
                            </rate>
                            <name>GOPR8363_4_979070884D6740FC9F60.mov</name>
                            <pathurl>file:///Capture1/EDIUS/EDIUS7_Color/colored/pasyans_v3/GOPR8363_4_979070884D6740FC9F60_V1-0088.mov</pathurl>
                            <timecode>
                                <string>00:24:25:03</string>
                                <displayformat>NDF</displayformat>
                                <rate>
                                    <timebase>25</timebase>
                                    <ntsc>false</ntsc>
                                </rate>
                            </timecode>
                            <media>
                                <video>
                                    <duration>166</duration>
                                    <samplecharacteristics>
                                        <width>1920</width>
                                        <height>1080</height>
                                    </samplecharacteristics>
                                </video>
                            </media>
                        </file>
                        <compositemode>normal</compositemode>
                        <filter>
                            <enabled>true</enabled>
                            <start>0</start>
                            <end>166</end>
                            <effect>
                                <name>Opacity</name>
                                <effectid>opacity</effectid>
                                <effecttype>motion</effecttype>
                                <mediatype>video</mediatype>
                                <effectcategory>motion</effectcategory>
                                <parameter>
                                    <name>opacity</name>
                                    <parameterid>opacity</parameterid>
                                    <value>100</value>
                                    <valuemin>0</valuemin>
                                    <valuemax>100</valuemax>
                                </parameter>
                            </effect>
                        </filter>
                    </clipitem>
                    <clipitem id="972_0437_02_7_1E8E123C6C4C45C2AE08.mov 0">
                        <name>972_0437_02_7_1E8E123C6C4C45C2AE08.mov</name>
                        <duration>119</duration>
                        <rate>
                            <timebase>25</timebase>
                            <ntsc>false</ntsc>
                        </rate>
                        <start>36794</start>
                        <end>36914</end>
                        <enabled>true</enabled>
                        <in>0</in>
                        <out>120</out>
                        <file id="972_0437_02_7_1E8E123C6C4C45C2AE08.mov 2">
                            <duration>120</duration>
                            <rate>
                                <timebase>25</timebase>
                                <ntsc>false</ntsc>
                            </rate>
                            <name>972_0437_02_7_1E8E123C6C4C45C2AE08.mov</name>
                            <pathurl>file:///Capture1/EDIUS/EDIUS7_Color/colored/pasyans_v3/972_0437_02_7_1E8E123C6C4C45C2AE08_V1-0089.mov</pathurl>
                            <timecode>
                                <string>00:24:31:19</string>
                                <displayformat>NDF</displayformat>
                                <rate>
                                    <timebase>25</timebase>
                                    <ntsc>false</ntsc>
                                </rate>
                            </timecode>
                            <media>
                                <video>
                                    <duration>120</duration>
                                    <samplecharacteristics>
                                        <width>1920</width>
                                        <height>1080</height>
                                    </samplecharacteristics>
                                </video>
                            </media>
                        </file>
                        <compositemode>normal</compositemode>
                        <filter>
                            <enabled>true</enabled>
                            <start>0</start>
                            <end>119</end>
                            <effect>
                                <name>Opacity</name>
                                <effectid>opacity</effectid>
                                <effecttype>motion</effecttype>
                                <mediatype>video</mediatype>
                                <effectcategory>motion</effectcategory>
                                <parameter>
                                    <name>opacity</name>
                                    <parameterid>opacity</parameterid>
                                    <value>100</value>
                                    <valuemin>0</valuemin>
                                    <valuemax>100</valuemax>
                                </parameter>
                            </effect>
                        </filter>
                    </clipitem>
                    <clipitem id="КАССЕТНАЯ КАМЕРА 1_22_476D9755E7D1452D9948.mov 0">
                        <name>КАССЕТНАЯ КАМЕРА 1_22_476D9755E7D1452D9948.mov</name>
                        <duration>113</duration>
                        <rate>
                            <timebase>25</timebase>
                            <ntsc>false</ntsc>
                        </rate>
                        <start>36914</start>
                        <end>37028</end>
                        <enabled>true</enabled>
                        <in>0</in>
                        <out>114</out>
                        <file id="КАССЕТНАЯ КАМЕРА 1_22_476D9755E7D1452D9948.mov 2">
                            <duration>114</duration>
                            <rate>
                                <timebase>25</timebase>
                                <ntsc>false</ntsc>
                            </rate>
                            <name>КАССЕТНАЯ КАМЕРА 1_22_476D9755E7D1452D9948.mov</name>
                            <pathurl>file:///Capture1/EDIUS/EDIUS7_Color/colored/pasyans_v3/%D0%9A%D0%90%D0%A1%D0%A1%D0%95%D0%A2%D0%9D%D0%90%D0%AF%20%D0%9A%D0%90%D0%9C%D0%95%D0%A0%D0%90%201_22_476D9755E7D1452D9948_V1-0090.mov</pathurl>
                            <timecode>
                                <string>00:24:36:14</string>
                                <displayformat>NDF</displayformat>
                                <rate>
                                    <timebase>25</timebase>
                                    <ntsc>false</ntsc>
                                </rate>
                            </timecode>
                            <media>
                                <video>
                                    <duration>114</duration>
                                    <samplecharacteristics>
                                        <width>1920</width>
                                        <height>1080</height>
                                    </samplecharacteristics>
                                </video>
                            </media>
                        </file>
                        <compositemode>normal</compositemode>
                        <filter>
                            <enabled>true</enabled>
                            <start>0</start>
                            <end>113</end>
                            <effect>
                                <name>Opacity</name>
                                <effectid>opacity</effectid>
                                <effecttype>motion</effecttype>
                                <mediatype>video</mediatype>
                                <effectcategory>motion</effectcategory>
                                <parameter>
                                    <name>opacity</name>
                                    <parameterid>opacity</parameterid>
                                    <value>100</value>
                                    <valuemin>0</valuemin>
                                    <valuemax>100</valuemax>
                                </parameter>
                            </effect>
                        </filter>
                    </clipitem>
                    <clipitem id="972_0437_02_8_C8B4182B568F4FF2929C.mov 0">
                        <name>972_0437_02_8_C8B4182B568F4FF2929C.mov</name>
                        <duration>58</duration>
                        <rate>
                            <timebase>25</timebase>
                            <ntsc>false</ntsc>
                        </rate>
                        <start>37028</start>
                        <end>37087</end>
                        <enabled>true</enabled>
                        <in>0</in>
                        <out>59</out>
                        <file id="972_0437_02_8_C8B4182B568F4FF2929C.mov 2">
                            <duration>59</duration>
                            <rate>
                                <timebase>25</timebase>
                                <ntsc>false</ntsc>
                            </rate>
                            <name>972_0437_02_8_C8B4182B568F4FF2929C.mov</name>
                            <pathurl>file:///Capture1/EDIUS/EDIUS7_Color/colored/pasyans_v3/972_0437_02_8_C8B4182B568F4FF2929C_V1-0091.mov</pathurl>
                            <timecode>
                                <string>00:24:41:03</string>
                                <displayformat>NDF</displayformat>
                                <rate>
                                    <timebase>25</timebase>
                                    <ntsc>false</ntsc>
                                </rate>
                            </timecode>
                            <media>
                                <video>
                                    <duration>59</duration>
                                    <samplecharacteristics>
                                        <width>1920</width>
                                        <height>1080</height>
                                    </samplecharacteristics>
                                </video>
                            </media>
                        </file>
                        <compositemode>normal</compositemode>
                        <filter>
                            <enabled>true</enabled>
                            <start>0</start>
                            <end>58</end>
                            <effect>
                                <name>Opacity</name>
                                <effectid>opacity</effectid>
                                <effecttype>motion</effecttype>
                                <mediatype>video</mediatype>
                                <effectcategory>motion</effectcategory>
                                <parameter>
                                    <name>opacity</name>
                                    <parameterid>opacity</parameterid>
                                    <value>100</value>
                                    <valuemin>0</valuemin>
                                    <valuemax>100</valuemax>
                                </parameter>
                            </effect>
                        </filter>
                    </clipitem>
                    <clipitem id="КАССЕТНАЯ КАМЕРА 1_23_3F914D692A01479DAC89.mov 0">
                        <name>КАССЕТНАЯ КАМЕРА 1_23_3F914D692A01479DAC89.mov</name>
                        <duration>63</duration>
                        <rate>
                            <timebase>25</timebase>
                            <ntsc>false</ntsc>
                        </rate>
                        <start>37087</start>
                        <end>37151</end>
                        <enabled>true</enabled>
                        <in>0</in>
                        <out>64</out>
                        <file id="КАССЕТНАЯ КАМЕРА 1_23_3F914D692A01479DAC89.mov 2">
                            <duration>64</duration>
                            <rate>
                                <timebase>25</timebase>
                                <ntsc>false</ntsc>
                            </rate>
                            <name>КАССЕТНАЯ КАМЕРА 1_23_3F914D692A01479DAC89.mov</name>
                            <pathurl>file:///Capture1/EDIUS/EDIUS7_Color/colored/pasyans_v3/%D0%9A%D0%90%D0%A1%D0%A1%D0%95%D0%A2%D0%9D%D0%90%D0%AF%20%D0%9A%D0%90%D0%9C%D0%95%D0%A0%D0%90%201_23_3F914D692A01479DAC89_V1-0092.mov</pathurl>
                            <timecode>
                                <string>00:24:43:12</string>
                                <displayformat>NDF</displayformat>
                                <rate>
                                    <timebase>25</timebase>
                                    <ntsc>false</ntsc>
                                </rate>
                            </timecode>
                            <media>
                                <video>
                                    <duration>64</duration>
                                    <samplecharacteristics>
                                        <width>1920</width>
                                        <height>1080</height>
                                    </samplecharacteristics>
                                </video>
                            </media>
                        </file>
                        <compositemode>normal</compositemode>
                        <filter>
                            <enabled>true</enabled>
                            <start>0</start>
                            <end>63</end>
                            <effect>
                                <name>Opacity</name>
                                <effectid>opacity</effectid>
                                <effecttype>motion</effecttype>
                                <mediatype>video</mediatype>
                                <effectcategory>motion</effectcategory>
                                <parameter>
                                    <name>opacity</name>
                                    <parameterid>opacity</parameterid>
                                    <value>100</value>
                                    <valuemin>0</valuemin>
                                    <valuemax>100</valuemax>
                                </parameter>
                            </effect>
                        </filter>
                    </clipitem>
                    <clipitem id="246_0922_02_4_A87360B68E824147A12B.mov 0">
                        <name>246_0922_02_4_A87360B68E824147A12B.mov</name>
                        <duration>106</duration>
                        <rate>
                            <timebase>25</timebase>
                            <ntsc>false</ntsc>
                        </rate>
                        <start>37603</start>
                        <end>37709</end>
                        <enabled>true</enabled>
                        <in>0</in>
                        <out>106</out>
                        <file id="246_0922_02_4_A87360B68E824147A12B.mov 2">
                            <duration>106</duration>
                            <rate>
                                <timebase>25</timebase>
                                <ntsc>false</ntsc>
                            </rate>
                            <name>246_0922_02_4_A87360B68E824147A12B.mov</name>
                            <pathurl>file:///Capture1/EDIUS/EDIUS7_Color/colored/pasyans_v3/246_0922_02_4_A87360B68E824147A12B_V1-0093.mov</pathurl>
                            <timecode>
                                <string>00:25:04:03</string>
                                <displayformat>NDF</displayformat>
                                <rate>
                                    <timebase>25</timebase>
                                    <ntsc>false</ntsc>
                                </rate>
                            </timecode>
                            <media>
                                <video>
                                    <duration>106</duration>
                                    <samplecharacteristics>
                                        <width>1920</width>
                                        <height>1080</height>
                                    </samplecharacteristics>
                                </video>
                            </media>
                        </file>
                        <compositemode>normal</compositemode>
                        <filter>
                            <enabled>true</enabled>
                            <start>0</start>
                            <end>106</end>
                            <effect>
                                <name>Opacity</name>
                                <effectid>opacity</effectid>
                                <effecttype>motion</effecttype>
                                <mediatype>video</mediatype>
                                <effectcategory>motion</effectcategory>
                                <parameter>
                                    <name>opacity</name>
                                    <parameterid>opacity</parameterid>
                                    <value>100</value>
                                    <valuemin>0</valuemin>
                                    <valuemax>100</valuemax>
                                </parameter>
                            </effect>
                        </filter>
                    </clipitem>
                    <clipitem id="КАССЕТНАЯ КАМЕРА 1_24_BF40D0296BFD43DEBDE4.mov 0">
                        <name>КАССЕТНАЯ КАМЕРА 1_24_BF40D0296BFD43DEBDE4.mov</name>
                        <duration>201</duration>
                        <rate>
                            <timebase>25</timebase>
                            <ntsc>false</ntsc>
                        </rate>
                        <start>37709</start>
                        <end>37911</end>
                        <enabled>true</enabled>
                        <in>0</in>
                        <out>202</out>
                        <file id="КАССЕТНАЯ КАМЕРА 1_24_BF40D0296BFD43DEBDE4.mov 2">
                            <duration>202</duration>
                            <rate>
                                <timebase>25</timebase>
                                <ntsc>false</ntsc>
                            </rate>
                            <name>КАССЕТНАЯ КАМЕРА 1_24_BF40D0296BFD43DEBDE4.mov</name>
                            <pathurl>file:///Capture1/EDIUS/EDIUS7_Color/colored/pasyans_v3/%D0%9A%D0%90%D0%A1%D0%A1%D0%95%D0%A2%D0%9D%D0%90%D0%AF%20%D0%9A%D0%90%D0%9C%D0%95%D0%A0%D0%90%201_24_BF40D0296BFD43DEBDE4_V1-0094.mov</pathurl>
                            <timecode>
                                <string>00:25:08:09</string>
                                <displayformat>NDF</displayformat>
                                <rate>
                                    <timebase>25</timebase>
                                    <ntsc>false</ntsc>
                                </rate>
                            </timecode>
                            <media>
                                <video>
                                    <duration>202</duration>
                                    <samplecharacteristics>
                                        <width>1920</width>
                                        <height>1080</height>
                                    </samplecharacteristics>
                                </video>
                            </media>
                        </file>
                        <compositemode>normal</compositemode>
                        <filter>
                            <enabled>true</enabled>
                            <start>0</start>
                            <end>201</end>
                            <effect>
                                <name>Opacity</name>
                                <effectid>opacity</effectid>
                                <effecttype>motion</effecttype>
                                <mediatype>video</mediatype>
                                <effectcategory>motion</effectcategory>
                                <parameter>
                                    <name>opacity</name>
                                    <parameterid>opacity</parameterid>
                                    <value>100</value>
                                    <valuemin>0</valuemin>
                                    <valuemax>100</valuemax>
                                </parameter>
                            </effect>
                        </filter>
                    </clipitem>
                    <clipitem id="972_0437_02_9_E10E8A7569B247948DAC.mov 0">
                        <name>972_0437_02_9_E10E8A7569B247948DAC.mov</name>
                        <duration>110</duration>
                        <rate>
                            <timebase>25</timebase>
                            <ntsc>false</ntsc>
                        </rate>
                        <start>37911</start>
                        <end>38021</end>
                        <enabled>true</enabled>
                        <in>0</in>
                        <out>110</out>
                        <file id="972_0437_02_9_E10E8A7569B247948DAC.mov 2">
                            <duration>110</duration>
                            <rate>
                                <timebase>25</timebase>
                                <ntsc>false</ntsc>
                            </rate>
                            <name>972_0437_02_9_E10E8A7569B247948DAC.mov</name>
                            <pathurl>file:///Capture1/EDIUS/EDIUS7_Color/colored/pasyans_v3/972_0437_02_9_E10E8A7569B247948DAC_V1-0095.mov</pathurl>
                            <timecode>
                                <string>00:25:16:11</string>
                                <displayformat>NDF</displayformat>
                                <rate>
                                    <timebase>25</timebase>
                                    <ntsc>false</ntsc>
                                </rate>
                            </timecode>
                            <media>
                                <video>
                                    <duration>110</duration>
                                    <samplecharacteristics>
                                        <width>1920</width>
                                        <height>1080</height>
                                    </samplecharacteristics>
                                </video>
                            </media>
                        </file>
                        <compositemode>normal</compositemode>
                        <filter>
                            <enabled>true</enabled>
                            <start>0</start>
                            <end>110</end>
                            <effect>
                                <name>Opacity</name>
                                <effectid>opacity</effectid>
                                <effecttype>motion</effecttype>
                                <mediatype>video</mediatype>
                                <effectcategory>motion</effectcategory>
                                <parameter>
                                    <name>opacity</name>
                                    <parameterid>opacity</parameterid>
                                    <value>100</value>
                                    <valuemin>0</valuemin>
                                    <valuemax>100</valuemax>
                                </parameter>
                            </effect>
                        </filter>
                    </clipitem>
                    <clipitem id="246_0922_02_5_19CCA5E946194628BF56.mov 0">
                        <name>246_0922_02_5_19CCA5E946194628BF56.mov</name>
                        <duration>95</duration>
                        <rate>
                            <timebase>25</timebase>
                            <ntsc>false</ntsc>
                        </rate>
                        <start>38021</start>
                        <end>38117</end>
                        <enabled>true</enabled>
                        <in>0</in>
                        <out>96</out>
                        <file id="246_0922_02_5_19CCA5E946194628BF56.mov 2">
                            <duration>96</duration>
                            <rate>
                                <timebase>25</timebase>
                                <ntsc>false</ntsc>
                            </rate>
                            <name>246_0922_02_5_19CCA5E946194628BF56.mov</name>
                            <pathurl>file:///Capture1/EDIUS/EDIUS7_Color/colored/pasyans_v3/246_0922_02_5_19CCA5E946194628BF56_V1-0096.mov</pathurl>
                            <timecode>
                                <string>00:25:20:21</string>
                                <displayformat>NDF</displayformat>
                                <rate>
                                    <timebase>25</timebase>
                                    <ntsc>false</ntsc>
                                </rate>
                            </timecode>
                            <media>
                                <video>
                                    <duration>96</duration>
                                    <samplecharacteristics>
                                        <width>1920</width>
                                        <height>1080</height>
                                    </samplecharacteristics>
                                </video>
                            </media>
                        </file>
                        <compositemode>normal</compositemode>
                        <filter>
                            <enabled>true</enabled>
                            <start>0</start>
                            <end>95</end>
                            <effect>
                                <name>Opacity</name>
                                <effectid>opacity</effectid>
                                <effecttype>motion</effecttype>
                                <mediatype>video</mediatype>
                                <effectcategory>motion</effectcategory>
                                <parameter>
                                    <name>opacity</name>
                                    <parameterid>opacity</parameterid>
                                    <value>100</value>
                                    <valuemin>0</valuemin>
                                    <valuemax>100</valuemax>
                                </parameter>
                            </effect>
                        </filter>
                    </clipitem>
                    <clipitem id="972_0437_02_10_77158B13C8FE4C92B6DA.mov 0">
                        <name>972_0437_02_10_77158B13C8FE4C92B6DA.mov</name>
                        <duration>114</duration>
                        <rate>
                            <timebase>25</timebase>
                            <ntsc>false</ntsc>
                        </rate>
                        <start>38196</start>
                        <end>38311</end>
                        <enabled>true</enabled>
                        <in>0</in>
                        <out>115</out>
                        <file id="972_0437_02_10_77158B13C8FE4C92B6DA.mov 2">
                            <duration>115</duration>
                            <rate>
                                <timebase>25</timebase>
                                <ntsc>false</ntsc>
                            </rate>
                            <name>972_0437_02_10_77158B13C8FE4C92B6DA.mov</name>
                            <pathurl>file:///Capture1/EDIUS/EDIUS7_Color/colored/pasyans_v3/972_0437_02_10_77158B13C8FE4C92B6DA_V1-0097.mov</pathurl>
                            <timecode>
                                <string>00:25:27:21</string>
                                <displayformat>NDF</displayformat>
                                <rate>
                                    <timebase>25</timebase>
                                    <ntsc>false</ntsc>
                                </rate>
                            </timecode>
                            <media>
                                <video>
                                    <duration>115</duration>
                                    <samplecharacteristics>
                                        <width>1920</width>
                                        <height>1080</height>
                                    </samplecharacteristics>
                                </video>
                            </media>
                        </file>
                        <compositemode>normal</compositemode>
                        <filter>
                            <enabled>true</enabled>
                            <start>0</start>
                            <end>114</end>
                            <effect>
                                <name>Opacity</name>
                                <effectid>opacity</effectid>
                                <effecttype>motion</effecttype>
                                <mediatype>video</mediatype>
                                <effectcategory>motion</effectcategory>
                                <parameter>
                                    <name>opacity</name>
                                    <parameterid>opacity</parameterid>
                                    <value>100</value>
                                    <valuemin>0</valuemin>
                                    <valuemax>100</valuemax>
                                </parameter>
                            </effect>
                        </filter>
                    </clipitem>
                    <clipitem id="КАССЕТНАЯ КАМЕРА 1_25_B14948A3F78F4C209F7C.mov 0">
                        <name>КАССЕТНАЯ КАМЕРА 1_25_B14948A3F78F4C209F7C.mov</name>
                        <duration>114</duration>
                        <rate>
                            <timebase>25</timebase>
                            <ntsc>false</ntsc>
                        </rate>
                        <start>38311</start>
                        <end>38426</end>
                        <enabled>true</enabled>
                        <in>0</in>
                        <out>115</out>
                        <file id="КАССЕТНАЯ КАМЕРА 1_25_B14948A3F78F4C209F7C.mov 2">
                            <duration>115</duration>
                            <rate>
                                <timebase>25</timebase>
                                <ntsc>false</ntsc>
                            </rate>
                            <name>КАССЕТНАЯ КАМЕРА 1_25_B14948A3F78F4C209F7C.mov</name>
                            <pathurl>file:///Capture1/EDIUS/EDIUS7_Color/colored/pasyans_v3/%D0%9A%D0%90%D0%A1%D0%A1%D0%95%D0%A2%D0%9D%D0%90%D0%AF%20%D0%9A%D0%90%D0%9C%D0%95%D0%A0%D0%90%201_25_B14948A3F78F4C209F7C_V1-0098.mov</pathurl>
                            <timecode>
                                <string>00:25:32:11</string>
                                <displayformat>NDF</displayformat>
                                <rate>
                                    <timebase>25</timebase>
                                    <ntsc>false</ntsc>
                                </rate>
                            </timecode>
                            <media>
                                <video>
                                    <duration>115</duration>
                                    <samplecharacteristics>
                                        <width>1920</width>
                                        <height>1080</height>
                                    </samplecharacteristics>
                                </video>
                            </media>
                        </file>
                        <compositemode>normal</compositemode>
                        <filter>
                            <enabled>true</enabled>
                            <start>0</start>
                            <end>114</end>
                            <effect>
                                <name>Opacity</name>
                                <effectid>opacity</effectid>
                                <effecttype>motion</effecttype>
                                <mediatype>video</mediatype>
                                <effectcategory>motion</effectcategory>
                                <parameter>
                                    <name>opacity</name>
                                    <parameterid>opacity</parameterid>
                                    <value>100</value>
                                    <valuemin>0</valuemin>
                                    <valuemax>100</valuemax>
                                </parameter>
                            </effect>
                        </filter>
                    </clipitem>
                    <clipitem id="общий план 4_3_838911FE942240A89740.mov 0">
                        <name>общий план 4_3_838911FE942240A89740.mov</name>
                        <duration>169</duration>
                        <rate>
                            <timebase>25</timebase>
                            <ntsc>false</ntsc>
                        </rate>
                        <start>38426</start>
                        <end>38596</end>
                        <enabled>true</enabled>
                        <in>0</in>
                        <out>170</out>
                        <file id="общий план 4_3_838911FE942240A89740.mov 2">
                            <duration>170</duration>
                            <rate>
                                <timebase>25</timebase>
                                <ntsc>false</ntsc>
                            </rate>
                            <name>общий план 4_3_838911FE942240A89740.mov</name>
                            <pathurl>file:///Capture1/EDIUS/EDIUS7_Color/colored/pasyans_v3/%D0%BE%D0%B1%D1%89%D0%B8%D0%B9%20%D0%BF%D0%BB%D0%B0%D0%BD%204_3_838911FE942240A89740_V1-0099.mov</pathurl>
                            <timecode>
                                <string>00:25:37:01</string>
                                <displayformat>NDF</displayformat>
                                <rate>
                                    <timebase>25</timebase>
                                    <ntsc>false</ntsc>
                                </rate>
                            </timecode>
                            <media>
                                <video>
                                    <duration>170</duration>
                                    <samplecharacteristics>
                                        <width>1920</width>
                                        <height>1080</height>
                                    </samplecharacteristics>
                                </video>
                            </media>
                        </file>
                        <compositemode>normal</compositemode>
                        <filter>
                            <enabled>true</enabled>
                            <start>0</start>
                            <end>169</end>
                            <effect>
                                <name>Opacity</name>
                                <effectid>opacity</effectid>
                                <effecttype>motion</effecttype>
                                <mediatype>video</mediatype>
                                <effectcategory>motion</effectcategory>
                                <parameter>
                                    <name>opacity</name>
                                    <parameterid>opacity</parameterid>
                                    <value>100</value>
                                    <valuemin>0</valuemin>
                                    <valuemax>100</valuemax>
                                </parameter>
                            </effect>
                        </filter>
                    </clipitem>
                    <clipitem id="246_0922_02_6_7E98BDB6DC7642B195AE.mov 0">
                        <name>246_0922_02_6_7E98BDB6DC7642B195AE.mov</name>
                        <duration>126</duration>
                        <rate>
                            <timebase>25</timebase>
                            <ntsc>false</ntsc>
                        </rate>
                        <start>38596</start>
                        <end>38723</end>
                        <enabled>true</enabled>
                        <in>0</in>
                        <out>127</out>
                        <file id="246_0922_02_6_7E98BDB6DC7642B195AE.mov 2">
                            <duration>127</duration>
                            <rate>
                                <timebase>25</timebase>
                                <ntsc>false</ntsc>
                            </rate>
                            <name>246_0922_02_6_7E98BDB6DC7642B195AE.mov</name>
                            <pathurl>file:///Capture1/EDIUS/EDIUS7_Color/colored/pasyans_v3/246_0922_02_6_7E98BDB6DC7642B195AE_V1-0100.mov</pathurl>
                            <timecode>
                                <string>00:25:43:21</string>
                                <displayformat>NDF</displayformat>
                                <rate>
                                    <timebase>25</timebase>
                                    <ntsc>false</ntsc>
                                </rate>
                            </timecode>
                            <media>
                                <video>
                                    <duration>127</duration>
                                    <samplecharacteristics>
                                        <width>1920</width>
                                        <height>1080</height>
                                    </samplecharacteristics>
                                </video>
                            </media>
                        </file>
                        <compositemode>normal</compositemode>
                        <filter>
                            <enabled>true</enabled>
                            <start>0</start>
                            <end>126</end>
                            <effect>
                                <name>Opacity</name>
                                <effectid>opacity</effectid>
                                <effecttype>motion</effecttype>
                                <mediatype>video</mediatype>
                                <effectcategory>motion</effectcategory>
                                <parameter>
                                    <name>opacity</name>
                                    <parameterid>opacity</parameterid>
                                    <value>100</value>
                                    <valuemin>0</valuemin>
                                    <valuemax>100</valuemax>
                                </parameter>
                            </effect>
                        </filter>
                    </clipitem>
                    <clipitem id="КАССЕТНАЯ КАМЕРА 1_26_E488F65D02D54FB0869A.mov 0">
                        <name>КАССЕТНАЯ КАМЕРА 1_26_E488F65D02D54FB0869A.mov</name>
                        <duration>120</duration>
                        <rate>
                            <timebase>25</timebase>
                            <ntsc>false</ntsc>
                        </rate>
                        <start>38723</start>
                        <end>38844</end>
                        <enabled>true</enabled>
                        <in>0</in>
                        <out>121</out>
                        <file id="КАССЕТНАЯ КАМЕРА 1_26_E488F65D02D54FB0869A.mov 2">
                            <duration>121</duration>
                            <rate>
                                <timebase>25</timebase>
                                <ntsc>false</ntsc>
                            </rate>
                            <name>КАССЕТНАЯ КАМЕРА 1_26_E488F65D02D54FB0869A.mov</name>
                            <pathurl>file:///Capture1/EDIUS/EDIUS7_Color/colored/pasyans_v3/%D0%9A%D0%90%D0%A1%D0%A1%D0%95%D0%A2%D0%9D%D0%90%D0%AF%20%D0%9A%D0%90%D0%9C%D0%95%D0%A0%D0%90%201_26_E488F65D02D54FB0869A_V1-0101.mov</pathurl>
                            <timecode>
                                <string>00:25:48:23</string>
                                <displayformat>NDF</displayformat>
                                <rate>
                                    <timebase>25</timebase>
                                    <ntsc>false</ntsc>
                                </rate>
                            </timecode>
                            <media>
                                <video>
                                    <duration>121</duration>
                                    <samplecharacteristics>
                                        <width>1920</width>
                                        <height>1080</height>
                                    </samplecharacteristics>
                                </video>
                            </media>
                        </file>
                        <compositemode>normal</compositemode>
                        <filter>
                            <enabled>true</enabled>
                            <start>0</start>
                            <end>120</end>
                            <effect>
                                <name>Opacity</name>
                                <effectid>opacity</effectid>
                                <effecttype>motion</effecttype>
                                <mediatype>video</mediatype>
                                <effectcategory>motion</effectcategory>
                                <parameter>
                                    <name>opacity</name>
                                    <parameterid>opacity</parameterid>
                                    <value>100</value>
                                    <valuemin>0</valuemin>
                                    <valuemax>100</valuemax>
                                </parameter>
                            </effect>
                        </filter>
                    </clipitem>
                    <clipitem id="972_0437_02_11_E37220B709C440039D1F.mov 0">
                        <name>972_0437_02_11_E37220B709C440039D1F.mov</name>
                        <duration>102</duration>
                        <rate>
                            <timebase>25</timebase>
                            <ntsc>false</ntsc>
                        </rate>
                        <start>38844</start>
                        <end>38947</end>
                        <enabled>true</enabled>
                        <in>0</in>
                        <out>103</out>
                        <file id="972_0437_02_11_E37220B709C440039D1F.mov 2">
                            <duration>103</duration>
                            <rate>
                                <timebase>25</timebase>
                                <ntsc>false</ntsc>
                            </rate>
                            <name>972_0437_02_11_E37220B709C440039D1F.mov</name>
                            <pathurl>file:///Capture1/EDIUS/EDIUS7_Color/colored/pasyans_v3/972_0437_02_11_E37220B709C440039D1F_V1-0102.mov</pathurl>
                            <timecode>
                                <string>00:25:53:19</string>
                                <displayformat>NDF</displayformat>
                                <rate>
                                    <timebase>25</timebase>
                                    <ntsc>false</ntsc>
                                </rate>
                            </timecode>
                            <media>
                                <video>
                                    <duration>103</duration>
                                    <samplecharacteristics>
                                        <width>1920</width>
                                        <height>1080</height>
                                    </samplecharacteristics>
                                </video>
                            </media>
                        </file>
                        <compositemode>normal</compositemode>
                        <filter>
                            <enabled>true</enabled>
                            <start>0</start>
                            <end>102</end>
                            <effect>
                                <name>Opacity</name>
                                <effectid>opacity</effectid>
                                <effecttype>motion</effecttype>
                                <mediatype>video</mediatype>
                                <effectcategory>motion</effectcategory>
                                <parameter>
                                    <name>opacity</name>
                                    <parameterid>opacity</parameterid>
                                    <value>100</value>
                                    <valuemin>0</valuemin>
                                    <valuemax>100</valuemax>
                                </parameter>
                            </effect>
                        </filter>
                    </clipitem>
                    <clipitem id="КАССЕТНАЯ КАМЕРА 1_27_523889D01F8A4067B153.mov 0">
                        <name>КАССЕТНАЯ КАМЕРА 1_27_523889D01F8A4067B153.mov</name>
                        <duration>91</duration>
                        <rate>
                            <timebase>25</timebase>
                            <ntsc>false</ntsc>
                        </rate>
                        <start>38947</start>
                        <end>39038</end>
                        <enabled>true</enabled>
                        <in>0</in>
                        <out>91</out>
                        <file id="КАССЕТНАЯ КАМЕРА 1_27_523889D01F8A4067B153.mov 2">
                            <duration>91</duration>
                            <rate>
                                <timebase>25</timebase>
                                <ntsc>false</ntsc>
                            </rate>
                            <name>КАССЕТНАЯ КАМЕРА 1_27_523889D01F8A4067B153.mov</name>
                            <pathurl>file:///Capture1/EDIUS/EDIUS7_Color/colored/pasyans_v3/%D0%9A%D0%90%D0%A1%D0%A1%D0%95%D0%A2%D0%9D%D0%90%D0%AF%20%D0%9A%D0%90%D0%9C%D0%95%D0%A0%D0%90%201_27_523889D01F8A4067B153_V1-0103.mov</pathurl>
                            <timecode>
                                <string>00:25:57:22</string>
                                <displayformat>NDF</displayformat>
                                <rate>
                                    <timebase>25</timebase>
                                    <ntsc>false</ntsc>
                                </rate>
                            </timecode>
                            <media>
                                <video>
                                    <duration>91</duration>
                                    <samplecharacteristics>
                                        <width>1920</width>
                                        <height>1080</height>
                                    </samplecharacteristics>
                                </video>
                            </media>
                        </file>
                        <compositemode>normal</compositemode>
                        <filter>
                            <enabled>true</enabled>
                            <start>0</start>
                            <end>91</end>
                            <effect>
                                <name>Opacity</name>
                                <effectid>opacity</effectid>
                                <effecttype>motion</effecttype>
                                <mediatype>video</mediatype>
                                <effectcategory>motion</effectcategory>
                                <parameter>
                                    <name>opacity</name>
                                    <parameterid>opacity</parameterid>
                                    <value>100</value>
                                    <valuemin>0</valuemin>
                                    <valuemax>100</valuemax>
                                </parameter>
                            </effect>
                        </filter>
                    </clipitem>
                    <clipitem id="GP018363_1_FC34DD2153024C6A8CC3.mov 0">
                        <name>GP018363_1_FC34DD2153024C6A8CC3.mov</name>
                        <duration>152</duration>
                        <rate>
                            <timebase>25</timebase>
                            <ntsc>false</ntsc>
                        </rate>
                        <start>39038</start>
                        <end>39191</end>
                        <enabled>true</enabled>
                        <in>0</in>
                        <out>153</out>
                        <file id="GP018363_1_FC34DD2153024C6A8CC3.mov 2">
                            <duration>153</duration>
                            <rate>
                                <timebase>25</timebase>
                                <ntsc>false</ntsc>
                            </rate>
                            <name>GP018363_1_FC34DD2153024C6A8CC3.mov</name>
                            <pathurl>file:///Capture1/EDIUS/EDIUS7_Color/colored/pasyans_v3/GP018363_1_FC34DD2153024C6A8CC3_V1-0104.mov</pathurl>
                            <timecode>
                                <string>00:26:01:13</string>
                                <displayformat>NDF</displayformat>
                                <rate>
                                    <timebase>25</timebase>
                                    <ntsc>false</ntsc>
                                </rate>
                            </timecode>
                            <media>
                                <video>
                                    <duration>153</duration>
                                    <samplecharacteristics>
                                        <width>1920</width>
                                        <height>1080</height>
                                    </samplecharacteristics>
                                </video>
                            </media>
                        </file>
                        <compositemode>normal</compositemode>
                        <filter>
                            <enabled>true</enabled>
                            <start>0</start>
                            <end>152</end>
                            <effect>
                                <name>Opacity</name>
                                <effectid>opacity</effectid>
                                <effecttype>motion</effecttype>
                                <mediatype>video</mediatype>
                                <effectcategory>motion</effectcategory>
                                <parameter>
                                    <name>opacity</name>
                                    <parameterid>opacity</parameterid>
                                    <value>100</value>
                                    <valuemin>0</valuemin>
                                    <valuemax>100</valuemax>
                                </parameter>
                            </effect>
                        </filter>
                    </clipitem>
                    <clipitem id="972_0437_02_12_804D12625A434293B8E4.mov 0">
                        <name>972_0437_02_12_804D12625A434293B8E4.mov</name>
                        <duration>137</duration>
                        <rate>
                            <timebase>25</timebase>
                            <ntsc>false</ntsc>
                        </rate>
                        <start>39191</start>
                        <end>39329</end>
                        <enabled>true</enabled>
                        <in>0</in>
                        <out>138</out>
                        <file id="972_0437_02_12_804D12625A434293B8E4.mov 2">
                            <duration>138</duration>
                            <rate>
                                <timebase>25</timebase>
                                <ntsc>false</ntsc>
                            </rate>
                            <name>972_0437_02_12_804D12625A434293B8E4.mov</name>
                            <pathurl>file:///Capture1/EDIUS/EDIUS7_Color/colored/pasyans_v3/972_0437_02_12_804D12625A434293B8E4_V1-0105.mov</pathurl>
                            <timecode>
                                <string>00:26:07:16</string>
                                <displayformat>NDF</displayformat>
                                <rate>
                                    <timebase>25</timebase>
                                    <ntsc>false</ntsc>
                                </rate>
                            </timecode>
                            <media>
                                <video>
                                    <duration>138</duration>
                                    <samplecharacteristics>
                                        <width>1920</width>
                                        <height>1080</height>
                                    </samplecharacteristics>
                                </video>
                            </media>
                        </file>
                        <compositemode>normal</compositemode>
                        <filter>
                            <enabled>true</enabled>
                            <start>0</start>
                            <end>137</end>
                            <effect>
                                <name>Opacity</name>
                                <effectid>opacity</effectid>
                                <effecttype>motion</effecttype>
                                <mediatype>video</mediatype>
                                <effectcategory>motion</effectcategory>
                                <parameter>
                                    <name>opacity</name>
                                    <parameterid>opacity</parameterid>
                                    <value>100</value>
                                    <valuemin>0</valuemin>
                                    <valuemax>100</valuemax>
                                </parameter>
                            </effect>
                        </filter>
                    </clipitem>
                    <clipitem id="общий план 4_4_7E4CC8DF28D84842B0B7.mov 0">
                        <name>общий план 4_4_7E4CC8DF28D84842B0B7.mov</name>
                        <duration>137</duration>
                        <rate>
                            <timebase>25</timebase>
                            <ntsc>false</ntsc>
                        </rate>
                        <start>39329</start>
                        <end>39466</end>
                        <enabled>true</enabled>
                        <in>0</in>
                        <out>137</out>
                        <file id="общий план 4_4_7E4CC8DF28D84842B0B7.mov 2">
                            <duration>137</duration>
                            <rate>
                                <timebase>25</timebase>
                                <ntsc>false</ntsc>
                            </rate>
                            <name>общий план 4_4_7E4CC8DF28D84842B0B7.mov</name>
                            <pathurl>file:///Capture1/EDIUS/EDIUS7_Color/colored/pasyans_v3/%D0%BE%D0%B1%D1%89%D0%B8%D0%B9%20%D0%BF%D0%BB%D0%B0%D0%BD%204_4_7E4CC8DF28D84842B0B7_V1-0106.mov</pathurl>
                            <timecode>
                                <string>00:26:13:04</string>
                                <displayformat>NDF</displayformat>
                                <rate>
                                    <timebase>25</timebase>
                                    <ntsc>false</ntsc>
                                </rate>
                            </timecode>
                            <media>
                                <video>
                                    <duration>137</duration>
                                    <samplecharacteristics>
                                        <width>1920</width>
                                        <height>1080</height>
                                    </samplecharacteristics>
                                </video>
                            </media>
                        </file>
                        <compositemode>normal</compositemode>
                        <filter>
                            <enabled>true</enabled>
                            <start>0</start>
                            <end>137</end>
                            <effect>
                                <name>Opacity</name>
                                <effectid>opacity</effectid>
                                <effecttype>motion</effecttype>
                                <mediatype>video</mediatype>
                                <effectcategory>motion</effectcategory>
                                <parameter>
                                    <name>opacity</name>
                                    <parameterid>opacity</parameterid>
                                    <value>100</value>
                                    <valuemin>0</valuemin>
                                    <valuemax>100</valuemax>
                                </parameter>
                            </effect>
                        </filter>
                    </clipitem>
                    <clipitem id="972_0437_02_13_67E5E7D6C821448DB996.mov 0">
                        <name>972_0437_02_13_67E5E7D6C821448DB996.mov</name>
                        <duration>156</duration>
                        <rate>
                            <timebase>25</timebase>
                            <ntsc>false</ntsc>
                        </rate>
                        <start>39466</start>
                        <end>39623</end>
                        <enabled>true</enabled>
                        <in>0</in>
                        <out>157</out>
                        <file id="972_0437_02_13_67E5E7D6C821448DB996.mov 2">
                            <duration>157</duration>
                            <rate>
                                <timebase>25</timebase>
                                <ntsc>false</ntsc>
                            </rate>
                            <name>972_0437_02_13_67E5E7D6C821448DB996.mov</name>
                            <pathurl>file:///Capture1/EDIUS/EDIUS7_Color/colored/pasyans_v3/972_0437_02_13_67E5E7D6C821448DB996_V1-0107.mov</pathurl>
                            <timecode>
                                <string>00:26:18:16</string>
                                <displayformat>NDF</displayformat>
                                <rate>
                                    <timebase>25</timebase>
                                    <ntsc>false</ntsc>
                                </rate>
                            </timecode>
                            <media>
                                <video>
                                    <duration>157</duration>
                                    <samplecharacteristics>
                                        <width>1920</width>
                                        <height>1080</height>
                                    </samplecharacteristics>
                                </video>
                            </media>
                        </file>
                        <compositemode>normal</compositemode>
                        <filter>
                            <enabled>true</enabled>
                            <start>0</start>
                            <end>156</end>
                            <effect>
                                <name>Opacity</name>
                                <effectid>opacity</effectid>
                                <effecttype>motion</effecttype>
                                <mediatype>video</mediatype>
                                <effectcategory>motion</effectcategory>
                                <parameter>
                                    <name>opacity</name>
                                    <parameterid>opacity</parameterid>
                                    <value>100</value>
                                    <valuemin>0</valuemin>
                                    <valuemax>100</valuemax>
                                </parameter>
                            </effect>
                        </filter>
                    </clipitem>
                    <clipitem id="общий план 4_5_DE782818E1C9465DAFBF.mov 0">
                        <name>общий план 4_5_DE782818E1C9465DAFBF.mov</name>
                        <duration>155</duration>
                        <rate>
                            <timebase>25</timebase>
                            <ntsc>false</ntsc>
                        </rate>
                        <start>44205</start>
                        <end>44360</end>
                        <enabled>true</enabled>
                        <in>0</in>
                        <out>155</out>
                        <file id="общий план 4_5_DE782818E1C9465DAFBF.mov 2">
                            <duration>155</duration>
                            <rate>
                                <timebase>25</timebase>
                                <ntsc>false</ntsc>
                            </rate>
                            <name>общий план 4_5_DE782818E1C9465DAFBF.mov</name>
                            <pathurl>file:///Capture1/EDIUS/EDIUS7_Color/colored/pasyans_v3/%D0%BE%D0%B1%D1%89%D0%B8%D0%B9%20%D0%BF%D0%BB%D0%B0%D0%BD%204_5_DE782818E1C9465DAFBF_V1-0108.mov</pathurl>
                            <timecode>
                                <string>00:29:28:05</string>
                                <displayformat>NDF</displayformat>
                                <rate>
                                    <timebase>25</timebase>
                                    <ntsc>false</ntsc>
                                </rate>
                            </timecode>
                            <media>
                                <video>
                                    <duration>155</duration>
                                    <samplecharacteristics>
                                        <width>1920</width>
                                        <height>1080</height>
                                    </samplecharacteristics>
                                </video>
                            </media>
                        </file>
                        <compositemode>normal</compositemode>
                        <filter>
                            <enabled>true</enabled>
                            <start>0</start>
                            <end>155</end>
                            <effect>
                                <name>Opacity</name>
                                <effectid>opacity</effectid>
                                <effecttype>motion</effecttype>
                                <mediatype>video</mediatype>
                                <effectcategory>motion</effectcategory>
                                <parameter>
                                    <name>opacity</name>
                                    <parameterid>opacity</parameterid>
                                    <value>100</value>
                                    <valuemin>0</valuemin>
                                    <valuemax>100</valuemax>
                                </parameter>
                            </effect>
                        </filter>
                    </clipitem>
                    <clipitem id="КАССЕТНАЯ КАМЕРА 1_28_53AE2A9C518B4C45BD7C.mov 0">
                        <name>КАССЕТНАЯ КАМЕРА 1_28_53AE2A9C518B4C45BD7C.mov</name>
                        <duration>275</duration>
                        <rate>
                            <timebase>25</timebase>
                            <ntsc>false</ntsc>
                        </rate>
                        <start>44360</start>
                        <end>44635</end>
                        <enabled>true</enabled>
                        <in>0</in>
                        <out>275</out>
                        <file id="КАССЕТНАЯ КАМЕРА 1_28_53AE2A9C518B4C45BD7C.mov 2">
                            <duration>275</duration>
                            <rate>
                                <timebase>25</timebase>
                                <ntsc>false</ntsc>
                            </rate>
                            <name>КАССЕТНАЯ КАМЕРА 1_28_53AE2A9C518B4C45BD7C.mov</name>
                            <pathurl>file:///Capture1/EDIUS/EDIUS7_Color/colored/pasyans_v3/%D0%9A%D0%90%D0%A1%D0%A1%D0%95%D0%A2%D0%9D%D0%90%D0%AF%20%D0%9A%D0%90%D0%9C%D0%95%D0%A0%D0%90%201_28_53AE2A9C518B4C45BD7C_V1-0109.mov</pathurl>
                            <timecode>
                                <string>00:29:34:10</string>
                                <displayformat>NDF</displayformat>
                                <rate>
                                    <timebase>25</timebase>
                                    <ntsc>false</ntsc>
                                </rate>
                            </timecode>
                            <media>
                                <video>
                                    <duration>275</duration>
                                    <samplecharacteristics>
                                        <width>1920</width>
                                        <height>1080</height>
                                    </samplecharacteristics>
                                </video>
                            </media>
                        </file>
                        <compositemode>normal</compositemode>
                        <filter>
                            <enabled>true</enabled>
                            <start>0</start>
                            <end>275</end>
                            <effect>
                                <name>Opacity</name>
                                <effectid>opacity</effectid>
                                <effecttype>motion</effecttype>
                                <mediatype>video</mediatype>
                                <effectcategory>motion</effectcategory>
                                <parameter>
                                    <name>opacity</name>
                                    <parameterid>opacity</parameterid>
                                    <value>100</value>
                                    <valuemin>0</valuemin>
                                    <valuemax>100</valuemax>
                                </parameter>
                            </effect>
                        </filter>
                    </clipitem>
                    <clipitem id="общий план 4_6_597ED535387D4D4AB518.mov 0">
                        <name>общий план 4_6_597ED535387D4D4AB518.mov</name>
                        <duration>256</duration>
                        <rate>
                            <timebase>25</timebase>
                            <ntsc>false</ntsc>
                        </rate>
                        <start>44635</start>
                        <end>44892</end>
                        <enabled>true</enabled>
                        <in>0</in>
                        <out>257</out>
                        <file id="общий план 4_6_597ED535387D4D4AB518.mov 2">
                            <duration>257</duration>
                            <rate>
                                <timebase>25</timebase>
                                <ntsc>false</ntsc>
                            </rate>
                            <name>общий план 4_6_597ED535387D4D4AB518.mov</name>
                            <pathurl>file:///Capture1/EDIUS/EDIUS7_Color/colored/pasyans_v3/%D0%BE%D0%B1%D1%89%D0%B8%D0%B9%20%D0%BF%D0%BB%D0%B0%D0%BD%204_6_597ED535387D4D4AB518_V1-0110.mov</pathurl>
                            <timecode>
                                <string>00:29:45:10</string>
                                <displayformat>NDF</displayformat>
                                <rate>
                                    <timebase>25</timebase>
                                    <ntsc>false</ntsc>
                                </rate>
                            </timecode>
                            <media>
                                <video>
                                    <duration>257</duration>
                                    <samplecharacteristics>
                                        <width>1920</width>
                                        <height>1080</height>
                                    </samplecharacteristics>
                                </video>
                            </media>
                        </file>
                        <compositemode>normal</compositemode>
                        <filter>
                            <enabled>true</enabled>
                            <start>0</start>
                            <end>256</end>
                            <effect>
                                <name>Opacity</name>
                                <effectid>opacity</effectid>
                                <effecttype>motion</effecttype>
                                <mediatype>video</mediatype>
                                <effectcategory>motion</effectcategory>
                                <parameter>
                                    <name>opacity</name>
                                    <parameterid>opacity</parameterid>
                                    <value>100</value>
                                    <valuemin>0</valuemin>
                                    <valuemax>100</valuemax>
                                </parameter>
                            </effect>
                        </filter>
                    </clipitem>
                    <clipitem id="КАССЕТНАЯ КАМЕРА 1_29_773ABB3C8527451A9D3E.mov 0">
                        <name>КАССЕТНАЯ КАМЕРА 1_29_773ABB3C8527451A9D3E.mov</name>
                        <duration>232</duration>
                        <rate>
                            <timebase>25</timebase>
                            <ntsc>false</ntsc>
                        </rate>
                        <start>44892</start>
                        <end>45125</end>
                        <enabled>true</enabled>
                        <in>0</in>
                        <out>233</out>
                        <file id="КАССЕТНАЯ КАМЕРА 1_29_773ABB3C8527451A9D3E.mov 2">
                            <duration>233</duration>
                            <rate>
                                <timebase>25</timebase>
                                <ntsc>false</ntsc>
                            </rate>
                            <name>КАССЕТНАЯ КАМЕРА 1_29_773ABB3C8527451A9D3E.mov</name>
                            <pathurl>file:///Capture1/EDIUS/EDIUS7_Color/colored/pasyans_v3/%D0%9A%D0%90%D0%A1%D0%A1%D0%95%D0%A2%D0%9D%D0%90%D0%AF%20%D0%9A%D0%90%D0%9C%D0%95%D0%A0%D0%90%201_29_773ABB3C8527451A9D3E_V1-0111.mov</pathurl>
                            <timecode>
                                <string>00:29:55:17</string>
                                <displayformat>NDF</displayformat>
                                <rate>
                                    <timebase>25</timebase>
                                    <ntsc>false</ntsc>
                                </rate>
                            </timecode>
                            <media>
                                <video>
                                    <duration>233</duration>
                                    <samplecharacteristics>
                                        <width>1920</width>
                                        <height>1080</height>
                                    </samplecharacteristics>
                                </video>
                            </media>
                        </file>
                        <compositemode>normal</compositemode>
                        <filter>
                            <enabled>true</enabled>
                            <start>0</start>
                            <end>232</end>
                            <effect>
                                <name>Opacity</name>
                                <effectid>opacity</effectid>
                                <effecttype>motion</effecttype>
                                <mediatype>video</mediatype>
                                <effectcategory>motion</effectcategory>
                                <parameter>
                                    <name>opacity</name>
                                    <parameterid>opacity</parameterid>
                                    <value>100</value>
                                    <valuemin>0</valuemin>
                                    <valuemax>100</valuemax>
                                </parameter>
                            </effect>
                        </filter>
                    </clipitem>
                    <clipitem id="общий план 5_1_EC8A188FDFB342F3A0C5.mov 0">
                        <name>общий план 5_1_EC8A188FDFB342F3A0C5.mov</name>
                        <duration>298</duration>
                        <rate>
                            <timebase>25</timebase>
                            <ntsc>false</ntsc>
                        </rate>
                        <start>45125</start>
                        <end>45423</end>
                        <enabled>true</enabled>
                        <in>0</in>
                        <out>298</out>
                        <file id="общий план 5_1_EC8A188FDFB342F3A0C5.mov 2">
                            <duration>298</duration>
                            <rate>
                                <timebase>25</timebase>
                                <ntsc>false</ntsc>
                            </rate>
                            <name>общий план 5_1_EC8A188FDFB342F3A0C5.mov</name>
                            <pathurl>file:///Capture1/EDIUS/EDIUS7_Color/colored/pasyans_v3/%D0%BE%D0%B1%D1%89%D0%B8%D0%B9%20%D0%BF%D0%BB%D0%B0%D0%BD%205_1_EC8A188FDFB342F3A0C5_V1-0112.mov</pathurl>
                            <timecode>
                                <string>00:30:05:00</string>
                                <displayformat>NDF</displayformat>
                                <rate>
                                    <timebase>25</timebase>
                                    <ntsc>false</ntsc>
                                </rate>
                            </timecode>
                            <media>
                                <video>
                                    <duration>298</duration>
                                    <samplecharacteristics>
                                        <width>1920</width>
                                        <height>1080</height>
                                    </samplecharacteristics>
                                </video>
                            </media>
                        </file>
                        <compositemode>normal</compositemode>
                        <filter>
                            <enabled>true</enabled>
                            <start>0</start>
                            <end>298</end>
                            <effect>
                                <name>Opacity</name>
                                <effectid>opacity</effectid>
                                <effecttype>motion</effecttype>
                                <mediatype>video</mediatype>
                                <effectcategory>motion</effectcategory>
                                <parameter>
                                    <name>opacity</name>
                                    <parameterid>opacity</parameterid>
                                    <value>100</value>
                                    <valuemin>0</valuemin>
                                    <valuemax>100</valuemax>
                                </parameter>
                            </effect>
                        </filter>
                    </clipitem>
                    <clipitem id="246_0922_02_7_363849E1FB3A4B95A41A.mov 0">
                        <name>246_0922_02_7_363849E1FB3A4B95A41A.mov</name>
                        <duration>112</duration>
                        <rate>
                            <timebase>25</timebase>
                            <ntsc>false</ntsc>
                        </rate>
                        <start>45423</start>
                        <end>45536</end>
                        <enabled>true</enabled>
                        <in>0</in>
                        <out>113</out>
                        <file id="246_0922_02_7_363849E1FB3A4B95A41A.mov 2">
                            <duration>113</duration>
                            <rate>
                                <timebase>25</timebase>
                                <ntsc>false</ntsc>
                            </rate>
                            <name>246_0922_02_7_363849E1FB3A4B95A41A.mov</name>
                            <pathurl>file:///Capture1/EDIUS/EDIUS7_Color/colored/pasyans_v3/246_0922_02_7_363849E1FB3A4B95A41A_V1-0113.mov</pathurl>
                            <timecode>
                                <string>00:30:16:23</string>
                                <displayformat>NDF</displayformat>
                                <rate>
                                    <timebase>25</timebase>
                                    <ntsc>false</ntsc>
                                </rate>
                            </timecode>
                            <media>
                                <video>
                                    <duration>113</duration>
                                    <samplecharacteristics>
                                        <width>1920</width>
                                        <height>1080</height>
                                    </samplecharacteristics>
                                </video>
                            </media>
                        </file>
                        <compositemode>normal</compositemode>
                        <filter>
                            <enabled>true</enabled>
                            <start>0</start>
                            <end>112</end>
                            <effect>
                                <name>Opacity</name>
                                <effectid>opacity</effectid>
                                <effecttype>motion</effecttype>
                                <mediatype>video</mediatype>
                                <effectcategory>motion</effectcategory>
                                <parameter>
                                    <name>opacity</name>
                                    <parameterid>opacity</parameterid>
                                    <value>100</value>
                                    <valuemin>0</valuemin>
                                    <valuemax>100</valuemax>
                                </parameter>
                            </effect>
                        </filter>
                    </clipitem>
                    <clipitem id="972_0437_02_14_F00E7AE71236457EB32D.mov 0">
                        <name>972_0437_02_14_F00E7AE71236457EB32D.mov</name>
                        <duration>75</duration>
                        <rate>
                            <timebase>25</timebase>
                            <ntsc>false</ntsc>
                        </rate>
                        <start>45536</start>
                        <end>45611</end>
                        <enabled>true</enabled>
                        <in>0</in>
                        <out>75</out>
                        <file id="972_0437_02_14_F00E7AE71236457EB32D.mov 2">
                            <duration>75</duration>
                            <rate>
                                <timebase>25</timebase>
                                <ntsc>false</ntsc>
                            </rate>
                            <name>972_0437_02_14_F00E7AE71236457EB32D.mov</name>
                            <pathurl>file:///Capture1/EDIUS/EDIUS7_Color/colored/pasyans_v3/972_0437_02_14_F00E7AE71236457EB32D_V1-0114.mov</pathurl>
                            <timecode>
                                <string>00:30:21:11</string>
                                <displayformat>NDF</displayformat>
                                <rate>
                                    <timebase>25</timebase>
                                    <ntsc>false</ntsc>
                                </rate>
                            </timecode>
                            <media>
                                <video>
                                    <duration>75</duration>
                                    <samplecharacteristics>
                                        <width>1920</width>
                                        <height>1080</height>
                                    </samplecharacteristics>
                                </video>
                            </media>
                        </file>
                        <compositemode>normal</compositemode>
                        <filter>
                            <enabled>true</enabled>
                            <start>0</start>
                            <end>75</end>
                            <effect>
                                <name>Opacity</name>
                                <effectid>opacity</effectid>
                                <effecttype>motion</effecttype>
                                <mediatype>video</mediatype>
                                <effectcategory>motion</effectcategory>
                                <parameter>
                                    <name>opacity</name>
                                    <parameterid>opacity</parameterid>
                                    <value>100</value>
                                    <valuemin>0</valuemin>
                                    <valuemax>100</valuemax>
                                </parameter>
                            </effect>
                        </filter>
                    </clipitem>
                    <clipitem id="общий план 5_2_38E51E52C92D4CD5AE36.mov 0">
                        <name>общий план 5_2_38E51E52C92D4CD5AE36.mov</name>
                        <duration>329</duration>
                        <rate>
                            <timebase>25</timebase>
                            <ntsc>false</ntsc>
                        </rate>
                        <start>45611</start>
                        <end>45940</end>
                        <enabled>true</enabled>
                        <in>0</in>
                        <out>329</out>
                        <file id="общий план 5_2_38E51E52C92D4CD5AE36.mov 2">
                            <duration>329</duration>
                            <rate>
                                <timebase>25</timebase>
                                <ntsc>false</ntsc>
                            </rate>
                            <name>общий план 5_2_38E51E52C92D4CD5AE36.mov</name>
                            <pathurl>file:///Capture1/EDIUS/EDIUS7_Color/colored/pasyans_v3/%D0%BE%D0%B1%D1%89%D0%B8%D0%B9%20%D0%BF%D0%BB%D0%B0%D0%BD%205_2_38E51E52C92D4CD5AE36_V1-0115.mov</pathurl>
                            <timecode>
                                <string>00:30:24:11</string>
                                <displayformat>NDF</displayformat>
                                <rate>
                                    <timebase>25</timebase>
                                    <ntsc>false</ntsc>
                                </rate>
                            </timecode>
                            <media>
                                <video>
                                    <duration>329</duration>
                                    <samplecharacteristics>
                                        <width>1920</width>
                                        <height>1080</height>
                                    </samplecharacteristics>
                                </video>
                            </media>
                        </file>
                        <compositemode>normal</compositemode>
                        <filter>
                            <enabled>true</enabled>
                            <start>0</start>
                            <end>329</end>
                            <effect>
                                <name>Opacity</name>
                                <effectid>opacity</effectid>
                                <effecttype>motion</effecttype>
                                <mediatype>video</mediatype>
                                <effectcategory>motion</effectcategory>
                                <parameter>
                                    <name>opacity</name>
                                    <parameterid>opacity</parameterid>
                                    <value>100</value>
                                    <valuemin>0</valuemin>
                                    <valuemax>100</valuemax>
                                </parameter>
                            </effect>
                        </filter>
                    </clipitem>
                    <clipitem id="972_0437_02_15_F3D80E11F4FA4C49A6FC.mov 0">
                        <name>972_0437_02_15_F3D80E11F4FA4C49A6FC.mov</name>
                        <duration>119</duration>
                        <rate>
                            <timebase>25</timebase>
                            <ntsc>false</ntsc>
                        </rate>
                        <start>45940</start>
                        <end>46060</end>
                        <enabled>true</enabled>
                        <in>0</in>
                        <out>120</out>
                        <file id="972_0437_02_15_F3D80E11F4FA4C49A6FC.mov 2">
                            <duration>120</duration>
                            <rate>
                                <timebase>25</timebase>
                                <ntsc>false</ntsc>
                            </rate>
                            <name>972_0437_02_15_F3D80E11F4FA4C49A6FC.mov</name>
                            <pathurl>file:///Capture1/EDIUS/EDIUS7_Color/colored/pasyans_v3/972_0437_02_15_F3D80E11F4FA4C49A6FC_V1-0116.mov</pathurl>
                            <timecode>
                                <string>00:30:37:15</string>
                                <displayformat>NDF</displayformat>
                                <rate>
                                    <timebase>25</timebase>
                                    <ntsc>false</ntsc>
                                </rate>
                            </timecode>
                            <media>
                                <video>
                                    <duration>120</duration>
                                    <samplecharacteristics>
                                        <width>1920</width>
                                        <height>1080</height>
                                    </samplecharacteristics>
                                </video>
                            </media>
                        </file>
                        <compositemode>normal</compositemode>
                        <filter>
                            <enabled>true</enabled>
                            <start>0</start>
                            <end>119</end>
                            <effect>
                                <name>Opacity</name>
                                <effectid>opacity</effectid>
                                <effecttype>motion</effecttype>
                                <mediatype>video</mediatype>
                                <effectcategory>motion</effectcategory>
                                <parameter>
                                    <name>opacity</name>
                                    <parameterid>opacity</parameterid>
                                    <value>100</value>
                                    <valuemin>0</valuemin>
                                    <valuemax>100</valuemax>
                                </parameter>
                            </effect>
                        </filter>
                    </clipitem>
                    <clipitem id="общий план 5_3_DBB8D476BCB1455884A4.mov 0">
                        <name>общий план 5_3_DBB8D476BCB1455884A4.mov</name>
                        <duration>185</duration>
                        <rate>
                            <timebase>25</timebase>
                            <ntsc>false</ntsc>
                        </rate>
                        <start>46060</start>
                        <end>46245</end>
                        <enabled>true</enabled>
                        <in>0</in>
                        <out>185</out>
                        <file id="общий план 5_3_DBB8D476BCB1455884A4.mov 2">
                            <duration>185</duration>
                            <rate>
                                <timebase>25</timebase>
                                <ntsc>false</ntsc>
                            </rate>
                            <name>общий план 5_3_DBB8D476BCB1455884A4.mov</name>
                            <pathurl>file:///Capture1/EDIUS/EDIUS7_Color/colored/pasyans_v3/%D0%BE%D0%B1%D1%89%D0%B8%D0%B9%20%D0%BF%D0%BB%D0%B0%D0%BD%205_3_DBB8D476BCB1455884A4_V1-0117.mov</pathurl>
                            <timecode>
                                <string>00:30:42:10</string>
                                <displayformat>NDF</displayformat>
                                <rate>
                                    <timebase>25</timebase>
                                    <ntsc>false</ntsc>
                                </rate>
                            </timecode>
                            <media>
                                <video>
                                    <duration>185</duration>
                                    <samplecharacteristics>
                                        <width>1920</width>
                                        <height>1080</height>
                                    </samplecharacteristics>
                                </video>
                            </media>
                        </file>
                        <compositemode>normal</compositemode>
                        <filter>
                            <enabled>true</enabled>
                            <start>0</start>
                            <end>185</end>
                            <effect>
                                <name>Opacity</name>
                                <effectid>opacity</effectid>
                                <effecttype>motion</effecttype>
                                <mediatype>video</mediatype>
                                <effectcategory>motion</effectcategory>
                                <parameter>
                                    <name>opacity</name>
                                    <parameterid>opacity</parameterid>
                                    <value>100</value>
                                    <valuemin>0</valuemin>
                                    <valuemax>100</valuemax>
                                </parameter>
                            </effect>
                        </filter>
                    </clipitem>
                    <clipitem id="КАССЕТНАЯ КАМЕРА 1_30_6FE70EFF49444539930F.mov 0">
                        <name>КАССЕТНАЯ КАМЕРА 1_30_6FE70EFF49444539930F.mov</name>
                        <duration>93</duration>
                        <rate>
                            <timebase>25</timebase>
                            <ntsc>false</ntsc>
                        </rate>
                        <start>46245</start>
                        <end>46339</end>
                        <enabled>true</enabled>
                        <in>0</in>
                        <out>94</out>
                        <file id="КАССЕТНАЯ КАМЕРА 1_30_6FE70EFF49444539930F.mov 2">
                            <duration>94</duration>
                            <rate>
                                <timebase>25</timebase>
                                <ntsc>false</ntsc>
                            </rate>
                            <name>КАССЕТНАЯ КАМЕРА 1_30_6FE70EFF49444539930F.mov</name>
                            <pathurl>file:///Capture1/EDIUS/EDIUS7_Color/colored/pasyans_v3/%D0%9A%D0%90%D0%A1%D0%A1%D0%95%D0%A2%D0%9D%D0%90%D0%AF%20%D0%9A%D0%90%D0%9C%D0%95%D0%A0%D0%90%201_30_6FE70EFF49444539930F_V1-0118.mov</pathurl>
                            <timecode>
                                <string>00:30:49:20</string>
                                <displayformat>NDF</displayformat>
                                <rate>
                                    <timebase>25</timebase>
                                    <ntsc>false</ntsc>
                                </rate>
                            </timecode>
                            <media>
                                <video>
                                    <duration>94</duration>
                                    <samplecharacteristics>
                                        <width>1920</width>
                                        <height>1080</height>
                                    </samplecharacteristics>
                                </video>
                            </media>
                        </file>
                        <compositemode>normal</compositemode>
                        <filter>
                            <enabled>true</enabled>
                            <start>0</start>
                            <end>93</end>
                            <effect>
                                <name>Opacity</name>
                                <effectid>opacity</effectid>
                                <effecttype>motion</effecttype>
                                <mediatype>video</mediatype>
                                <effectcategory>motion</effectcategory>
                                <parameter>
                                    <name>opacity</name>
                                    <parameterid>opacity</parameterid>
                                    <value>100</value>
                                    <valuemin>0</valuemin>
                                    <valuemax>100</valuemax>
                                </parameter>
                            </effect>
                        </filter>
                    </clipitem>
                    <clipitem id="GP018363_2_18EDE9D3D37B4EE28AC5.mov 0">
                        <name>GP018363_2_18EDE9D3D37B4EE28AC5.mov</name>
                        <duration>114</duration>
                        <rate>
                            <timebase>25</timebase>
                            <ntsc>false</ntsc>
                        </rate>
                        <start>46339</start>
                        <end>46454</end>
                        <enabled>true</enabled>
                        <in>0</in>
                        <out>115</out>
                        <file id="GP018363_2_18EDE9D3D37B4EE28AC5.mov 2">
                            <duration>115</duration>
                            <rate>
                                <timebase>25</timebase>
                                <ntsc>false</ntsc>
                            </rate>
                            <name>GP018363_2_18EDE9D3D37B4EE28AC5.mov</name>
                            <pathurl>file:///Capture1/EDIUS/EDIUS7_Color/colored/pasyans_v3/GP018363_2_18EDE9D3D37B4EE28AC5_V1-0119.mov</pathurl>
                            <timecode>
                                <string>00:30:53:14</string>
                                <displayformat>NDF</displayformat>
                                <rate>
                                    <timebase>25</timebase>
                                    <ntsc>false</ntsc>
                                </rate>
                            </timecode>
                            <media>
                                <video>
                                    <duration>115</duration>
                                    <samplecharacteristics>
                                        <width>1920</width>
                                        <height>1080</height>
                                    </samplecharacteristics>
                                </video>
                            </media>
                        </file>
                        <compositemode>normal</compositemode>
                        <filter>
                            <enabled>true</enabled>
                            <start>0</start>
                            <end>114</end>
                            <effect>
                                <name>Opacity</name>
                                <effectid>opacity</effectid>
                                <effecttype>motion</effecttype>
                                <mediatype>video</mediatype>
                                <effectcategory>motion</effectcategory>
                                <parameter>
                                    <name>opacity</name>
                                    <parameterid>opacity</parameterid>
                                    <value>100</value>
                                    <valuemin>0</valuemin>
                                    <valuemax>100</valuemax>
                                </parameter>
                            </effect>
                        </filter>
                    </clipitem>
                    <clipitem id="972_0437_03_1_CDE13A6356F44627BD04.mov 0">
                        <name>972_0437_03_1_CDE13A6356F44627BD04.mov</name>
                        <duration>87</duration>
                        <rate>
                            <timebase>25</timebase>
                            <ntsc>false</ntsc>
                        </rate>
                        <start>46454</start>
                        <end>46541</end>
                        <enabled>true</enabled>
                        <in>0</in>
                        <out>87</out>
                        <file id="972_0437_03_1_CDE13A6356F44627BD04.mov 2">
                            <duration>87</duration>
                            <rate>
                                <timebase>25</timebase>
                                <ntsc>false</ntsc>
                            </rate>
                            <name>972_0437_03_1_CDE13A6356F44627BD04.mov</name>
                            <pathurl>file:///Capture1/EDIUS/EDIUS7_Color/colored/pasyans_v3/972_0437_03_1_CDE13A6356F44627BD04_V1-0120.mov</pathurl>
                            <timecode>
                                <string>00:30:58:04</string>
                                <displayformat>NDF</displayformat>
                                <rate>
                                    <timebase>25</timebase>
                                    <ntsc>false</ntsc>
                                </rate>
                            </timecode>
                            <media>
                                <video>
                                    <duration>87</duration>
                                    <samplecharacteristics>
                                        <width>1920</width>
                                        <height>1080</height>
                                    </samplecharacteristics>
                                </video>
                            </media>
                        </file>
                        <compositemode>normal</compositemode>
                        <filter>
                            <enabled>true</enabled>
                            <start>0</start>
                            <end>87</end>
                            <effect>
                                <name>Opacity</name>
                                <effectid>opacity</effectid>
                                <effecttype>motion</effecttype>
                                <mediatype>video</mediatype>
                                <effectcategory>motion</effectcategory>
                                <parameter>
                                    <name>opacity</name>
                                    <parameterid>opacity</parameterid>
                                    <value>100</value>
                                    <valuemin>0</valuemin>
                                    <valuemax>100</valuemax>
                                </parameter>
                            </effect>
                        </filter>
                    </clipitem>
                    <clipitem id="246_0922_03_1_D157D0ACFB184990934A.mov 0">
                        <name>246_0922_03_1_D157D0ACFB184990934A.mov</name>
                        <duration>107</duration>
                        <rate>
                            <timebase>25</timebase>
                            <ntsc>false</ntsc>
                        </rate>
                        <start>46541</start>
                        <end>46649</end>
                        <enabled>true</enabled>
                        <in>0</in>
                        <out>108</out>
                        <file id="246_0922_03_1_D157D0ACFB184990934A.mov 2">
                            <duration>108</duration>
                            <rate>
                                <timebase>25</timebase>
                                <ntsc>false</ntsc>
                            </rate>
                            <name>246_0922_03_1_D157D0ACFB184990934A.mov</name>
                            <pathurl>file:///Capture1/EDIUS/EDIUS7_Color/colored/pasyans_v3/246_0922_03_1_D157D0ACFB184990934A_V1-0121.mov</pathurl>
                            <timecode>
                                <string>00:31:01:16</string>
                                <displayformat>NDF</displayformat>
                                <rate>
                                    <timebase>25</timebase>
                                    <ntsc>false</ntsc>
                                </rate>
                            </timecode>
                            <media>
                                <video>
                                    <duration>108</duration>
                                    <samplecharacteristics>
                                        <width>1920</width>
                                        <height>1080</height>
                                    </samplecharacteristics>
                                </video>
                            </media>
                        </file>
                        <compositemode>normal</compositemode>
                        <filter>
                            <enabled>true</enabled>
                            <start>0</start>
                            <end>107</end>
                            <effect>
                                <name>Opacity</name>
                                <effectid>opacity</effectid>
                                <effecttype>motion</effecttype>
                                <mediatype>video</mediatype>
                                <effectcategory>motion</effectcategory>
                                <parameter>
                                    <name>opacity</name>
                                    <parameterid>opacity</parameterid>
                                    <value>100</value>
                                    <valuemin>0</valuemin>
                                    <valuemax>100</valuemax>
                                </parameter>
                            </effect>
                        </filter>
                    </clipitem>
                    <clipitem id="GP018503_1_931E3196966F44FD88AC.mov 0">
                        <name>GP018503_1_931E3196966F44FD88AC.mov</name>
                        <duration>110</duration>
                        <rate>
                            <timebase>25</timebase>
                            <ntsc>false</ntsc>
                        </rate>
                        <start>46649</start>
                        <end>46759</end>
                        <enabled>true</enabled>
                        <in>0</in>
                        <out>110</out>
                        <file id="GP018503_1_931E3196966F44FD88AC.mov 2">
                            <duration>110</duration>
                            <rate>
                                <timebase>25</timebase>
                                <ntsc>false</ntsc>
                            </rate>
                            <name>GP018503_1_931E3196966F44FD88AC.mov</name>
                            <pathurl>file:///Capture1/EDIUS/EDIUS7_Color/colored/pasyans_v3/GP018503_1_931E3196966F44FD88AC_V1-0122.mov</pathurl>
                            <timecode>
                                <string>00:31:05:24</string>
                                <displayformat>NDF</displayformat>
                                <rate>
                                    <timebase>25</timebase>
                                    <ntsc>false</ntsc>
                                </rate>
                            </timecode>
                            <media>
                                <video>
                                    <duration>110</duration>
                                    <samplecharacteristics>
                                        <width>1920</width>
                                        <height>1080</height>
                                    </samplecharacteristics>
                                </video>
                            </media>
                        </file>
                        <compositemode>normal</compositemode>
                        <filter>
                            <enabled>true</enabled>
                            <start>0</start>
                            <end>110</end>
                            <effect>
                                <name>Opacity</name>
                                <effectid>opacity</effectid>
                                <effecttype>motion</effecttype>
                                <mediatype>video</mediatype>
                                <effectcategory>motion</effectcategory>
                                <parameter>
                                    <name>opacity</name>
                                    <parameterid>opacity</parameterid>
                                    <value>100</value>
                                    <valuemin>0</valuemin>
                                    <valuemax>100</valuemax>
                                </parameter>
                            </effect>
                        </filter>
                    </clipitem>
                    <clipitem id="972_0437_03_2_7C798419C8AE4F85B839.mov 0">
                        <name>972_0437_03_2_7C798419C8AE4F85B839.mov</name>
                        <duration>75</duration>
                        <rate>
                            <timebase>25</timebase>
                            <ntsc>false</ntsc>
                        </rate>
                        <start>46759</start>
                        <end>46834</end>
                        <enabled>true</enabled>
                        <in>0</in>
                        <out>75</out>
                        <file id="972_0437_03_2_7C798419C8AE4F85B839.mov 2">
                            <duration>75</duration>
                            <rate>
                                <timebase>25</timebase>
                                <ntsc>false</ntsc>
                            </rate>
                            <name>972_0437_03_2_7C798419C8AE4F85B839.mov</name>
                            <pathurl>file:///Capture1/EDIUS/EDIUS7_Color/colored/pasyans_v3/972_0437_03_2_7C798419C8AE4F85B839_V1-0123.mov</pathurl>
                            <timecode>
                                <string>00:31:10:09</string>
                                <displayformat>NDF</displayformat>
                                <rate>
                                    <timebase>25</timebase>
                                    <ntsc>false</ntsc>
                                </rate>
                            </timecode>
                            <media>
                                <video>
                                    <duration>75</duration>
                                    <samplecharacteristics>
                                        <width>1920</width>
                                        <height>1080</height>
                                    </samplecharacteristics>
                                </video>
                            </media>
                        </file>
                        <compositemode>normal</compositemode>
                        <filter>
                            <enabled>true</enabled>
                            <start>0</start>
                            <end>75</end>
                            <effect>
                                <name>Opacity</name>
                                <effectid>opacity</effectid>
                                <effecttype>motion</effecttype>
                                <mediatype>video</mediatype>
                                <effectcategory>motion</effectcategory>
                                <parameter>
                                    <name>opacity</name>
                                    <parameterid>opacity</parameterid>
                                    <value>100</value>
                                    <valuemin>0</valuemin>
                                    <valuemax>100</valuemax>
                                </parameter>
                            </effect>
                        </filter>
                    </clipitem>
                    <clipitem id="972_0437_03_3_514FEFBBF28143D39D02.mov 0">
                        <name>972_0437_03_3_514FEFBBF28143D39D02.mov</name>
                        <duration>164</duration>
                        <rate>
                            <timebase>25</timebase>
                            <ntsc>false</ntsc>
                        </rate>
                        <start>47521</start>
                        <end>47686</end>
                        <enabled>true</enabled>
                        <in>0</in>
                        <out>165</out>
                        <file id="972_0437_03_3_514FEFBBF28143D39D02.mov 2">
                            <duration>165</duration>
                            <rate>
                                <timebase>25</timebase>
                                <ntsc>false</ntsc>
                            </rate>
                            <name>972_0437_03_3_514FEFBBF28143D39D02.mov</name>
                            <pathurl>file:///Capture1/EDIUS/EDIUS7_Color/colored/pasyans_v3/972_0437_03_3_514FEFBBF28143D39D02_V1-0124.mov</pathurl>
                            <timecode>
                                <string>00:31:40:21</string>
                                <displayformat>NDF</displayformat>
                                <rate>
                                    <timebase>25</timebase>
                                    <ntsc>false</ntsc>
                                </rate>
                            </timecode>
                            <media>
                                <video>
                                    <duration>165</duration>
                                    <samplecharacteristics>
                                        <width>1920</width>
                                        <height>1080</height>
                                    </samplecharacteristics>
                                </video>
                            </media>
                        </file>
                        <compositemode>normal</compositemode>
                        <filter>
                            <enabled>true</enabled>
                            <start>0</start>
                            <end>164</end>
                            <effect>
                                <name>Opacity</name>
                                <effectid>opacity</effectid>
                                <effecttype>motion</effecttype>
                                <mediatype>video</mediatype>
                                <effectcategory>motion</effectcategory>
                                <parameter>
                                    <name>opacity</name>
                                    <parameterid>opacity</parameterid>
                                    <value>100</value>
                                    <valuemin>0</valuemin>
                                    <valuemax>100</valuemax>
                                </parameter>
                            </effect>
                        </filter>
                    </clipitem>
                    <clipitem id="246_0922_03_2_98C051E42D5C4F34B329.mov 0">
                        <name>246_0922_03_2_98C051E42D5C4F34B329.mov</name>
                        <duration>113</duration>
                        <rate>
                            <timebase>25</timebase>
                            <ntsc>false</ntsc>
                        </rate>
                        <start>47686</start>
                        <end>47800</end>
                        <enabled>true</enabled>
                        <in>0</in>
                        <out>114</out>
                        <file id="246_0922_03_2_98C051E42D5C4F34B329.mov 2">
                            <duration>114</duration>
                            <rate>
                                <timebase>25</timebase>
                                <ntsc>false</ntsc>
                            </rate>
                            <name>246_0922_03_2_98C051E42D5C4F34B329.mov</name>
                            <pathurl>file:///Capture1/EDIUS/EDIUS7_Color/colored/pasyans_v3/246_0922_03_2_98C051E42D5C4F34B329_V1-0125.mov</pathurl>
                            <timecode>
                                <string>00:31:47:11</string>
                                <displayformat>NDF</displayformat>
                                <rate>
                                    <timebase>25</timebase>
                                    <ntsc>false</ntsc>
                                </rate>
                            </timecode>
                            <media>
                                <video>
                                    <duration>114</duration>
                                    <samplecharacteristics>
                                        <width>1920</width>
                                        <height>1080</height>
                                    </samplecharacteristics>
                                </video>
                            </media>
                        </file>
                        <compositemode>normal</compositemode>
                        <filter>
                            <enabled>true</enabled>
                            <start>0</start>
                            <end>113</end>
                            <effect>
                                <name>Opacity</name>
                                <effectid>opacity</effectid>
                                <effecttype>motion</effecttype>
                                <mediatype>video</mediatype>
                                <effectcategory>motion</effectcategory>
                                <parameter>
                                    <name>opacity</name>
                                    <parameterid>opacity</parameterid>
                                    <value>100</value>
                                    <valuemin>0</valuemin>
                                    <valuemax>100</valuemax>
                                </parameter>
                            </effect>
                        </filter>
                    </clipitem>
                    <clipitem id="КАССЕТНАЯ КАМЕРА 1_31_3623337AC6094E13A077.mov 0">
                        <name>КАССЕТНАЯ КАМЕРА 1_31_3623337AC6094E13A077.mov</name>
                        <duration>312</duration>
                        <rate>
                            <timebase>25</timebase>
                            <ntsc>false</ntsc>
                        </rate>
                        <start>47800</start>
                        <end>48112</end>
                        <enabled>true</enabled>
                        <in>0</in>
                        <out>312</out>
                        <file id="КАССЕТНАЯ КАМЕРА 1_31_3623337AC6094E13A077.mov 2">
                            <duration>312</duration>
                            <rate>
                                <timebase>25</timebase>
                                <ntsc>false</ntsc>
                            </rate>
                            <name>КАССЕТНАЯ КАМЕРА 1_31_3623337AC6094E13A077.mov</name>
                            <pathurl>file:///Capture1/EDIUS/EDIUS7_Color/colored/pasyans_v3/%D0%9A%D0%90%D0%A1%D0%A1%D0%95%D0%A2%D0%9D%D0%90%D0%AF%20%D0%9A%D0%90%D0%9C%D0%95%D0%A0%D0%90%201_31_3623337AC6094E13A077_V1-0126.mov</pathurl>
                            <timecode>
                                <string>00:31:52:00</string>
                                <displayformat>NDF</displayformat>
                                <rate>
                                    <timebase>25</timebase>
                                    <ntsc>false</ntsc>
                                </rate>
                            </timecode>
                            <media>
                                <video>
                                    <duration>312</duration>
                                    <samplecharacteristics>
                                        <width>1920</width>
                                        <height>1080</height>
                                    </samplecharacteristics>
                                </video>
                            </media>
                        </file>
                        <compositemode>normal</compositemode>
                        <filter>
                            <enabled>true</enabled>
                            <start>0</start>
                            <end>312</end>
                            <effect>
                                <name>Opacity</name>
                                <effectid>opacity</effectid>
                                <effecttype>motion</effecttype>
                                <mediatype>video</mediatype>
                                <effectcategory>motion</effectcategory>
                                <parameter>
                                    <name>opacity</name>
                                    <parameterid>opacity</parameterid>
                                    <value>100</value>
                                    <valuemin>0</valuemin>
                                    <valuemax>100</valuemax>
                                </parameter>
                            </effect>
                        </filter>
                    </clipitem>
                    <clipitem id="972_0437_03_4_E7A53CDC199746D49F88.mov 0">
                        <name>972_0437_03_4_E7A53CDC199746D49F88.mov</name>
                        <duration>167</duration>
                        <rate>
                            <timebase>25</timebase>
                            <ntsc>false</ntsc>
                        </rate>
                        <start>48112</start>
                        <end>48279</end>
                        <enabled>true</enabled>
                        <in>0</in>
                        <out>167</out>
                        <file id="972_0437_03_4_E7A53CDC199746D49F88.mov 2">
                            <duration>167</duration>
                            <rate>
                                <timebase>25</timebase>
                                <ntsc>false</ntsc>
                            </rate>
                            <name>972_0437_03_4_E7A53CDC199746D49F88.mov</name>
                            <pathurl>file:///Capture1/EDIUS/EDIUS7_Color/colored/pasyans_v3/972_0437_03_4_E7A53CDC199746D49F88_V1-0127.mov</pathurl>
                            <timecode>
                                <string>00:32:04:12</string>
                                <displayformat>NDF</displayformat>
                                <rate>
                                    <timebase>25</timebase>
                                    <ntsc>false</ntsc>
                                </rate>
                            </timecode>
                            <media>
                                <video>
                                    <duration>167</duration>
                                    <samplecharacteristics>
                                        <width>1920</width>
                                        <height>1080</height>
                                    </samplecharacteristics>
                                </video>
                            </media>
                        </file>
                        <compositemode>normal</compositemode>
                        <filter>
                            <enabled>true</enabled>
                            <start>0</start>
                            <end>167</end>
                            <effect>
                                <name>Opacity</name>
                                <effectid>opacity</effectid>
                                <effecttype>motion</effecttype>
                                <mediatype>video</mediatype>
                                <effectcategory>motion</effectcategory>
                                <parameter>
                                    <name>opacity</name>
                                    <parameterid>opacity</parameterid>
                                    <value>100</value>
                                    <valuemin>0</valuemin>
                                    <valuemax>100</valuemax>
                                </parameter>
                            </effect>
                        </filter>
                    </clipitem>
                    <clipitem id="246_0922_03_3_F2267CBCDD054515B7FB.mov 0">
                        <name>246_0922_03_3_F2267CBCDD054515B7FB.mov</name>
                        <duration>118</duration>
                        <rate>
                            <timebase>25</timebase>
                            <ntsc>false</ntsc>
                        </rate>
                        <start>48279</start>
                        <end>48397</end>
                        <enabled>true</enabled>
                        <in>0</in>
                        <out>118</out>
                        <file id="246_0922_03_3_F2267CBCDD054515B7FB.mov 2">
                            <duration>118</duration>
                            <rate>
                                <timebase>25</timebase>
                                <ntsc>false</ntsc>
                            </rate>
                            <name>246_0922_03_3_F2267CBCDD054515B7FB.mov</name>
                            <pathurl>file:///Capture1/EDIUS/EDIUS7_Color/colored/pasyans_v3/246_0922_03_3_F2267CBCDD054515B7FB_V1-0128.mov</pathurl>
                            <timecode>
                                <string>00:32:11:04</string>
                                <displayformat>NDF</displayformat>
                                <rate>
                                    <timebase>25</timebase>
                                    <ntsc>false</ntsc>
                                </rate>
                            </timecode>
                            <media>
                                <video>
                                    <duration>118</duration>
                                    <samplecharacteristics>
                                        <width>1920</width>
                                        <height>1080</height>
                                    </samplecharacteristics>
                                </video>
                            </media>
                        </file>
                        <compositemode>normal</compositemode>
                        <filter>
                            <enabled>true</enabled>
                            <start>0</start>
                            <end>118</end>
                            <effect>
                                <name>Opacity</name>
                                <effectid>opacity</effectid>
                                <effecttype>motion</effecttype>
                                <mediatype>video</mediatype>
                                <effectcategory>motion</effectcategory>
                                <parameter>
                                    <name>opacity</name>
                                    <parameterid>opacity</parameterid>
                                    <value>100</value>
                                    <valuemin>0</valuemin>
                                    <valuemax>100</valuemax>
                                </parameter>
                            </effect>
                        </filter>
                    </clipitem>
                    <clipitem id="972_0437_03_5_A50125D60611445497A0.mov 0">
                        <name>972_0437_03_5_A50125D60611445497A0.mov</name>
                        <duration>212</duration>
                        <rate>
                            <timebase>25</timebase>
                            <ntsc>false</ntsc>
                        </rate>
                        <start>48397</start>
                        <end>48610</end>
                        <enabled>true</enabled>
                        <in>0</in>
                        <out>213</out>
                        <file id="972_0437_03_5_A50125D60611445497A0.mov 2">
                            <duration>213</duration>
                            <rate>
                                <timebase>25</timebase>
                                <ntsc>false</ntsc>
                            </rate>
                            <name>972_0437_03_5_A50125D60611445497A0.mov</name>
                            <pathurl>file:///Capture1/EDIUS/EDIUS7_Color/colored/pasyans_v3/972_0437_03_5_A50125D60611445497A0_V1-0129.mov</pathurl>
                            <timecode>
                                <string>00:32:15:22</string>
                                <displayformat>NDF</displayformat>
                                <rate>
                                    <timebase>25</timebase>
                                    <ntsc>false</ntsc>
                                </rate>
                            </timecode>
                            <media>
                                <video>
                                    <duration>213</duration>
                                    <samplecharacteristics>
                                        <width>1920</width>
                                        <height>1080</height>
                                    </samplecharacteristics>
                                </video>
                            </media>
                        </file>
                        <compositemode>normal</compositemode>
                        <filter>
                            <enabled>true</enabled>
                            <start>0</start>
                            <end>212</end>
                            <effect>
                                <name>Opacity</name>
                                <effectid>opacity</effectid>
                                <effecttype>motion</effecttype>
                                <mediatype>video</mediatype>
                                <effectcategory>motion</effectcategory>
                                <parameter>
                                    <name>opacity</name>
                                    <parameterid>opacity</parameterid>
                                    <value>100</value>
                                    <valuemin>0</valuemin>
                                    <valuemax>100</valuemax>
                                </parameter>
                            </effect>
                        </filter>
                    </clipitem>
                    <clipitem id="общий план 5_4_61C6E2C9AA2B40D38924.mov 0">
                        <name>общий план 5_4_61C6E2C9AA2B40D38924.mov</name>
                        <duration>141</duration>
                        <rate>
                            <timebase>25</timebase>
                            <ntsc>false</ntsc>
                        </rate>
                        <start>48744</start>
                        <end>48885</end>
                        <enabled>true</enabled>
                        <in>0</in>
                        <out>141</out>
                        <file id="общий план 5_4_61C6E2C9AA2B40D38924.mov 2">
                            <duration>141</duration>
                            <rate>
                                <timebase>25</timebase>
                                <ntsc>false</ntsc>
                            </rate>
                            <name>общий план 5_4_61C6E2C9AA2B40D38924.mov</name>
                            <pathurl>file:///Capture1/EDIUS/EDIUS7_Color/colored/pasyans_v3/%D0%BE%D0%B1%D1%89%D0%B8%D0%B9%20%D0%BF%D0%BB%D0%B0%D0%BD%205_4_61C6E2C9AA2B40D38924_V1-0130.mov</pathurl>
                            <timecode>
                                <string>00:32:29:19</string>
                                <displayformat>NDF</displayformat>
                                <rate>
                                    <timebase>25</timebase>
                                    <ntsc>false</ntsc>
                                </rate>
                            </timecode>
                            <media>
                                <video>
                                    <duration>141</duration>
                                    <samplecharacteristics>
                                        <width>1920</width>
                                        <height>1080</height>
                                    </samplecharacteristics>
                                </video>
                            </media>
                        </file>
                        <compositemode>normal</compositemode>
                        <filter>
                            <enabled>true</enabled>
                            <start>0</start>
                            <end>141</end>
                            <effect>
                                <name>Opacity</name>
                                <effectid>opacity</effectid>
                                <effecttype>motion</effecttype>
                                <mediatype>video</mediatype>
                                <effectcategory>motion</effectcategory>
                                <parameter>
                                    <name>opacity</name>
                                    <parameterid>opacity</parameterid>
                                    <value>100</value>
                                    <valuemin>0</valuemin>
                                    <valuemax>100</valuemax>
                                </parameter>
                            </effect>
                        </filter>
                    </clipitem>
                    <clipitem id="972_0437_03_6_760E05A0A0B047179EF2.mov 0">
                        <name>972_0437_03_6_760E05A0A0B047179EF2.mov</name>
                        <duration>160</duration>
                        <rate>
                            <timebase>25</timebase>
                            <ntsc>false</ntsc>
                        </rate>
                        <start>48885</start>
                        <end>49045</end>
                        <enabled>true</enabled>
                        <in>0</in>
                        <out>160</out>
                        <file id="972_0437_03_6_760E05A0A0B047179EF2.mov 2">
                            <duration>160</duration>
                            <rate>
                                <timebase>25</timebase>
                                <ntsc>false</ntsc>
                            </rate>
                            <name>972_0437_03_6_760E05A0A0B047179EF2.mov</name>
                            <pathurl>file:///Capture1/EDIUS/EDIUS7_Color/colored/pasyans_v3/972_0437_03_6_760E05A0A0B047179EF2_V1-0131.mov</pathurl>
                            <timecode>
                                <string>00:32:35:10</string>
                                <displayformat>NDF</displayformat>
                                <rate>
                                    <timebase>25</timebase>
                                    <ntsc>false</ntsc>
                                </rate>
                            </timecode>
                            <media>
                                <video>
                                    <duration>160</duration>
                                    <samplecharacteristics>
                                        <width>1920</width>
                                        <height>1080</height>
                                    </samplecharacteristics>
                                </video>
                            </media>
                        </file>
                        <compositemode>normal</compositemode>
                        <filter>
                            <enabled>true</enabled>
                            <start>0</start>
                            <end>160</end>
                            <effect>
                                <name>Opacity</name>
                                <effectid>opacity</effectid>
                                <effecttype>motion</effecttype>
                                <mediatype>video</mediatype>
                                <effectcategory>motion</effectcategory>
                                <parameter>
                                    <name>opacity</name>
                                    <parameterid>opacity</parameterid>
                                    <value>100</value>
                                    <valuemin>0</valuemin>
                                    <valuemax>100</valuemax>
                                </parameter>
                            </effect>
                        </filter>
                    </clipitem>
                    <clipitem id="246_0922_03_4_727D0D225C884277950C.mov 0">
                        <name>246_0922_03_4_727D0D225C884277950C.mov</name>
                        <duration>145</duration>
                        <rate>
                            <timebase>25</timebase>
                            <ntsc>false</ntsc>
                        </rate>
                        <start>49045</start>
                        <end>49191</end>
                        <enabled>true</enabled>
                        <in>0</in>
                        <out>146</out>
                        <file id="246_0922_03_4_727D0D225C884277950C.mov 2">
                            <duration>146</duration>
                            <rate>
                                <timebase>25</timebase>
                                <ntsc>false</ntsc>
                            </rate>
                            <name>246_0922_03_4_727D0D225C884277950C.mov</name>
                            <pathurl>file:///Capture1/EDIUS/EDIUS7_Color/colored/pasyans_v3/246_0922_03_4_727D0D225C884277950C_V1-0132.mov</pathurl>
                            <timecode>
                                <string>00:32:41:20</string>
                                <displayformat>NDF</displayformat>
                                <rate>
                                    <timebase>25</timebase>
                                    <ntsc>false</ntsc>
                                </rate>
                            </timecode>
                            <media>
                                <video>
                                    <duration>146</duration>
                                    <samplecharacteristics>
                                        <width>1920</width>
                                        <height>1080</height>
                                    </samplecharacteristics>
                                </video>
                            </media>
                        </file>
                        <compositemode>normal</compositemode>
                        <filter>
                            <enabled>true</enabled>
                            <start>0</start>
                            <end>145</end>
                            <effect>
                                <name>Opacity</name>
                                <effectid>opacity</effectid>
                                <effecttype>motion</effecttype>
                                <mediatype>video</mediatype>
                                <effectcategory>motion</effectcategory>
                                <parameter>
                                    <name>opacity</name>
                                    <parameterid>opacity</parameterid>
                                    <value>100</value>
                                    <valuemin>0</valuemin>
                                    <valuemax>100</valuemax>
                                </parameter>
                            </effect>
                        </filter>
                    </clipitem>
                    <clipitem id="общий план 6_1_E32633EB70304715A103.mov 0">
                        <name>общий план 6_1_E32633EB70304715A103.mov</name>
                        <duration>95</duration>
                        <rate>
                            <timebase>25</timebase>
                            <ntsc>false</ntsc>
                        </rate>
                        <start>49191</start>
                        <end>49287</end>
                        <enabled>true</enabled>
                        <in>0</in>
                        <out>96</out>
                        <file id="общий план 6_1_E32633EB70304715A103.mov 2">
                            <duration>96</duration>
                            <rate>
                                <timebase>25</timebase>
                                <ntsc>false</ntsc>
                            </rate>
                            <name>общий план 6_1_E32633EB70304715A103.mov</name>
                            <pathurl>file:///Capture1/EDIUS/EDIUS7_Color/colored/pasyans_v3/%D0%BE%D0%B1%D1%89%D0%B8%D0%B9%20%D0%BF%D0%BB%D0%B0%D0%BD%206_1_E32633EB70304715A103_V1-0133.mov</pathurl>
                            <timecode>
                                <string>00:32:47:16</string>
                                <displayformat>NDF</displayformat>
                                <rate>
                                    <timebase>25</timebase>
                                    <ntsc>false</ntsc>
                                </rate>
                            </timecode>
                            <media>
                                <video>
                                    <duration>96</duration>
                                    <samplecharacteristics>
                                        <width>1920</width>
                                        <height>1080</height>
                                    </samplecharacteristics>
                                </video>
                            </media>
                        </file>
                        <compositemode>normal</compositemode>
                        <filter>
                            <enabled>true</enabled>
                            <start>0</start>
                            <end>95</end>
                            <effect>
                                <name>Opacity</name>
                                <effectid>opacity</effectid>
                                <effecttype>motion</effecttype>
                                <mediatype>video</mediatype>
                                <effectcategory>motion</effectcategory>
                                <parameter>
                                    <name>opacity</name>
                                    <parameterid>opacity</parameterid>
                                    <value>100</value>
                                    <valuemin>0</valuemin>
                                    <valuemax>100</valuemax>
                                </parameter>
                            </effect>
                        </filter>
                    </clipitem>
                    <clipitem id="КАССЕТНАЯ КАМЕРА 1_32_9E2726E6322546DB8FDA.mov 0">
                        <name>КАССЕТНАЯ КАМЕРА 1_32_9E2726E6322546DB8FDA.mov</name>
                        <duration>151</duration>
                        <rate>
                            <timebase>25</timebase>
                            <ntsc>false</ntsc>
                        </rate>
                        <start>49287</start>
                        <end>49439</end>
                        <enabled>true</enabled>
                        <in>0</in>
                        <out>152</out>
                        <file id="КАССЕТНАЯ КАМЕРА 1_32_9E2726E6322546DB8FDA.mov 2">
                            <duration>152</duration>
                            <rate>
                                <timebase>25</timebase>
                                <ntsc>false</ntsc>
                            </rate>
                            <name>КАССЕТНАЯ КАМЕРА 1_32_9E2726E6322546DB8FDA.mov</name>
                            <pathurl>file:///Capture1/EDIUS/EDIUS7_Color/colored/pasyans_v3/%D0%9A%D0%90%D0%A1%D0%A1%D0%95%D0%A2%D0%9D%D0%90%D0%AF%20%D0%9A%D0%90%D0%9C%D0%95%D0%A0%D0%90%201_32_9E2726E6322546DB8FDA_V1-0134.mov</pathurl>
                            <timecode>
                                <string>00:32:51:12</string>
                                <displayformat>NDF</displayformat>
                                <rate>
                                    <timebase>25</timebase>
                                    <ntsc>false</ntsc>
                                </rate>
                            </timecode>
                            <media>
                                <video>
                                    <duration>152</duration>
                                    <samplecharacteristics>
                                        <width>1920</width>
                                        <height>1080</height>
                                    </samplecharacteristics>
                                </video>
                            </media>
                        </file>
                        <compositemode>normal</compositemode>
                        <filter>
                            <enabled>true</enabled>
                            <start>0</start>
                            <end>151</end>
                            <effect>
                                <name>Opacity</name>
                                <effectid>opacity</effectid>
                                <effecttype>motion</effecttype>
                                <mediatype>video</mediatype>
                                <effectcategory>motion</effectcategory>
                                <parameter>
                                    <name>opacity</name>
                                    <parameterid>opacity</parameterid>
                                    <value>100</value>
                                    <valuemin>0</valuemin>
                                    <valuemax>100</valuemax>
                                </parameter>
                            </effect>
                        </filter>
                    </clipitem>
                    <clipitem id="246_0922_03_5_5CD03D997D4945DE896B.mov 0">
                        <name>246_0922_03_5_5CD03D997D4945DE896B.mov</name>
                        <duration>156</duration>
                        <rate>
                            <timebase>25</timebase>
                            <ntsc>false</ntsc>
                        </rate>
                        <start>49439</start>
                        <end>49596</end>
                        <enabled>true</enabled>
                        <in>0</in>
                        <out>157</out>
                        <file id="246_0922_03_5_5CD03D997D4945DE896B.mov 2">
                            <duration>157</duration>
                            <rate>
                                <timebase>25</timebase>
                                <ntsc>false</ntsc>
                            </rate>
                            <name>246_0922_03_5_5CD03D997D4945DE896B.mov</name>
                            <pathurl>file:///Capture1/EDIUS/EDIUS7_Color/colored/pasyans_v3/246_0922_03_5_5CD03D997D4945DE896B_V1-0135.mov</pathurl>
                            <timecode>
                                <string>00:32:57:14</string>
                                <displayformat>NDF</displayformat>
                                <rate>
                                    <timebase>25</timebase>
                                    <ntsc>false</ntsc>
                                </rate>
                            </timecode>
                            <media>
                                <video>
                                    <duration>157</duration>
                                    <samplecharacteristics>
                                        <width>1920</width>
                                        <height>1080</height>
                                    </samplecharacteristics>
                                </video>
                            </media>
                        </file>
                        <compositemode>normal</compositemode>
                        <filter>
                            <enabled>true</enabled>
                            <start>0</start>
                            <end>156</end>
                            <effect>
                                <name>Opacity</name>
                                <effectid>opacity</effectid>
                                <effecttype>motion</effecttype>
                                <mediatype>video</mediatype>
                                <effectcategory>motion</effectcategory>
                                <parameter>
                                    <name>opacity</name>
                                    <parameterid>opacity</parameterid>
                                    <value>100</value>
                                    <valuemin>0</valuemin>
                                    <valuemax>100</valuemax>
                                </parameter>
                            </effect>
                        </filter>
                    </clipitem>
                    <clipitem id="972_0437_03_7_3DB12FA6714F4B03A45E.mov 0">
                        <name>972_0437_03_7_3DB12FA6714F4B03A45E.mov</name>
                        <duration>237</duration>
                        <rate>
                            <timebase>25</timebase>
                            <ntsc>false</ntsc>
                        </rate>
                        <start>49596</start>
                        <end>49833</end>
                        <enabled>true</enabled>
                        <in>0</in>
                        <out>237</out>
                        <file id="972_0437_03_7_3DB12FA6714F4B03A45E.mov 2">
                            <duration>237</duration>
                            <rate>
                                <timebase>25</timebase>
                                <ntsc>false</ntsc>
                            </rate>
                            <name>972_0437_03_7_3DB12FA6714F4B03A45E.mov</name>
                            <pathurl>file:///Capture1/EDIUS/EDIUS7_Color/colored/pasyans_v3/972_0437_03_7_3DB12FA6714F4B03A45E_V1-0136.mov</pathurl>
                            <timecode>
                                <string>00:33:03:21</string>
                                <displayformat>NDF</displayformat>
                                <rate>
                                    <timebase>25</timebase>
                                    <ntsc>false</ntsc>
                                </rate>
                            </timecode>
                            <media>
                                <video>
                                    <duration>237</duration>
                                    <samplecharacteristics>
                                        <width>1920</width>
                                        <height>1080</height>
                                    </samplecharacteristics>
                                </video>
                            </media>
                        </file>
                        <compositemode>normal</compositemode>
                        <filter>
                            <enabled>true</enabled>
                            <start>0</start>
                            <end>237</end>
                            <effect>
                                <name>Opacity</name>
                                <effectid>opacity</effectid>
                                <effecttype>motion</effecttype>
                                <mediatype>video</mediatype>
                                <effectcategory>motion</effectcategory>
                                <parameter>
                                    <name>opacity</name>
                                    <parameterid>opacity</parameterid>
                                    <value>100</value>
                                    <valuemin>0</valuemin>
                                    <valuemax>100</valuemax>
                                </parameter>
                            </effect>
                        </filter>
                    </clipitem>
                    <clipitem id="общий план 6_2_92C476C400AF478ABE58.mov 0">
                        <name>общий план 6_2_92C476C400AF478ABE58.mov</name>
                        <duration>156</duration>
                        <rate>
                            <timebase>25</timebase>
                            <ntsc>false</ntsc>
                        </rate>
                        <start>49833</start>
                        <end>49989</end>
                        <enabled>true</enabled>
                        <in>0</in>
                        <out>156</out>
                        <file id="общий план 6_2_92C476C400AF478ABE58.mov 2">
                            <duration>156</duration>
                            <rate>
                                <timebase>25</timebase>
                                <ntsc>false</ntsc>
                            </rate>
                            <name>общий план 6_2_92C476C400AF478ABE58.mov</name>
                            <pathurl>file:///Capture1/EDIUS/EDIUS7_Color/colored/pasyans_v3/%D0%BE%D0%B1%D1%89%D0%B8%D0%B9%20%D0%BF%D0%BB%D0%B0%D0%BD%206_2_92C476C400AF478ABE58_V1-0137.mov</pathurl>
                            <timecode>
                                <string>00:33:13:08</string>
                                <displayformat>NDF</displayformat>
                                <rate>
                                    <timebase>25</timebase>
                                    <ntsc>false</ntsc>
                                </rate>
                            </timecode>
                            <media>
                                <video>
                                    <duration>156</duration>
                                    <samplecharacteristics>
                                        <width>1920</width>
                                        <height>1080</height>
                                    </samplecharacteristics>
                                </video>
                            </media>
                        </file>
                        <compositemode>normal</compositemode>
                        <filter>
                            <enabled>true</enabled>
                            <start>0</start>
                            <end>156</end>
                            <effect>
                                <name>Opacity</name>
                                <effectid>opacity</effectid>
                                <effecttype>motion</effecttype>
                                <mediatype>video</mediatype>
                                <effectcategory>motion</effectcategory>
                                <parameter>
                                    <name>opacity</name>
                                    <parameterid>opacity</parameterid>
                                    <value>100</value>
                                    <valuemin>0</valuemin>
                                    <valuemax>100</valuemax>
                                </parameter>
                            </effect>
                        </filter>
                    </clipitem>
                    <clipitem id="КАССЕТНАЯ КАМЕРА 1_33_05C2800C12FF4A389C54.mov 0">
                        <name>КАССЕТНАЯ КАМЕРА 1_33_05C2800C12FF4A389C54.mov</name>
                        <duration>70</duration>
                        <rate>
                            <timebase>25</timebase>
                            <ntsc>false</ntsc>
                        </rate>
                        <start>50083</start>
                        <end>50154</end>
                        <enabled>true</enabled>
                        <in>0</in>
                        <out>71</out>
                        <file id="КАССЕТНАЯ КАМЕРА 1_33_05C2800C12FF4A389C54.mov 2">
                            <duration>71</duration>
                            <rate>
                                <timebase>25</timebase>
                                <ntsc>false</ntsc>
                            </rate>
                            <name>КАССЕТНАЯ КАМЕРА 1_33_05C2800C12FF4A389C54.mov</name>
                            <pathurl>file:///Capture1/EDIUS/EDIUS7_Color/colored/pasyans_v3/%D0%9A%D0%90%D0%A1%D0%A1%D0%95%D0%A2%D0%9D%D0%90%D0%AF%20%D0%9A%D0%90%D0%9C%D0%95%D0%A0%D0%90%201_33_05C2800C12FF4A389C54_V1-0138.mov</pathurl>
                            <timecode>
                                <string>00:33:23:08</string>
                                <displayformat>NDF</displayformat>
                                <rate>
                                    <timebase>25</timebase>
                                    <ntsc>false</ntsc>
                                </rate>
                            </timecode>
                            <media>
                                <video>
                                    <duration>71</duration>
                                    <samplecharacteristics>
                                        <width>1920</width>
                                        <height>1080</height>
                                    </samplecharacteristics>
                                </video>
                            </media>
                        </file>
                        <compositemode>normal</compositemode>
                        <filter>
                            <enabled>true</enabled>
                            <start>0</start>
                            <end>70</end>
                            <effect>
                                <name>Opacity</name>
                                <effectid>opacity</effectid>
                                <effecttype>motion</effecttype>
                                <mediatype>video</mediatype>
                                <effectcategory>motion</effectcategory>
                                <parameter>
                                    <name>opacity</name>
                                    <parameterid>opacity</parameterid>
                                    <value>100</value>
                                    <valuemin>0</valuemin>
                                    <valuemax>100</valuemax>
                                </parameter>
                            </effect>
                        </filter>
                    </clipitem>
                    <clipitem id="общий план 6_3_DE359CF4832B4E4C8020.mov 0">
                        <name>общий план 6_3_DE359CF4832B4E4C8020.mov</name>
                        <duration>88</duration>
                        <rate>
                            <timebase>25</timebase>
                            <ntsc>false</ntsc>
                        </rate>
                        <start>50154</start>
                        <end>50243</end>
                        <enabled>true</enabled>
                        <in>0</in>
                        <out>89</out>
                        <file id="общий план 6_3_DE359CF4832B4E4C8020.mov 2">
                            <duration>89</duration>
                            <rate>
                                <timebase>25</timebase>
                                <ntsc>false</ntsc>
                            </rate>
                            <name>общий план 6_3_DE359CF4832B4E4C8020.mov</name>
                            <pathurl>file:///Capture1/EDIUS/EDIUS7_Color/colored/pasyans_v3/%D0%BE%D0%B1%D1%89%D0%B8%D0%B9%20%D0%BF%D0%BB%D0%B0%D0%BD%206_3_DE359CF4832B4E4C8020_V1-0139.mov</pathurl>
                            <timecode>
                                <string>00:33:26:04</string>
                                <displayformat>NDF</displayformat>
                                <rate>
                                    <timebase>25</timebase>
                                    <ntsc>false</ntsc>
                                </rate>
                            </timecode>
                            <media>
                                <video>
                                    <duration>89</duration>
                                    <samplecharacteristics>
                                        <width>1920</width>
                                        <height>1080</height>
                                    </samplecharacteristics>
                                </video>
                            </media>
                        </file>
                        <compositemode>normal</compositemode>
                        <filter>
                            <enabled>true</enabled>
                            <start>0</start>
                            <end>88</end>
                            <effect>
                                <name>Opacity</name>
                                <effectid>opacity</effectid>
                                <effecttype>motion</effecttype>
                                <mediatype>video</mediatype>
                                <effectcategory>motion</effectcategory>
                                <parameter>
                                    <name>opacity</name>
                                    <parameterid>opacity</parameterid>
                                    <value>100</value>
                                    <valuemin>0</valuemin>
                                    <valuemax>100</valuemax>
                                </parameter>
                            </effect>
                        </filter>
                    </clipitem>
                    <clipitem id="972_0437_03_8_1BA4BC60872141D4BE9C.mov 0">
                        <name>972_0437_03_8_1BA4BC60872141D4BE9C.mov</name>
                        <duration>74</duration>
                        <rate>
                            <timebase>25</timebase>
                            <ntsc>false</ntsc>
                        </rate>
                        <start>50243</start>
                        <end>50317</end>
                        <enabled>true</enabled>
                        <in>0</in>
                        <out>74</out>
                        <file id="972_0437_03_8_1BA4BC60872141D4BE9C.mov 2">
                            <duration>74</duration>
                            <rate>
                                <timebase>25</timebase>
                                <ntsc>false</ntsc>
                            </rate>
                            <name>972_0437_03_8_1BA4BC60872141D4BE9C.mov</name>
                            <pathurl>file:///Capture1/EDIUS/EDIUS7_Color/colored/pasyans_v3/972_0437_03_8_1BA4BC60872141D4BE9C_V1-0140.mov</pathurl>
                            <timecode>
                                <string>00:33:29:18</string>
                                <displayformat>NDF</displayformat>
                                <rate>
                                    <timebase>25</timebase>
                                    <ntsc>false</ntsc>
                                </rate>
                            </timecode>
                            <media>
                                <video>
                                    <duration>74</duration>
                                    <samplecharacteristics>
                                        <width>1920</width>
                                        <height>1080</height>
                                    </samplecharacteristics>
                                </video>
                            </media>
                        </file>
                        <compositemode>normal</compositemode>
                        <filter>
                            <enabled>true</enabled>
                            <start>0</start>
                            <end>74</end>
                            <effect>
                                <name>Opacity</name>
                                <effectid>opacity</effectid>
                                <effecttype>motion</effecttype>
                                <mediatype>video</mediatype>
                                <effectcategory>motion</effectcategory>
                                <parameter>
                                    <name>opacity</name>
                                    <parameterid>opacity</parameterid>
                                    <value>100</value>
                                    <valuemin>0</valuemin>
                                    <valuemax>100</valuemax>
                                </parameter>
                            </effect>
                        </filter>
                    </clipitem>
                    <clipitem id="КАССЕТНАЯ КАМЕРА 1_34_1404322343C245229B40.mov 0">
                        <name>КАССЕТНАЯ КАМЕРА 1_34_1404322343C245229B40.mov</name>
                        <duration>77</duration>
                        <rate>
                            <timebase>25</timebase>
                            <ntsc>false</ntsc>
                        </rate>
                        <start>50317</start>
                        <end>50395</end>
                        <enabled>true</enabled>
                        <in>0</in>
                        <out>78</out>
                        <file id="КАССЕТНАЯ КАМЕРА 1_34_1404322343C245229B40.mov 2">
                            <duration>78</duration>
                            <rate>
                                <timebase>25</timebase>
                                <ntsc>false</ntsc>
                            </rate>
                            <name>КАССЕТНАЯ КАМЕРА 1_34_1404322343C245229B40.mov</name>
                            <pathurl>file:///Capture1/EDIUS/EDIUS7_Color/colored/pasyans_v3/%D0%9A%D0%90%D0%A1%D0%A1%D0%95%D0%A2%D0%9D%D0%90%D0%AF%20%D0%9A%D0%90%D0%9C%D0%95%D0%A0%D0%90%201_34_1404322343C245229B40_V1-0141.mov</pathurl>
                            <timecode>
                                <string>00:33:32:17</string>
                                <displayformat>NDF</displayformat>
                                <rate>
                                    <timebase>25</timebase>
                                    <ntsc>false</ntsc>
                                </rate>
                            </timecode>
                            <media>
                                <video>
                                    <duration>78</duration>
                                    <samplecharacteristics>
                                        <width>1920</width>
                                        <height>1080</height>
                                    </samplecharacteristics>
                                </video>
                            </media>
                        </file>
                        <compositemode>normal</compositemode>
                        <filter>
                            <enabled>true</enabled>
                            <start>0</start>
                            <end>77</end>
                            <effect>
                                <name>Opacity</name>
                                <effectid>opacity</effectid>
                                <effecttype>motion</effecttype>
                                <mediatype>video</mediatype>
                                <effectcategory>motion</effectcategory>
                                <parameter>
                                    <name>opacity</name>
                                    <parameterid>opacity</parameterid>
                                    <value>100</value>
                                    <valuemin>0</valuemin>
                                    <valuemax>100</valuemax>
                                </parameter>
                            </effect>
                        </filter>
                    </clipitem>
                    <clipitem id="общий план 6_4_2C3664C4D2014B84943E.mov 0">
                        <name>общий план 6_4_2C3664C4D2014B84943E.mov</name>
                        <duration>166</duration>
                        <rate>
                            <timebase>25</timebase>
                            <ntsc>false</ntsc>
                        </rate>
                        <start>50395</start>
                        <end>50561</end>
                        <enabled>true</enabled>
                        <in>0</in>
                        <out>166</out>
                        <file id="общий план 6_4_2C3664C4D2014B84943E.mov 2">
                            <duration>166</duration>
                            <rate>
                                <timebase>25</timebase>
                                <ntsc>false</ntsc>
                            </rate>
                            <name>общий план 6_4_2C3664C4D2014B84943E.mov</name>
                            <pathurl>file:///Capture1/EDIUS/EDIUS7_Color/colored/pasyans_v3/%D0%BE%D0%B1%D1%89%D0%B8%D0%B9%20%D0%BF%D0%BB%D0%B0%D0%BD%206_4_2C3664C4D2014B84943E_V1-0142.mov</pathurl>
                            <timecode>
                                <string>00:33:35:20</string>
                                <displayformat>NDF</displayformat>
                                <rate>
                                    <timebase>25</timebase>
                                    <ntsc>false</ntsc>
                                </rate>
                            </timecode>
                            <media>
                                <video>
                                    <duration>166</duration>
                                    <samplecharacteristics>
                                        <width>1920</width>
                                        <height>1080</height>
                                    </samplecharacteristics>
                                </video>
                            </media>
                        </file>
                        <compositemode>normal</compositemode>
                        <filter>
                            <enabled>true</enabled>
                            <start>0</start>
                            <end>166</end>
                            <effect>
                                <name>Opacity</name>
                                <effectid>opacity</effectid>
                                <effecttype>motion</effecttype>
                                <mediatype>video</mediatype>
                                <effectcategory>motion</effectcategory>
                                <parameter>
                                    <name>opacity</name>
                                    <parameterid>opacity</parameterid>
                                    <value>100</value>
                                    <valuemin>0</valuemin>
                                    <valuemax>100</valuemax>
                                </parameter>
                            </effect>
                        </filter>
                    </clipitem>
                    <clipitem id="КАССЕТНАЯ КАМЕРА 1_35_0FAC68380032426F9A85.mov 0">
                        <name>КАССЕТНАЯ КАМЕРА 1_35_0FAC68380032426F9A85.mov</name>
                        <duration>206</duration>
                        <rate>
                            <timebase>25</timebase>
                            <ntsc>false</ntsc>
                        </rate>
                        <start>50561</start>
                        <end>50767</end>
                        <enabled>true</enabled>
                        <in>0</in>
                        <out>206</out>
                        <file id="КАССЕТНАЯ КАМЕРА 1_35_0FAC68380032426F9A85.mov 2">
                            <duration>206</duration>
                            <rate>
                                <timebase>25</timebase>
                                <ntsc>false</ntsc>
                            </rate>
                            <name>КАССЕТНАЯ КАМЕРА 1_35_0FAC68380032426F9A85.mov</name>
                            <pathurl>file:///Capture1/EDIUS/EDIUS7_Color/colored/pasyans_v3/%D0%9A%D0%90%D0%A1%D0%A1%D0%95%D0%A2%D0%9D%D0%90%D0%AF%20%D0%9A%D0%90%D0%9C%D0%95%D0%A0%D0%90%201_35_0FAC68380032426F9A85_V1-0143.mov</pathurl>
                            <timecode>
                                <string>00:33:42:11</string>
                                <displayformat>NDF</displayformat>
                                <rate>
                                    <timebase>25</timebase>
                                    <ntsc>false</ntsc>
                                </rate>
                            </timecode>
                            <media>
                                <video>
                                    <duration>206</duration>
                                    <samplecharacteristics>
                                        <width>1920</width>
                                        <height>1080</height>
                                    </samplecharacteristics>
                                </video>
                            </media>
                        </file>
                        <compositemode>normal</compositemode>
                        <filter>
                            <enabled>true</enabled>
                            <start>0</start>
                            <end>206</end>
                            <effect>
                                <name>Opacity</name>
                                <effectid>opacity</effectid>
                                <effecttype>motion</effecttype>
                                <mediatype>video</mediatype>
                                <effectcategory>motion</effectcategory>
                                <parameter>
                                    <name>opacity</name>
                                    <parameterid>opacity</parameterid>
                                    <value>100</value>
                                    <valuemin>0</valuemin>
                                    <valuemax>100</valuemax>
                                </parameter>
                            </effect>
                        </filter>
                    </clipitem>
                    <clipitem id="972_0437_03_9_698CDF3A713D4E46AE15.mov 0">
                        <name>972_0437_03_9_698CDF3A713D4E46AE15.mov</name>
                        <duration>111</duration>
                        <rate>
                            <timebase>25</timebase>
                            <ntsc>false</ntsc>
                        </rate>
                        <start>50767</start>
                        <end>50878</end>
                        <enabled>true</enabled>
                        <in>0</in>
                        <out>111</out>
                        <file id="972_0437_03_9_698CDF3A713D4E46AE15.mov 2">
                            <duration>111</duration>
                            <rate>
                                <timebase>25</timebase>
                                <ntsc>false</ntsc>
                            </rate>
                            <name>972_0437_03_9_698CDF3A713D4E46AE15.mov</name>
                            <pathurl>file:///Capture1/EDIUS/EDIUS7_Color/colored/pasyans_v3/972_0437_03_9_698CDF3A713D4E46AE15_V1-0144.mov</pathurl>
                            <timecode>
                                <string>00:33:50:17</string>
                                <displayformat>NDF</displayformat>
                                <rate>
                                    <timebase>25</timebase>
                                    <ntsc>false</ntsc>
                                </rate>
                            </timecode>
                            <media>
                                <video>
                                    <duration>111</duration>
                                    <samplecharacteristics>
                                        <width>1920</width>
                                        <height>1080</height>
                                    </samplecharacteristics>
                                </video>
                            </media>
                        </file>
                        <compositemode>normal</compositemode>
                        <filter>
                            <enabled>true</enabled>
                            <start>0</start>
                            <end>111</end>
                            <effect>
                                <name>Opacity</name>
                                <effectid>opacity</effectid>
                                <effecttype>motion</effecttype>
                                <mediatype>video</mediatype>
                                <effectcategory>motion</effectcategory>
                                <parameter>
                                    <name>opacity</name>
                                    <parameterid>opacity</parameterid>
                                    <value>100</value>
                                    <valuemin>0</valuemin>
                                    <valuemax>100</valuemax>
                                </parameter>
                            </effect>
                        </filter>
                    </clipitem>
                    <clipitem id="общий план 6_5_DC35BC199F074BB49335.mov 0">
                        <name>общий план 6_5_DC35BC199F074BB49335.mov</name>
                        <duration>150</duration>
                        <rate>
                            <timebase>25</timebase>
                            <ntsc>false</ntsc>
                        </rate>
                        <start>50878</start>
                        <end>51028</end>
                        <enabled>true</enabled>
                        <in>0</in>
                        <out>150</out>
                        <file id="общий план 6_5_DC35BC199F074BB49335.mov 2">
                            <duration>150</duration>
                            <rate>
                                <timebase>25</timebase>
                                <ntsc>false</ntsc>
                            </rate>
                            <name>общий план 6_5_DC35BC199F074BB49335.mov</name>
                            <pathurl>file:///Capture1/EDIUS/EDIUS7_Color/colored/pasyans_v3/%D0%BE%D0%B1%D1%89%D0%B8%D0%B9%20%D0%BF%D0%BB%D0%B0%D0%BD%206_5_DC35BC199F074BB49335_V1-0145.mov</pathurl>
                            <timecode>
                                <string>00:33:55:03</string>
                                <displayformat>NDF</displayformat>
                                <rate>
                                    <timebase>25</timebase>
                                    <ntsc>false</ntsc>
                                </rate>
                            </timecode>
                            <media>
                                <video>
                                    <duration>150</duration>
                                    <samplecharacteristics>
                                        <width>1920</width>
                                        <height>1080</height>
                                    </samplecharacteristics>
                                </video>
                            </media>
                        </file>
                        <compositemode>normal</compositemode>
                        <filter>
                            <enabled>true</enabled>
                            <start>0</start>
                            <end>150</end>
                            <effect>
                                <name>Opacity</name>
                                <effectid>opacity</effectid>
                                <effecttype>motion</effecttype>
                                <mediatype>video</mediatype>
                                <effectcategory>motion</effectcategory>
                                <parameter>
                                    <name>opacity</name>
                                    <parameterid>opacity</parameterid>
                                    <value>100</value>
                                    <valuemin>0</valuemin>
                                    <valuemax>100</valuemax>
                                </parameter>
                            </effect>
                        </filter>
                    </clipitem>
                    <clipitem id="общий план 6_6_F38DCB18AD1D488AAD00.mov 0">
                        <name>общий план 6_6_F38DCB18AD1D488AAD00.mov</name>
                        <duration>174</duration>
                        <rate>
                            <timebase>25</timebase>
                            <ntsc>false</ntsc>
                        </rate>
                        <start>55665</start>
                        <end>55839</end>
                        <enabled>true</enabled>
                        <in>0</in>
                        <out>174</out>
                        <file id="общий план 6_6_F38DCB18AD1D488AAD00.mov 2">
                            <duration>174</duration>
                            <rate>
                                <timebase>25</timebase>
                                <ntsc>false</ntsc>
                            </rate>
                            <name>общий план 6_6_F38DCB18AD1D488AAD00.mov</name>
                            <pathurl>file:///Capture1/EDIUS/EDIUS7_Color/colored/pasyans_v3/%D0%BE%D0%B1%D1%89%D0%B8%D0%B9%20%D0%BF%D0%BB%D0%B0%D0%BD%206_6_F38DCB18AD1D488AAD00_V1-0146.mov</pathurl>
                            <timecode>
                                <string>00:37:06:15</string>
                                <displayformat>NDF</displayformat>
                                <rate>
                                    <timebase>25</timebase>
                                    <ntsc>false</ntsc>
                                </rate>
                            </timecode>
                            <media>
                                <video>
                                    <duration>174</duration>
                                    <samplecharacteristics>
                                        <width>1920</width>
                                        <height>1080</height>
                                    </samplecharacteristics>
                                </video>
                            </media>
                        </file>
                        <compositemode>normal</compositemode>
                        <filter>
                            <enabled>true</enabled>
                            <start>0</start>
                            <end>174</end>
                            <effect>
                                <name>Opacity</name>
                                <effectid>opacity</effectid>
                                <effecttype>motion</effecttype>
                                <mediatype>video</mediatype>
                                <effectcategory>motion</effectcategory>
                                <parameter>
                                    <name>opacity</name>
                                    <parameterid>opacity</parameterid>
                                    <value>100</value>
                                    <valuemin>0</valuemin>
                                    <valuemax>100</valuemax>
                                </parameter>
                            </effect>
                        </filter>
                    </clipitem>
                    <clipitem id="КАССЕТНАЯ КАМЕРА 1_36_7148A4C8DB9945C3A8E2.mov 0">
                        <name>КАССЕТНАЯ КАМЕРА 1_36_7148A4C8DB9945C3A8E2.mov</name>
                        <duration>294</duration>
                        <rate>
                            <timebase>25</timebase>
                            <ntsc>false</ntsc>
                        </rate>
                        <start>55839</start>
                        <end>56133</end>
                        <enabled>true</enabled>
                        <in>0</in>
                        <out>294</out>
                        <file id="КАССЕТНАЯ КАМЕРА 1_36_7148A4C8DB9945C3A8E2.mov 2">
                            <duration>294</duration>
                            <rate>
                                <timebase>25</timebase>
                                <ntsc>false</ntsc>
                            </rate>
                            <name>КАССЕТНАЯ КАМЕРА 1_36_7148A4C8DB9945C3A8E2.mov</name>
                            <pathurl>file:///Capture1/EDIUS/EDIUS7_Color/colored/pasyans_v3/%D0%9A%D0%90%D0%A1%D0%A1%D0%95%D0%A2%D0%9D%D0%90%D0%AF%20%D0%9A%D0%90%D0%9C%D0%95%D0%A0%D0%90%201_36_7148A4C8DB9945C3A8E2_V1-0147.mov</pathurl>
                            <timecode>
                                <string>00:37:13:14</string>
                                <displayformat>NDF</displayformat>
                                <rate>
                                    <timebase>25</timebase>
                                    <ntsc>false</ntsc>
                                </rate>
                            </timecode>
                            <media>
                                <video>
                                    <duration>294</duration>
                                    <samplecharacteristics>
                                        <width>1920</width>
                                        <height>1080</height>
                                    </samplecharacteristics>
                                </video>
                            </media>
                        </file>
                        <compositemode>normal</compositemode>
                        <filter>
                            <enabled>true</enabled>
                            <start>0</start>
                            <end>294</end>
                            <effect>
                                <name>Opacity</name>
                                <effectid>opacity</effectid>
                                <effecttype>motion</effecttype>
                                <mediatype>video</mediatype>
                                <effectcategory>motion</effectcategory>
                                <parameter>
                                    <name>opacity</name>
                                    <parameterid>opacity</parameterid>
                                    <value>100</value>
                                    <valuemin>0</valuemin>
                                    <valuemax>100</valuemax>
                                </parameter>
                            </effect>
                        </filter>
                    </clipitem>
                    <clipitem id="972_0437_03_10_A555BE1CD4C042E99AAD.mov 0">
                        <name>972_0437_03_10_A555BE1CD4C042E99AAD.mov</name>
                        <duration>87</duration>
                        <rate>
                            <timebase>25</timebase>
                            <ntsc>false</ntsc>
                        </rate>
                        <start>56133</start>
                        <end>56221</end>
                        <enabled>true</enabled>
                        <in>0</in>
                        <out>88</out>
                        <file id="972_0437_03_10_A555BE1CD4C042E99AAD.mov 2">
                            <duration>88</duration>
                            <rate>
                                <timebase>25</timebase>
                                <ntsc>false</ntsc>
                            </rate>
                            <name>972_0437_03_10_A555BE1CD4C042E99AAD.mov</name>
                            <pathurl>file:///Capture1/EDIUS/EDIUS7_Color/colored/pasyans_v3/972_0437_03_10_A555BE1CD4C042E99AAD_V1-0148.mov</pathurl>
                            <timecode>
                                <string>00:37:25:08</string>
                                <displayformat>NDF</displayformat>
                                <rate>
                                    <timebase>25</timebase>
                                    <ntsc>false</ntsc>
                                </rate>
                            </timecode>
                            <media>
                                <video>
                                    <duration>88</duration>
                                    <samplecharacteristics>
                                        <width>1920</width>
                                        <height>1080</height>
                                    </samplecharacteristics>
                                </video>
                            </media>
                        </file>
                        <compositemode>normal</compositemode>
                        <filter>
                            <enabled>true</enabled>
                            <start>0</start>
                            <end>87</end>
                            <effect>
                                <name>Opacity</name>
                                <effectid>opacity</effectid>
                                <effecttype>motion</effecttype>
                                <mediatype>video</mediatype>
                                <effectcategory>motion</effectcategory>
                                <parameter>
                                    <name>opacity</name>
                                    <parameterid>opacity</parameterid>
                                    <value>100</value>
                                    <valuemin>0</valuemin>
                                    <valuemax>100</valuemax>
                                </parameter>
                            </effect>
                        </filter>
                    </clipitem>
                    <clipitem id="246_0922_03_6_CA8CC888F1DF48B9AD1E.mov 0">
                        <name>246_0922_03_6_CA8CC888F1DF48B9AD1E.mov</name>
                        <duration>145</duration>
                        <rate>
                            <timebase>25</timebase>
                            <ntsc>false</ntsc>
                        </rate>
                        <start>56221</start>
                        <end>56366</end>
                        <enabled>true</enabled>
                        <in>0</in>
                        <out>145</out>
                        <file id="246_0922_03_6_CA8CC888F1DF48B9AD1E.mov 2">
                            <duration>145</duration>
                            <rate>
                                <timebase>25</timebase>
                                <ntsc>false</ntsc>
                            </rate>
                            <name>246_0922_03_6_CA8CC888F1DF48B9AD1E.mov</name>
                            <pathurl>file:///Capture1/EDIUS/EDIUS7_Color/colored/pasyans_v3/246_0922_03_6_CA8CC888F1DF48B9AD1E_V1-0149.mov</pathurl>
                            <timecode>
                                <string>00:37:28:21</string>
                                <displayformat>NDF</displayformat>
                                <rate>
                                    <timebase>25</timebase>
                                    <ntsc>false</ntsc>
                                </rate>
                            </timecode>
                            <media>
                                <video>
                                    <duration>145</duration>
                                    <samplecharacteristics>
                                        <width>1920</width>
                                        <height>1080</height>
                                    </samplecharacteristics>
                                </video>
                            </media>
                        </file>
                        <compositemode>normal</compositemode>
                        <filter>
                            <enabled>true</enabled>
                            <start>0</start>
                            <end>145</end>
                            <effect>
                                <name>Opacity</name>
                                <effectid>opacity</effectid>
                                <effecttype>motion</effecttype>
                                <mediatype>video</mediatype>
                                <effectcategory>motion</effectcategory>
                                <parameter>
                                    <name>opacity</name>
                                    <parameterid>opacity</parameterid>
                                    <value>100</value>
                                    <valuemin>0</valuemin>
                                    <valuemax>100</valuemax>
                                </parameter>
                            </effect>
                        </filter>
                    </clipitem>
                    <clipitem id="общий план 6_7_4DFD22BB4F9D4E9E992A.mov 0">
                        <name>общий план 6_7_4DFD22BB4F9D4E9E992A.mov</name>
                        <duration>246</duration>
                        <rate>
                            <timebase>25</timebase>
                            <ntsc>false</ntsc>
                        </rate>
                        <start>56366</start>
                        <end>56612</end>
                        <enabled>true</enabled>
                        <in>0</in>
                        <out>246</out>
                        <file id="общий план 6_7_4DFD22BB4F9D4E9E992A.mov 2">
                            <duration>246</duration>
                            <rate>
                                <timebase>25</timebase>
                                <ntsc>false</ntsc>
                            </rate>
                            <name>общий план 6_7_4DFD22BB4F9D4E9E992A.mov</name>
                            <pathurl>file:///Capture1/EDIUS/EDIUS7_Color/colored/pasyans_v3/%D0%BE%D0%B1%D1%89%D0%B8%D0%B9%20%D0%BF%D0%BB%D0%B0%D0%BD%206_7_4DFD22BB4F9D4E9E992A_V1-0150.mov</pathurl>
                            <timecode>
                                <string>00:37:34:16</string>
                                <displayformat>NDF</displayformat>
                                <rate>
                                    <timebase>25</timebase>
                                    <ntsc>false</ntsc>
                                </rate>
                            </timecode>
                            <media>
                                <video>
                                    <duration>246</duration>
                                    <samplecharacteristics>
                                        <width>1920</width>
                                        <height>1080</height>
                                    </samplecharacteristics>
                                </video>
                            </media>
                        </file>
                        <compositemode>normal</compositemode>
                        <filter>
                            <enabled>true</enabled>
                            <start>0</start>
                            <end>246</end>
                            <effect>
                                <name>Opacity</name>
                                <effectid>opacity</effectid>
                                <effecttype>motion</effecttype>
                                <mediatype>video</mediatype>
                                <effectcategory>motion</effectcategory>
                                <parameter>
                                    <name>opacity</name>
                                    <parameterid>opacity</parameterid>
                                    <value>100</value>
                                    <valuemin>0</valuemin>
                                    <valuemax>100</valuemax>
                                </parameter>
                            </effect>
                        </filter>
                    </clipitem>
                    <clipitem id="972_0437_03_11_49652C19246146288A5F.mov 0">
                        <name>972_0437_03_11_49652C19246146288A5F.mov</name>
                        <duration>144</duration>
                        <rate>
                            <timebase>25</timebase>
                            <ntsc>false</ntsc>
                        </rate>
                        <start>56612</start>
                        <end>56756</end>
                        <enabled>true</enabled>
                        <in>0</in>
                        <out>144</out>
                        <file id="972_0437_03_11_49652C19246146288A5F.mov 2">
                            <duration>144</duration>
                            <rate>
                                <timebase>25</timebase>
                                <ntsc>false</ntsc>
                            </rate>
                            <name>972_0437_03_11_49652C19246146288A5F.mov</name>
                            <pathurl>file:///Capture1/EDIUS/EDIUS7_Color/colored/pasyans_v3/972_0437_03_11_49652C19246146288A5F_V1-0151.mov</pathurl>
                            <timecode>
                                <string>00:37:44:12</string>
                                <displayformat>NDF</displayformat>
                                <rate>
                                    <timebase>25</timebase>
                                    <ntsc>false</ntsc>
                                </rate>
                            </timecode>
                            <media>
                                <video>
                                    <duration>144</duration>
                                    <samplecharacteristics>
                                        <width>1920</width>
                                        <height>1080</height>
                                    </samplecharacteristics>
                                </video>
                            </media>
                        </file>
                        <compositemode>normal</compositemode>
                        <filter>
                            <enabled>true</enabled>
                            <start>0</start>
                            <end>144</end>
                            <effect>
                                <name>Opacity</name>
                                <effectid>opacity</effectid>
                                <effecttype>motion</effecttype>
                                <mediatype>video</mediatype>
                                <effectcategory>motion</effectcategory>
                                <parameter>
                                    <name>opacity</name>
                                    <parameterid>opacity</parameterid>
                                    <value>100</value>
                                    <valuemin>0</valuemin>
                                    <valuemax>100</valuemax>
                                </parameter>
                            </effect>
                        </filter>
                    </clipitem>
                    <clipitem id="общий план 6_8_5AE1230447324DF688EB.mov 0">
                        <name>общий план 6_8_5AE1230447324DF688EB.mov</name>
                        <duration>187</duration>
                        <rate>
                            <timebase>25</timebase>
                            <ntsc>false</ntsc>
                        </rate>
                        <start>56756</start>
                        <end>56944</end>
                        <enabled>true</enabled>
                        <in>0</in>
                        <out>188</out>
                        <file id="общий план 6_8_5AE1230447324DF688EB.mov 2">
                            <duration>188</duration>
                            <rate>
                                <timebase>25</timebase>
                                <ntsc>false</ntsc>
                            </rate>
                            <name>общий план 6_8_5AE1230447324DF688EB.mov</name>
                            <pathurl>file:///Capture1/EDIUS/EDIUS7_Color/colored/pasyans_v3/%D0%BE%D0%B1%D1%89%D0%B8%D0%B9%20%D0%BF%D0%BB%D0%B0%D0%BD%206_8_5AE1230447324DF688EB_V1-0152.mov</pathurl>
                            <timecode>
                                <string>00:37:50:06</string>
                                <displayformat>NDF</displayformat>
                                <rate>
                                    <timebase>25</timebase>
                                    <ntsc>false</ntsc>
                                </rate>
                            </timecode>
                            <media>
                                <video>
                                    <duration>188</duration>
                                    <samplecharacteristics>
                                        <width>1920</width>
                                        <height>1080</height>
                                    </samplecharacteristics>
                                </video>
                            </media>
                        </file>
                        <compositemode>normal</compositemode>
                        <filter>
                            <enabled>true</enabled>
                            <start>0</start>
                            <end>187</end>
                            <effect>
                                <name>Opacity</name>
                                <effectid>opacity</effectid>
                                <effecttype>motion</effecttype>
                                <mediatype>video</mediatype>
                                <effectcategory>motion</effectcategory>
                                <parameter>
                                    <name>opacity</name>
                                    <parameterid>opacity</parameterid>
                                    <value>100</value>
                                    <valuemin>0</valuemin>
                                    <valuemax>100</valuemax>
                                </parameter>
                            </effect>
                        </filter>
                    </clipitem>
                    <clipitem id="972_0437_03_12_15906933553141AEB5F7.mov 0">
                        <name>972_0437_03_12_15906933553141AEB5F7.mov</name>
                        <duration>150</duration>
                        <rate>
                            <timebase>25</timebase>
                            <ntsc>false</ntsc>
                        </rate>
                        <start>56944</start>
                        <end>57095</end>
                        <enabled>true</enabled>
                        <in>0</in>
                        <out>151</out>
                        <file id="972_0437_03_12_15906933553141AEB5F7.mov 2">
                            <duration>151</duration>
                            <rate>
                                <timebase>25</timebase>
                                <ntsc>false</ntsc>
                            </rate>
                            <name>972_0437_03_12_15906933553141AEB5F7.mov</name>
                            <pathurl>file:///Capture1/EDIUS/EDIUS7_Color/colored/pasyans_v3/972_0437_03_12_15906933553141AEB5F7_V1-0153.mov</pathurl>
                            <timecode>
                                <string>00:37:57:19</string>
                                <displayformat>NDF</displayformat>
                                <rate>
                                    <timebase>25</timebase>
                                    <ntsc>false</ntsc>
                                </rate>
                            </timecode>
                            <media>
                                <video>
                                    <duration>151</duration>
                                    <samplecharacteristics>
                                        <width>1920</width>
                                        <height>1080</height>
                                    </samplecharacteristics>
                                </video>
                            </media>
                        </file>
                        <compositemode>normal</compositemode>
                        <filter>
                            <enabled>true</enabled>
                            <start>0</start>
                            <end>150</end>
                            <effect>
                                <name>Opacity</name>
                                <effectid>opacity</effectid>
                                <effecttype>motion</effecttype>
                                <mediatype>video</mediatype>
                                <effectcategory>motion</effectcategory>
                                <parameter>
                                    <name>opacity</name>
                                    <parameterid>opacity</parameterid>
                                    <value>100</value>
                                    <valuemin>0</valuemin>
                                    <valuemax>100</valuemax>
                                </parameter>
                            </effect>
                        </filter>
                    </clipitem>
                    <clipitem id="общий план 6_9_C33065E108CD49A392E2.mov 0">
                        <name>общий план 6_9_C33065E108CD49A392E2.mov</name>
                        <duration>196</duration>
                        <rate>
                            <timebase>25</timebase>
                            <ntsc>false</ntsc>
                        </rate>
                        <start>57095</start>
                        <end>57291</end>
                        <enabled>true</enabled>
                        <in>0</in>
                        <out>196</out>
                        <file id="общий план 6_9_C33065E108CD49A392E2.mov 2">
                            <duration>196</duration>
                            <rate>
                                <timebase>25</timebase>
                                <ntsc>false</ntsc>
                            </rate>
                            <name>общий план 6_9_C33065E108CD49A392E2.mov</name>
                            <pathurl>file:///Capture1/EDIUS/EDIUS7_Color/colored/pasyans_v3/%D0%BE%D0%B1%D1%89%D0%B8%D0%B9%20%D0%BF%D0%BB%D0%B0%D0%BD%206_9_C33065E108CD49A392E2_V1-0154.mov</pathurl>
                            <timecode>
                                <string>00:38:03:20</string>
                                <displayformat>NDF</displayformat>
                                <rate>
                                    <timebase>25</timebase>
                                    <ntsc>false</ntsc>
                                </rate>
                            </timecode>
                            <media>
                                <video>
                                    <duration>196</duration>
                                    <samplecharacteristics>
                                        <width>1920</width>
                                        <height>1080</height>
                                    </samplecharacteristics>
                                </video>
                            </media>
                        </file>
                        <compositemode>normal</compositemode>
                        <filter>
                            <enabled>true</enabled>
                            <start>0</start>
                            <end>196</end>
                            <effect>
                                <name>Opacity</name>
                                <effectid>opacity</effectid>
                                <effecttype>motion</effecttype>
                                <mediatype>video</mediatype>
                                <effectcategory>motion</effectcategory>
                                <parameter>
                                    <name>opacity</name>
                                    <parameterid>opacity</parameterid>
                                    <value>100</value>
                                    <valuemin>0</valuemin>
                                    <valuemax>100</valuemax>
                                </parameter>
                            </effect>
                        </filter>
                    </clipitem>
                    <clipitem id="КАССЕТНАЯ КАМЕРА 1_37_7A1311E9268848D29BA5.mov 0">
                        <name>КАССЕТНАЯ КАМЕРА 1_37_7A1311E9268848D29BA5.mov</name>
                        <duration>87</duration>
                        <rate>
                            <timebase>25</timebase>
                            <ntsc>false</ntsc>
                        </rate>
                        <start>57291</start>
                        <end>57379</end>
                        <enabled>true</enabled>
                        <in>0</in>
                        <out>88</out>
                        <file id="КАССЕТНАЯ КАМЕРА 1_37_7A1311E9268848D29BA5.mov 2">
                            <duration>88</duration>
                            <rate>
                                <timebase>25</timebase>
                                <ntsc>false</ntsc>
                            </rate>
                            <name>КАССЕТНАЯ КАМЕРА 1_37_7A1311E9268848D29BA5.mov</name>
                            <pathurl>file:///Capture1/EDIUS/EDIUS7_Color/colored/pasyans_v3/%D0%9A%D0%90%D0%A1%D0%A1%D0%95%D0%A2%D0%9D%D0%90%D0%AF%20%D0%9A%D0%90%D0%9C%D0%95%D0%A0%D0%90%201_37_7A1311E9268848D29BA5_V1-0155.mov</pathurl>
                            <timecode>
                                <string>00:38:11:16</string>
                                <displayformat>NDF</displayformat>
                                <rate>
                                    <timebase>25</timebase>
                                    <ntsc>false</ntsc>
                                </rate>
                            </timecode>
                            <media>
                                <video>
                                    <duration>88</duration>
                                    <samplecharacteristics>
                                        <width>1920</width>
                                        <height>1080</height>
                                    </samplecharacteristics>
                                </video>
                            </media>
                        </file>
                        <compositemode>normal</compositemode>
                        <filter>
                            <enabled>true</enabled>
                            <start>0</start>
                            <end>87</end>
                            <effect>
                                <name>Opacity</name>
                                <effectid>opacity</effectid>
                                <effecttype>motion</effecttype>
                                <mediatype>video</mediatype>
                                <effectcategory>motion</effectcategory>
                                <parameter>
                                    <name>opacity</name>
                                    <parameterid>opacity</parameterid>
                                    <value>100</value>
                                    <valuemin>0</valuemin>
                                    <valuemax>100</valuemax>
                                </parameter>
                            </effect>
                        </filter>
                    </clipitem>
                    <clipitem id="GP018363_3_7D4B7CC2A7B24E18A495.mov 0">
                        <name>GP018363_3_7D4B7CC2A7B24E18A495.mov</name>
                        <duration>125</duration>
                        <rate>
                            <timebase>25</timebase>
                            <ntsc>false</ntsc>
                        </rate>
                        <start>57379</start>
                        <end>57505</end>
                        <enabled>true</enabled>
                        <in>0</in>
                        <out>126</out>
                        <file id="GP018363_3_7D4B7CC2A7B24E18A495.mov 2">
                            <duration>126</duration>
                            <rate>
                                <timebase>25</timebase>
                                <ntsc>false</ntsc>
                            </rate>
                            <name>GP018363_3_7D4B7CC2A7B24E18A495.mov</name>
                            <pathurl>file:///Capture1/EDIUS/EDIUS7_Color/colored/pasyans_v3/GP018363_3_7D4B7CC2A7B24E18A495_V1-0156.mov</pathurl>
                            <timecode>
                                <string>00:38:15:04</string>
                                <displayformat>NDF</displayformat>
                                <rate>
                                    <timebase>25</timebase>
                                    <ntsc>false</ntsc>
                                </rate>
                            </timecode>
                            <media>
                                <video>
                                    <duration>126</duration>
                                    <samplecharacteristics>
                                        <width>1920</width>
                                        <height>1080</height>
                                    </samplecharacteristics>
                                </video>
                            </media>
                        </file>
                        <compositemode>normal</compositemode>
                        <filter>
                            <enabled>true</enabled>
                            <start>0</start>
                            <end>125</end>
                            <effect>
                                <name>Opacity</name>
                                <effectid>opacity</effectid>
                                <effecttype>motion</effecttype>
                                <mediatype>video</mediatype>
                                <effectcategory>motion</effectcategory>
                                <parameter>
                                    <name>opacity</name>
                                    <parameterid>opacity</parameterid>
                                    <value>100</value>
                                    <valuemin>0</valuemin>
                                    <valuemax>100</valuemax>
                                </parameter>
                            </effect>
                        </filter>
                    </clipitem>
                    <clipitem id="КАССЕТНАЯ КАМЕРА 1_38_B755C4DC5C2F4D8AB1F3.mov 0">
                        <name>КАССЕТНАЯ КАМЕРА 1_38_B755C4DC5C2F4D8AB1F3.mov</name>
                        <duration>155</duration>
                        <rate>
                            <timebase>25</timebase>
                            <ntsc>false</ntsc>
                        </rate>
                        <start>57505</start>
                        <end>57661</end>
                        <enabled>true</enabled>
                        <in>0</in>
                        <out>156</out>
                        <file id="КАССЕТНАЯ КАМЕРА 1_38_B755C4DC5C2F4D8AB1F3.mov 2">
                            <duration>156</duration>
                            <rate>
                                <timebase>25</timebase>
                                <ntsc>false</ntsc>
                            </rate>
                            <name>КАССЕТНАЯ КАМЕРА 1_38_B755C4DC5C2F4D8AB1F3.mov</name>
                            <pathurl>file:///Capture1/EDIUS/EDIUS7_Color/colored/pasyans_v3/%D0%9A%D0%90%D0%A1%D0%A1%D0%95%D0%A2%D0%9D%D0%90%D0%AF%20%D0%9A%D0%90%D0%9C%D0%95%D0%A0%D0%90%201_38_B755C4DC5C2F4D8AB1F3_V1-0157.mov</pathurl>
                            <timecode>
                                <string>00:38:20:05</string>
                                <displayformat>NDF</displayformat>
                                <rate>
                                    <timebase>25</timebase>
                                    <ntsc>false</ntsc>
                                </rate>
                            </timecode>
                            <media>
                                <video>
                                    <duration>156</duration>
                                    <samplecharacteristics>
                                        <width>1920</width>
                                        <height>1080</height>
                                    </samplecharacteristics>
                                </video>
                            </media>
                        </file>
                        <compositemode>normal</compositemode>
                        <filter>
                            <enabled>true</enabled>
                            <start>0</start>
                            <end>155</end>
                            <effect>
                                <name>Opacity</name>
                                <effectid>opacity</effectid>
                                <effecttype>motion</effecttype>
                                <mediatype>video</mediatype>
                                <effectcategory>motion</effectcategory>
                                <parameter>
                                    <name>opacity</name>
                                    <parameterid>opacity</parameterid>
                                    <value>100</value>
                                    <valuemin>0</valuemin>
                                    <valuemax>100</valuemax>
                                </parameter>
                            </effect>
                        </filter>
                    </clipitem>
                    <clipitem id="общий план 6_10_6002646B698C4E7CB06F.mov 0">
                        <name>общий план 6_10_6002646B698C4E7CB06F.mov</name>
                        <duration>162</duration>
                        <rate>
                            <timebase>25</timebase>
                            <ntsc>false</ntsc>
                        </rate>
                        <start>57661</start>
                        <end>57823</end>
                        <enabled>true</enabled>
                        <in>0</in>
                        <out>162</out>
                        <file id="общий план 6_10_6002646B698C4E7CB06F.mov 2">
                            <duration>162</duration>
                            <rate>
                                <timebase>25</timebase>
                                <ntsc>false</ntsc>
                            </rate>
                            <name>общий план 6_10_6002646B698C4E7CB06F.mov</name>
                            <pathurl>file:///Capture1/EDIUS/EDIUS7_Color/colored/pasyans_v3/%D0%BE%D0%B1%D1%89%D0%B8%D0%B9%20%D0%BF%D0%BB%D0%B0%D0%BD%206_10_6002646B698C4E7CB06F_V1-0158.mov</pathurl>
                            <timecode>
                                <string>00:38:26:11</string>
                                <displayformat>NDF</displayformat>
                                <rate>
                                    <timebase>25</timebase>
                                    <ntsc>false</ntsc>
                                </rate>
                            </timecode>
                            <media>
                                <video>
                                    <duration>162</duration>
                                    <samplecharacteristics>
                                        <width>1920</width>
                                        <height>1080</height>
                                    </samplecharacteristics>
                                </video>
                            </media>
                        </file>
                        <compositemode>normal</compositemode>
                        <filter>
                            <enabled>true</enabled>
                            <start>0</start>
                            <end>162</end>
                            <effect>
                                <name>Opacity</name>
                                <effectid>opacity</effectid>
                                <effecttype>motion</effecttype>
                                <mediatype>video</mediatype>
                                <effectcategory>motion</effectcategory>
                                <parameter>
                                    <name>opacity</name>
                                    <parameterid>opacity</parameterid>
                                    <value>100</value>
                                    <valuemin>0</valuemin>
                                    <valuemax>100</valuemax>
                                </parameter>
                            </effect>
                        </filter>
                    </clipitem>
                    <clipitem id="972_0437_03_13_6367925390E24C80BFF9.mov 0">
                        <name>972_0437_03_13_6367925390E24C80BFF9.mov</name>
                        <duration>132</duration>
                        <rate>
                            <timebase>25</timebase>
                            <ntsc>false</ntsc>
                        </rate>
                        <start>57823</start>
                        <end>57955</end>
                        <enabled>true</enabled>
                        <in>0</in>
                        <out>132</out>
                        <file id="972_0437_03_13_6367925390E24C80BFF9.mov 2">
                            <duration>132</duration>
                            <rate>
                                <timebase>25</timebase>
                                <ntsc>false</ntsc>
                            </rate>
                            <name>972_0437_03_13_6367925390E24C80BFF9.mov</name>
                            <pathurl>file:///Capture1/EDIUS/EDIUS7_Color/colored/pasyans_v3/972_0437_03_13_6367925390E24C80BFF9_V1-0159.mov</pathurl>
                            <timecode>
                                <string>00:38:32:23</string>
                                <displayformat>NDF</displayformat>
                                <rate>
                                    <timebase>25</timebase>
                                    <ntsc>false</ntsc>
                                </rate>
                            </timecode>
                            <media>
                                <video>
                                    <duration>132</duration>
                                    <samplecharacteristics>
                                        <width>1920</width>
                                        <height>1080</height>
                                    </samplecharacteristics>
                                </video>
                            </media>
                        </file>
                        <compositemode>normal</compositemode>
                        <filter>
                            <enabled>true</enabled>
                            <start>0</start>
                            <end>132</end>
                            <effect>
                                <name>Opacity</name>
                                <effectid>opacity</effectid>
                                <effecttype>motion</effecttype>
                                <mediatype>video</mediatype>
                                <effectcategory>motion</effectcategory>
                                <parameter>
                                    <name>opacity</name>
                                    <parameterid>opacity</parameterid>
                                    <value>100</value>
                                    <valuemin>0</valuemin>
                                    <valuemax>100</valuemax>
                                </parameter>
                            </effect>
                        </filter>
                    </clipitem>
                    <clipitem id="246_0922_03_7_823AF0503EB14885BCF8.mov 0">
                        <name>246_0922_03_7_823AF0503EB14885BCF8.mov</name>
                        <duration>94</duration>
                        <rate>
                            <timebase>25</timebase>
                            <ntsc>false</ntsc>
                        </rate>
                        <start>57955</start>
                        <end>58049</end>
                        <enabled>true</enabled>
                        <in>0</in>
                        <out>94</out>
                        <file id="246_0922_03_7_823AF0503EB14885BCF8.mov 2">
                            <duration>94</duration>
                            <rate>
                                <timebase>25</timebase>
                                <ntsc>false</ntsc>
                            </rate>
                            <name>246_0922_03_7_823AF0503EB14885BCF8.mov</name>
                            <pathurl>file:///Capture1/EDIUS/EDIUS7_Color/colored/pasyans_v3/246_0922_03_7_823AF0503EB14885BCF8_V1-0160.mov</pathurl>
                            <timecode>
                                <string>00:38:38:05</string>
                                <displayformat>NDF</displayformat>
                                <rate>
                                    <timebase>25</timebase>
                                    <ntsc>false</ntsc>
                                </rate>
                            </timecode>
                            <media>
                                <video>
                                    <duration>94</duration>
                                    <samplecharacteristics>
                                        <width>1920</width>
                                        <height>1080</height>
                                    </samplecharacteristics>
                                </video>
                            </media>
                        </file>
                        <compositemode>normal</compositemode>
                        <filter>
                            <enabled>true</enabled>
                            <start>0</start>
                            <end>94</end>
                            <effect>
                                <name>Opacity</name>
                                <effectid>opacity</effectid>
                                <effecttype>motion</effecttype>
                                <mediatype>video</mediatype>
                                <effectcategory>motion</effectcategory>
                                <parameter>
                                    <name>opacity</name>
                                    <parameterid>opacity</parameterid>
                                    <value>100</value>
                                    <valuemin>0</valuemin>
                                    <valuemax>100</valuemax>
                                </parameter>
                            </effect>
                        </filter>
                    </clipitem>
                    <clipitem id="общий план 6_11_934F924447F0469182E7.mov 0">
                        <name>общий план 6_11_934F924447F0469182E7.mov</name>
                        <duration>228</duration>
                        <rate>
                            <timebase>25</timebase>
                            <ntsc>false</ntsc>
                        </rate>
                        <start>58049</start>
                        <end>58278</end>
                        <enabled>true</enabled>
                        <in>0</in>
                        <out>229</out>
                        <file id="общий план 6_11_934F924447F0469182E7.mov 2">
                            <duration>229</duration>
                            <rate>
                                <timebase>25</timebase>
                                <ntsc>false</ntsc>
                            </rate>
                            <name>общий план 6_11_934F924447F0469182E7.mov</name>
                            <pathurl>file:///Capture1/EDIUS/EDIUS7_Color/colored/pasyans_v3/%D0%BE%D0%B1%D1%89%D0%B8%D0%B9%20%D0%BF%D0%BB%D0%B0%D0%BD%206_11_934F924447F0469182E7_V1-0161.mov</pathurl>
                            <timecode>
                                <string>00:38:41:24</string>
                                <displayformat>NDF</displayformat>
                                <rate>
                                    <timebase>25</timebase>
                                    <ntsc>false</ntsc>
                                </rate>
                            </timecode>
                            <media>
                                <video>
                                    <duration>229</duration>
                                    <samplecharacteristics>
                                        <width>1920</width>
                                        <height>1080</height>
                                    </samplecharacteristics>
                                </video>
                            </media>
                        </file>
                        <compositemode>normal</compositemode>
                        <filter>
                            <enabled>true</enabled>
                            <start>0</start>
                            <end>228</end>
                            <effect>
                                <name>Opacity</name>
                                <effectid>opacity</effectid>
                                <effecttype>motion</effecttype>
                                <mediatype>video</mediatype>
                                <effectcategory>motion</effectcategory>
                                <parameter>
                                    <name>opacity</name>
                                    <parameterid>opacity</parameterid>
                                    <value>100</value>
                                    <valuemin>0</valuemin>
                                    <valuemax>100</valuemax>
                                </parameter>
                            </effect>
                        </filter>
                    </clipitem>
                    <clipitem id="КАССЕТНАЯ КАМЕРА 1_39_CD0CC86832C14A669430.mov 0">
                        <name>КАССЕТНАЯ КАМЕРА 1_39_CD0CC86832C14A669430.mov</name>
                        <duration>134</duration>
                        <rate>
                            <timebase>25</timebase>
                            <ntsc>false</ntsc>
                        </rate>
                        <start>58278</start>
                        <end>58412</end>
                        <enabled>true</enabled>
                        <in>0</in>
                        <out>134</out>
                        <file id="КАССЕТНАЯ КАМЕРА 1_39_CD0CC86832C14A669430.mov 2">
                            <duration>134</duration>
                            <rate>
                                <timebase>25</timebase>
                                <ntsc>false</ntsc>
                            </rate>
                            <name>КАССЕТНАЯ КАМЕРА 1_39_CD0CC86832C14A669430.mov</name>
                            <pathurl>file:///Capture1/EDIUS/EDIUS7_Color/colored/pasyans_v3/%D0%9A%D0%90%D0%A1%D0%A1%D0%95%D0%A2%D0%9D%D0%90%D0%AF%20%D0%9A%D0%90%D0%9C%D0%95%D0%A0%D0%90%201_39_CD0CC86832C14A669430_V1-0162.mov</pathurl>
                            <timecode>
                                <string>00:38:51:03</string>
                                <displayformat>NDF</displayformat>
                                <rate>
                                    <timebase>25</timebase>
                                    <ntsc>false</ntsc>
                                </rate>
                            </timecode>
                            <media>
                                <video>
                                    <duration>134</duration>
                                    <samplecharacteristics>
                                        <width>1920</width>
                                        <height>1080</height>
                                    </samplecharacteristics>
                                </video>
                            </media>
                        </file>
                        <compositemode>normal</compositemode>
                        <filter>
                            <enabled>true</enabled>
                            <start>0</start>
                            <end>134</end>
                            <effect>
                                <name>Opacity</name>
                                <effectid>opacity</effectid>
                                <effecttype>motion</effecttype>
                                <mediatype>video</mediatype>
                                <effectcategory>motion</effectcategory>
                                <parameter>
                                    <name>opacity</name>
                                    <parameterid>opacity</parameterid>
                                    <value>100</value>
                                    <valuemin>0</valuemin>
                                    <valuemax>100</valuemax>
                                </parameter>
                            </effect>
                        </filter>
                    </clipitem>
                    <clipitem id="246_0922_03_8_0849A6C20EC54F96ACC7.mov 0">
                        <name>246_0922_03_8_0849A6C20EC54F96ACC7.mov</name>
                        <duration>100</duration>
                        <rate>
                            <timebase>25</timebase>
                            <ntsc>false</ntsc>
                        </rate>
                        <start>58412</start>
                        <end>58513</end>
                        <enabled>true</enabled>
                        <in>0</in>
                        <out>101</out>
                        <file id="246_0922_03_8_0849A6C20EC54F96ACC7.mov 2">
                            <duration>101</duration>
                            <rate>
                                <timebase>25</timebase>
                                <ntsc>false</ntsc>
                            </rate>
                            <name>246_0922_03_8_0849A6C20EC54F96ACC7.mov</name>
                            <pathurl>file:///Capture1/EDIUS/EDIUS7_Color/colored/pasyans_v3/246_0922_03_8_0849A6C20EC54F96ACC7_V1-0163.mov</pathurl>
                            <timecode>
                                <string>00:38:56:12</string>
                                <displayformat>NDF</displayformat>
                                <rate>
                                    <timebase>25</timebase>
                                    <ntsc>false</ntsc>
                                </rate>
                            </timecode>
                            <media>
                                <video>
                                    <duration>101</duration>
                                    <samplecharacteristics>
                                        <width>1920</width>
                                        <height>1080</height>
                                    </samplecharacteristics>
                                </video>
                            </media>
                        </file>
                        <compositemode>normal</compositemode>
                        <filter>
                            <enabled>true</enabled>
                            <start>0</start>
                            <end>100</end>
                            <effect>
                                <name>Opacity</name>
                                <effectid>opacity</effectid>
                                <effecttype>motion</effecttype>
                                <mediatype>video</mediatype>
                                <effectcategory>motion</effectcategory>
                                <parameter>
                                    <name>opacity</name>
                                    <parameterid>opacity</parameterid>
                                    <value>100</value>
                                    <valuemin>0</valuemin>
                                    <valuemax>100</valuemax>
                                </parameter>
                            </effect>
                        </filter>
                    </clipitem>
                    <clipitem id="GP018503_2_B1516B39350C4A5CB57F.mov 0">
                        <name>GP018503_2_B1516B39350C4A5CB57F.mov</name>
                        <duration>148</duration>
                        <rate>
                            <timebase>25</timebase>
                            <ntsc>false</ntsc>
                        </rate>
                        <start>58513</start>
                        <end>58661</end>
                        <enabled>true</enabled>
                        <in>0</in>
                        <out>148</out>
                        <file id="GP018503_2_B1516B39350C4A5CB57F.mov 2">
                            <duration>148</duration>
                            <rate>
                                <timebase>25</timebase>
                                <ntsc>false</ntsc>
                            </rate>
                            <name>GP018503_2_B1516B39350C4A5CB57F.mov</name>
                            <pathurl>file:///Capture1/EDIUS/EDIUS7_Color/colored/pasyans_v3/GP018503_2_B1516B39350C4A5CB57F_V1-0164.mov</pathurl>
                            <timecode>
                                <string>00:39:00:13</string>
                                <displayformat>NDF</displayformat>
                                <rate>
                                    <timebase>25</timebase>
                                    <ntsc>false</ntsc>
                                </rate>
                            </timecode>
                            <media>
                                <video>
                                    <duration>148</duration>
                                    <samplecharacteristics>
                                        <width>1920</width>
                                        <height>1080</height>
                                    </samplecharacteristics>
                                </video>
                            </media>
                        </file>
                        <compositemode>normal</compositemode>
                        <filter>
                            <enabled>true</enabled>
                            <start>0</start>
                            <end>148</end>
                            <effect>
                                <name>Opacity</name>
                                <effectid>opacity</effectid>
                                <effecttype>motion</effecttype>
                                <mediatype>video</mediatype>
                                <effectcategory>motion</effectcategory>
                                <parameter>
                                    <name>opacity</name>
                                    <parameterid>opacity</parameterid>
                                    <value>100</value>
                                    <valuemin>0</valuemin>
                                    <valuemax>100</valuemax>
                                </parameter>
                            </effect>
                        </filter>
                    </clipitem>
                    <clipitem id="КАССЕТНАЯ КАМЕРА 1_40_69AE3DA2894E4DD58641.mov 0">
                        <name>КАССЕТНАЯ КАМЕРА 1_40_69AE3DA2894E4DD58641.mov</name>
                        <duration>188</duration>
                        <rate>
                            <timebase>25</timebase>
                            <ntsc>false</ntsc>
                        </rate>
                        <start>58661</start>
                        <end>58850</end>
                        <enabled>true</enabled>
                        <in>0</in>
                        <out>189</out>
                        <file id="КАССЕТНАЯ КАМЕРА 1_40_69AE3DA2894E4DD58641.mov 2">
                            <duration>189</duration>
                            <rate>
                                <timebase>25</timebase>
                                <ntsc>false</ntsc>
                            </rate>
                            <name>КАССЕТНАЯ КАМЕРА 1_40_69AE3DA2894E4DD58641.mov</name>
                            <pathurl>file:///Capture1/EDIUS/EDIUS7_Color/colored/pasyans_v3/%D0%9A%D0%90%D0%A1%D0%A1%D0%95%D0%A2%D0%9D%D0%90%D0%AF%20%D0%9A%D0%90%D0%9C%D0%95%D0%A0%D0%90%201_40_69AE3DA2894E4DD58641_V1-0165.mov</pathurl>
                            <timecode>
                                <string>00:39:06:11</string>
                                <displayformat>NDF</displayformat>
                                <rate>
                                    <timebase>25</timebase>
                                    <ntsc>false</ntsc>
                                </rate>
                            </timecode>
                            <media>
                                <video>
                                    <duration>189</duration>
                                    <samplecharacteristics>
                                        <width>1920</width>
                                        <height>1080</height>
                                    </samplecharacteristics>
                                </video>
                            </media>
                        </file>
                        <compositemode>normal</compositemode>
                        <filter>
                            <enabled>true</enabled>
                            <start>0</start>
                            <end>188</end>
                            <effect>
                                <name>Opacity</name>
                                <effectid>opacity</effectid>
                                <effecttype>motion</effecttype>
                                <mediatype>video</mediatype>
                                <effectcategory>motion</effectcategory>
                                <parameter>
                                    <name>opacity</name>
                                    <parameterid>opacity</parameterid>
                                    <value>100</value>
                                    <valuemin>0</valuemin>
                                    <valuemax>100</valuemax>
                                </parameter>
                            </effect>
                        </filter>
                    </clipitem>
                    <clipitem id="общий план 6_12_4A9BB1706AE34C83BBD2.mov 0">
                        <name>общий план 6_12_4A9BB1706AE34C83BBD2.mov</name>
                        <duration>154</duration>
                        <rate>
                            <timebase>25</timebase>
                            <ntsc>false</ntsc>
                        </rate>
                        <start>58850</start>
                        <end>59005</end>
                        <enabled>true</enabled>
                        <in>0</in>
                        <out>155</out>
                        <file id="общий план 6_12_4A9BB1706AE34C83BBD2.mov 2">
                            <duration>155</duration>
                            <rate>
                                <timebase>25</timebase>
                                <ntsc>false</ntsc>
                            </rate>
                            <name>общий план 6_12_4A9BB1706AE34C83BBD2.mov</name>
                            <pathurl>file:///Capture1/EDIUS/EDIUS7_Color/colored/pasyans_v3/%D0%BE%D0%B1%D1%89%D0%B8%D0%B9%20%D0%BF%D0%BB%D0%B0%D0%BD%206_12_4A9BB1706AE34C83BBD2_V1-0166.mov</pathurl>
                            <timecode>
                                <string>00:39:14:00</string>
                                <displayformat>NDF</displayformat>
                                <rate>
                                    <timebase>25</timebase>
                                    <ntsc>false</ntsc>
                                </rate>
                            </timecode>
                            <media>
                                <video>
                                    <duration>155</duration>
                                    <samplecharacteristics>
                                        <width>1920</width>
                                        <height>1080</height>
                                    </samplecharacteristics>
                                </video>
                            </media>
                        </file>
                        <compositemode>normal</compositemode>
                        <filter>
                            <enabled>true</enabled>
                            <start>0</start>
                            <end>154</end>
                            <effect>
                                <name>Opacity</name>
                                <effectid>opacity</effectid>
                                <effecttype>motion</effecttype>
                                <mediatype>video</mediatype>
                                <effectcategory>motion</effectcategory>
                                <parameter>
                                    <name>opacity</name>
                                    <parameterid>opacity</parameterid>
                                    <value>100</value>
                                    <valuemin>0</valuemin>
                                    <valuemax>100</valuemax>
                                </parameter>
                            </effect>
                        </filter>
                    </clipitem>
                    <clipitem id="246_0922_03_9_A5F2AD023FED4B92B75C.mov 0">
                        <name>246_0922_03_9_A5F2AD023FED4B92B75C.mov</name>
                        <duration>112</duration>
                        <rate>
                            <timebase>25</timebase>
                            <ntsc>false</ntsc>
                        </rate>
                        <start>59005</start>
                        <end>59117</end>
                        <enabled>true</enabled>
                        <in>0</in>
                        <out>112</out>
                        <file id="246_0922_03_9_A5F2AD023FED4B92B75C.mov 2">
                            <duration>112</duration>
                            <rate>
                                <timebase>25</timebase>
                                <ntsc>false</ntsc>
                            </rate>
                            <name>246_0922_03_9_A5F2AD023FED4B92B75C.mov</name>
                            <pathurl>file:///Capture1/EDIUS/EDIUS7_Color/colored/pasyans_v3/246_0922_03_9_A5F2AD023FED4B92B75C_V1-0167.mov</pathurl>
                            <timecode>
                                <string>00:39:20:05</string>
                                <displayformat>NDF</displayformat>
                                <rate>
                                    <timebase>25</timebase>
                                    <ntsc>false</ntsc>
                                </rate>
                            </timecode>
                            <media>
                                <video>
                                    <duration>112</duration>
                                    <samplecharacteristics>
                                        <width>1920</width>
                                        <height>1080</height>
                                    </samplecharacteristics>
                                </video>
                            </media>
                        </file>
                        <compositemode>normal</compositemode>
                        <filter>
                            <enabled>true</enabled>
                            <start>0</start>
                            <end>112</end>
                            <effect>
                                <name>Opacity</name>
                                <effectid>opacity</effectid>
                                <effecttype>motion</effecttype>
                                <mediatype>video</mediatype>
                                <effectcategory>motion</effectcategory>
                                <parameter>
                                    <name>opacity</name>
                                    <parameterid>opacity</parameterid>
                                    <value>100</value>
                                    <valuemin>0</valuemin>
                                    <valuemax>100</valuemax>
                                </parameter>
                            </effect>
                        </filter>
                    </clipitem>
                    <clipitem id="общий план 6_13_96FAB814D9994A828713.mov 0">
                        <name>общий план 6_13_96FAB814D9994A828713.mov</name>
                        <duration>163</duration>
                        <rate>
                            <timebase>25</timebase>
                            <ntsc>false</ntsc>
                        </rate>
                        <start>59117</start>
                        <end>59281</end>
                        <enabled>true</enabled>
                        <in>0</in>
                        <out>164</out>
                        <file id="общий план 6_13_96FAB814D9994A828713.mov 2">
                            <duration>164</duration>
                            <rate>
                                <timebase>25</timebase>
                                <ntsc>false</ntsc>
                            </rate>
                            <name>общий план 6_13_96FAB814D9994A828713.mov</name>
                            <pathurl>file:///Capture1/EDIUS/EDIUS7_Color/colored/pasyans_v3/%D0%BE%D0%B1%D1%89%D0%B8%D0%B9%20%D0%BF%D0%BB%D0%B0%D0%BD%206_13_96FAB814D9994A828713_V1-0168.mov</pathurl>
                            <timecode>
                                <string>00:39:24:17</string>
                                <displayformat>NDF</displayformat>
                                <rate>
                                    <timebase>25</timebase>
                                    <ntsc>false</ntsc>
                                </rate>
                            </timecode>
                            <media>
                                <video>
                                    <duration>164</duration>
                                    <samplecharacteristics>
                                        <width>1920</width>
                                        <height>1080</height>
                                    </samplecharacteristics>
                                </video>
                            </media>
                        </file>
                        <compositemode>normal</compositemode>
                        <filter>
                            <enabled>true</enabled>
                            <start>0</start>
                            <end>163</end>
                            <effect>
                                <name>Opacity</name>
                                <effectid>opacity</effectid>
                                <effecttype>motion</effecttype>
                                <mediatype>video</mediatype>
                                <effectcategory>motion</effectcategory>
                                <parameter>
                                    <name>opacity</name>
                                    <parameterid>opacity</parameterid>
                                    <value>100</value>
                                    <valuemin>0</valuemin>
                                    <valuemax>100</valuemax>
                                </parameter>
                            </effect>
                        </filter>
                    </clipitem>
                    <clipitem id="972_0437_03_14_7CB890CA0BE64AF7A5A7.mov 0">
                        <name>972_0437_03_14_7CB890CA0BE64AF7A5A7.mov</name>
                        <duration>133</duration>
                        <rate>
                            <timebase>25</timebase>
                            <ntsc>false</ntsc>
                        </rate>
                        <start>59281</start>
                        <end>59414</end>
                        <enabled>true</enabled>
                        <in>0</in>
                        <out>133</out>
                        <file id="972_0437_03_14_7CB890CA0BE64AF7A5A7.mov 2">
                            <duration>133</duration>
                            <rate>
                                <timebase>25</timebase>
                                <ntsc>false</ntsc>
                            </rate>
                            <name>972_0437_03_14_7CB890CA0BE64AF7A5A7.mov</name>
                            <pathurl>file:///Capture1/EDIUS/EDIUS7_Color/colored/pasyans_v3/972_0437_03_14_7CB890CA0BE64AF7A5A7_V1-0169.mov</pathurl>
                            <timecode>
                                <string>00:39:31:06</string>
                                <displayformat>NDF</displayformat>
                                <rate>
                                    <timebase>25</timebase>
                                    <ntsc>false</ntsc>
                                </rate>
                            </timecode>
                            <media>
                                <video>
                                    <duration>133</duration>
                                    <samplecharacteristics>
                                        <width>1920</width>
                                        <height>1080</height>
                                    </samplecharacteristics>
                                </video>
                            </media>
                        </file>
                        <compositemode>normal</compositemode>
                        <filter>
                            <enabled>true</enabled>
                            <start>0</start>
                            <end>133</end>
                            <effect>
                                <name>Opacity</name>
                                <effectid>opacity</effectid>
                                <effecttype>motion</effecttype>
                                <mediatype>video</mediatype>
                                <effectcategory>motion</effectcategory>
                                <parameter>
                                    <name>opacity</name>
                                    <parameterid>opacity</parameterid>
                                    <value>100</value>
                                    <valuemin>0</valuemin>
                                    <valuemax>100</valuemax>
                                </parameter>
                            </effect>
                        </filter>
                    </clipitem>
                    <clipitem id="общий план 6_14_BDC6BF10B0DF4B85B298.mov 0">
                        <name>общий план 6_14_BDC6BF10B0DF4B85B298.mov</name>
                        <duration>216</duration>
                        <rate>
                            <timebase>25</timebase>
                            <ntsc>false</ntsc>
                        </rate>
                        <start>59414</start>
                        <end>59631</end>
                        <enabled>true</enabled>
                        <in>0</in>
                        <out>217</out>
                        <file id="общий план 6_14_BDC6BF10B0DF4B85B298.mov 2">
                            <duration>217</duration>
                            <rate>
                                <timebase>25</timebase>
                                <ntsc>false</ntsc>
                            </rate>
                            <name>общий план 6_14_BDC6BF10B0DF4B85B298.mov</name>
                            <pathurl>file:///Capture1/EDIUS/EDIUS7_Color/colored/pasyans_v3/%D0%BE%D0%B1%D1%89%D0%B8%D0%B9%20%D0%BF%D0%BB%D0%B0%D0%BD%206_14_BDC6BF10B0DF4B85B298_V1-0170.mov</pathurl>
                            <timecode>
                                <string>00:39:36:14</string>
                                <displayformat>NDF</displayformat>
                                <rate>
                                    <timebase>25</timebase>
                                    <ntsc>false</ntsc>
                                </rate>
                            </timecode>
                            <media>
                                <video>
                                    <duration>217</duration>
                                    <samplecharacteristics>
                                        <width>1920</width>
                                        <height>1080</height>
                                    </samplecharacteristics>
                                </video>
                            </media>
                        </file>
                        <compositemode>normal</compositemode>
                        <filter>
                            <enabled>true</enabled>
                            <start>0</start>
                            <end>216</end>
                            <effect>
                                <name>Opacity</name>
                                <effectid>opacity</effectid>
                                <effecttype>motion</effecttype>
                                <mediatype>video</mediatype>
                                <effectcategory>motion</effectcategory>
                                <parameter>
                                    <name>opacity</name>
                                    <parameterid>opacity</parameterid>
                                    <value>100</value>
                                    <valuemin>0</valuemin>
                                    <valuemax>100</valuemax>
                                </parameter>
                            </effect>
                        </filter>
                    </clipitem>
                    <clipitem id="972_0437_03_15_9DE5FC7EFAE54E099BA1.mov 0">
                        <name>972_0437_03_15_9DE5FC7EFAE54E099BA1.mov</name>
                        <duration>94</duration>
                        <rate>
                            <timebase>25</timebase>
                            <ntsc>false</ntsc>
                        </rate>
                        <start>59631</start>
                        <end>59725</end>
                        <enabled>true</enabled>
                        <in>0</in>
                        <out>94</out>
                        <file id="972_0437_03_15_9DE5FC7EFAE54E099BA1.mov 2">
                            <duration>94</duration>
                            <rate>
                                <timebase>25</timebase>
                                <ntsc>false</ntsc>
                            </rate>
                            <name>972_0437_03_15_9DE5FC7EFAE54E099BA1.mov</name>
                            <pathurl>file:///Capture1/EDIUS/EDIUS7_Color/colored/pasyans_v3/972_0437_03_15_9DE5FC7EFAE54E099BA1_V1-0171.mov</pathurl>
                            <timecode>
                                <string>00:39:45:06</string>
                                <displayformat>NDF</displayformat>
                                <rate>
                                    <timebase>25</timebase>
                                    <ntsc>false</ntsc>
                                </rate>
                            </timecode>
                            <media>
                                <video>
                                    <duration>94</duration>
                                    <samplecharacteristics>
                                        <width>1920</width>
                                        <height>1080</height>
                                    </samplecharacteristics>
                                </video>
                            </media>
                        </file>
                        <compositemode>normal</compositemode>
                        <filter>
                            <enabled>true</enabled>
                            <start>0</start>
                            <end>94</end>
                            <effect>
                                <name>Opacity</name>
                                <effectid>opacity</effectid>
                                <effecttype>motion</effecttype>
                                <mediatype>video</mediatype>
                                <effectcategory>motion</effectcategory>
                                <parameter>
                                    <name>opacity</name>
                                    <parameterid>opacity</parameterid>
                                    <value>100</value>
                                    <valuemin>0</valuemin>
                                    <valuemax>100</valuemax>
                                </parameter>
                            </effect>
                        </filter>
                    </clipitem>
                    <clipitem id="КАССЕТНАЯ КАМЕРА 1_41_84A15F08C1294EA7A36E.mov 0">
                        <name>КАССЕТНАЯ КАМЕРА 1_41_84A15F08C1294EA7A36E.mov</name>
                        <duration>122</duration>
                        <rate>
                            <timebase>25</timebase>
                            <ntsc>false</ntsc>
                        </rate>
                        <start>59725</start>
                        <end>59847</end>
                        <enabled>true</enabled>
                        <in>0</in>
                        <out>122</out>
                        <file id="КАССЕТНАЯ КАМЕРА 1_41_84A15F08C1294EA7A36E.mov 2">
                            <duration>122</duration>
                            <rate>
                                <timebase>25</timebase>
                                <ntsc>false</ntsc>
                            </rate>
                            <name>КАССЕТНАЯ КАМЕРА 1_41_84A15F08C1294EA7A36E.mov</name>
                            <pathurl>file:///Capture1/EDIUS/EDIUS7_Color/colored/pasyans_v3/%D0%9A%D0%90%D0%A1%D0%A1%D0%95%D0%A2%D0%9D%D0%90%D0%AF%20%D0%9A%D0%90%D0%9C%D0%95%D0%A0%D0%90%201_41_84A15F08C1294EA7A36E_V1-0172.mov</pathurl>
                            <timecode>
                                <string>00:39:49:00</string>
                                <displayformat>NDF</displayformat>
                                <rate>
                                    <timebase>25</timebase>
                                    <ntsc>false</ntsc>
                                </rate>
                            </timecode>
                            <media>
                                <video>
                                    <duration>122</duration>
                                    <samplecharacteristics>
                                        <width>1920</width>
                                        <height>1080</height>
                                    </samplecharacteristics>
                                </video>
                            </media>
                        </file>
                        <compositemode>normal</compositemode>
                        <filter>
                            <enabled>true</enabled>
                            <start>0</start>
                            <end>122</end>
                            <effect>
                                <name>Opacity</name>
                                <effectid>opacity</effectid>
                                <effecttype>motion</effecttype>
                                <mediatype>video</mediatype>
                                <effectcategory>motion</effectcategory>
                                <parameter>
                                    <name>opacity</name>
                                    <parameterid>opacity</parameterid>
                                    <value>100</value>
                                    <valuemin>0</valuemin>
                                    <valuemax>100</valuemax>
                                </parameter>
                            </effect>
                        </filter>
                    </clipitem>
                    <clipitem id="общий план 6_15_7E3F422377924C579533.mov 0">
                        <name>общий план 6_15_7E3F422377924C579533.mov</name>
                        <duration>189</duration>
                        <rate>
                            <timebase>25</timebase>
                            <ntsc>false</ntsc>
                        </rate>
                        <start>59847</start>
                        <end>60037</end>
                        <enabled>true</enabled>
                        <in>0</in>
                        <out>190</out>
                        <file id="общий план 6_15_7E3F422377924C579533.mov 2">
                            <duration>190</duration>
                            <rate>
                                <timebase>25</timebase>
                                <ntsc>false</ntsc>
                            </rate>
                            <name>общий план 6_15_7E3F422377924C579533.mov</name>
                            <pathurl>file:///Capture1/EDIUS/EDIUS7_Color/colored/pasyans_v3/%D0%BE%D0%B1%D1%89%D0%B8%D0%B9%20%D0%BF%D0%BB%D0%B0%D0%BD%206_15_7E3F422377924C579533_V1-0173.mov</pathurl>
                            <timecode>
                                <string>00:39:53:22</string>
                                <displayformat>NDF</displayformat>
                                <rate>
                                    <timebase>25</timebase>
                                    <ntsc>false</ntsc>
                                </rate>
                            </timecode>
                            <media>
                                <video>
                                    <duration>190</duration>
                                    <samplecharacteristics>
                                        <width>1920</width>
                                        <height>1080</height>
                                    </samplecharacteristics>
                                </video>
                            </media>
                        </file>
                        <compositemode>normal</compositemode>
                        <filter>
                            <enabled>true</enabled>
                            <start>0</start>
                            <end>189</end>
                            <effect>
                                <name>Opacity</name>
                                <effectid>opacity</effectid>
                                <effecttype>motion</effecttype>
                                <mediatype>video</mediatype>
                                <effectcategory>motion</effectcategory>
                                <parameter>
                                    <name>opacity</name>
                                    <parameterid>opacity</parameterid>
                                    <value>100</value>
                                    <valuemin>0</valuemin>
                                    <valuemax>100</valuemax>
                                </parameter>
                            </effect>
                        </filter>
                    </clipitem>
                    <clipitem id="972_0437_03_16_7B737A721570429983EC.mov 0">
                        <name>972_0437_03_16_7B737A721570429983EC.mov</name>
                        <duration>162</duration>
                        <rate>
                            <timebase>25</timebase>
                            <ntsc>false</ntsc>
                        </rate>
                        <start>60037</start>
                        <end>60200</end>
                        <enabled>true</enabled>
                        <in>0</in>
                        <out>163</out>
                        <file id="972_0437_03_16_7B737A721570429983EC.mov 2">
                            <duration>163</duration>
                            <rate>
                                <timebase>25</timebase>
                                <ntsc>false</ntsc>
                            </rate>
                            <name>972_0437_03_16_7B737A721570429983EC.mov</name>
                            <pathurl>file:///Capture1/EDIUS/EDIUS7_Color/colored/pasyans_v3/972_0437_03_16_7B737A721570429983EC_V1-0174.mov</pathurl>
                            <timecode>
                                <string>00:40:01:12</string>
                                <displayformat>NDF</displayformat>
                                <rate>
                                    <timebase>25</timebase>
                                    <ntsc>false</ntsc>
                                </rate>
                            </timecode>
                            <media>
                                <video>
                                    <duration>163</duration>
                                    <samplecharacteristics>
                                        <width>1920</width>
                                        <height>1080</height>
                                    </samplecharacteristics>
                                </video>
                            </media>
                        </file>
                        <compositemode>normal</compositemode>
                        <filter>
                            <enabled>true</enabled>
                            <start>0</start>
                            <end>162</end>
                            <effect>
                                <name>Opacity</name>
                                <effectid>opacity</effectid>
                                <effecttype>motion</effecttype>
                                <mediatype>video</mediatype>
                                <effectcategory>motion</effectcategory>
                                <parameter>
                                    <name>opacity</name>
                                    <parameterid>opacity</parameterid>
                                    <value>100</value>
                                    <valuemin>0</valuemin>
                                    <valuemax>100</valuemax>
                                </parameter>
                            </effect>
                        </filter>
                    </clipitem>
                    <clipitem id="GP018363_4_F8AB4AE3C32A4FB7B5F2.mov 0">
                        <name>GP018363_4_F8AB4AE3C32A4FB7B5F2.mov</name>
                        <duration>186</duration>
                        <rate>
                            <timebase>25</timebase>
                            <ntsc>false</ntsc>
                        </rate>
                        <start>60200</start>
                        <end>60386</end>
                        <enabled>true</enabled>
                        <in>0</in>
                        <out>186</out>
                        <file id="GP018363_4_F8AB4AE3C32A4FB7B5F2.mov 2">
                            <duration>186</duration>
                            <rate>
                                <timebase>25</timebase>
                                <ntsc>false</ntsc>
                            </rate>
                            <name>GP018363_4_F8AB4AE3C32A4FB7B5F2.mov</name>
                            <pathurl>file:///Capture1/EDIUS/EDIUS7_Color/colored/pasyans_v3/GP018363_4_F8AB4AE3C32A4FB7B5F2_V1-0175.mov</pathurl>
                            <timecode>
                                <string>00:40:08:00</string>
                                <displayformat>NDF</displayformat>
                                <rate>
                                    <timebase>25</timebase>
                                    <ntsc>false</ntsc>
                                </rate>
                            </timecode>
                            <media>
                                <video>
                                    <duration>186</duration>
                                    <samplecharacteristics>
                                        <width>1920</width>
                                        <height>1080</height>
                                    </samplecharacteristics>
                                </video>
                            </media>
                        </file>
                        <compositemode>normal</compositemode>
                        <filter>
                            <enabled>true</enabled>
                            <start>0</start>
                            <end>186</end>
                            <effect>
                                <name>Opacity</name>
                                <effectid>opacity</effectid>
                                <effecttype>motion</effecttype>
                                <mediatype>video</mediatype>
                                <effectcategory>motion</effectcategory>
                                <parameter>
                                    <name>opacity</name>
                                    <parameterid>opacity</parameterid>
                                    <value>100</value>
                                    <valuemin>0</valuemin>
                                    <valuemax>100</valuemax>
                                </parameter>
                            </effect>
                        </filter>
                    </clipitem>
                    <clipitem id="КАССЕТНАЯ КАМЕРА 1_42_61DFEC1C5F7C485EA40E.mov 0">
                        <name>КАССЕТНАЯ КАМЕРА 1_42_61DFEC1C5F7C485EA40E.mov</name>
                        <duration>123</duration>
                        <rate>
                            <timebase>25</timebase>
                            <ntsc>false</ntsc>
                        </rate>
                        <start>60386</start>
                        <end>60509</end>
                        <enabled>true</enabled>
                        <in>0</in>
                        <out>123</out>
                        <file id="КАССЕТНАЯ КАМЕРА 1_42_61DFEC1C5F7C485EA40E.mov 2">
                            <duration>123</duration>
                            <rate>
                                <timebase>25</timebase>
                                <ntsc>false</ntsc>
                            </rate>
                            <name>КАССЕТНАЯ КАМЕРА 1_42_61DFEC1C5F7C485EA40E.mov</name>
                            <pathurl>file:///Capture1/EDIUS/EDIUS7_Color/colored/pasyans_v3/%D0%9A%D0%90%D0%A1%D0%A1%D0%95%D0%A2%D0%9D%D0%90%D0%AF%20%D0%9A%D0%90%D0%9C%D0%95%D0%A0%D0%90%201_42_61DFEC1C5F7C485EA40E_V1-0176.mov</pathurl>
                            <timecode>
                                <string>00:40:15:11</string>
                                <displayformat>NDF</displayformat>
                                <rate>
                                    <timebase>25</timebase>
                                    <ntsc>false</ntsc>
                                </rate>
                            </timecode>
                            <media>
                                <video>
                                    <duration>123</duration>
                                    <samplecharacteristics>
                                        <width>1920</width>
                                        <height>1080</height>
                                    </samplecharacteristics>
                                </video>
                            </media>
                        </file>
                        <compositemode>normal</compositemode>
                        <filter>
                            <enabled>true</enabled>
                            <start>0</start>
                            <end>123</end>
                            <effect>
                                <name>Opacity</name>
                                <effectid>opacity</effectid>
                                <effecttype>motion</effecttype>
                                <mediatype>video</mediatype>
                                <effectcategory>motion</effectcategory>
                                <parameter>
                                    <name>opacity</name>
                                    <parameterid>opacity</parameterid>
                                    <value>100</value>
                                    <valuemin>0</valuemin>
                                    <valuemax>100</valuemax>
                                </parameter>
                            </effect>
                        </filter>
                    </clipitem>
                    <clipitem id="общий план 7_1_3F70C4A6B8914E09B47C.mov 0">
                        <name>общий план 7_1_3F70C4A6B8914E09B47C.mov</name>
                        <duration>163</duration>
                        <rate>
                            <timebase>25</timebase>
                            <ntsc>false</ntsc>
                        </rate>
                        <start>60509</start>
                        <end>60673</end>
                        <enabled>true</enabled>
                        <in>0</in>
                        <out>164</out>
                        <file id="общий план 7_1_3F70C4A6B8914E09B47C.mov 2">
                            <duration>164</duration>
                            <rate>
                                <timebase>25</timebase>
                                <ntsc>false</ntsc>
                            </rate>
                            <name>общий план 7_1_3F70C4A6B8914E09B47C.mov</name>
                            <pathurl>file:///Capture1/EDIUS/EDIUS7_Color/colored/pasyans_v3/%D0%BE%D0%B1%D1%89%D0%B8%D0%B9%20%D0%BF%D0%BB%D0%B0%D0%BD%207_1_3F70C4A6B8914E09B47C_V1-0177.mov</pathurl>
                            <timecode>
                                <string>00:40:20:09</string>
                                <displayformat>NDF</displayformat>
                                <rate>
                                    <timebase>25</timebase>
                                    <ntsc>false</ntsc>
                                </rate>
                            </timecode>
                            <media>
                                <video>
                                    <duration>164</duration>
                                    <samplecharacteristics>
                                        <width>1920</width>
                                        <height>1080</height>
                                    </samplecharacteristics>
                                </video>
                            </media>
                        </file>
                        <compositemode>normal</compositemode>
                        <filter>
                            <enabled>true</enabled>
                            <start>0</start>
                            <end>163</end>
                            <effect>
                                <name>Opacity</name>
                                <effectid>opacity</effectid>
                                <effecttype>motion</effecttype>
                                <mediatype>video</mediatype>
                                <effectcategory>motion</effectcategory>
                                <parameter>
                                    <name>opacity</name>
                                    <parameterid>opacity</parameterid>
                                    <value>100</value>
                                    <valuemin>0</valuemin>
                                    <valuemax>100</valuemax>
                                </parameter>
                            </effect>
                        </filter>
                    </clipitem>
                    <clipitem id="246_0922_04_1_10B6E409562C400682A5.mov 0">
                        <name>246_0922_04_1_10B6E409562C400682A5.mov</name>
                        <duration>114</duration>
                        <rate>
                            <timebase>25</timebase>
                            <ntsc>false</ntsc>
                        </rate>
                        <start>61425</start>
                        <end>61540</end>
                        <enabled>true</enabled>
                        <in>0</in>
                        <out>115</out>
                        <file id="246_0922_04_1_10B6E409562C400682A5.mov 2">
                            <duration>115</duration>
                            <rate>
                                <timebase>25</timebase>
                                <ntsc>false</ntsc>
                            </rate>
                            <name>246_0922_04_1_10B6E409562C400682A5.mov</name>
                            <pathurl>file:///Capture1/EDIUS/EDIUS7_Color/colored/pasyans_v3/246_0922_04_1_10B6E409562C400682A5_V1-0178.mov</pathurl>
                            <timecode>
                                <string>00:40:57:00</string>
                                <displayformat>NDF</displayformat>
                                <rate>
                                    <timebase>25</timebase>
                                    <ntsc>false</ntsc>
                                </rate>
                            </timecode>
                            <media>
                                <video>
                                    <duration>115</duration>
                                    <samplecharacteristics>
                                        <width>1920</width>
                                        <height>1080</height>
                                    </samplecharacteristics>
                                </video>
                            </media>
                        </file>
                        <compositemode>normal</compositemode>
                        <filter>
                            <enabled>true</enabled>
                            <start>0</start>
                            <end>114</end>
                            <effect>
                                <name>Opacity</name>
                                <effectid>opacity</effectid>
                                <effecttype>motion</effecttype>
                                <mediatype>video</mediatype>
                                <effectcategory>motion</effectcategory>
                                <parameter>
                                    <name>opacity</name>
                                    <parameterid>opacity</parameterid>
                                    <value>100</value>
                                    <valuemin>0</valuemin>
                                    <valuemax>100</valuemax>
                                </parameter>
                            </effect>
                        </filter>
                    </clipitem>
                    <clipitem id="972_0437_04_1_4911ED3F03DF40DF8ECA.mov 0">
                        <name>972_0437_04_1_4911ED3F03DF40DF8ECA.mov</name>
                        <duration>125</duration>
                        <rate>
                            <timebase>25</timebase>
                            <ntsc>false</ntsc>
                        </rate>
                        <start>61540</start>
                        <end>61666</end>
                        <enabled>true</enabled>
                        <in>0</in>
                        <out>126</out>
                        <file id="972_0437_04_1_4911ED3F03DF40DF8ECA.mov 2">
                            <duration>126</duration>
                            <rate>
                                <timebase>25</timebase>
                                <ntsc>false</ntsc>
                            </rate>
                            <name>972_0437_04_1_4911ED3F03DF40DF8ECA.mov</name>
                            <pathurl>file:///Capture1/EDIUS/EDIUS7_Color/colored/pasyans_v3/972_0437_04_1_4911ED3F03DF40DF8ECA_V1-0179.mov</pathurl>
                            <timecode>
                                <string>00:41:01:15</string>
                                <displayformat>NDF</displayformat>
                                <rate>
                                    <timebase>25</timebase>
                                    <ntsc>false</ntsc>
                                </rate>
                            </timecode>
                            <media>
                                <video>
                                    <duration>126</duration>
                                    <samplecharacteristics>
                                        <width>1920</width>
                                        <height>1080</height>
                                    </samplecharacteristics>
                                </video>
                            </media>
                        </file>
                        <compositemode>normal</compositemode>
                        <filter>
                            <enabled>true</enabled>
                            <start>0</start>
                            <end>125</end>
                            <effect>
                                <name>Opacity</name>
                                <effectid>opacity</effectid>
                                <effecttype>motion</effecttype>
                                <mediatype>video</mediatype>
                                <effectcategory>motion</effectcategory>
                                <parameter>
                                    <name>opacity</name>
                                    <parameterid>opacity</parameterid>
                                    <value>100</value>
                                    <valuemin>0</valuemin>
                                    <valuemax>100</valuemax>
                                </parameter>
                            </effect>
                        </filter>
                    </clipitem>
                    <clipitem id="общий план 7_2_950EBBA5A0C74DF98DC0.mov 0">
                        <name>общий план 7_2_950EBBA5A0C74DF98DC0.mov</name>
                        <duration>209</duration>
                        <rate>
                            <timebase>25</timebase>
                            <ntsc>false</ntsc>
                        </rate>
                        <start>61666</start>
                        <end>61875</end>
                        <enabled>true</enabled>
                        <in>0</in>
                        <out>209</out>
                        <file id="общий план 7_2_950EBBA5A0C74DF98DC0.mov 2">
                            <duration>209</duration>
                            <rate>
                                <timebase>25</timebase>
                                <ntsc>false</ntsc>
                            </rate>
                            <name>общий план 7_2_950EBBA5A0C74DF98DC0.mov</name>
                            <pathurl>file:///Capture1/EDIUS/EDIUS7_Color/colored/pasyans_v3/%D0%BE%D0%B1%D1%89%D0%B8%D0%B9%20%D0%BF%D0%BB%D0%B0%D0%BD%207_2_950EBBA5A0C74DF98DC0_V1-0180.mov</pathurl>
                            <timecode>
                                <string>00:41:06:16</string>
                                <displayformat>NDF</displayformat>
                                <rate>
                                    <timebase>25</timebase>
                                    <ntsc>false</ntsc>
                                </rate>
                            </timecode>
                            <media>
                                <video>
                                    <duration>209</duration>
                                    <samplecharacteristics>
                                        <width>1920</width>
                                        <height>1080</height>
                                    </samplecharacteristics>
                                </video>
                            </media>
                        </file>
                        <compositemode>normal</compositemode>
                        <filter>
                            <enabled>true</enabled>
                            <start>0</start>
                            <end>209</end>
                            <effect>
                                <name>Opacity</name>
                                <effectid>opacity</effectid>
                                <effecttype>motion</effecttype>
                                <mediatype>video</mediatype>
                                <effectcategory>motion</effectcategory>
                                <parameter>
                                    <name>opacity</name>
                                    <parameterid>opacity</parameterid>
                                    <value>100</value>
                                    <valuemin>0</valuemin>
                                    <valuemax>100</valuemax>
                                </parameter>
                            </effect>
                        </filter>
                    </clipitem>
                    <clipitem id="КАССЕТНАЯ КАМЕРА 1_43_B3439F37180E41F98B6E.mov 0">
                        <name>КАССЕТНАЯ КАМЕРА 1_43_B3439F37180E41F98B6E.mov</name>
                        <duration>80</duration>
                        <rate>
                            <timebase>25</timebase>
                            <ntsc>false</ntsc>
                        </rate>
                        <start>61875</start>
                        <end>61956</end>
                        <enabled>true</enabled>
                        <in>0</in>
                        <out>81</out>
                        <file id="КАССЕТНАЯ КАМЕРА 1_43_B3439F37180E41F98B6E.mov 2">
                            <duration>81</duration>
                            <rate>
                                <timebase>25</timebase>
                                <ntsc>false</ntsc>
                            </rate>
                            <name>КАССЕТНАЯ КАМЕРА 1_43_B3439F37180E41F98B6E.mov</name>
                            <pathurl>file:///Capture1/EDIUS/EDIUS7_Color/colored/pasyans_v3/%D0%9A%D0%90%D0%A1%D0%A1%D0%95%D0%A2%D0%9D%D0%90%D0%AF%20%D0%9A%D0%90%D0%9C%D0%95%D0%A0%D0%90%201_43_B3439F37180E41F98B6E_V1-0181.mov</pathurl>
                            <timecode>
                                <string>00:41:15:00</string>
                                <displayformat>NDF</displayformat>
                                <rate>
                                    <timebase>25</timebase>
                                    <ntsc>false</ntsc>
                                </rate>
                            </timecode>
                            <media>
                                <video>
                                    <duration>81</duration>
                                    <samplecharacteristics>
                                        <width>1920</width>
                                        <height>1080</height>
                                    </samplecharacteristics>
                                </video>
                            </media>
                        </file>
                        <compositemode>normal</compositemode>
                        <filter>
                            <enabled>true</enabled>
                            <start>0</start>
                            <end>80</end>
                            <effect>
                                <name>Opacity</name>
                                <effectid>opacity</effectid>
                                <effecttype>motion</effecttype>
                                <mediatype>video</mediatype>
                                <effectcategory>motion</effectcategory>
                                <parameter>
                                    <name>opacity</name>
                                    <parameterid>opacity</parameterid>
                                    <value>100</value>
                                    <valuemin>0</valuemin>
                                    <valuemax>100</valuemax>
                                </parameter>
                            </effect>
                        </filter>
                    </clipitem>
                    <clipitem id="972_0437_04_2_AA3DDEFA99C4416FA5F1.mov 0">
                        <name>972_0437_04_2_AA3DDEFA99C4416FA5F1.mov</name>
                        <duration>40</duration>
                        <rate>
                            <timebase>25</timebase>
                            <ntsc>false</ntsc>
                        </rate>
                        <start>61956</start>
                        <end>61997</end>
                        <enabled>true</enabled>
                        <in>0</in>
                        <out>41</out>
                        <file id="972_0437_04_2_AA3DDEFA99C4416FA5F1.mov 2">
                            <duration>41</duration>
                            <rate>
                                <timebase>25</timebase>
                                <ntsc>false</ntsc>
                            </rate>
                            <name>972_0437_04_2_AA3DDEFA99C4416FA5F1.mov</name>
                            <pathurl>file:///Capture1/EDIUS/EDIUS7_Color/colored/pasyans_v3/972_0437_04_2_AA3DDEFA99C4416FA5F1_V1-0182.mov</pathurl>
                            <timecode>
                                <string>00:41:18:06</string>
                                <displayformat>NDF</displayformat>
                                <rate>
                                    <timebase>25</timebase>
                                    <ntsc>false</ntsc>
                                </rate>
                            </timecode>
                            <media>
                                <video>
                                    <duration>41</duration>
                                    <samplecharacteristics>
                                        <width>1920</width>
                                        <height>1080</height>
                                    </samplecharacteristics>
                                </video>
                            </media>
                        </file>
                        <compositemode>normal</compositemode>
                        <filter>
                            <enabled>true</enabled>
                            <start>0</start>
                            <end>40</end>
                            <effect>
                                <name>Opacity</name>
                                <effectid>opacity</effectid>
                                <effecttype>motion</effecttype>
                                <mediatype>video</mediatype>
                                <effectcategory>motion</effectcategory>
                                <parameter>
                                    <name>opacity</name>
                                    <parameterid>opacity</parameterid>
                                    <value>100</value>
                                    <valuemin>0</valuemin>
                                    <valuemax>100</valuemax>
                                </parameter>
                            </effect>
                        </filter>
                    </clipitem>
                    <clipitem id="общий план 7_3_CA3CE631ACD04CEC9369.mov 0">
                        <name>общий план 7_3_CA3CE631ACD04CEC9369.mov</name>
                        <duration>88</duration>
                        <rate>
                            <timebase>25</timebase>
                            <ntsc>false</ntsc>
                        </rate>
                        <start>61997</start>
                        <end>62086</end>
                        <enabled>true</enabled>
                        <in>0</in>
                        <out>89</out>
                        <file id="общий план 7_3_CA3CE631ACD04CEC9369.mov 2">
                            <duration>89</duration>
                            <rate>
                                <timebase>25</timebase>
                                <ntsc>false</ntsc>
                            </rate>
                            <name>общий план 7_3_CA3CE631ACD04CEC9369.mov</name>
                            <pathurl>file:///Capture1/EDIUS/EDIUS7_Color/colored/pasyans_v3/%D0%BE%D0%B1%D1%89%D0%B8%D0%B9%20%D0%BF%D0%BB%D0%B0%D0%BD%207_3_CA3CE631ACD04CEC9369_V1-0183.mov</pathurl>
                            <timecode>
                                <string>00:41:19:22</string>
                                <displayformat>NDF</displayformat>
                                <rate>
                                    <timebase>25</timebase>
                                    <ntsc>false</ntsc>
                                </rate>
                            </timecode>
                            <media>
                                <video>
                                    <duration>89</duration>
                                    <samplecharacteristics>
                                        <width>1920</width>
                                        <height>1080</height>
                                    </samplecharacteristics>
                                </video>
                            </media>
                        </file>
                        <compositemode>normal</compositemode>
                        <filter>
                            <enabled>true</enabled>
                            <start>0</start>
                            <end>88</end>
                            <effect>
                                <name>Opacity</name>
                                <effectid>opacity</effectid>
                                <effecttype>motion</effecttype>
                                <mediatype>video</mediatype>
                                <effectcategory>motion</effectcategory>
                                <parameter>
                                    <name>opacity</name>
                                    <parameterid>opacity</parameterid>
                                    <value>100</value>
                                    <valuemin>0</valuemin>
                                    <valuemax>100</valuemax>
                                </parameter>
                            </effect>
                        </filter>
                    </clipitem>
                    <clipitem id="246_0922_04_2_62C39501EC9F46529005.mov 0">
                        <name>246_0922_04_2_62C39501EC9F46529005.mov</name>
                        <duration>152</duration>
                        <rate>
                            <timebase>25</timebase>
                            <ntsc>false</ntsc>
                        </rate>
                        <start>62086</start>
                        <end>62239</end>
                        <enabled>true</enabled>
                        <in>0</in>
                        <out>153</out>
                        <file id="246_0922_04_2_62C39501EC9F46529005.mov 2">
                            <duration>153</duration>
                            <rate>
                                <timebase>25</timebase>
                                <ntsc>false</ntsc>
                            </rate>
                            <name>246_0922_04_2_62C39501EC9F46529005.mov</name>
                            <pathurl>file:///Capture1/EDIUS/EDIUS7_Color/colored/pasyans_v3/246_0922_04_2_62C39501EC9F46529005_V1-0184.mov</pathurl>
                            <timecode>
                                <string>00:41:23:11</string>
                                <displayformat>NDF</displayformat>
                                <rate>
                                    <timebase>25</timebase>
                                    <ntsc>false</ntsc>
                                </rate>
                            </timecode>
                            <media>
                                <video>
                                    <duration>153</duration>
                                    <samplecharacteristics>
                                        <width>1920</width>
                                        <height>1080</height>
                                    </samplecharacteristics>
                                </video>
                            </media>
                        </file>
                        <compositemode>normal</compositemode>
                        <filter>
                            <enabled>true</enabled>
                            <start>0</start>
                            <end>152</end>
                            <effect>
                                <name>Opacity</name>
                                <effectid>opacity</effectid>
                                <effecttype>motion</effecttype>
                                <mediatype>video</mediatype>
                                <effectcategory>motion</effectcategory>
                                <parameter>
                                    <name>opacity</name>
                                    <parameterid>opacity</parameterid>
                                    <value>100</value>
                                    <valuemin>0</valuemin>
                                    <valuemax>100</valuemax>
                                </parameter>
                            </effect>
                        </filter>
                    </clipitem>
                    <clipitem id="GP018363_5_54B71F333F8F423AA7E3.mov 0">
                        <name>GP018363_5_54B71F333F8F423AA7E3.mov</name>
                        <duration>89</duration>
                        <rate>
                            <timebase>25</timebase>
                            <ntsc>false</ntsc>
                        </rate>
                        <start>62239</start>
                        <end>62329</end>
                        <enabled>true</enabled>
                        <in>0</in>
                        <out>90</out>
                        <file id="GP018363_5_54B71F333F8F423AA7E3.mov 2">
                            <duration>90</duration>
                            <rate>
                                <timebase>25</timebase>
                                <ntsc>false</ntsc>
                            </rate>
                            <name>GP018363_5_54B71F333F8F423AA7E3.mov</name>
                            <pathurl>file:///Capture1/EDIUS/EDIUS7_Color/colored/pasyans_v3/GP018363_5_54B71F333F8F423AA7E3_V1-0185.mov</pathurl>
                            <timecode>
                                <string>00:41:29:14</string>
                                <displayformat>NDF</displayformat>
                                <rate>
                                    <timebase>25</timebase>
                                    <ntsc>false</ntsc>
                                </rate>
                            </timecode>
                            <media>
                                <video>
                                    <duration>90</duration>
                                    <samplecharacteristics>
                                        <width>1920</width>
                                        <height>1080</height>
                                    </samplecharacteristics>
                                </video>
                            </media>
                        </file>
                        <compositemode>normal</compositemode>
                        <filter>
                            <enabled>true</enabled>
                            <start>0</start>
                            <end>89</end>
                            <effect>
                                <name>Opacity</name>
                                <effectid>opacity</effectid>
                                <effecttype>motion</effecttype>
                                <mediatype>video</mediatype>
                                <effectcategory>motion</effectcategory>
                                <parameter>
                                    <name>opacity</name>
                                    <parameterid>opacity</parameterid>
                                    <value>100</value>
                                    <valuemin>0</valuemin>
                                    <valuemax>100</valuemax>
                                </parameter>
                            </effect>
                        </filter>
                    </clipitem>
                    <clipitem id="КАССЕТНАЯ КАМЕРА 1_44_0603878D2D9741C68D98.mov 0">
                        <name>КАССЕТНАЯ КАМЕРА 1_44_0603878D2D9741C68D98.mov</name>
                        <duration>87</duration>
                        <rate>
                            <timebase>25</timebase>
                            <ntsc>false</ntsc>
                        </rate>
                        <start>62329</start>
                        <end>62417</end>
                        <enabled>true</enabled>
                        <in>0</in>
                        <out>88</out>
                        <file id="КАССЕТНАЯ КАМЕРА 1_44_0603878D2D9741C68D98.mov 2">
                            <duration>88</duration>
                            <rate>
                                <timebase>25</timebase>
                                <ntsc>false</ntsc>
                            </rate>
                            <name>КАССЕТНАЯ КАМЕРА 1_44_0603878D2D9741C68D98.mov</name>
                            <pathurl>file:///Capture1/EDIUS/EDIUS7_Color/colored/pasyans_v3/%D0%9A%D0%90%D0%A1%D0%A1%D0%95%D0%A2%D0%9D%D0%90%D0%AF%20%D0%9A%D0%90%D0%9C%D0%95%D0%A0%D0%90%201_44_0603878D2D9741C68D98_V1-0186.mov</pathurl>
                            <timecode>
                                <string>00:41:33:04</string>
                                <displayformat>NDF</displayformat>
                                <rate>
                                    <timebase>25</timebase>
                                    <ntsc>false</ntsc>
                                </rate>
                            </timecode>
                            <media>
                                <video>
                                    <duration>88</duration>
                                    <samplecharacteristics>
                                        <width>1920</width>
                                        <height>1080</height>
                                    </samplecharacteristics>
                                </video>
                            </media>
                        </file>
                        <compositemode>normal</compositemode>
                        <filter>
                            <enabled>true</enabled>
                            <start>0</start>
                            <end>87</end>
                            <effect>
                                <name>Opacity</name>
                                <effectid>opacity</effectid>
                                <effecttype>motion</effecttype>
                                <mediatype>video</mediatype>
                                <effectcategory>motion</effectcategory>
                                <parameter>
                                    <name>opacity</name>
                                    <parameterid>opacity</parameterid>
                                    <value>100</value>
                                    <valuemin>0</valuemin>
                                    <valuemax>100</valuemax>
                                </parameter>
                            </effect>
                        </filter>
                    </clipitem>
                    <clipitem id="общий план 7_4_FD6A3FEAFE8C4A26A0BF.mov 0">
                        <name>общий план 7_4_FD6A3FEAFE8C4A26A0BF.mov</name>
                        <duration>188</duration>
                        <rate>
                            <timebase>25</timebase>
                            <ntsc>false</ntsc>
                        </rate>
                        <start>62417</start>
                        <end>62606</end>
                        <enabled>true</enabled>
                        <in>0</in>
                        <out>189</out>
                        <file id="общий план 7_4_FD6A3FEAFE8C4A26A0BF.mov 2">
                            <duration>189</duration>
                            <rate>
                                <timebase>25</timebase>
                                <ntsc>false</ntsc>
                            </rate>
                            <name>общий план 7_4_FD6A3FEAFE8C4A26A0BF.mov</name>
                            <pathurl>file:///Capture1/EDIUS/EDIUS7_Color/colored/pasyans_v3/%D0%BE%D0%B1%D1%89%D0%B8%D0%B9%20%D0%BF%D0%BB%D0%B0%D0%BD%207_4_FD6A3FEAFE8C4A26A0BF_V1-0187.mov</pathurl>
                            <timecode>
                                <string>00:41:36:17</string>
                                <displayformat>NDF</displayformat>
                                <rate>
                                    <timebase>25</timebase>
                                    <ntsc>false</ntsc>
                                </rate>
                            </timecode>
                            <media>
                                <video>
                                    <duration>189</duration>
                                    <samplecharacteristics>
                                        <width>1920</width>
                                        <height>1080</height>
                                    </samplecharacteristics>
                                </video>
                            </media>
                        </file>
                        <compositemode>normal</compositemode>
                        <filter>
                            <enabled>true</enabled>
                            <start>0</start>
                            <end>188</end>
                            <effect>
                                <name>Opacity</name>
                                <effectid>opacity</effectid>
                                <effecttype>motion</effecttype>
                                <mediatype>video</mediatype>
                                <effectcategory>motion</effectcategory>
                                <parameter>
                                    <name>opacity</name>
                                    <parameterid>opacity</parameterid>
                                    <value>100</value>
                                    <valuemin>0</valuemin>
                                    <valuemax>100</valuemax>
                                </parameter>
                            </effect>
                        </filter>
                    </clipitem>
                    <clipitem id="972_0437_04_3_1B75958B12E44AEDA454.mov 0">
                        <name>972_0437_04_3_1B75958B12E44AEDA454.mov</name>
                        <duration>100</duration>
                        <rate>
                            <timebase>25</timebase>
                            <ntsc>false</ntsc>
                        </rate>
                        <start>62606</start>
                        <end>62707</end>
                        <enabled>true</enabled>
                        <in>0</in>
                        <out>101</out>
                        <file id="972_0437_04_3_1B75958B12E44AEDA454.mov 2">
                            <duration>101</duration>
                            <rate>
                                <timebase>25</timebase>
                                <ntsc>false</ntsc>
                            </rate>
                            <name>972_0437_04_3_1B75958B12E44AEDA454.mov</name>
                            <pathurl>file:///Capture1/EDIUS/EDIUS7_Color/colored/pasyans_v3/972_0437_04_3_1B75958B12E44AEDA454_V1-0188.mov</pathurl>
                            <timecode>
                                <string>00:41:44:06</string>
                                <displayformat>NDF</displayformat>
                                <rate>
                                    <timebase>25</timebase>
                                    <ntsc>false</ntsc>
                                </rate>
                            </timecode>
                            <media>
                                <video>
                                    <duration>101</duration>
                                    <samplecharacteristics>
                                        <width>1920</width>
                                        <height>1080</height>
                                    </samplecharacteristics>
                                </video>
                            </media>
                        </file>
                        <compositemode>normal</compositemode>
                        <filter>
                            <enabled>true</enabled>
                            <start>0</start>
                            <end>100</end>
                            <effect>
                                <name>Opacity</name>
                                <effectid>opacity</effectid>
                                <effecttype>motion</effecttype>
                                <mediatype>video</mediatype>
                                <effectcategory>motion</effectcategory>
                                <parameter>
                                    <name>opacity</name>
                                    <parameterid>opacity</parameterid>
                                    <value>100</value>
                                    <valuemin>0</valuemin>
                                    <valuemax>100</valuemax>
                                </parameter>
                            </effect>
                        </filter>
                    </clipitem>
                    <clipitem id="общий план 7_5_EA3C8369C8444FBF9B4C.mov 0">
                        <name>общий план 7_5_EA3C8369C8444FBF9B4C.mov</name>
                        <duration>233</duration>
                        <rate>
                            <timebase>25</timebase>
                            <ntsc>false</ntsc>
                        </rate>
                        <start>62707</start>
                        <end>62940</end>
                        <enabled>true</enabled>
                        <in>0</in>
                        <out>233</out>
                        <file id="общий план 7_5_EA3C8369C8444FBF9B4C.mov 2">
                            <duration>233</duration>
                            <rate>
                                <timebase>25</timebase>
                                <ntsc>false</ntsc>
                            </rate>
                            <name>общий план 7_5_EA3C8369C8444FBF9B4C.mov</name>
                            <pathurl>file:///Capture1/EDIUS/EDIUS7_Color/colored/pasyans_v3/%D0%BE%D0%B1%D1%89%D0%B8%D0%B9%20%D0%BF%D0%BB%D0%B0%D0%BD%207_5_EA3C8369C8444FBF9B4C_V1-0189.mov</pathurl>
                            <timecode>
                                <string>00:41:48:07</string>
                                <displayformat>NDF</displayformat>
                                <rate>
                                    <timebase>25</timebase>
                                    <ntsc>false</ntsc>
                                </rate>
                            </timecode>
                            <media>
                                <video>
                                    <duration>233</duration>
                                    <samplecharacteristics>
                                        <width>1920</width>
                                        <height>1080</height>
                                    </samplecharacteristics>
                                </video>
                            </media>
                        </file>
                        <compositemode>normal</compositemode>
                        <filter>
                            <enabled>true</enabled>
                            <start>0</start>
                            <end>233</end>
                            <effect>
                                <name>Opacity</name>
                                <effectid>opacity</effectid>
                                <effecttype>motion</effecttype>
                                <mediatype>video</mediatype>
                                <effectcategory>motion</effectcategory>
                                <parameter>
                                    <name>opacity</name>
                                    <parameterid>opacity</parameterid>
                                    <value>100</value>
                                    <valuemin>0</valuemin>
                                    <valuemax>100</valuemax>
                                </parameter>
                            </effect>
                        </filter>
                    </clipitem>
                    <clipitem id="972_0437_04_4_DF8E10AFCF3442F3AB21.mov 0">
                        <name>972_0437_04_4_DF8E10AFCF3442F3AB21.mov</name>
                        <duration>82</duration>
                        <rate>
                            <timebase>25</timebase>
                            <ntsc>false</ntsc>
                        </rate>
                        <start>62940</start>
                        <end>63022</end>
                        <enabled>true</enabled>
                        <in>0</in>
                        <out>82</out>
                        <file id="972_0437_04_4_DF8E10AFCF3442F3AB21.mov 2">
                            <duration>82</duration>
                            <rate>
                                <timebase>25</timebase>
                                <ntsc>false</ntsc>
                            </rate>
                            <name>972_0437_04_4_DF8E10AFCF3442F3AB21.mov</name>
                            <pathurl>file:///Capture1/EDIUS/EDIUS7_Color/colored/pasyans_v3/972_0437_04_4_DF8E10AFCF3442F3AB21_V1-0190.mov</pathurl>
                            <timecode>
                                <string>00:41:57:15</string>
                                <displayformat>NDF</displayformat>
                                <rate>
                                    <timebase>25</timebase>
                                    <ntsc>false</ntsc>
                                </rate>
                            </timecode>
                            <media>
                                <video>
                                    <duration>82</duration>
                                    <samplecharacteristics>
                                        <width>1920</width>
                                        <height>1080</height>
                                    </samplecharacteristics>
                                </video>
                            </media>
                        </file>
                        <compositemode>normal</compositemode>
                        <filter>
                            <enabled>true</enabled>
                            <start>0</start>
                            <end>82</end>
                            <effect>
                                <name>Opacity</name>
                                <effectid>opacity</effectid>
                                <effecttype>motion</effecttype>
                                <mediatype>video</mediatype>
                                <effectcategory>motion</effectcategory>
                                <parameter>
                                    <name>opacity</name>
                                    <parameterid>opacity</parameterid>
                                    <value>100</value>
                                    <valuemin>0</valuemin>
                                    <valuemax>100</valuemax>
                                </parameter>
                            </effect>
                        </filter>
                    </clipitem>
                    <clipitem id="КАССЕТНАЯ КАМЕРА 1_45_CB81AA077B0F45DF904A.mov 0">
                        <name>КАССЕТНАЯ КАМЕРА 1_45_CB81AA077B0F45DF904A.mov</name>
                        <duration>66</duration>
                        <rate>
                            <timebase>25</timebase>
                            <ntsc>false</ntsc>
                        </rate>
                        <start>63022</start>
                        <end>63089</end>
                        <enabled>true</enabled>
                        <in>0</in>
                        <out>67</out>
                        <file id="КАССЕТНАЯ КАМЕРА 1_45_CB81AA077B0F45DF904A.mov 2">
                            <duration>67</duration>
                            <rate>
                                <timebase>25</timebase>
                                <ntsc>false</ntsc>
                            </rate>
                            <name>КАССЕТНАЯ КАМЕРА 1_45_CB81AA077B0F45DF904A.mov</name>
                            <pathurl>file:///Capture1/EDIUS/EDIUS7_Color/colored/pasyans_v3/%D0%9A%D0%90%D0%A1%D0%A1%D0%95%D0%A2%D0%9D%D0%90%D0%AF%20%D0%9A%D0%90%D0%9C%D0%95%D0%A0%D0%90%201_45_CB81AA077B0F45DF904A_V1-0191.mov</pathurl>
                            <timecode>
                                <string>00:42:00:22</string>
                                <displayformat>NDF</displayformat>
                                <rate>
                                    <timebase>25</timebase>
                                    <ntsc>false</ntsc>
                                </rate>
                            </timecode>
                            <media>
                                <video>
                                    <duration>67</duration>
                                    <samplecharacteristics>
                                        <width>1920</width>
                                        <height>1080</height>
                                    </samplecharacteristics>
                                </video>
                            </media>
                        </file>
                        <compositemode>normal</compositemode>
                        <filter>
                            <enabled>true</enabled>
                            <start>0</start>
                            <end>66</end>
                            <effect>
                                <name>Opacity</name>
                                <effectid>opacity</effectid>
                                <effecttype>motion</effecttype>
                                <mediatype>video</mediatype>
                                <effectcategory>motion</effectcategory>
                                <parameter>
                                    <name>opacity</name>
                                    <parameterid>opacity</parameterid>
                                    <value>100</value>
                                    <valuemin>0</valuemin>
                                    <valuemax>100</valuemax>
                                </parameter>
                            </effect>
                        </filter>
                    </clipitem>
                    <clipitem id="КАССЕТНАЯ КАМЕРА 1_46_0EA5B7A604C648DA82F8.mov 0">
                        <name>КАССЕТНАЯ КАМЕРА 1_46_0EA5B7A604C648DA82F8.mov</name>
                        <duration>150</duration>
                        <rate>
                            <timebase>25</timebase>
                            <ntsc>false</ntsc>
                        </rate>
                        <start>63089</start>
                        <end>63239</end>
                        <enabled>true</enabled>
                        <in>0</in>
                        <out>150</out>
                        <file id="КАССЕТНАЯ КАМЕРА 1_46_0EA5B7A604C648DA82F8.mov 2">
                            <duration>150</duration>
                            <rate>
                                <timebase>25</timebase>
                                <ntsc>false</ntsc>
                            </rate>
                            <name>КАССЕТНАЯ КАМЕРА 1_46_0EA5B7A604C648DA82F8.mov</name>
                            <pathurl>file:///Capture1/EDIUS/EDIUS7_Color/colored/pasyans_v3/%D0%9A%D0%90%D0%A1%D0%A1%D0%95%D0%A2%D0%9D%D0%90%D0%AF%20%D0%9A%D0%90%D0%9C%D0%95%D0%A0%D0%90%201_46_0EA5B7A604C648DA82F8_V1-0192.mov</pathurl>
                            <timecode>
                                <string>00:42:03:14</string>
                                <displayformat>NDF</displayformat>
                                <rate>
                                    <timebase>25</timebase>
                                    <ntsc>false</ntsc>
                                </rate>
                            </timecode>
                            <media>
                                <video>
                                    <duration>150</duration>
                                    <samplecharacteristics>
                                        <width>1920</width>
                                        <height>1080</height>
                                    </samplecharacteristics>
                                </video>
                            </media>
                        </file>
                        <compositemode>normal</compositemode>
                        <filter>
                            <enabled>true</enabled>
                            <start>0</start>
                            <end>150</end>
                            <effect>
                                <name>Opacity</name>
                                <effectid>opacity</effectid>
                                <effecttype>motion</effecttype>
                                <mediatype>video</mediatype>
                                <effectcategory>motion</effectcategory>
                                <parameter>
                                    <name>opacity</name>
                                    <parameterid>opacity</parameterid>
                                    <value>100</value>
                                    <valuemin>0</valuemin>
                                    <valuemax>100</valuemax>
                                </parameter>
                            </effect>
                        </filter>
                    </clipitem>
                    <clipitem id="246_0922_04_3_869EEC1FCAFB4B3EB203.mov 0">
                        <name>246_0922_04_3_869EEC1FCAFB4B3EB203.mov</name>
                        <duration>85</duration>
                        <rate>
                            <timebase>25</timebase>
                            <ntsc>false</ntsc>
                        </rate>
                        <start>63239</start>
                        <end>63324</end>
                        <enabled>true</enabled>
                        <in>0</in>
                        <out>85</out>
                        <file id="246_0922_04_3_869EEC1FCAFB4B3EB203.mov 2">
                            <duration>85</duration>
                            <rate>
                                <timebase>25</timebase>
                                <ntsc>false</ntsc>
                            </rate>
                            <name>246_0922_04_3_869EEC1FCAFB4B3EB203.mov</name>
                            <pathurl>file:///Capture1/EDIUS/EDIUS7_Color/colored/pasyans_v3/246_0922_04_3_869EEC1FCAFB4B3EB203_V1-0193.mov</pathurl>
                            <timecode>
                                <string>00:42:09:14</string>
                                <displayformat>NDF</displayformat>
                                <rate>
                                    <timebase>25</timebase>
                                    <ntsc>false</ntsc>
                                </rate>
                            </timecode>
                            <media>
                                <video>
                                    <duration>85</duration>
                                    <samplecharacteristics>
                                        <width>1920</width>
                                        <height>1080</height>
                                    </samplecharacteristics>
                                </video>
                            </media>
                        </file>
                        <compositemode>normal</compositemode>
                        <filter>
                            <enabled>true</enabled>
                            <start>0</start>
                            <end>85</end>
                            <effect>
                                <name>Opacity</name>
                                <effectid>opacity</effectid>
                                <effecttype>motion</effecttype>
                                <mediatype>video</mediatype>
                                <effectcategory>motion</effectcategory>
                                <parameter>
                                    <name>opacity</name>
                                    <parameterid>opacity</parameterid>
                                    <value>100</value>
                                    <valuemin>0</valuemin>
                                    <valuemax>100</valuemax>
                                </parameter>
                            </effect>
                        </filter>
                    </clipitem>
                    <clipitem id="GP018503_3_015E4C141CCF45FA8875.mov 0">
                        <name>GP018503_3_015E4C141CCF45FA8875.mov</name>
                        <duration>130</duration>
                        <rate>
                            <timebase>25</timebase>
                            <ntsc>false</ntsc>
                        </rate>
                        <start>63324</start>
                        <end>63455</end>
                        <enabled>true</enabled>
                        <in>0</in>
                        <out>131</out>
                        <file id="GP018503_3_015E4C141CCF45FA8875.mov 2">
                            <duration>131</duration>
                            <rate>
                                <timebase>25</timebase>
                                <ntsc>false</ntsc>
                            </rate>
                            <name>GP018503_3_015E4C141CCF45FA8875.mov</name>
                            <pathurl>file:///Capture1/EDIUS/EDIUS7_Color/colored/pasyans_v3/GP018503_3_015E4C141CCF45FA8875_V1-0194.mov</pathurl>
                            <timecode>
                                <string>00:42:12:24</string>
                                <displayformat>NDF</displayformat>
                                <rate>
                                    <timebase>25</timebase>
                                    <ntsc>false</ntsc>
                                </rate>
                            </timecode>
                            <media>
                                <video>
                                    <duration>131</duration>
                                    <samplecharacteristics>
                                        <width>1920</width>
                                        <height>1080</height>
                                    </samplecharacteristics>
                                </video>
                            </media>
                        </file>
                        <compositemode>normal</compositemode>
                        <filter>
                            <enabled>true</enabled>
                            <start>0</start>
                            <end>130</end>
                            <effect>
                                <name>Opacity</name>
                                <effectid>opacity</effectid>
                                <effecttype>motion</effecttype>
                                <mediatype>video</mediatype>
                                <effectcategory>motion</effectcategory>
                                <parameter>
                                    <name>opacity</name>
                                    <parameterid>opacity</parameterid>
                                    <value>100</value>
                                    <valuemin>0</valuemin>
                                    <valuemax>100</valuemax>
                                </parameter>
                            </effect>
                        </filter>
                    </clipitem>
                    <clipitem id="КАССЕТНАЯ КАМЕРА 1_47_92982F5585A241D89D6D.mov 0">
                        <name>КАССЕТНАЯ КАМЕРА 1_47_92982F5585A241D89D6D.mov</name>
                        <duration>171</duration>
                        <rate>
                            <timebase>25</timebase>
                            <ntsc>false</ntsc>
                        </rate>
                        <start>63542</start>
                        <end>63713</end>
                        <enabled>true</enabled>
                        <in>0</in>
                        <out>171</out>
                        <file id="КАССЕТНАЯ КАМЕРА 1_47_92982F5585A241D89D6D.mov 2">
                            <duration>171</duration>
                            <rate>
                                <timebase>25</timebase>
                                <ntsc>false</ntsc>
                            </rate>
                            <name>КАССЕТНАЯ КАМЕРА 1_47_92982F5585A241D89D6D.mov</name>
                            <pathurl>file:///Capture1/EDIUS/EDIUS7_Color/colored/pasyans_v3/%D0%9A%D0%90%D0%A1%D0%A1%D0%95%D0%A2%D0%9D%D0%90%D0%AF%20%D0%9A%D0%90%D0%9C%D0%95%D0%A0%D0%90%201_47_92982F5585A241D89D6D_V1-0195.mov</pathurl>
                            <timecode>
                                <string>00:42:21:17</string>
                                <displayformat>NDF</displayformat>
                                <rate>
                                    <timebase>25</timebase>
                                    <ntsc>false</ntsc>
                                </rate>
                            </timecode>
                            <media>
                                <video>
                                    <duration>171</duration>
                                    <samplecharacteristics>
                                        <width>1920</width>
                                        <height>1080</height>
                                    </samplecharacteristics>
                                </video>
                            </media>
                        </file>
                        <compositemode>normal</compositemode>
                        <filter>
                            <enabled>true</enabled>
                            <start>0</start>
                            <end>171</end>
                            <effect>
                                <name>Opacity</name>
                                <effectid>opacity</effectid>
                                <effecttype>motion</effecttype>
                                <mediatype>video</mediatype>
                                <effectcategory>motion</effectcategory>
                                <parameter>
                                    <name>opacity</name>
                                    <parameterid>opacity</parameterid>
                                    <value>100</value>
                                    <valuemin>0</valuemin>
                                    <valuemax>100</valuemax>
                                </parameter>
                            </effect>
                        </filter>
                    </clipitem>
                    <clipitem id="972_0437_04_5_9079BE55189648428AE2.mov 0">
                        <name>972_0437_04_5_9079BE55189648428AE2.mov</name>
                        <duration>125</duration>
                        <rate>
                            <timebase>25</timebase>
                            <ntsc>false</ntsc>
                        </rate>
                        <start>63713</start>
                        <end>63838</end>
                        <enabled>true</enabled>
                        <in>0</in>
                        <out>125</out>
                        <file id="972_0437_04_5_9079BE55189648428AE2.mov 2">
                            <duration>125</duration>
                            <rate>
                                <timebase>25</timebase>
                                <ntsc>false</ntsc>
                            </rate>
                            <name>972_0437_04_5_9079BE55189648428AE2.mov</name>
                            <pathurl>file:///Capture1/EDIUS/EDIUS7_Color/colored/pasyans_v3/972_0437_04_5_9079BE55189648428AE2_V1-0196.mov</pathurl>
                            <timecode>
                                <string>00:42:28:13</string>
                                <displayformat>NDF</displayformat>
                                <rate>
                                    <timebase>25</timebase>
                                    <ntsc>false</ntsc>
                                </rate>
                            </timecode>
                            <media>
                                <video>
                                    <duration>125</duration>
                                    <samplecharacteristics>
                                        <width>1920</width>
                                        <height>1080</height>
                                    </samplecharacteristics>
                                </video>
                            </media>
                        </file>
                        <compositemode>normal</compositemode>
                        <filter>
                            <enabled>true</enabled>
                            <start>0</start>
                            <end>125</end>
                            <effect>
                                <name>Opacity</name>
                                <effectid>opacity</effectid>
                                <effecttype>motion</effecttype>
                                <mediatype>video</mediatype>
                                <effectcategory>motion</effectcategory>
                                <parameter>
                                    <name>opacity</name>
                                    <parameterid>opacity</parameterid>
                                    <value>100</value>
                                    <valuemin>0</valuemin>
                                    <valuemax>100</valuemax>
                                </parameter>
                            </effect>
                        </filter>
                    </clipitem>
                    <clipitem id="246_0922_04_4_F44E50C65D8142449129.mov 0">
                        <name>246_0922_04_4_F44E50C65D8142449129.mov</name>
                        <duration>137</duration>
                        <rate>
                            <timebase>25</timebase>
                            <ntsc>false</ntsc>
                        </rate>
                        <start>63838</start>
                        <end>63975</end>
                        <enabled>true</enabled>
                        <in>0</in>
                        <out>137</out>
                        <file id="246_0922_04_4_F44E50C65D8142449129.mov 2">
                            <duration>137</duration>
                            <rate>
                                <timebase>25</timebase>
                                <ntsc>false</ntsc>
                            </rate>
                            <name>246_0922_04_4_F44E50C65D8142449129.mov</name>
                            <pathurl>file:///Capture1/EDIUS/EDIUS7_Color/colored/pasyans_v3/246_0922_04_4_F44E50C65D8142449129_V1-0197.mov</pathurl>
                            <timecode>
                                <string>00:42:33:13</string>
                                <displayformat>NDF</displayformat>
                                <rate>
                                    <timebase>25</timebase>
                                    <ntsc>false</ntsc>
                                </rate>
                            </timecode>
                            <media>
                                <video>
                                    <duration>137</duration>
                                    <samplecharacteristics>
                                        <width>1920</width>
                                        <height>1080</height>
                                    </samplecharacteristics>
                                </video>
                            </media>
                        </file>
                        <compositemode>normal</compositemode>
                        <filter>
                            <enabled>true</enabled>
                            <start>0</start>
                            <end>137</end>
                            <effect>
                                <name>Opacity</name>
                                <effectid>opacity</effectid>
                                <effecttype>motion</effecttype>
                                <mediatype>video</mediatype>
                                <effectcategory>motion</effectcategory>
                                <parameter>
                                    <name>opacity</name>
                                    <parameterid>opacity</parameterid>
                                    <value>100</value>
                                    <valuemin>0</valuemin>
                                    <valuemax>100</valuemax>
                                </parameter>
                            </effect>
                        </filter>
                    </clipitem>
                    <clipitem id="КАССЕТНАЯ КАМЕРА 1_48_04D350A081F0466188FA.mov 0">
                        <name>КАССЕТНАЯ КАМЕРА 1_48_04D350A081F0466188FA.mov</name>
                        <duration>73</duration>
                        <rate>
                            <timebase>25</timebase>
                            <ntsc>false</ntsc>
                        </rate>
                        <start>63975</start>
                        <end>64048</end>
                        <enabled>true</enabled>
                        <in>0</in>
                        <out>73</out>
                        <file id="КАССЕТНАЯ КАМЕРА 1_48_04D350A081F0466188FA.mov 2">
                            <duration>73</duration>
                            <rate>
                                <timebase>25</timebase>
                                <ntsc>false</ntsc>
                            </rate>
                            <name>КАССЕТНАЯ КАМЕРА 1_48_04D350A081F0466188FA.mov</name>
                            <pathurl>file:///Capture1/EDIUS/EDIUS7_Color/colored/pasyans_v3/%D0%9A%D0%90%D0%A1%D0%A1%D0%95%D0%A2%D0%9D%D0%90%D0%AF%20%D0%9A%D0%90%D0%9C%D0%95%D0%A0%D0%90%201_48_04D350A081F0466188FA_V1-0198.mov</pathurl>
                            <timecode>
                                <string>00:42:39:00</string>
                                <displayformat>NDF</displayformat>
                                <rate>
                                    <timebase>25</timebase>
                                    <ntsc>false</ntsc>
                                </rate>
                            </timecode>
                            <media>
                                <video>
                                    <duration>73</duration>
                                    <samplecharacteristics>
                                        <width>1920</width>
                                        <height>1080</height>
                                    </samplecharacteristics>
                                </video>
                            </media>
                        </file>
                        <compositemode>normal</compositemode>
                        <filter>
                            <enabled>true</enabled>
                            <start>0</start>
                            <end>73</end>
                            <effect>
                                <name>Opacity</name>
                                <effectid>opacity</effectid>
                                <effecttype>motion</effecttype>
                                <mediatype>video</mediatype>
                                <effectcategory>motion</effectcategory>
                                <parameter>
                                    <name>opacity</name>
                                    <parameterid>opacity</parameterid>
                                    <value>100</value>
                                    <valuemin>0</valuemin>
                                    <valuemax>100</valuemax>
                                </parameter>
                            </effect>
                        </filter>
                    </clipitem>
                    <clipitem id="общий план 7_6_9C6A1B70FDF8457B880B.mov 0">
                        <name>общий план 7_6_9C6A1B70FDF8457B880B.mov</name>
                        <duration>213</duration>
                        <rate>
                            <timebase>25</timebase>
                            <ntsc>false</ntsc>
                        </rate>
                        <start>64048</start>
                        <end>64262</end>
                        <enabled>true</enabled>
                        <in>0</in>
                        <out>214</out>
                        <file id="общий план 7_6_9C6A1B70FDF8457B880B.mov 2">
                            <duration>214</duration>
                            <rate>
                                <timebase>25</timebase>
                                <ntsc>false</ntsc>
                            </rate>
                            <name>общий план 7_6_9C6A1B70FDF8457B880B.mov</name>
                            <pathurl>file:///Capture1/EDIUS/EDIUS7_Color/colored/pasyans_v3/%D0%BE%D0%B1%D1%89%D0%B8%D0%B9%20%D0%BF%D0%BB%D0%B0%D0%BD%207_6_9C6A1B70FDF8457B880B_V1-0199.mov</pathurl>
                            <timecode>
                                <string>00:42:41:23</string>
                                <displayformat>NDF</displayformat>
                                <rate>
                                    <timebase>25</timebase>
                                    <ntsc>false</ntsc>
                                </rate>
                            </timecode>
                            <media>
                                <video>
                                    <duration>214</duration>
                                    <samplecharacteristics>
                                        <width>1920</width>
                                        <height>1080</height>
                                    </samplecharacteristics>
                                </video>
                            </media>
                        </file>
                        <compositemode>normal</compositemode>
                        <filter>
                            <enabled>true</enabled>
                            <start>0</start>
                            <end>213</end>
                            <effect>
                                <name>Opacity</name>
                                <effectid>opacity</effectid>
                                <effecttype>motion</effecttype>
                                <mediatype>video</mediatype>
                                <effectcategory>motion</effectcategory>
                                <parameter>
                                    <name>opacity</name>
                                    <parameterid>opacity</parameterid>
                                    <value>100</value>
                                    <valuemin>0</valuemin>
                                    <valuemax>100</valuemax>
                                </parameter>
                            </effect>
                        </filter>
                    </clipitem>
                    <clipitem id="972_0437_04_6_2866E1C2D4A54E1B9A27.mov 0">
                        <name>972_0437_04_6_2866E1C2D4A54E1B9A27.mov</name>
                        <duration>198</duration>
                        <rate>
                            <timebase>25</timebase>
                            <ntsc>false</ntsc>
                        </rate>
                        <start>64262</start>
                        <end>64460</end>
                        <enabled>true</enabled>
                        <in>0</in>
                        <out>198</out>
                        <file id="972_0437_04_6_2866E1C2D4A54E1B9A27.mov 2">
                            <duration>198</duration>
                            <rate>
                                <timebase>25</timebase>
                                <ntsc>false</ntsc>
                            </rate>
                            <name>972_0437_04_6_2866E1C2D4A54E1B9A27.mov</name>
                            <pathurl>file:///Capture1/EDIUS/EDIUS7_Color/colored/pasyans_v3/972_0437_04_6_2866E1C2D4A54E1B9A27_V1-0200.mov</pathurl>
                            <timecode>
                                <string>00:42:50:12</string>
                                <displayformat>NDF</displayformat>
                                <rate>
                                    <timebase>25</timebase>
                                    <ntsc>false</ntsc>
                                </rate>
                            </timecode>
                            <media>
                                <video>
                                    <duration>198</duration>
                                    <samplecharacteristics>
                                        <width>1920</width>
                                        <height>1080</height>
                                    </samplecharacteristics>
                                </video>
                            </media>
                        </file>
                        <compositemode>normal</compositemode>
                        <filter>
                            <enabled>true</enabled>
                            <start>0</start>
                            <end>198</end>
                            <effect>
                                <name>Opacity</name>
                                <effectid>opacity</effectid>
                                <effecttype>motion</effecttype>
                                <mediatype>video</mediatype>
                                <effectcategory>motion</effectcategory>
                                <parameter>
                                    <name>opacity</name>
                                    <parameterid>opacity</parameterid>
                                    <value>100</value>
                                    <valuemin>0</valuemin>
                                    <valuemax>100</valuemax>
                                </parameter>
                            </effect>
                        </filter>
                    </clipitem>
                    <clipitem id="GP018363_6_42F0D99F7DD8442FA9FE.mov 0">
                        <name>GP018363_6_42F0D99F7DD8442FA9FE.mov</name>
                        <duration>195</duration>
                        <rate>
                            <timebase>25</timebase>
                            <ntsc>false</ntsc>
                        </rate>
                        <start>64460</start>
                        <end>64655</end>
                        <enabled>true</enabled>
                        <in>0</in>
                        <out>195</out>
                        <file id="GP018363_6_42F0D99F7DD8442FA9FE.mov 2">
                            <duration>195</duration>
                            <rate>
                                <timebase>25</timebase>
                                <ntsc>false</ntsc>
                            </rate>
                            <name>GP018363_6_42F0D99F7DD8442FA9FE.mov</name>
                            <pathurl>file:///Capture1/EDIUS/EDIUS7_Color/colored/pasyans_v3/GP018363_6_42F0D99F7DD8442FA9FE_V1-0201.mov</pathurl>
                            <timecode>
                                <string>00:42:58:10</string>
                                <displayformat>NDF</displayformat>
                                <rate>
                                    <timebase>25</timebase>
                                    <ntsc>false</ntsc>
                                </rate>
                            </timecode>
                            <media>
                                <video>
                                    <duration>195</duration>
                                    <samplecharacteristics>
                                        <width>1920</width>
                                        <height>1080</height>
                                    </samplecharacteristics>
                                </video>
                            </media>
                        </file>
                        <compositemode>normal</compositemode>
                        <filter>
                            <enabled>true</enabled>
                            <start>0</start>
                            <end>195</end>
                            <effect>
                                <name>Opacity</name>
                                <effectid>opacity</effectid>
                                <effecttype>motion</effecttype>
                                <mediatype>video</mediatype>
                                <effectcategory>motion</effectcategory>
                                <parameter>
                                    <name>opacity</name>
                                    <parameterid>opacity</parameterid>
                                    <value>100</value>
                                    <valuemin>0</valuemin>
                                    <valuemax>100</valuemax>
                                </parameter>
                            </effect>
                        </filter>
                    </clipitem>
                    <clipitem id="972_0437_04_7_187FAD2C58E14756BDC5.mov 0">
                        <name>972_0437_04_7_187FAD2C58E14756BDC5.mov</name>
                        <duration>228</duration>
                        <rate>
                            <timebase>25</timebase>
                            <ntsc>false</ntsc>
                        </rate>
                        <start>64655</start>
                        <end>64884</end>
                        <enabled>true</enabled>
                        <in>0</in>
                        <out>229</out>
                        <file id="972_0437_04_7_187FAD2C58E14756BDC5.mov 2">
                            <duration>229</duration>
                            <rate>
                                <timebase>25</timebase>
                                <ntsc>false</ntsc>
                            </rate>
                            <name>972_0437_04_7_187FAD2C58E14756BDC5.mov</name>
                            <pathurl>file:///Capture1/EDIUS/EDIUS7_Color/colored/pasyans_v3/972_0437_04_7_187FAD2C58E14756BDC5_V1-0202.mov</pathurl>
                            <timecode>
                                <string>00:43:06:05</string>
                                <displayformat>NDF</displayformat>
                                <rate>
                                    <timebase>25</timebase>
                                    <ntsc>false</ntsc>
                                </rate>
                            </timecode>
                            <media>
                                <video>
                                    <duration>229</duration>
                                    <samplecharacteristics>
                                        <width>1920</width>
                                        <height>1080</height>
                                    </samplecharacteristics>
                                </video>
                            </media>
                        </file>
                        <compositemode>normal</compositemode>
                        <filter>
                            <enabled>true</enabled>
                            <start>0</start>
                            <end>228</end>
                            <effect>
                                <name>Opacity</name>
                                <effectid>opacity</effectid>
                                <effecttype>motion</effecttype>
                                <mediatype>video</mediatype>
                                <effectcategory>motion</effectcategory>
                                <parameter>
                                    <name>opacity</name>
                                    <parameterid>opacity</parameterid>
                                    <value>100</value>
                                    <valuemin>0</valuemin>
                                    <valuemax>100</valuemax>
                                </parameter>
                            </effect>
                        </filter>
                    </clipitem>
                    <clipitem id="общий план 8_1_32E3F0FACC0B415CBDD3.mov 0">
                        <name>общий план 8_1_32E3F0FACC0B415CBDD3.mov</name>
                        <duration>229</duration>
                        <rate>
                            <timebase>25</timebase>
                            <ntsc>false</ntsc>
                        </rate>
                        <start>64884</start>
                        <end>65114</end>
                        <enabled>true</enabled>
                        <in>0</in>
                        <out>230</out>
                        <file id="общий план 8_1_32E3F0FACC0B415CBDD3.mov 2">
                            <duration>230</duration>
                            <rate>
                                <timebase>25</timebase>
                                <ntsc>false</ntsc>
                            </rate>
                            <name>общий план 8_1_32E3F0FACC0B415CBDD3.mov</name>
                            <pathurl>file:///Capture1/EDIUS/EDIUS7_Color/colored/pasyans_v3/%D0%BE%D0%B1%D1%89%D0%B8%D0%B9%20%D0%BF%D0%BB%D0%B0%D0%BD%208_1_32E3F0FACC0B415CBDD3_V1-0203.mov</pathurl>
                            <timecode>
                                <string>00:43:15:09</string>
                                <displayformat>NDF</displayformat>
                                <rate>
                                    <timebase>25</timebase>
                                    <ntsc>false</ntsc>
                                </rate>
                            </timecode>
                            <media>
                                <video>
                                    <duration>230</duration>
                                    <samplecharacteristics>
                                        <width>1920</width>
                                        <height>1080</height>
                                    </samplecharacteristics>
                                </video>
                            </media>
                        </file>
                        <compositemode>normal</compositemode>
                        <filter>
                            <enabled>true</enabled>
                            <start>0</start>
                            <end>229</end>
                            <effect>
                                <name>Opacity</name>
                                <effectid>opacity</effectid>
                                <effecttype>motion</effecttype>
                                <mediatype>video</mediatype>
                                <effectcategory>motion</effectcategory>
                                <parameter>
                                    <name>opacity</name>
                                    <parameterid>opacity</parameterid>
                                    <value>100</value>
                                    <valuemin>0</valuemin>
                                    <valuemax>100</valuemax>
                                </parameter>
                            </effect>
                        </filter>
                    </clipitem>
                    <clipitem id="246_0922_04_5_2EC721F037174194900B.mov 0">
                        <name>246_0922_04_5_2EC721F037174194900B.mov</name>
                        <duration>200</duration>
                        <rate>
                            <timebase>25</timebase>
                            <ntsc>false</ntsc>
                        </rate>
                        <start>65114</start>
                        <end>65314</end>
                        <enabled>true</enabled>
                        <in>0</in>
                        <out>200</out>
                        <file id="246_0922_04_5_2EC721F037174194900B.mov 2">
                            <duration>200</duration>
                            <rate>
                                <timebase>25</timebase>
                                <ntsc>false</ntsc>
                            </rate>
                            <name>246_0922_04_5_2EC721F037174194900B.mov</name>
                            <pathurl>file:///Capture1/EDIUS/EDIUS7_Color/colored/pasyans_v3/246_0922_04_5_2EC721F037174194900B_V1-0204.mov</pathurl>
                            <timecode>
                                <string>00:43:24:14</string>
                                <displayformat>NDF</displayformat>
                                <rate>
                                    <timebase>25</timebase>
                                    <ntsc>false</ntsc>
                                </rate>
                            </timecode>
                            <media>
                                <video>
                                    <duration>200</duration>
                                    <samplecharacteristics>
                                        <width>1920</width>
                                        <height>1080</height>
                                    </samplecharacteristics>
                                </video>
                            </media>
                        </file>
                        <compositemode>normal</compositemode>
                        <filter>
                            <enabled>true</enabled>
                            <start>0</start>
                            <end>200</end>
                            <effect>
                                <name>Opacity</name>
                                <effectid>opacity</effectid>
                                <effecttype>motion</effecttype>
                                <mediatype>video</mediatype>
                                <effectcategory>motion</effectcategory>
                                <parameter>
                                    <name>opacity</name>
                                    <parameterid>opacity</parameterid>
                                    <value>100</value>
                                    <valuemin>0</valuemin>
                                    <valuemax>100</valuemax>
                                </parameter>
                            </effect>
                        </filter>
                    </clipitem>
                    <clipitem id="общий план 8_2_9D15BE86D2EF467C8C9E.mov 0">
                        <name>общий план 8_2_9D15BE86D2EF467C8C9E.mov</name>
                        <duration>209</duration>
                        <rate>
                            <timebase>25</timebase>
                            <ntsc>false</ntsc>
                        </rate>
                        <start>70213</start>
                        <end>70422</end>
                        <enabled>true</enabled>
                        <in>0</in>
                        <out>209</out>
                        <file id="общий план 8_2_9D15BE86D2EF467C8C9E.mov 2">
                            <duration>209</duration>
                            <rate>
                                <timebase>25</timebase>
                                <ntsc>false</ntsc>
                            </rate>
                            <name>общий план 8_2_9D15BE86D2EF467C8C9E.mov</name>
                            <pathurl>file:///Capture1/EDIUS/EDIUS7_Color/colored/pasyans_v3/%D0%BE%D0%B1%D1%89%D0%B8%D0%B9%20%D0%BF%D0%BB%D0%B0%D0%BD%208_2_9D15BE86D2EF467C8C9E_V1-0205.mov</pathurl>
                            <timecode>
                                <string>00:46:48:13</string>
                                <displayformat>NDF</displayformat>
                                <rate>
                                    <timebase>25</timebase>
                                    <ntsc>false</ntsc>
                                </rate>
                            </timecode>
                            <media>
                                <video>
                                    <duration>209</duration>
                                    <samplecharacteristics>
                                        <width>1920</width>
                                        <height>1080</height>
                                    </samplecharacteristics>
                                </video>
                            </media>
                        </file>
                        <compositemode>normal</compositemode>
                        <filter>
                            <enabled>true</enabled>
                            <start>0</start>
                            <end>209</end>
                            <effect>
                                <name>Opacity</name>
                                <effectid>opacity</effectid>
                                <effecttype>motion</effecttype>
                                <mediatype>video</mediatype>
                                <effectcategory>motion</effectcategory>
                                <parameter>
                                    <name>opacity</name>
                                    <parameterid>opacity</parameterid>
                                    <value>100</value>
                                    <valuemin>0</valuemin>
                                    <valuemax>100</valuemax>
                                </parameter>
                            </effect>
                        </filter>
                    </clipitem>
                    <clipitem id="972_0437_04_8_086E9FB7E8FE42689505.mov 0">
                        <name>972_0437_04_8_086E9FB7E8FE42689505.mov</name>
                        <duration>110</duration>
                        <rate>
                            <timebase>25</timebase>
                            <ntsc>false</ntsc>
                        </rate>
                        <start>70422</start>
                        <end>70532</end>
                        <enabled>true</enabled>
                        <in>0</in>
                        <out>110</out>
                        <file id="972_0437_04_8_086E9FB7E8FE42689505.mov 2">
                            <duration>110</duration>
                            <rate>
                                <timebase>25</timebase>
                                <ntsc>false</ntsc>
                            </rate>
                            <name>972_0437_04_8_086E9FB7E8FE42689505.mov</name>
                            <pathurl>file:///Capture1/EDIUS/EDIUS7_Color/colored/pasyans_v3/972_0437_04_8_086E9FB7E8FE42689505_V1-0206.mov</pathurl>
                            <timecode>
                                <string>00:46:56:22</string>
                                <displayformat>NDF</displayformat>
                                <rate>
                                    <timebase>25</timebase>
                                    <ntsc>false</ntsc>
                                </rate>
                            </timecode>
                            <media>
                                <video>
                                    <duration>110</duration>
                                    <samplecharacteristics>
                                        <width>1920</width>
                                        <height>1080</height>
                                    </samplecharacteristics>
                                </video>
                            </media>
                        </file>
                        <compositemode>normal</compositemode>
                        <filter>
                            <enabled>true</enabled>
                            <start>0</start>
                            <end>110</end>
                            <effect>
                                <name>Opacity</name>
                                <effectid>opacity</effectid>
                                <effecttype>motion</effecttype>
                                <mediatype>video</mediatype>
                                <effectcategory>motion</effectcategory>
                                <parameter>
                                    <name>opacity</name>
                                    <parameterid>opacity</parameterid>
                                    <value>100</value>
                                    <valuemin>0</valuemin>
                                    <valuemax>100</valuemax>
                                </parameter>
                            </effect>
                        </filter>
                    </clipitem>
                    <clipitem id="246_0922_04_6_A685D54BE5224BAB92FD.mov 0">
                        <name>246_0922_04_6_A685D54BE5224BAB92FD.mov</name>
                        <duration>133</duration>
                        <rate>
                            <timebase>25</timebase>
                            <ntsc>false</ntsc>
                        </rate>
                        <start>70532</start>
                        <end>70665</end>
                        <enabled>true</enabled>
                        <in>0</in>
                        <out>133</out>
                        <file id="246_0922_04_6_A685D54BE5224BAB92FD.mov 2">
                            <duration>133</duration>
                            <rate>
                                <timebase>25</timebase>
                                <ntsc>false</ntsc>
                            </rate>
                            <name>246_0922_04_6_A685D54BE5224BAB92FD.mov</name>
                            <pathurl>file:///Capture1/EDIUS/EDIUS7_Color/colored/pasyans_v3/246_0922_04_6_A685D54BE5224BAB92FD_V1-0207.mov</pathurl>
                            <timecode>
                                <string>00:47:01:07</string>
                                <displayformat>NDF</displayformat>
                                <rate>
                                    <timebase>25</timebase>
                                    <ntsc>false</ntsc>
                                </rate>
                            </timecode>
                            <media>
                                <video>
                                    <duration>133</duration>
                                    <samplecharacteristics>
                                        <width>1920</width>
                                        <height>1080</height>
                                    </samplecharacteristics>
                                </video>
                            </media>
                        </file>
                        <compositemode>normal</compositemode>
                        <filter>
                            <enabled>true</enabled>
                            <start>0</start>
                            <end>133</end>
                            <effect>
                                <name>Opacity</name>
                                <effectid>opacity</effectid>
                                <effecttype>motion</effecttype>
                                <mediatype>video</mediatype>
                                <effectcategory>motion</effectcategory>
                                <parameter>
                                    <name>opacity</name>
                                    <parameterid>opacity</parameterid>
                                    <value>100</value>
                                    <valuemin>0</valuemin>
                                    <valuemax>100</valuemax>
                                </parameter>
                            </effect>
                        </filter>
                    </clipitem>
                    <clipitem id="КАССЕТНАЯ КАМЕРА 1_49_E01F7A04FFFB424A9202.mov 0">
                        <name>КАССЕТНАЯ КАМЕРА 1_49_E01F7A04FFFB424A9202.mov</name>
                        <duration>202</duration>
                        <rate>
                            <timebase>25</timebase>
                            <ntsc>false</ntsc>
                        </rate>
                        <start>70665</start>
                        <end>70868</end>
                        <enabled>true</enabled>
                        <in>0</in>
                        <out>203</out>
                        <file id="КАССЕТНАЯ КАМЕРА 1_49_E01F7A04FFFB424A9202.mov 2">
                            <duration>203</duration>
                            <rate>
                                <timebase>25</timebase>
                                <ntsc>false</ntsc>
                            </rate>
                            <name>КАССЕТНАЯ КАМЕРА 1_49_E01F7A04FFFB424A9202.mov</name>
                            <pathurl>file:///Capture1/EDIUS/EDIUS7_Color/colored/pasyans_v3/%D0%9A%D0%90%D0%A1%D0%A1%D0%95%D0%A2%D0%9D%D0%90%D0%AF%20%D0%9A%D0%90%D0%9C%D0%95%D0%A0%D0%90%201_49_E01F7A04FFFB424A9202_V1-0208.mov</pathurl>
                            <timecode>
                                <string>00:47:06:15</string>
                                <displayformat>NDF</displayformat>
                                <rate>
                                    <timebase>25</timebase>
                                    <ntsc>false</ntsc>
                                </rate>
                            </timecode>
                            <media>
                                <video>
                                    <duration>203</duration>
                                    <samplecharacteristics>
                                        <width>1920</width>
                                        <height>1080</height>
                                    </samplecharacteristics>
                                </video>
                            </media>
                        </file>
                        <compositemode>normal</compositemode>
                        <filter>
                            <enabled>true</enabled>
                            <start>0</start>
                            <end>202</end>
                            <effect>
                                <name>Opacity</name>
                                <effectid>opacity</effectid>
                                <effecttype>motion</effecttype>
                                <mediatype>video</mediatype>
                                <effectcategory>motion</effectcategory>
                                <parameter>
                                    <name>opacity</name>
                                    <parameterid>opacity</parameterid>
                                    <value>100</value>
                                    <valuemin>0</valuemin>
                                    <valuemax>100</valuemax>
                                </parameter>
                            </effect>
                        </filter>
                    </clipitem>
                    <clipitem id="общий план 8_3_17A53DCD9DEF42928D7B.mov 0">
                        <name>общий план 8_3_17A53DCD9DEF42928D7B.mov</name>
                        <duration>242</duration>
                        <rate>
                            <timebase>25</timebase>
                            <ntsc>false</ntsc>
                        </rate>
                        <start>70868</start>
                        <end>71111</end>
                        <enabled>true</enabled>
                        <in>0</in>
                        <out>243</out>
                        <file id="общий план 8_3_17A53DCD9DEF42928D7B.mov 2">
                            <duration>243</duration>
                            <rate>
                                <timebase>25</timebase>
                                <ntsc>false</ntsc>
                            </rate>
                            <name>общий план 8_3_17A53DCD9DEF42928D7B.mov</name>
                            <pathurl>file:///Capture1/EDIUS/EDIUS7_Color/colored/pasyans_v3/%D0%BE%D0%B1%D1%89%D0%B8%D0%B9%20%D0%BF%D0%BB%D0%B0%D0%BD%208_3_17A53DCD9DEF42928D7B_V1-0209.mov</pathurl>
                            <timecode>
                                <string>00:47:14:18</string>
                                <displayformat>NDF</displayformat>
                                <rate>
                                    <timebase>25</timebase>
                                    <ntsc>false</ntsc>
                                </rate>
                            </timecode>
                            <media>
                                <video>
                                    <duration>243</duration>
                                    <samplecharacteristics>
                                        <width>1920</width>
                                        <height>1080</height>
                                    </samplecharacteristics>
                                </video>
                            </media>
                        </file>
                        <compositemode>normal</compositemode>
                        <filter>
                            <enabled>true</enabled>
                            <start>0</start>
                            <end>242</end>
                            <effect>
                                <name>Opacity</name>
                                <effectid>opacity</effectid>
                                <effecttype>motion</effecttype>
                                <mediatype>video</mediatype>
                                <effectcategory>motion</effectcategory>
                                <parameter>
                                    <name>opacity</name>
                                    <parameterid>opacity</parameterid>
                                    <value>100</value>
                                    <valuemin>0</valuemin>
                                    <valuemax>100</valuemax>
                                </parameter>
                            </effect>
                        </filter>
                    </clipitem>
                    <clipitem id="КАССЕТНАЯ КАМЕРА 1_50_9B170733B4B7419DBE73.mov 0">
                        <name>КАССЕТНАЯ КАМЕРА 1_50_9B170733B4B7419DBE73.mov</name>
                        <duration>120</duration>
                        <rate>
                            <timebase>25</timebase>
                            <ntsc>false</ntsc>
                        </rate>
                        <start>71111</start>
                        <end>71231</end>
                        <enabled>true</enabled>
                        <in>0</in>
                        <out>120</out>
                        <file id="КАССЕТНАЯ КАМЕРА 1_50_9B170733B4B7419DBE73.mov 2">
                            <duration>120</duration>
                            <rate>
                                <timebase>25</timebase>
                                <ntsc>false</ntsc>
                            </rate>
                            <name>КАССЕТНАЯ КАМЕРА 1_50_9B170733B4B7419DBE73.mov</name>
                            <pathurl>file:///Capture1/EDIUS/EDIUS7_Color/colored/pasyans_v3/%D0%9A%D0%90%D0%A1%D0%A1%D0%95%D0%A2%D0%9D%D0%90%D0%AF%20%D0%9A%D0%90%D0%9C%D0%95%D0%A0%D0%90%201_50_9B170733B4B7419DBE73_V1-0210.mov</pathurl>
                            <timecode>
                                <string>00:47:24:11</string>
                                <displayformat>NDF</displayformat>
                                <rate>
                                    <timebase>25</timebase>
                                    <ntsc>false</ntsc>
                                </rate>
                            </timecode>
                            <media>
                                <video>
                                    <duration>120</duration>
                                    <samplecharacteristics>
                                        <width>1920</width>
                                        <height>1080</height>
                                    </samplecharacteristics>
                                </video>
                            </media>
                        </file>
                        <compositemode>normal</compositemode>
                        <filter>
                            <enabled>true</enabled>
                            <start>0</start>
                            <end>120</end>
                            <effect>
                                <name>Opacity</name>
                                <effectid>opacity</effectid>
                                <effecttype>motion</effecttype>
                                <mediatype>video</mediatype>
                                <effectcategory>motion</effectcategory>
                                <parameter>
                                    <name>opacity</name>
                                    <parameterid>opacity</parameterid>
                                    <value>100</value>
                                    <valuemin>0</valuemin>
                                    <valuemax>100</valuemax>
                                </parameter>
                            </effect>
                        </filter>
                    </clipitem>
                    <clipitem id="972_0437_04_9_A7DD5A6B5A7B471C90C0.mov 0">
                        <name>972_0437_04_9_A7DD5A6B5A7B471C90C0.mov</name>
                        <duration>152</duration>
                        <rate>
                            <timebase>25</timebase>
                            <ntsc>false</ntsc>
                        </rate>
                        <start>71231</start>
                        <end>71384</end>
                        <enabled>true</enabled>
                        <in>0</in>
                        <out>153</out>
                        <file id="972_0437_04_9_A7DD5A6B5A7B471C90C0.mov 2">
                            <duration>153</duration>
                            <rate>
                                <timebase>25</timebase>
                                <ntsc>false</ntsc>
                            </rate>
                            <name>972_0437_04_9_A7DD5A6B5A7B471C90C0.mov</name>
                            <pathurl>file:///Capture1/EDIUS/EDIUS7_Color/colored/pasyans_v3/972_0437_04_9_A7DD5A6B5A7B471C90C0_V1-0211.mov</pathurl>
                            <timecode>
                                <string>00:47:29:06</string>
                                <displayformat>NDF</displayformat>
                                <rate>
                                    <timebase>25</timebase>
                                    <ntsc>false</ntsc>
                                </rate>
                            </timecode>
                            <media>
                                <video>
                                    <duration>153</duration>
                                    <samplecharacteristics>
                                        <width>1920</width>
                                        <height>1080</height>
                                    </samplecharacteristics>
                                </video>
                            </media>
                        </file>
                        <compositemode>normal</compositemode>
                        <filter>
                            <enabled>true</enabled>
                            <start>0</start>
                            <end>152</end>
                            <effect>
                                <name>Opacity</name>
                                <effectid>opacity</effectid>
                                <effecttype>motion</effecttype>
                                <mediatype>video</mediatype>
                                <effectcategory>motion</effectcategory>
                                <parameter>
                                    <name>opacity</name>
                                    <parameterid>opacity</parameterid>
                                    <value>100</value>
                                    <valuemin>0</valuemin>
                                    <valuemax>100</valuemax>
                                </parameter>
                            </effect>
                        </filter>
                    </clipitem>
                    <clipitem id="GP028503_1_F5F61FF4328E46ADBDF4.mov 0">
                        <name>GP028503_1_F5F61FF4328E46ADBDF4.mov</name>
                        <duration>132</duration>
                        <rate>
                            <timebase>25</timebase>
                            <ntsc>false</ntsc>
                        </rate>
                        <start>71384</start>
                        <end>71516</end>
                        <enabled>true</enabled>
                        <in>0</in>
                        <out>132</out>
                        <file id="GP028503_1_F5F61FF4328E46ADBDF4.mov 2">
                            <duration>132</duration>
                            <rate>
                                <timebase>25</timebase>
                                <ntsc>false</ntsc>
                            </rate>
                            <name>GP028503_1_F5F61FF4328E46ADBDF4.mov</name>
                            <pathurl>file:///Capture1/EDIUS/EDIUS7_Color/colored/pasyans_v3/GP028503_1_F5F61FF4328E46ADBDF4_V1-0212.mov</pathurl>
                            <timecode>
                                <string>00:47:35:09</string>
                                <displayformat>NDF</displayformat>
                                <rate>
                                    <timebase>25</timebase>
                                    <ntsc>false</ntsc>
                                </rate>
                            </timecode>
                            <media>
                                <video>
                                    <duration>132</duration>
                                    <samplecharacteristics>
                                        <width>1920</width>
                                        <height>1080</height>
                                    </samplecharacteristics>
                                </video>
                            </media>
                        </file>
                        <compositemode>normal</compositemode>
                        <filter>
                            <enabled>true</enabled>
                            <start>0</start>
                            <end>132</end>
                            <effect>
                                <name>Opacity</name>
                                <effectid>opacity</effectid>
                                <effecttype>motion</effecttype>
                                <mediatype>video</mediatype>
                                <effectcategory>motion</effectcategory>
                                <parameter>
                                    <name>opacity</name>
                                    <parameterid>opacity</parameterid>
                                    <value>100</value>
                                    <valuemin>0</valuemin>
                                    <valuemax>100</valuemax>
                                </parameter>
                            </effect>
                        </filter>
                    </clipitem>
                    <clipitem id="КАССЕТНАЯ КАМЕРА 1_51_6465093F658E4F3690AE.mov 0">
                        <name>КАССЕТНАЯ КАМЕРА 1_51_6465093F658E4F3690AE.mov</name>
                        <duration>162</duration>
                        <rate>
                            <timebase>25</timebase>
                            <ntsc>false</ntsc>
                        </rate>
                        <start>71516</start>
                        <end>71679</end>
                        <enabled>true</enabled>
                        <in>0</in>
                        <out>163</out>
                        <file id="КАССЕТНАЯ КАМЕРА 1_51_6465093F658E4F3690AE.mov 2">
                            <duration>163</duration>
                            <rate>
                                <timebase>25</timebase>
                                <ntsc>false</ntsc>
                            </rate>
                            <name>КАССЕТНАЯ КАМЕРА 1_51_6465093F658E4F3690AE.mov</name>
                            <pathurl>file:///Capture1/EDIUS/EDIUS7_Color/colored/pasyans_v3/%D0%9A%D0%90%D0%A1%D0%A1%D0%95%D0%A2%D0%9D%D0%90%D0%AF%20%D0%9A%D0%90%D0%9C%D0%95%D0%A0%D0%90%201_51_6465093F658E4F3690AE_V1-0213.mov</pathurl>
                            <timecode>
                                <string>00:47:40:16</string>
                                <displayformat>NDF</displayformat>
                                <rate>
                                    <timebase>25</timebase>
                                    <ntsc>false</ntsc>
                                </rate>
                            </timecode>
                            <media>
                                <video>
                                    <duration>163</duration>
                                    <samplecharacteristics>
                                        <width>1920</width>
                                        <height>1080</height>
                                    </samplecharacteristics>
                                </video>
                            </media>
                        </file>
                        <compositemode>normal</compositemode>
                        <filter>
                            <enabled>true</enabled>
                            <start>0</start>
                            <end>162</end>
                            <effect>
                                <name>Opacity</name>
                                <effectid>opacity</effectid>
                                <effecttype>motion</effecttype>
                                <mediatype>video</mediatype>
                                <effectcategory>motion</effectcategory>
                                <parameter>
                                    <name>opacity</name>
                                    <parameterid>opacity</parameterid>
                                    <value>100</value>
                                    <valuemin>0</valuemin>
                                    <valuemax>100</valuemax>
                                </parameter>
                            </effect>
                        </filter>
                    </clipitem>
                    <clipitem id="общий план 8_4_796202033D5844D8A0B0.mov 0">
                        <name>общий план 8_4_796202033D5844D8A0B0.mov</name>
                        <duration>286</duration>
                        <rate>
                            <timebase>25</timebase>
                            <ntsc>false</ntsc>
                        </rate>
                        <start>72581</start>
                        <end>72867</end>
                        <enabled>true</enabled>
                        <in>0</in>
                        <out>286</out>
                        <file id="общий план 8_4_796202033D5844D8A0B0.mov 2">
                            <duration>286</duration>
                            <rate>
                                <timebase>25</timebase>
                                <ntsc>false</ntsc>
                            </rate>
                            <name>общий план 8_4_796202033D5844D8A0B0.mov</name>
                            <pathurl>file:///Capture1/EDIUS/EDIUS7_Color/colored/pasyans_v3/%D0%BE%D0%B1%D1%89%D0%B8%D0%B9%20%D0%BF%D0%BB%D0%B0%D0%BD%208_4_796202033D5844D8A0B0_V1-0214.mov</pathurl>
                            <timecode>
                                <string>00:48:23:06</string>
                                <displayformat>NDF</displayformat>
                                <rate>
                                    <timebase>25</timebase>
                                    <ntsc>false</ntsc>
                                </rate>
                            </timecode>
                            <media>
                                <video>
                                    <duration>286</duration>
                                    <samplecharacteristics>
                                        <width>1920</width>
                                        <height>1080</height>
                                    </samplecharacteristics>
                                </video>
                            </media>
                        </file>
                        <compositemode>normal</compositemode>
                        <filter>
                            <enabled>true</enabled>
                            <start>0</start>
                            <end>286</end>
                            <effect>
                                <name>Opacity</name>
                                <effectid>opacity</effectid>
                                <effecttype>motion</effecttype>
                                <mediatype>video</mediatype>
                                <effectcategory>motion</effectcategory>
                                <parameter>
                                    <name>opacity</name>
                                    <parameterid>opacity</parameterid>
                                    <value>100</value>
                                    <valuemin>0</valuemin>
                                    <valuemax>100</valuemax>
                                </parameter>
                            </effect>
                        </filter>
                    </clipitem>
                    <clipitem id="КАССЕТНАЯ КАМЕРА 1_52_E465D7CD1D8D414081A1.mov 0">
                        <name>КАССЕТНАЯ КАМЕРА 1_52_E465D7CD1D8D414081A1.mov</name>
                        <duration>324</duration>
                        <rate>
                            <timebase>25</timebase>
                            <ntsc>false</ntsc>
                        </rate>
                        <start>72867</start>
                        <end>73191</end>
                        <enabled>true</enabled>
                        <in>0</in>
                        <out>324</out>
                        <file id="КАССЕТНАЯ КАМЕРА 1_52_E465D7CD1D8D414081A1.mov 2">
                            <duration>324</duration>
                            <rate>
                                <timebase>25</timebase>
                                <ntsc>false</ntsc>
                            </rate>
                            <name>КАССЕТНАЯ КАМЕРА 1_52_E465D7CD1D8D414081A1.mov</name>
                            <pathurl>file:///Capture1/EDIUS/EDIUS7_Color/colored/pasyans_v3/%D0%9A%D0%90%D0%A1%D0%A1%D0%95%D0%A2%D0%9D%D0%90%D0%AF%20%D0%9A%D0%90%D0%9C%D0%95%D0%A0%D0%90%201_52_E465D7CD1D8D414081A1_V1-0215.mov</pathurl>
                            <timecode>
                                <string>00:48:34:17</string>
                                <displayformat>NDF</displayformat>
                                <rate>
                                    <timebase>25</timebase>
                                    <ntsc>false</ntsc>
                                </rate>
                            </timecode>
                            <media>
                                <video>
                                    <duration>324</duration>
                                    <samplecharacteristics>
                                        <width>1920</width>
                                        <height>1080</height>
                                    </samplecharacteristics>
                                </video>
                            </media>
                        </file>
                        <compositemode>normal</compositemode>
                        <filter>
                            <enabled>true</enabled>
                            <start>0</start>
                            <end>324</end>
                            <effect>
                                <name>Opacity</name>
                                <effectid>opacity</effectid>
                                <effecttype>motion</effecttype>
                                <mediatype>video</mediatype>
                                <effectcategory>motion</effectcategory>
                                <parameter>
                                    <name>opacity</name>
                                    <parameterid>opacity</parameterid>
                                    <value>100</value>
                                    <valuemin>0</valuemin>
                                    <valuemax>100</valuemax>
                                </parameter>
                            </effect>
                        </filter>
                    </clipitem>
                    <clipitem id="общий план 8_5_C8CE188B7DAB467BB68E.mov 0">
                        <name>общий план 8_5_C8CE188B7DAB467BB68E.mov</name>
                        <duration>158</duration>
                        <rate>
                            <timebase>25</timebase>
                            <ntsc>false</ntsc>
                        </rate>
                        <start>73191</start>
                        <end>73349</end>
                        <enabled>true</enabled>
                        <in>0</in>
                        <out>158</out>
                        <file id="общий план 8_5_C8CE188B7DAB467BB68E.mov 2">
                            <duration>158</duration>
                            <rate>
                                <timebase>25</timebase>
                                <ntsc>false</ntsc>
                            </rate>
                            <name>общий план 8_5_C8CE188B7DAB467BB68E.mov</name>
                            <pathurl>file:///Capture1/EDIUS/EDIUS7_Color/colored/pasyans_v3/%D0%BE%D0%B1%D1%89%D0%B8%D0%B9%20%D0%BF%D0%BB%D0%B0%D0%BD%208_5_C8CE188B7DAB467BB68E_V1-0216.mov</pathurl>
                            <timecode>
                                <string>00:48:47:16</string>
                                <displayformat>NDF</displayformat>
                                <rate>
                                    <timebase>25</timebase>
                                    <ntsc>false</ntsc>
                                </rate>
                            </timecode>
                            <media>
                                <video>
                                    <duration>158</duration>
                                    <samplecharacteristics>
                                        <width>1920</width>
                                        <height>1080</height>
                                    </samplecharacteristics>
                                </video>
                            </media>
                        </file>
                        <compositemode>normal</compositemode>
                        <filter>
                            <enabled>true</enabled>
                            <start>0</start>
                            <end>158</end>
                            <effect>
                                <name>Opacity</name>
                                <effectid>opacity</effectid>
                                <effecttype>motion</effecttype>
                                <mediatype>video</mediatype>
                                <effectcategory>motion</effectcategory>
                                <parameter>
                                    <name>opacity</name>
                                    <parameterid>opacity</parameterid>
                                    <value>100</value>
                                    <valuemin>0</valuemin>
                                    <valuemax>100</valuemax>
                                </parameter>
                            </effect>
                        </filter>
                    </clipitem>
                    <clipitem id="246_0922_04_7_91B61E69E016483BB65F.mov 0">
                        <name>246_0922_04_7_91B61E69E016483BB65F.mov</name>
                        <duration>180</duration>
                        <rate>
                            <timebase>25</timebase>
                            <ntsc>false</ntsc>
                        </rate>
                        <start>73349</start>
                        <end>73530</end>
                        <enabled>true</enabled>
                        <in>0</in>
                        <out>181</out>
                        <file id="246_0922_04_7_91B61E69E016483BB65F.mov 2">
                            <duration>181</duration>
                            <rate>
                                <timebase>25</timebase>
                                <ntsc>false</ntsc>
                            </rate>
                            <name>246_0922_04_7_91B61E69E016483BB65F.mov</name>
                            <pathurl>file:///Capture1/EDIUS/EDIUS7_Color/colored/pasyans_v3/246_0922_04_7_91B61E69E016483BB65F_V1-0217.mov</pathurl>
                            <timecode>
                                <string>00:48:53:24</string>
                                <displayformat>NDF</displayformat>
                                <rate>
                                    <timebase>25</timebase>
                                    <ntsc>false</ntsc>
                                </rate>
                            </timecode>
                            <media>
                                <video>
                                    <duration>181</duration>
                                    <samplecharacteristics>
                                        <width>1920</width>
                                        <height>1080</height>
                                    </samplecharacteristics>
                                </video>
                            </media>
                        </file>
                        <compositemode>normal</compositemode>
                        <filter>
                            <enabled>true</enabled>
                            <start>0</start>
                            <end>180</end>
                            <effect>
                                <name>Opacity</name>
                                <effectid>opacity</effectid>
                                <effecttype>motion</effecttype>
                                <mediatype>video</mediatype>
                                <effectcategory>motion</effectcategory>
                                <parameter>
                                    <name>opacity</name>
                                    <parameterid>opacity</parameterid>
                                    <value>100</value>
                                    <valuemin>0</valuemin>
                                    <valuemax>100</valuemax>
                                </parameter>
                            </effect>
                        </filter>
                    </clipitem>
                    <clipitem id="общий план 8_6_8E3187B2992B4B75A7C4.mov 0">
                        <name>общий план 8_6_8E3187B2992B4B75A7C4.mov</name>
                        <duration>117</duration>
                        <rate>
                            <timebase>25</timebase>
                            <ntsc>false</ntsc>
                        </rate>
                        <start>77386</start>
                        <end>77504</end>
                        <enabled>true</enabled>
                        <in>0</in>
                        <out>118</out>
                        <file id="общий план 8_6_8E3187B2992B4B75A7C4.mov 2">
                            <duration>118</duration>
                            <rate>
                                <timebase>25</timebase>
                                <ntsc>false</ntsc>
                            </rate>
                            <name>общий план 8_6_8E3187B2992B4B75A7C4.mov</name>
                            <pathurl>file:///Capture1/EDIUS/EDIUS7_Color/colored/pasyans_v3/%D0%BE%D0%B1%D1%89%D0%B8%D0%B9%20%D0%BF%D0%BB%D0%B0%D0%BD%208_6_8E3187B2992B4B75A7C4_V1-0218.mov</pathurl>
                            <timecode>
                                <string>00:51:35:11</string>
                                <displayformat>NDF</displayformat>
                                <rate>
                                    <timebase>25</timebase>
                                    <ntsc>false</ntsc>
                                </rate>
                            </timecode>
                            <media>
                                <video>
                                    <duration>118</duration>
                                    <samplecharacteristics>
                                        <width>1920</width>
                                        <height>1080</height>
                                    </samplecharacteristics>
                                </video>
                            </media>
                        </file>
                        <compositemode>normal</compositemode>
                        <filter>
                            <enabled>true</enabled>
                            <start>0</start>
                            <end>117</end>
                            <effect>
                                <name>Opacity</name>
                                <effectid>opacity</effectid>
                                <effecttype>motion</effecttype>
                                <mediatype>video</mediatype>
                                <effectcategory>motion</effectcategory>
                                <parameter>
                                    <name>opacity</name>
                                    <parameterid>opacity</parameterid>
                                    <value>100</value>
                                    <valuemin>0</valuemin>
                                    <valuemax>100</valuemax>
                                </parameter>
                            </effect>
                        </filter>
                    </clipitem>
                    <clipitem id="КАССЕТНАЯ КАМЕРА 1_53_3E85203976C448BCB3A2.mov 0">
                        <name>КАССЕТНАЯ КАМЕРА 1_53_3E85203976C448BCB3A2.mov</name>
                        <duration>64</duration>
                        <rate>
                            <timebase>25</timebase>
                            <ntsc>false</ntsc>
                        </rate>
                        <start>77504</start>
                        <end>77569</end>
                        <enabled>true</enabled>
                        <in>0</in>
                        <out>65</out>
                        <file id="КАССЕТНАЯ КАМЕРА 1_53_3E85203976C448BCB3A2.mov 2">
                            <duration>65</duration>
                            <rate>
                                <timebase>25</timebase>
                                <ntsc>false</ntsc>
                            </rate>
                            <name>КАССЕТНАЯ КАМЕРА 1_53_3E85203976C448BCB3A2.mov</name>
                            <pathurl>file:///Capture1/EDIUS/EDIUS7_Color/colored/pasyans_v3/%D0%9A%D0%90%D0%A1%D0%A1%D0%95%D0%A2%D0%9D%D0%90%D0%AF%20%D0%9A%D0%90%D0%9C%D0%95%D0%A0%D0%90%201_53_3E85203976C448BCB3A2_V1-0219.mov</pathurl>
                            <timecode>
                                <string>00:51:40:04</string>
                                <displayformat>NDF</displayformat>
                                <rate>
                                    <timebase>25</timebase>
                                    <ntsc>false</ntsc>
                                </rate>
                            </timecode>
                            <media>
                                <video>
                                    <duration>65</duration>
                                    <samplecharacteristics>
                                        <width>1920</width>
                                        <height>1080</height>
                                    </samplecharacteristics>
                                </video>
                            </media>
                        </file>
                        <compositemode>normal</compositemode>
                        <filter>
                            <enabled>true</enabled>
                            <start>0</start>
                            <end>64</end>
                            <effect>
                                <name>Opacity</name>
                                <effectid>opacity</effectid>
                                <effecttype>motion</effecttype>
                                <mediatype>video</mediatype>
                                <effectcategory>motion</effectcategory>
                                <parameter>
                                    <name>opacity</name>
                                    <parameterid>opacity</parameterid>
                                    <value>100</value>
                                    <valuemin>0</valuemin>
                                    <valuemax>100</valuemax>
                                </parameter>
                            </effect>
                        </filter>
                    </clipitem>
                    <clipitem id="246_0922_04_8_8C92F328ED56479EA5E9.mov 0">
                        <name>246_0922_04_8_8C92F328ED56479EA5E9.mov</name>
                        <duration>57</duration>
                        <rate>
                            <timebase>25</timebase>
                            <ntsc>false</ntsc>
                        </rate>
                        <start>77569</start>
                        <end>77626</end>
                        <enabled>true</enabled>
                        <in>0</in>
                        <out>57</out>
                        <file id="246_0922_04_8_8C92F328ED56479EA5E9.mov 2">
                            <duration>57</duration>
                            <rate>
                                <timebase>25</timebase>
                                <ntsc>false</ntsc>
                            </rate>
                            <name>246_0922_04_8_8C92F328ED56479EA5E9.mov</name>
                            <pathurl>file:///Capture1/EDIUS/EDIUS7_Color/colored/pasyans_v3/246_0922_04_8_8C92F328ED56479EA5E9_V1-0220.mov</pathurl>
                            <timecode>
                                <string>00:51:42:19</string>
                                <displayformat>NDF</displayformat>
                                <rate>
                                    <timebase>25</timebase>
                                    <ntsc>false</ntsc>
                                </rate>
                            </timecode>
                            <media>
                                <video>
                                    <duration>57</duration>
                                    <samplecharacteristics>
                                        <width>1920</width>
                                        <height>1080</height>
                                    </samplecharacteristics>
                                </video>
                            </media>
                        </file>
                        <compositemode>normal</compositemode>
                        <filter>
                            <enabled>true</enabled>
                            <start>0</start>
                            <end>57</end>
                            <effect>
                                <name>Opacity</name>
                                <effectid>opacity</effectid>
                                <effecttype>motion</effecttype>
                                <mediatype>video</mediatype>
                                <effectcategory>motion</effectcategory>
                                <parameter>
                                    <name>opacity</name>
                                    <parameterid>opacity</parameterid>
                                    <value>100</value>
                                    <valuemin>0</valuemin>
                                    <valuemax>100</valuemax>
                                </parameter>
                            </effect>
                        </filter>
                    </clipitem>
                    <clipitem id="972_0437_04_10_D1F253C17F1343E6A278.mov 0">
                        <name>972_0437_04_10_D1F253C17F1343E6A278.mov</name>
                        <duration>78</duration>
                        <rate>
                            <timebase>25</timebase>
                            <ntsc>false</ntsc>
                        </rate>
                        <start>77626</start>
                        <end>77705</end>
                        <enabled>true</enabled>
                        <in>0</in>
                        <out>79</out>
                        <file id="972_0437_04_10_D1F253C17F1343E6A278.mov 2">
                            <duration>79</duration>
                            <rate>
                                <timebase>25</timebase>
                                <ntsc>false</ntsc>
                            </rate>
                            <name>972_0437_04_10_D1F253C17F1343E6A278.mov</name>
                            <pathurl>file:///Capture1/EDIUS/EDIUS7_Color/colored/pasyans_v3/972_0437_04_10_D1F253C17F1343E6A278_V1-0221.mov</pathurl>
                            <timecode>
                                <string>00:51:45:01</string>
                                <displayformat>NDF</displayformat>
                                <rate>
                                    <timebase>25</timebase>
                                    <ntsc>false</ntsc>
                                </rate>
                            </timecode>
                            <media>
                                <video>
                                    <duration>79</duration>
                                    <samplecharacteristics>
                                        <width>1920</width>
                                        <height>1080</height>
                                    </samplecharacteristics>
                                </video>
                            </media>
                        </file>
                        <compositemode>normal</compositemode>
                        <filter>
                            <enabled>true</enabled>
                            <start>0</start>
                            <end>78</end>
                            <effect>
                                <name>Opacity</name>
                                <effectid>opacity</effectid>
                                <effecttype>motion</effecttype>
                                <mediatype>video</mediatype>
                                <effectcategory>motion</effectcategory>
                                <parameter>
                                    <name>opacity</name>
                                    <parameterid>opacity</parameterid>
                                    <value>100</value>
                                    <valuemin>0</valuemin>
                                    <valuemax>100</valuemax>
                                </parameter>
                            </effect>
                        </filter>
                    </clipitem>
                    <clipitem id="общий план 8_7_723DC3C7E3934D029834.mov 0">
                        <name>общий план 8_7_723DC3C7E3934D029834.mov</name>
                        <duration>220</duration>
                        <rate>
                            <timebase>25</timebase>
                            <ntsc>false</ntsc>
                        </rate>
                        <start>77705</start>
                        <end>77925</end>
                        <enabled>true</enabled>
                        <in>0</in>
                        <out>220</out>
                        <file id="общий план 8_7_723DC3C7E3934D029834.mov 2">
                            <duration>220</duration>
                            <rate>
                                <timebase>25</timebase>
                                <ntsc>false</ntsc>
                            </rate>
                            <name>общий план 8_7_723DC3C7E3934D029834.mov</name>
                            <pathurl>file:///Capture1/EDIUS/EDIUS7_Color/colored/pasyans_v3/%D0%BE%D0%B1%D1%89%D0%B8%D0%B9%20%D0%BF%D0%BB%D0%B0%D0%BD%208_7_723DC3C7E3934D029834_V1-0222.mov</pathurl>
                            <timecode>
                                <string>00:51:48:05</string>
                                <displayformat>NDF</displayformat>
                                <rate>
                                    <timebase>25</timebase>
                                    <ntsc>false</ntsc>
                                </rate>
                            </timecode>
                            <media>
                                <video>
                                    <duration>220</duration>
                                    <samplecharacteristics>
                                        <width>1920</width>
                                        <height>1080</height>
                                    </samplecharacteristics>
                                </video>
                            </media>
                        </file>
                        <compositemode>normal</compositemode>
                        <filter>
                            <enabled>true</enabled>
                            <start>0</start>
                            <end>220</end>
                            <effect>
                                <name>Opacity</name>
                                <effectid>opacity</effectid>
                                <effecttype>motion</effecttype>
                                <mediatype>video</mediatype>
                                <effectcategory>motion</effectcategory>
                                <parameter>
                                    <name>opacity</name>
                                    <parameterid>opacity</parameterid>
                                    <value>100</value>
                                    <valuemin>0</valuemin>
                                    <valuemax>100</valuemax>
                                </parameter>
                            </effect>
                        </filter>
                    </clipitem>
                    <clipitem id="972_0437_04_11_D068639DDC6F499C9763.mov 0">
                        <name>972_0437_04_11_D068639DDC6F499C9763.mov</name>
                        <duration>225</duration>
                        <rate>
                            <timebase>25</timebase>
                            <ntsc>false</ntsc>
                        </rate>
                        <start>77925</start>
                        <end>78151</end>
                        <enabled>true</enabled>
                        <in>0</in>
                        <out>226</out>
                        <file id="972_0437_04_11_D068639DDC6F499C9763.mov 2">
                            <duration>226</duration>
                            <rate>
                                <timebase>25</timebase>
                                <ntsc>false</ntsc>
                            </rate>
                            <name>972_0437_04_11_D068639DDC6F499C9763.mov</name>
                            <pathurl>file:///Capture1/EDIUS/EDIUS7_Color/colored/pasyans_v3/972_0437_04_11_D068639DDC6F499C9763_V1-0223.mov</pathurl>
                            <timecode>
                                <string>00:51:57:00</string>
                                <displayformat>NDF</displayformat>
                                <rate>
                                    <timebase>25</timebase>
                                    <ntsc>false</ntsc>
                                </rate>
                            </timecode>
                            <media>
                                <video>
                                    <duration>226</duration>
                                    <samplecharacteristics>
                                        <width>1920</width>
                                        <height>1080</height>
                                    </samplecharacteristics>
                                </video>
                            </media>
                        </file>
                        <compositemode>normal</compositemode>
                        <filter>
                            <enabled>true</enabled>
                            <start>0</start>
                            <end>225</end>
                            <effect>
                                <name>Opacity</name>
                                <effectid>opacity</effectid>
                                <effecttype>motion</effecttype>
                                <mediatype>video</mediatype>
                                <effectcategory>motion</effectcategory>
                                <parameter>
                                    <name>opacity</name>
                                    <parameterid>opacity</parameterid>
                                    <value>100</value>
                                    <valuemin>0</valuemin>
                                    <valuemax>100</valuemax>
                                </parameter>
                            </effect>
                        </filter>
                    </clipitem>
                    <clipitem id="общий план 8_8_D88150CB4E694BE3AB90.mov 0">
                        <name>общий план 8_8_D88150CB4E694BE3AB90.mov</name>
                        <duration>160</duration>
                        <rate>
                            <timebase>25</timebase>
                            <ntsc>false</ntsc>
                        </rate>
                        <start>78151</start>
                        <end>78311</end>
                        <enabled>true</enabled>
                        <in>0</in>
                        <out>160</out>
                        <file id="общий план 8_8_D88150CB4E694BE3AB90.mov 2">
                            <duration>160</duration>
                            <rate>
                                <timebase>25</timebase>
                                <ntsc>false</ntsc>
                            </rate>
                            <name>общий план 8_8_D88150CB4E694BE3AB90.mov</name>
                            <pathurl>file:///Capture1/EDIUS/EDIUS7_Color/colored/pasyans_v3/%D0%BE%D0%B1%D1%89%D0%B8%D0%B9%20%D0%BF%D0%BB%D0%B0%D0%BD%208_8_D88150CB4E694BE3AB90_V1-0224.mov</pathurl>
                            <timecode>
                                <string>00:52:06:01</string>
                                <displayformat>NDF</displayformat>
                                <rate>
                                    <timebase>25</timebase>
                                    <ntsc>false</ntsc>
                                </rate>
                            </timecode>
                            <media>
                                <video>
                                    <duration>160</duration>
                                    <samplecharacteristics>
                                        <width>1920</width>
                                        <height>1080</height>
                                    </samplecharacteristics>
                                </video>
                            </media>
                        </file>
                        <compositemode>normal</compositemode>
                        <filter>
                            <enabled>true</enabled>
                            <start>0</start>
                            <end>160</end>
                            <effect>
                                <name>Opacity</name>
                                <effectid>opacity</effectid>
                                <effecttype>motion</effecttype>
                                <mediatype>video</mediatype>
                                <effectcategory>motion</effectcategory>
                                <parameter>
                                    <name>opacity</name>
                                    <parameterid>opacity</parameterid>
                                    <value>100</value>
                                    <valuemin>0</valuemin>
                                    <valuemax>100</valuemax>
                                </parameter>
                            </effect>
                        </filter>
                    </clipitem>
                    <clipitem id="КАССЕТНАЯ КАМЕРА 1_54_0C12B8268B2F45298BB2.mov 0">
                        <name>КАССЕТНАЯ КАМЕРА 1_54_0C12B8268B2F45298BB2.mov</name>
                        <duration>175</duration>
                        <rate>
                            <timebase>25</timebase>
                            <ntsc>false</ntsc>
                        </rate>
                        <start>78311</start>
                        <end>78486</end>
                        <enabled>true</enabled>
                        <in>0</in>
                        <out>175</out>
                        <file id="КАССЕТНАЯ КАМЕРА 1_54_0C12B8268B2F45298BB2.mov 2">
                            <duration>175</duration>
                            <rate>
                                <timebase>25</timebase>
                                <ntsc>false</ntsc>
                            </rate>
                            <name>КАССЕТНАЯ КАМЕРА 1_54_0C12B8268B2F45298BB2.mov</name>
                            <pathurl>file:///Capture1/EDIUS/EDIUS7_Color/colored/pasyans_v3/%D0%9A%D0%90%D0%A1%D0%A1%D0%95%D0%A2%D0%9D%D0%90%D0%AF%20%D0%9A%D0%90%D0%9C%D0%95%D0%A0%D0%90%201_54_0C12B8268B2F45298BB2_V1-0225.mov</pathurl>
                            <timecode>
                                <string>00:52:12:11</string>
                                <displayformat>NDF</displayformat>
                                <rate>
                                    <timebase>25</timebase>
                                    <ntsc>false</ntsc>
                                </rate>
                            </timecode>
                            <media>
                                <video>
                                    <duration>175</duration>
                                    <samplecharacteristics>
                                        <width>1920</width>
                                        <height>1080</height>
                                    </samplecharacteristics>
                                </video>
                            </media>
                        </file>
                        <compositemode>normal</compositemode>
                        <filter>
                            <enabled>true</enabled>
                            <start>0</start>
                            <end>175</end>
                            <effect>
                                <name>Opacity</name>
                                <effectid>opacity</effectid>
                                <effecttype>motion</effecttype>
                                <mediatype>video</mediatype>
                                <effectcategory>motion</effectcategory>
                                <parameter>
                                    <name>opacity</name>
                                    <parameterid>opacity</parameterid>
                                    <value>100</value>
                                    <valuemin>0</valuemin>
                                    <valuemax>100</valuemax>
                                </parameter>
                            </effect>
                        </filter>
                    </clipitem>
                    <clipitem id="GP028503_2_78D99FA282484AAABDE4.mov 0">
                        <name>GP028503_2_78D99FA282484AAABDE4.mov</name>
                        <duration>153</duration>
                        <rate>
                            <timebase>25</timebase>
                            <ntsc>false</ntsc>
                        </rate>
                        <start>78486</start>
                        <end>78640</end>
                        <enabled>true</enabled>
                        <in>0</in>
                        <out>154</out>
                        <file id="GP028503_2_78D99FA282484AAABDE4.mov 2">
                            <duration>154</duration>
                            <rate>
                                <timebase>25</timebase>
                                <ntsc>false</ntsc>
                            </rate>
                            <name>GP028503_2_78D99FA282484AAABDE4.mov</name>
                            <pathurl>file:///Capture1/EDIUS/EDIUS7_Color/colored/pasyans_v3/GP028503_2_78D99FA282484AAABDE4_V1-0226.mov</pathurl>
                            <timecode>
                                <string>00:52:19:11</string>
                                <displayformat>NDF</displayformat>
                                <rate>
                                    <timebase>25</timebase>
                                    <ntsc>false</ntsc>
                                </rate>
                            </timecode>
                            <media>
                                <video>
                                    <duration>154</duration>
                                    <samplecharacteristics>
                                        <width>1920</width>
                                        <height>1080</height>
                                    </samplecharacteristics>
                                </video>
                            </media>
                        </file>
                        <compositemode>normal</compositemode>
                        <filter>
                            <enabled>true</enabled>
                            <start>0</start>
                            <end>153</end>
                            <effect>
                                <name>Opacity</name>
                                <effectid>opacity</effectid>
                                <effecttype>motion</effecttype>
                                <mediatype>video</mediatype>
                                <effectcategory>motion</effectcategory>
                                <parameter>
                                    <name>opacity</name>
                                    <parameterid>opacity</parameterid>
                                    <value>100</value>
                                    <valuemin>0</valuemin>
                                    <valuemax>100</valuemax>
                                </parameter>
                            </effect>
                        </filter>
                    </clipitem>
                    <clipitem id="КАССЕТНАЯ КАМЕРА 1_55_92692FA746AC497EBA29.mov 0">
                        <name>КАССЕТНАЯ КАМЕРА 1_55_92692FA746AC497EBA29.mov</name>
                        <duration>133</duration>
                        <rate>
                            <timebase>25</timebase>
                            <ntsc>false</ntsc>
                        </rate>
                        <start>78640</start>
                        <end>78773</end>
                        <enabled>true</enabled>
                        <in>0</in>
                        <out>133</out>
                        <file id="КАССЕТНАЯ КАМЕРА 1_55_92692FA746AC497EBA29.mov 2">
                            <duration>133</duration>
                            <rate>
                                <timebase>25</timebase>
                                <ntsc>false</ntsc>
                            </rate>
                            <name>КАССЕТНАЯ КАМЕРА 1_55_92692FA746AC497EBA29.mov</name>
                            <pathurl>file:///Capture1/EDIUS/EDIUS7_Color/colored/pasyans_v3/%D0%9A%D0%90%D0%A1%D0%A1%D0%95%D0%A2%D0%9D%D0%90%D0%AF%20%D0%9A%D0%90%D0%9C%D0%95%D0%A0%D0%90%201_55_92692FA746AC497EBA29_V1-0227.mov</pathurl>
                            <timecode>
                                <string>00:52:25:15</string>
                                <displayformat>NDF</displayformat>
                                <rate>
                                    <timebase>25</timebase>
                                    <ntsc>false</ntsc>
                                </rate>
                            </timecode>
                            <media>
                                <video>
                                    <duration>133</duration>
                                    <samplecharacteristics>
                                        <width>1920</width>
                                        <height>1080</height>
                                    </samplecharacteristics>
                                </video>
                            </media>
                        </file>
                        <compositemode>normal</compositemode>
                        <filter>
                            <enabled>true</enabled>
                            <start>0</start>
                            <end>133</end>
                            <effect>
                                <name>Opacity</name>
                                <effectid>opacity</effectid>
                                <effecttype>motion</effecttype>
                                <mediatype>video</mediatype>
                                <effectcategory>motion</effectcategory>
                                <parameter>
                                    <name>opacity</name>
                                    <parameterid>opacity</parameterid>
                                    <value>100</value>
                                    <valuemin>0</valuemin>
                                    <valuemax>100</valuemax>
                                </parameter>
                            </effect>
                        </filter>
                    </clipitem>
                    <clipitem id="972_0437_05_1_70FDFAFB205B4094B5EA.mov 0">
                        <name>972_0437_05_1_70FDFAFB205B4094B5EA.mov</name>
                        <duration>241</duration>
                        <rate>
                            <timebase>25</timebase>
                            <ntsc>false</ntsc>
                        </rate>
                        <start>78858</start>
                        <end>79100</end>
                        <enabled>true</enabled>
                        <in>0</in>
                        <out>242</out>
                        <file id="972_0437_05_1_70FDFAFB205B4094B5EA.mov 2">
                            <duration>242</duration>
                            <rate>
                                <timebase>25</timebase>
                                <ntsc>false</ntsc>
                            </rate>
                            <name>972_0437_05_1_70FDFAFB205B4094B5EA.mov</name>
                            <pathurl>file:///Capture1/EDIUS/EDIUS7_Color/colored/pasyans_v3/972_0437_05_1_70FDFAFB205B4094B5EA_V1-0228.mov</pathurl>
                            <timecode>
                                <string>00:52:34:08</string>
                                <displayformat>NDF</displayformat>
                                <rate>
                                    <timebase>25</timebase>
                                    <ntsc>false</ntsc>
                                </rate>
                            </timecode>
                            <media>
                                <video>
                                    <duration>242</duration>
                                    <samplecharacteristics>
                                        <width>1920</width>
                                        <height>1080</height>
                                    </samplecharacteristics>
                                </video>
                            </media>
                        </file>
                        <compositemode>normal</compositemode>
                        <filter>
                            <enabled>true</enabled>
                            <start>0</start>
                            <end>241</end>
                            <effect>
                                <name>Opacity</name>
                                <effectid>opacity</effectid>
                                <effecttype>motion</effecttype>
                                <mediatype>video</mediatype>
                                <effectcategory>motion</effectcategory>
                                <parameter>
                                    <name>opacity</name>
                                    <parameterid>opacity</parameterid>
                                    <value>100</value>
                                    <valuemin>0</valuemin>
                                    <valuemax>100</valuemax>
                                </parameter>
                            </effect>
                        </filter>
                    </clipitem>
                    <clipitem id="GP028503_3_54473F734D5142AA8189.mov 0">
                        <name>GP028503_3_54473F734D5142AA8189.mov</name>
                        <duration>150</duration>
                        <rate>
                            <timebase>25</timebase>
                            <ntsc>false</ntsc>
                        </rate>
                        <start>79100</start>
                        <end>79250</end>
                        <enabled>true</enabled>
                        <in>0</in>
                        <out>150</out>
                        <file id="GP028503_3_54473F734D5142AA8189.mov 2">
                            <duration>150</duration>
                            <rate>
                                <timebase>25</timebase>
                                <ntsc>false</ntsc>
                            </rate>
                            <name>GP028503_3_54473F734D5142AA8189.mov</name>
                            <pathurl>file:///Capture1/EDIUS/EDIUS7_Color/colored/pasyans_v3/GP028503_3_54473F734D5142AA8189_V1-0229.mov</pathurl>
                            <timecode>
                                <string>00:52:44:00</string>
                                <displayformat>NDF</displayformat>
                                <rate>
                                    <timebase>25</timebase>
                                    <ntsc>false</ntsc>
                                </rate>
                            </timecode>
                            <media>
                                <video>
                                    <duration>150</duration>
                                    <samplecharacteristics>
                                        <width>1920</width>
                                        <height>1080</height>
                                    </samplecharacteristics>
                                </video>
                            </media>
                        </file>
                        <compositemode>normal</compositemode>
                        <filter>
                            <enabled>true</enabled>
                            <start>0</start>
                            <end>150</end>
                            <effect>
                                <name>Opacity</name>
                                <effectid>opacity</effectid>
                                <effecttype>motion</effecttype>
                                <mediatype>video</mediatype>
                                <effectcategory>motion</effectcategory>
                                <parameter>
                                    <name>opacity</name>
                                    <parameterid>opacity</parameterid>
                                    <value>100</value>
                                    <valuemin>0</valuemin>
                                    <valuemax>100</valuemax>
                                </parameter>
                            </effect>
                        </filter>
                    </clipitem>
                    <clipitem id="246_0922_05_1_C034286BFC224090B351.mov 0">
                        <name>246_0922_05_1_C034286BFC224090B351.mov</name>
                        <duration>176</duration>
                        <rate>
                            <timebase>25</timebase>
                            <ntsc>false</ntsc>
                        </rate>
                        <start>79250</start>
                        <end>79427</end>
                        <enabled>true</enabled>
                        <in>0</in>
                        <out>177</out>
                        <file id="246_0922_05_1_C034286BFC224090B351.mov 2">
                            <duration>177</duration>
                            <rate>
                                <timebase>25</timebase>
                                <ntsc>false</ntsc>
                            </rate>
                            <name>246_0922_05_1_C034286BFC224090B351.mov</name>
                            <pathurl>file:///Capture1/EDIUS/EDIUS7_Color/colored/pasyans_v3/246_0922_05_1_C034286BFC224090B351_V1-0230.mov</pathurl>
                            <timecode>
                                <string>00:52:50:00</string>
                                <displayformat>NDF</displayformat>
                                <rate>
                                    <timebase>25</timebase>
                                    <ntsc>false</ntsc>
                                </rate>
                            </timecode>
                            <media>
                                <video>
                                    <duration>177</duration>
                                    <samplecharacteristics>
                                        <width>1920</width>
                                        <height>1080</height>
                                    </samplecharacteristics>
                                </video>
                            </media>
                        </file>
                        <compositemode>normal</compositemode>
                        <filter>
                            <enabled>true</enabled>
                            <start>0</start>
                            <end>176</end>
                            <effect>
                                <name>Opacity</name>
                                <effectid>opacity</effectid>
                                <effecttype>motion</effecttype>
                                <mediatype>video</mediatype>
                                <effectcategory>motion</effectcategory>
                                <parameter>
                                    <name>opacity</name>
                                    <parameterid>opacity</parameterid>
                                    <value>100</value>
                                    <valuemin>0</valuemin>
                                    <valuemax>100</valuemax>
                                </parameter>
                            </effect>
                        </filter>
                    </clipitem>
                    <clipitem id="КАССЕТНАЯ КАМЕРА 1_56_CF47F3BF54FB45C4ADC8.mov 0">
                        <name>КАССЕТНАЯ КАМЕРА 1_56_CF47F3BF54FB45C4ADC8.mov</name>
                        <duration>126</duration>
                        <rate>
                            <timebase>25</timebase>
                            <ntsc>false</ntsc>
                        </rate>
                        <start>79427</start>
                        <end>79554</end>
                        <enabled>true</enabled>
                        <in>0</in>
                        <out>127</out>
                        <file id="КАССЕТНАЯ КАМЕРА 1_56_CF47F3BF54FB45C4ADC8.mov 2">
                            <duration>127</duration>
                            <rate>
                                <timebase>25</timebase>
                                <ntsc>false</ntsc>
                            </rate>
                            <name>КАССЕТНАЯ КАМЕРА 1_56_CF47F3BF54FB45C4ADC8.mov</name>
                            <pathurl>file:///Capture1/EDIUS/EDIUS7_Color/colored/pasyans_v3/%D0%9A%D0%90%D0%A1%D0%A1%D0%95%D0%A2%D0%9D%D0%90%D0%AF%20%D0%9A%D0%90%D0%9C%D0%95%D0%A0%D0%90%201_56_CF47F3BF54FB45C4ADC8_V1-0231.mov</pathurl>
                            <timecode>
                                <string>00:52:57:02</string>
                                <displayformat>NDF</displayformat>
                                <rate>
                                    <timebase>25</timebase>
                                    <ntsc>false</ntsc>
                                </rate>
                            </timecode>
                            <media>
                                <video>
                                    <duration>127</duration>
                                    <samplecharacteristics>
                                        <width>1920</width>
                                        <height>1080</height>
                                    </samplecharacteristics>
                                </video>
                            </media>
                        </file>
                        <compositemode>normal</compositemode>
                        <filter>
                            <enabled>true</enabled>
                            <start>0</start>
                            <end>126</end>
                            <effect>
                                <name>Opacity</name>
                                <effectid>opacity</effectid>
                                <effecttype>motion</effecttype>
                                <mediatype>video</mediatype>
                                <effectcategory>motion</effectcategory>
                                <parameter>
                                    <name>opacity</name>
                                    <parameterid>opacity</parameterid>
                                    <value>100</value>
                                    <valuemin>0</valuemin>
                                    <valuemax>100</valuemax>
                                </parameter>
                            </effect>
                        </filter>
                    </clipitem>
                    <clipitem id="общий план 9_1_8231D661AC2E4479B48A.mov 0">
                        <name>общий план 9_1_8231D661AC2E4479B48A.mov</name>
                        <duration>249</duration>
                        <rate>
                            <timebase>25</timebase>
                            <ntsc>false</ntsc>
                        </rate>
                        <start>79554</start>
                        <end>79803</end>
                        <enabled>true</enabled>
                        <in>0</in>
                        <out>249</out>
                        <file id="общий план 9_1_8231D661AC2E4479B48A.mov 2">
                            <duration>249</duration>
                            <rate>
                                <timebase>25</timebase>
                                <ntsc>false</ntsc>
                            </rate>
                            <name>общий план 9_1_8231D661AC2E4479B48A.mov</name>
                            <pathurl>file:///Capture1/EDIUS/EDIUS7_Color/colored/pasyans_v3/%D0%BE%D0%B1%D1%89%D0%B8%D0%B9%20%D0%BF%D0%BB%D0%B0%D0%BD%209_1_8231D661AC2E4479B48A_V1-0232.mov</pathurl>
                            <timecode>
                                <string>00:53:02:04</string>
                                <displayformat>NDF</displayformat>
                                <rate>
                                    <timebase>25</timebase>
                                    <ntsc>false</ntsc>
                                </rate>
                            </timecode>
                            <media>
                                <video>
                                    <duration>249</duration>
                                    <samplecharacteristics>
                                        <width>1920</width>
                                        <height>1080</height>
                                    </samplecharacteristics>
                                </video>
                            </media>
                        </file>
                        <compositemode>normal</compositemode>
                        <filter>
                            <enabled>true</enabled>
                            <start>0</start>
                            <end>249</end>
                            <effect>
                                <name>Opacity</name>
                                <effectid>opacity</effectid>
                                <effecttype>motion</effecttype>
                                <mediatype>video</mediatype>
                                <effectcategory>motion</effectcategory>
                                <parameter>
                                    <name>opacity</name>
                                    <parameterid>opacity</parameterid>
                                    <value>100</value>
                                    <valuemin>0</valuemin>
                                    <valuemax>100</valuemax>
                                </parameter>
                            </effect>
                        </filter>
                    </clipitem>
                    <clipitem id="972_0437_05_2_42832A742BFA45F5A5CB.mov 0">
                        <name>972_0437_05_2_42832A742BFA45F5A5CB.mov</name>
                        <duration>165</duration>
                        <rate>
                            <timebase>25</timebase>
                            <ntsc>false</ntsc>
                        </rate>
                        <start>79803</start>
                        <end>79969</end>
                        <enabled>true</enabled>
                        <in>0</in>
                        <out>166</out>
                        <file id="972_0437_05_2_42832A742BFA45F5A5CB.mov 2">
                            <duration>166</duration>
                            <rate>
                                <timebase>25</timebase>
                                <ntsc>false</ntsc>
                            </rate>
                            <name>972_0437_05_2_42832A742BFA45F5A5CB.mov</name>
                            <pathurl>file:///Capture1/EDIUS/EDIUS7_Color/colored/pasyans_v3/972_0437_05_2_42832A742BFA45F5A5CB_V1-0233.mov</pathurl>
                            <timecode>
                                <string>00:53:12:03</string>
                                <displayformat>NDF</displayformat>
                                <rate>
                                    <timebase>25</timebase>
                                    <ntsc>false</ntsc>
                                </rate>
                            </timecode>
                            <media>
                                <video>
                                    <duration>166</duration>
                                    <samplecharacteristics>
                                        <width>1920</width>
                                        <height>1080</height>
                                    </samplecharacteristics>
                                </video>
                            </media>
                        </file>
                        <compositemode>normal</compositemode>
                        <filter>
                            <enabled>true</enabled>
                            <start>0</start>
                            <end>165</end>
                            <effect>
                                <name>Opacity</name>
                                <effectid>opacity</effectid>
                                <effecttype>motion</effecttype>
                                <mediatype>video</mediatype>
                                <effectcategory>motion</effectcategory>
                                <parameter>
                                    <name>opacity</name>
                                    <parameterid>opacity</parameterid>
                                    <value>100</value>
                                    <valuemin>0</valuemin>
                                    <valuemax>100</valuemax>
                                </parameter>
                            </effect>
                        </filter>
                    </clipitem>
                    <clipitem id="246_0922_05_2_03539D60F4A244D8AE0B.mov 0">
                        <name>246_0922_05_2_03539D60F4A244D8AE0B.mov</name>
                        <duration>119</duration>
                        <rate>
                            <timebase>25</timebase>
                            <ntsc>false</ntsc>
                        </rate>
                        <start>79969</start>
                        <end>80088</end>
                        <enabled>true</enabled>
                        <in>0</in>
                        <out>119</out>
                        <file id="246_0922_05_2_03539D60F4A244D8AE0B.mov 2">
                            <duration>119</duration>
                            <rate>
                                <timebase>25</timebase>
                                <ntsc>false</ntsc>
                            </rate>
                            <name>246_0922_05_2_03539D60F4A244D8AE0B.mov</name>
                            <pathurl>file:///Capture1/EDIUS/EDIUS7_Color/colored/pasyans_v3/246_0922_05_2_03539D60F4A244D8AE0B_V1-0234.mov</pathurl>
                            <timecode>
                                <string>00:53:18:19</string>
                                <displayformat>NDF</displayformat>
                                <rate>
                                    <timebase>25</timebase>
                                    <ntsc>false</ntsc>
                                </rate>
                            </timecode>
                            <media>
                                <video>
                                    <duration>119</duration>
                                    <samplecharacteristics>
                                        <width>1920</width>
                                        <height>1080</height>
                                    </samplecharacteristics>
                                </video>
                            </media>
                        </file>
                        <compositemode>normal</compositemode>
                        <filter>
                            <enabled>true</enabled>
                            <start>0</start>
                            <end>119</end>
                            <effect>
                                <name>Opacity</name>
                                <effectid>opacity</effectid>
                                <effecttype>motion</effecttype>
                                <mediatype>video</mediatype>
                                <effectcategory>motion</effectcategory>
                                <parameter>
                                    <name>opacity</name>
                                    <parameterid>opacity</parameterid>
                                    <value>100</value>
                                    <valuemin>0</valuemin>
                                    <valuemax>100</valuemax>
                                </parameter>
                            </effect>
                        </filter>
                    </clipitem>
                    <clipitem id="общий план 9_2_F5EEFC88A0A14EE2B7ED.mov 0">
                        <name>общий план 9_2_F5EEFC88A0A14EE2B7ED.mov</name>
                        <duration>160</duration>
                        <rate>
                            <timebase>25</timebase>
                            <ntsc>false</ntsc>
                        </rate>
                        <start>80088</start>
                        <end>80248</end>
                        <enabled>true</enabled>
                        <in>0</in>
                        <out>160</out>
                        <file id="общий план 9_2_F5EEFC88A0A14EE2B7ED.mov 2">
                            <duration>160</duration>
                            <rate>
                                <timebase>25</timebase>
                                <ntsc>false</ntsc>
                            </rate>
                            <name>общий план 9_2_F5EEFC88A0A14EE2B7ED.mov</name>
                            <pathurl>file:///Capture1/EDIUS/EDIUS7_Color/colored/pasyans_v3/%D0%BE%D0%B1%D1%89%D0%B8%D0%B9%20%D0%BF%D0%BB%D0%B0%D0%BD%209_2_F5EEFC88A0A14EE2B7ED_V1-0235.mov</pathurl>
                            <timecode>
                                <string>00:53:23:13</string>
                                <displayformat>NDF</displayformat>
                                <rate>
                                    <timebase>25</timebase>
                                    <ntsc>false</ntsc>
                                </rate>
                            </timecode>
                            <media>
                                <video>
                                    <duration>160</duration>
                                    <samplecharacteristics>
                                        <width>1920</width>
                                        <height>1080</height>
                                    </samplecharacteristics>
                                </video>
                            </media>
                        </file>
                        <compositemode>normal</compositemode>
                        <filter>
                            <enabled>true</enabled>
                            <start>0</start>
                            <end>160</end>
                            <effect>
                                <name>Opacity</name>
                                <effectid>opacity</effectid>
                                <effecttype>motion</effecttype>
                                <mediatype>video</mediatype>
                                <effectcategory>motion</effectcategory>
                                <parameter>
                                    <name>opacity</name>
                                    <parameterid>opacity</parameterid>
                                    <value>100</value>
                                    <valuemin>0</valuemin>
                                    <valuemax>100</valuemax>
                                </parameter>
                            </effect>
                        </filter>
                    </clipitem>
                    <clipitem id="972_0437_05_3_3F81AED6942C4D2BB88A.mov 0">
                        <name>972_0437_05_3_3F81AED6942C4D2BB88A.mov</name>
                        <duration>157</duration>
                        <rate>
                            <timebase>25</timebase>
                            <ntsc>false</ntsc>
                        </rate>
                        <start>81217</start>
                        <end>81374</end>
                        <enabled>true</enabled>
                        <in>0</in>
                        <out>157</out>
                        <file id="972_0437_05_3_3F81AED6942C4D2BB88A.mov 2">
                            <duration>157</duration>
                            <rate>
                                <timebase>25</timebase>
                                <ntsc>false</ntsc>
                            </rate>
                            <name>972_0437_05_3_3F81AED6942C4D2BB88A.mov</name>
                            <pathurl>file:///Capture1/EDIUS/EDIUS7_Color/colored/pasyans_v3/972_0437_05_3_3F81AED6942C4D2BB88A_V1-0236.mov</pathurl>
                            <timecode>
                                <string>00:54:08:17</string>
                                <displayformat>NDF</displayformat>
                                <rate>
                                    <timebase>25</timebase>
                                    <ntsc>false</ntsc>
                                </rate>
                            </timecode>
                            <media>
                                <video>
                                    <duration>157</duration>
                                    <samplecharacteristics>
                                        <width>1920</width>
                                        <height>1080</height>
                                    </samplecharacteristics>
                                </video>
                            </media>
                        </file>
                        <compositemode>normal</compositemode>
                        <filter>
                            <enabled>true</enabled>
                            <start>0</start>
                            <end>157</end>
                            <effect>
                                <name>Opacity</name>
                                <effectid>opacity</effectid>
                                <effecttype>motion</effecttype>
                                <mediatype>video</mediatype>
                                <effectcategory>motion</effectcategory>
                                <parameter>
                                    <name>opacity</name>
                                    <parameterid>opacity</parameterid>
                                    <value>100</value>
                                    <valuemin>0</valuemin>
                                    <valuemax>100</valuemax>
                                </parameter>
                            </effect>
                        </filter>
                    </clipitem>
                    <clipitem id="GP028503_4_070C41F81EB34545B1C0.mov 0">
                        <name>GP028503_4_070C41F81EB34545B1C0.mov</name>
                        <duration>230</duration>
                        <rate>
                            <timebase>25</timebase>
                            <ntsc>false</ntsc>
                        </rate>
                        <start>81374</start>
                        <end>81605</end>
                        <enabled>true</enabled>
                        <in>0</in>
                        <out>231</out>
                        <file id="GP028503_4_070C41F81EB34545B1C0.mov 2">
                            <duration>231</duration>
                            <rate>
                                <timebase>25</timebase>
                                <ntsc>false</ntsc>
                            </rate>
                            <name>GP028503_4_070C41F81EB34545B1C0.mov</name>
                            <pathurl>file:///Capture1/EDIUS/EDIUS7_Color/colored/pasyans_v3/GP028503_4_070C41F81EB34545B1C0_V1-0237.mov</pathurl>
                            <timecode>
                                <string>00:54:14:24</string>
                                <displayformat>NDF</displayformat>
                                <rate>
                                    <timebase>25</timebase>
                                    <ntsc>false</ntsc>
                                </rate>
                            </timecode>
                            <media>
                                <video>
                                    <duration>231</duration>
                                    <samplecharacteristics>
                                        <width>1920</width>
                                        <height>1080</height>
                                    </samplecharacteristics>
                                </video>
                            </media>
                        </file>
                        <compositemode>normal</compositemode>
                        <filter>
                            <enabled>true</enabled>
                            <start>0</start>
                            <end>230</end>
                            <effect>
                                <name>Opacity</name>
                                <effectid>opacity</effectid>
                                <effecttype>motion</effecttype>
                                <mediatype>video</mediatype>
                                <effectcategory>motion</effectcategory>
                                <parameter>
                                    <name>opacity</name>
                                    <parameterid>opacity</parameterid>
                                    <value>100</value>
                                    <valuemin>0</valuemin>
                                    <valuemax>100</valuemax>
                                </parameter>
                            </effect>
                        </filter>
                    </clipitem>
                    <clipitem id="КАССЕТНАЯ КАМЕРА 1_57_D499061737EC4001911F.mov 0">
                        <name>КАССЕТНАЯ КАМЕРА 1_57_D499061737EC4001911F.mov</name>
                        <duration>208</duration>
                        <rate>
                            <timebase>25</timebase>
                            <ntsc>false</ntsc>
                        </rate>
                        <start>81605</start>
                        <end>81813</end>
                        <enabled>true</enabled>
                        <in>0</in>
                        <out>208</out>
                        <file id="КАССЕТНАЯ КАМЕРА 1_57_D499061737EC4001911F.mov 2">
                            <duration>208</duration>
                            <rate>
                                <timebase>25</timebase>
                                <ntsc>false</ntsc>
                            </rate>
                            <name>КАССЕТНАЯ КАМЕРА 1_57_D499061737EC4001911F.mov</name>
                            <pathurl>file:///Capture1/EDIUS/EDIUS7_Color/colored/pasyans_v3/%D0%9A%D0%90%D0%A1%D0%A1%D0%95%D0%A2%D0%9D%D0%90%D0%AF%20%D0%9A%D0%90%D0%9C%D0%95%D0%A0%D0%90%201_57_D499061737EC4001911F_V1-0238.mov</pathurl>
                            <timecode>
                                <string>00:54:24:05</string>
                                <displayformat>NDF</displayformat>
                                <rate>
                                    <timebase>25</timebase>
                                    <ntsc>false</ntsc>
                                </rate>
                            </timecode>
                            <media>
                                <video>
                                    <duration>208</duration>
                                    <samplecharacteristics>
                                        <width>1920</width>
                                        <height>1080</height>
                                    </samplecharacteristics>
                                </video>
                            </media>
                        </file>
                        <compositemode>normal</compositemode>
                        <filter>
                            <enabled>true</enabled>
                            <start>0</start>
                            <end>208</end>
                            <effect>
                                <name>Opacity</name>
                                <effectid>opacity</effectid>
                                <effecttype>motion</effecttype>
                                <mediatype>video</mediatype>
                                <effectcategory>motion</effectcategory>
                                <parameter>
                                    <name>opacity</name>
                                    <parameterid>opacity</parameterid>
                                    <value>100</value>
                                    <valuemin>0</valuemin>
                                    <valuemax>100</valuemax>
                                </parameter>
                            </effect>
                        </filter>
                    </clipitem>
                    <clipitem id="общий план 9_3_CD528E874BDA40B4B08D.mov 0">
                        <name>общий план 9_3_CD528E874BDA40B4B08D.mov</name>
                        <duration>191</duration>
                        <rate>
                            <timebase>25</timebase>
                            <ntsc>false</ntsc>
                        </rate>
                        <start>81813</start>
                        <end>82005</end>
                        <enabled>true</enabled>
                        <in>0</in>
                        <out>192</out>
                        <file id="общий план 9_3_CD528E874BDA40B4B08D.mov 2">
                            <duration>192</duration>
                            <rate>
                                <timebase>25</timebase>
                                <ntsc>false</ntsc>
                            </rate>
                            <name>общий план 9_3_CD528E874BDA40B4B08D.mov</name>
                            <pathurl>file:///Capture1/EDIUS/EDIUS7_Color/colored/pasyans_v3/%D0%BE%D0%B1%D1%89%D0%B8%D0%B9%20%D0%BF%D0%BB%D0%B0%D0%BD%209_3_CD528E874BDA40B4B08D_V1-0239.mov</pathurl>
                            <timecode>
                                <string>00:54:32:13</string>
                                <displayformat>NDF</displayformat>
                                <rate>
                                    <timebase>25</timebase>
                                    <ntsc>false</ntsc>
                                </rate>
                            </timecode>
                            <media>
                                <video>
                                    <duration>192</duration>
                                    <samplecharacteristics>
                                        <width>1920</width>
                                        <height>1080</height>
                                    </samplecharacteristics>
                                </video>
                            </media>
                        </file>
                        <compositemode>normal</compositemode>
                        <filter>
                            <enabled>true</enabled>
                            <start>0</start>
                            <end>191</end>
                            <effect>
                                <name>Opacity</name>
                                <effectid>opacity</effectid>
                                <effecttype>motion</effecttype>
                                <mediatype>video</mediatype>
                                <effectcategory>motion</effectcategory>
                                <parameter>
                                    <name>opacity</name>
                                    <parameterid>opacity</parameterid>
                                    <value>100</value>
                                    <valuemin>0</valuemin>
                                    <valuemax>100</valuemax>
                                </parameter>
                            </effect>
                        </filter>
                    </clipitem>
                    <clipitem id="972_0437_05_4_4428C1426F5A4E90905B.mov 0">
                        <name>972_0437_05_4_4428C1426F5A4E90905B.mov</name>
                        <duration>113</duration>
                        <rate>
                            <timebase>25</timebase>
                            <ntsc>false</ntsc>
                        </rate>
                        <start>82005</start>
                        <end>82119</end>
                        <enabled>true</enabled>
                        <in>0</in>
                        <out>114</out>
                        <file id="972_0437_05_4_4428C1426F5A4E90905B.mov 2">
                            <duration>114</duration>
                            <rate>
                                <timebase>25</timebase>
                                <ntsc>false</ntsc>
                            </rate>
                            <name>972_0437_05_4_4428C1426F5A4E90905B.mov</name>
                            <pathurl>file:///Capture1/EDIUS/EDIUS7_Color/colored/pasyans_v3/972_0437_05_4_4428C1426F5A4E90905B_V1-0240.mov</pathurl>
                            <timecode>
                                <string>00:54:40:05</string>
                                <displayformat>NDF</displayformat>
                                <rate>
                                    <timebase>25</timebase>
                                    <ntsc>false</ntsc>
                                </rate>
                            </timecode>
                            <media>
                                <video>
                                    <duration>114</duration>
                                    <samplecharacteristics>
                                        <width>1920</width>
                                        <height>1080</height>
                                    </samplecharacteristics>
                                </video>
                            </media>
                        </file>
                        <compositemode>normal</compositemode>
                        <filter>
                            <enabled>true</enabled>
                            <start>0</start>
                            <end>113</end>
                            <effect>
                                <name>Opacity</name>
                                <effectid>opacity</effectid>
                                <effecttype>motion</effecttype>
                                <mediatype>video</mediatype>
                                <effectcategory>motion</effectcategory>
                                <parameter>
                                    <name>opacity</name>
                                    <parameterid>opacity</parameterid>
                                    <value>100</value>
                                    <valuemin>0</valuemin>
                                    <valuemax>100</valuemax>
                                </parameter>
                            </effect>
                        </filter>
                    </clipitem>
                    <clipitem id="КАССЕТНАЯ КАМЕРА 1_58_87C9C7C531D247F78581.mov 0">
                        <name>КАССЕТНАЯ КАМЕРА 1_58_87C9C7C531D247F78581.mov</name>
                        <duration>217</duration>
                        <rate>
                            <timebase>25</timebase>
                            <ntsc>false</ntsc>
                        </rate>
                        <start>82119</start>
                        <end>82337</end>
                        <enabled>true</enabled>
                        <in>0</in>
                        <out>218</out>
                        <file id="КАССЕТНАЯ КАМЕРА 1_58_87C9C7C531D247F78581.mov 2">
                            <duration>218</duration>
                            <rate>
                                <timebase>25</timebase>
                                <ntsc>false</ntsc>
                            </rate>
                            <name>КАССЕТНАЯ КАМЕРА 1_58_87C9C7C531D247F78581.mov</name>
                            <pathurl>file:///Capture1/EDIUS/EDIUS7_Color/colored/pasyans_v3/%D0%9A%D0%90%D0%A1%D0%A1%D0%95%D0%A2%D0%9D%D0%90%D0%AF%20%D0%9A%D0%90%D0%9C%D0%95%D0%A0%D0%90%201_58_87C9C7C531D247F78581_V1-0241.mov</pathurl>
                            <timecode>
                                <string>00:54:44:19</string>
                                <displayformat>NDF</displayformat>
                                <rate>
                                    <timebase>25</timebase>
                                    <ntsc>false</ntsc>
                                </rate>
                            </timecode>
                            <media>
                                <video>
                                    <duration>218</duration>
                                    <samplecharacteristics>
                                        <width>1920</width>
                                        <height>1080</height>
                                    </samplecharacteristics>
                                </video>
                            </media>
                        </file>
                        <compositemode>normal</compositemode>
                        <filter>
                            <enabled>true</enabled>
                            <start>0</start>
                            <end>217</end>
                            <effect>
                                <name>Opacity</name>
                                <effectid>opacity</effectid>
                                <effecttype>motion</effecttype>
                                <mediatype>video</mediatype>
                                <effectcategory>motion</effectcategory>
                                <parameter>
                                    <name>opacity</name>
                                    <parameterid>opacity</parameterid>
                                    <value>100</value>
                                    <valuemin>0</valuemin>
                                    <valuemax>100</valuemax>
                                </parameter>
                            </effect>
                        </filter>
                    </clipitem>
                    <clipitem id="общий план 9_4_E023980C337F4C0E9596.mov 0">
                        <name>общий план 9_4_E023980C337F4C0E9596.mov</name>
                        <duration>201</duration>
                        <rate>
                            <timebase>25</timebase>
                            <ntsc>false</ntsc>
                        </rate>
                        <start>82337</start>
                        <end>82539</end>
                        <enabled>true</enabled>
                        <in>0</in>
                        <out>202</out>
                        <file id="общий план 9_4_E023980C337F4C0E9596.mov 2">
                            <duration>202</duration>
                            <rate>
                                <timebase>25</timebase>
                                <ntsc>false</ntsc>
                            </rate>
                            <name>общий план 9_4_E023980C337F4C0E9596.mov</name>
                            <pathurl>file:///Capture1/EDIUS/EDIUS7_Color/colored/pasyans_v3/%D0%BE%D0%B1%D1%89%D0%B8%D0%B9%20%D0%BF%D0%BB%D0%B0%D0%BD%209_4_E023980C337F4C0E9596_V1-0242.mov</pathurl>
                            <timecode>
                                <string>00:54:53:12</string>
                                <displayformat>NDF</displayformat>
                                <rate>
                                    <timebase>25</timebase>
                                    <ntsc>false</ntsc>
                                </rate>
                            </timecode>
                            <media>
                                <video>
                                    <duration>202</duration>
                                    <samplecharacteristics>
                                        <width>1920</width>
                                        <height>1080</height>
                                    </samplecharacteristics>
                                </video>
                            </media>
                        </file>
                        <compositemode>normal</compositemode>
                        <filter>
                            <enabled>true</enabled>
                            <start>0</start>
                            <end>201</end>
                            <effect>
                                <name>Opacity</name>
                                <effectid>opacity</effectid>
                                <effecttype>motion</effecttype>
                                <mediatype>video</mediatype>
                                <effectcategory>motion</effectcategory>
                                <parameter>
                                    <name>opacity</name>
                                    <parameterid>opacity</parameterid>
                                    <value>100</value>
                                    <valuemin>0</valuemin>
                                    <valuemax>100</valuemax>
                                </parameter>
                            </effect>
                        </filter>
                    </clipitem>
                    <clipitem id="КАССЕТНАЯ КАМЕРА 2_1_1821B870131F4533A0F8.mov 0">
                        <name>КАССЕТНАЯ КАМЕРА 2_1_1821B870131F4533A0F8.mov</name>
                        <duration>114</duration>
                        <rate>
                            <timebase>25</timebase>
                            <ntsc>false</ntsc>
                        </rate>
                        <start>86705</start>
                        <end>86820</end>
                        <enabled>true</enabled>
                        <in>0</in>
                        <out>115</out>
                        <file id="КАССЕТНАЯ КАМЕРА 2_1_1821B870131F4533A0F8.mov 2">
                            <duration>115</duration>
                            <rate>
                                <timebase>25</timebase>
                                <ntsc>false</ntsc>
                            </rate>
                            <name>КАССЕТНАЯ КАМЕРА 2_1_1821B870131F4533A0F8.mov</name>
                            <pathurl>file:///Capture1/EDIUS/EDIUS7_Color/colored/pasyans_v3/%D0%9A%D0%90%D0%A1%D0%A1%D0%95%D0%A2%D0%9D%D0%90%D0%AF%20%D0%9A%D0%90%D0%9C%D0%95%D0%A0%D0%90%202_1_1821B870131F4533A0F8_V1-0243.mov</pathurl>
                            <timecode>
                                <string>00:57:48:05</string>
                                <displayformat>NDF</displayformat>
                                <rate>
                                    <timebase>25</timebase>
                                    <ntsc>false</ntsc>
                                </rate>
                            </timecode>
                            <media>
                                <video>
                                    <duration>115</duration>
                                    <samplecharacteristics>
                                        <width>1920</width>
                                        <height>1080</height>
                                    </samplecharacteristics>
                                </video>
                            </media>
                        </file>
                        <compositemode>normal</compositemode>
                        <filter>
                            <enabled>true</enabled>
                            <start>0</start>
                            <end>114</end>
                            <effect>
                                <name>Opacity</name>
                                <effectid>opacity</effectid>
                                <effecttype>motion</effecttype>
                                <mediatype>video</mediatype>
                                <effectcategory>motion</effectcategory>
                                <parameter>
                                    <name>opacity</name>
                                    <parameterid>opacity</parameterid>
                                    <value>100</value>
                                    <valuemin>0</valuemin>
                                    <valuemax>100</valuemax>
                                </parameter>
                            </effect>
                        </filter>
                    </clipitem>
                    <clipitem id="972_0438_01_1_858C12F8BDB745E798E3.mov 0">
                        <name>972_0438_01_1_858C12F8BDB745E798E3.mov</name>
                        <duration>47</duration>
                        <rate>
                            <timebase>25</timebase>
                            <ntsc>false</ntsc>
                        </rate>
                        <start>86820</start>
                        <end>86867</end>
                        <enabled>true</enabled>
                        <in>0</in>
                        <out>47</out>
                        <file id="972_0438_01_1_858C12F8BDB745E798E3.mov 2">
                            <duration>47</duration>
                            <rate>
                                <timebase>25</timebase>
                                <ntsc>false</ntsc>
                            </rate>
                            <name>972_0438_01_1_858C12F8BDB745E798E3.mov</name>
                            <pathurl>file:///Capture1/EDIUS/EDIUS7_Color/colored/pasyans_v3/972_0438_01_1_858C12F8BDB745E798E3_V1-0244.mov</pathurl>
                            <timecode>
                                <string>00:57:52:20</string>
                                <displayformat>NDF</displayformat>
                                <rate>
                                    <timebase>25</timebase>
                                    <ntsc>false</ntsc>
                                </rate>
                            </timecode>
                            <media>
                                <video>
                                    <duration>47</duration>
                                    <samplecharacteristics>
                                        <width>1920</width>
                                        <height>1080</height>
                                    </samplecharacteristics>
                                </video>
                            </media>
                        </file>
                        <compositemode>normal</compositemode>
                        <filter>
                            <enabled>true</enabled>
                            <start>0</start>
                            <end>47</end>
                            <effect>
                                <name>Opacity</name>
                                <effectid>opacity</effectid>
                                <effecttype>motion</effecttype>
                                <mediatype>video</mediatype>
                                <effectcategory>motion</effectcategory>
                                <parameter>
                                    <name>opacity</name>
                                    <parameterid>opacity</parameterid>
                                    <value>100</value>
                                    <valuemin>0</valuemin>
                                    <valuemax>100</valuemax>
                                </parameter>
                            </effect>
                        </filter>
                    </clipitem>
                    <clipitem id="КАССЕТНАЯ КАМЕРА 1_59_A2A0612B75314A409652.mov 0">
                        <name>КАССЕТНАЯ КАМЕРА 1_59_A2A0612B75314A409652.mov</name>
                        <duration>53</duration>
                        <rate>
                            <timebase>25</timebase>
                            <ntsc>false</ntsc>
                        </rate>
                        <start>86867</start>
                        <end>86921</end>
                        <enabled>true</enabled>
                        <in>0</in>
                        <out>54</out>
                        <file id="КАССЕТНАЯ КАМЕРА 1_59_A2A0612B75314A409652.mov 2">
                            <duration>54</duration>
                            <rate>
                                <timebase>25</timebase>
                                <ntsc>false</ntsc>
                            </rate>
                            <name>КАССЕТНАЯ КАМЕРА 1_59_A2A0612B75314A409652.mov</name>
                            <pathurl>file:///Capture1/EDIUS/EDIUS7_Color/colored/pasyans_v3/%D0%9A%D0%90%D0%A1%D0%A1%D0%95%D0%A2%D0%9D%D0%90%D0%AF%20%D0%9A%D0%90%D0%9C%D0%95%D0%A0%D0%90%201_59_A2A0612B75314A409652_V1-0245.mov</pathurl>
                            <timecode>
                                <string>00:57:54:17</string>
                                <displayformat>NDF</displayformat>
                                <rate>
                                    <timebase>25</timebase>
                                    <ntsc>false</ntsc>
                                </rate>
                            </timecode>
                            <media>
                                <video>
                                    <duration>54</duration>
                                    <samplecharacteristics>
                                        <width>1920</width>
                                        <height>1080</height>
                                    </samplecharacteristics>
                                </video>
                            </media>
                        </file>
                        <compositemode>normal</compositemode>
                        <filter>
                            <enabled>true</enabled>
                            <start>0</start>
                            <end>53</end>
                            <effect>
                                <name>Opacity</name>
                                <effectid>opacity</effectid>
                                <effecttype>motion</effecttype>
                                <mediatype>video</mediatype>
                                <effectcategory>motion</effectcategory>
                                <parameter>
                                    <name>opacity</name>
                                    <parameterid>opacity</parameterid>
                                    <value>100</value>
                                    <valuemin>0</valuemin>
                                    <valuemax>100</valuemax>
                                </parameter>
                            </effect>
                        </filter>
                    </clipitem>
                    <clipitem id="246_0922_04_9_BA5DCE7E188245C0950E.mov 0">
                        <name>246_0922_04_9_BA5DCE7E188245C0950E.mov</name>
                        <duration>54</duration>
                        <rate>
                            <timebase>25</timebase>
                            <ntsc>false</ntsc>
                        </rate>
                        <start>86921</start>
                        <end>86976</end>
                        <enabled>true</enabled>
                        <in>0</in>
                        <out>55</out>
                        <file id="246_0922_04_9_BA5DCE7E188245C0950E.mov 2">
                            <duration>55</duration>
                            <rate>
                                <timebase>25</timebase>
                                <ntsc>false</ntsc>
                            </rate>
                            <name>246_0922_04_9_BA5DCE7E188245C0950E.mov</name>
                            <pathurl>file:///Capture1/EDIUS/EDIUS7_Color/colored/pasyans_v3/246_0922_04_9_BA5DCE7E188245C0950E_V1-0246.mov</pathurl>
                            <timecode>
                                <string>00:57:56:21</string>
                                <displayformat>NDF</displayformat>
                                <rate>
                                    <timebase>25</timebase>
                                    <ntsc>false</ntsc>
                                </rate>
                            </timecode>
                            <media>
                                <video>
                                    <duration>55</duration>
                                    <samplecharacteristics>
                                        <width>1920</width>
                                        <height>1080</height>
                                    </samplecharacteristics>
                                </video>
                            </media>
                        </file>
                        <compositemode>normal</compositemode>
                        <filter>
                            <enabled>true</enabled>
                            <start>0</start>
                            <end>54</end>
                            <effect>
                                <name>Opacity</name>
                                <effectid>opacity</effectid>
                                <effecttype>motion</effecttype>
                                <mediatype>video</mediatype>
                                <effectcategory>motion</effectcategory>
                                <parameter>
                                    <name>opacity</name>
                                    <parameterid>opacity</parameterid>
                                    <value>100</value>
                                    <valuemin>0</valuemin>
                                    <valuemax>100</valuemax>
                                </parameter>
                            </effect>
                        </filter>
                    </clipitem>
                    <clipitem id="КАССЕТНАЯ КАМЕРА 2_2_C382AFE891F1473A809F.mov 0">
                        <name>КАССЕТНАЯ КАМЕРА 2_2_C382AFE891F1473A809F.mov</name>
                        <duration>47</duration>
                        <rate>
                            <timebase>25</timebase>
                            <ntsc>false</ntsc>
                        </rate>
                        <start>86976</start>
                        <end>87023</end>
                        <enabled>true</enabled>
                        <in>0</in>
                        <out>47</out>
                        <file id="КАССЕТНАЯ КАМЕРА 2_2_C382AFE891F1473A809F.mov 2">
                            <duration>47</duration>
                            <rate>
                                <timebase>25</timebase>
                                <ntsc>false</ntsc>
                            </rate>
                            <name>КАССЕТНАЯ КАМЕРА 2_2_C382AFE891F1473A809F.mov</name>
                            <pathurl>file:///Capture1/EDIUS/EDIUS7_Color/colored/pasyans_v3/%D0%9A%D0%90%D0%A1%D0%A1%D0%95%D0%A2%D0%9D%D0%90%D0%AF%20%D0%9A%D0%90%D0%9C%D0%95%D0%A0%D0%90%202_2_C382AFE891F1473A809F_V1-0247.mov</pathurl>
                            <timecode>
                                <string>00:57:59:01</string>
                                <displayformat>NDF</displayformat>
                                <rate>
                                    <timebase>25</timebase>
                                    <ntsc>false</ntsc>
                                </rate>
                            </timecode>
                            <media>
                                <video>
                                    <duration>47</duration>
                                    <samplecharacteristics>
                                        <width>1920</width>
                                        <height>1080</height>
                                    </samplecharacteristics>
                                </video>
                            </media>
                        </file>
                        <compositemode>normal</compositemode>
                        <filter>
                            <enabled>true</enabled>
                            <start>0</start>
                            <end>47</end>
                            <effect>
                                <name>Opacity</name>
                                <effectid>opacity</effectid>
                                <effecttype>motion</effecttype>
                                <mediatype>video</mediatype>
                                <effectcategory>motion</effectcategory>
                                <parameter>
                                    <name>opacity</name>
                                    <parameterid>opacity</parameterid>
                                    <value>100</value>
                                    <valuemin>0</valuemin>
                                    <valuemax>100</valuemax>
                                </parameter>
                            </effect>
                        </filter>
                    </clipitem>
                    <clipitem id="GOPR8364_1_E673986EE30147D68752.mov 0">
                        <name>GOPR8364_1_E673986EE30147D68752.mov</name>
                        <duration>132</duration>
                        <rate>
                            <timebase>25</timebase>
                            <ntsc>false</ntsc>
                        </rate>
                        <start>87023</start>
                        <end>87155</end>
                        <enabled>true</enabled>
                        <in>0</in>
                        <out>132</out>
                        <file id="GOPR8364_1_E673986EE30147D68752.mov 2">
                            <duration>132</duration>
                            <rate>
                                <timebase>25</timebase>
                                <ntsc>false</ntsc>
                            </rate>
                            <name>GOPR8364_1_E673986EE30147D68752.mov</name>
                            <pathurl>file:///Capture1/EDIUS/EDIUS7_Color/colored/pasyans_v3/GOPR8364_1_E673986EE30147D68752_V1-0248.mov</pathurl>
                            <timecode>
                                <string>00:58:00:23</string>
                                <displayformat>NDF</displayformat>
                                <rate>
                                    <timebase>25</timebase>
                                    <ntsc>false</ntsc>
                                </rate>
                            </timecode>
                            <media>
                                <video>
                                    <duration>132</duration>
                                    <samplecharacteristics>
                                        <width>1920</width>
                                        <height>1080</height>
                                    </samplecharacteristics>
                                </video>
                            </media>
                        </file>
                        <compositemode>normal</compositemode>
                        <filter>
                            <enabled>true</enabled>
                            <start>0</start>
                            <end>132</end>
                            <effect>
                                <name>Opacity</name>
                                <effectid>opacity</effectid>
                                <effecttype>motion</effecttype>
                                <mediatype>video</mediatype>
                                <effectcategory>motion</effectcategory>
                                <parameter>
                                    <name>opacity</name>
                                    <parameterid>opacity</parameterid>
                                    <value>100</value>
                                    <valuemin>0</valuemin>
                                    <valuemax>100</valuemax>
                                </parameter>
                            </effect>
                        </filter>
                    </clipitem>
                    <clipitem id="КАССЕТНАЯ КАМЕРА 2_3_D01B551DF0214F2889C5.mov 0">
                        <name>КАССЕТНАЯ КАМЕРА 2_3_D01B551DF0214F2889C5.mov</name>
                        <duration>112</duration>
                        <rate>
                            <timebase>25</timebase>
                            <ntsc>false</ntsc>
                        </rate>
                        <start>87155</start>
                        <end>87267</end>
                        <enabled>true</enabled>
                        <in>0</in>
                        <out>112</out>
                        <file id="КАССЕТНАЯ КАМЕРА 2_3_D01B551DF0214F2889C5.mov 2">
                            <duration>112</duration>
                            <rate>
                                <timebase>25</timebase>
                                <ntsc>false</ntsc>
                            </rate>
                            <name>КАССЕТНАЯ КАМЕРА 2_3_D01B551DF0214F2889C5.mov</name>
                            <pathurl>file:///Capture1/EDIUS/EDIUS7_Color/colored/pasyans_v3/%D0%9A%D0%90%D0%A1%D0%A1%D0%95%D0%A2%D0%9D%D0%90%D0%AF%20%D0%9A%D0%90%D0%9C%D0%95%D0%A0%D0%90%202_3_D01B551DF0214F2889C5_V1-0249.mov</pathurl>
                            <timecode>
                                <string>00:58:06:05</string>
                                <displayformat>NDF</displayformat>
                                <rate>
                                    <timebase>25</timebase>
                                    <ntsc>false</ntsc>
                                </rate>
                            </timecode>
                            <media>
                                <video>
                                    <duration>112</duration>
                                    <samplecharacteristics>
                                        <width>1920</width>
                                        <height>1080</height>
                                    </samplecharacteristics>
                                </video>
                            </media>
                        </file>
                        <compositemode>normal</compositemode>
                        <filter>
                            <enabled>true</enabled>
                            <start>0</start>
                            <end>112</end>
                            <effect>
                                <name>Opacity</name>
                                <effectid>opacity</effectid>
                                <effecttype>motion</effecttype>
                                <mediatype>video</mediatype>
                                <effectcategory>motion</effectcategory>
                                <parameter>
                                    <name>opacity</name>
                                    <parameterid>opacity</parameterid>
                                    <value>100</value>
                                    <valuemin>0</valuemin>
                                    <valuemax>100</valuemax>
                                </parameter>
                            </effect>
                        </filter>
                    </clipitem>
                    <clipitem id="246_0923_01_1_BC4A77E95860412EB949.mov 0">
                        <name>246_0923_01_1_BC4A77E95860412EB949.mov</name>
                        <duration>130</duration>
                        <rate>
                            <timebase>25</timebase>
                            <ntsc>false</ntsc>
                        </rate>
                        <start>87267</start>
                        <end>87398</end>
                        <enabled>true</enabled>
                        <in>0</in>
                        <out>131</out>
                        <file id="246_0923_01_1_BC4A77E95860412EB949.mov 2">
                            <duration>131</duration>
                            <rate>
                                <timebase>25</timebase>
                                <ntsc>false</ntsc>
                            </rate>
                            <name>246_0923_01_1_BC4A77E95860412EB949.mov</name>
                            <pathurl>file:///Capture1/EDIUS/EDIUS7_Color/colored/pasyans_v3/246_0923_01_1_BC4A77E95860412EB949_V1-0250.mov</pathurl>
                            <timecode>
                                <string>00:58:10:17</string>
                                <displayformat>NDF</displayformat>
                                <rate>
                                    <timebase>25</timebase>
                                    <ntsc>false</ntsc>
                                </rate>
                            </timecode>
                            <media>
                                <video>
                                    <duration>131</duration>
                                    <samplecharacteristics>
                                        <width>1920</width>
                                        <height>1080</height>
                                    </samplecharacteristics>
                                </video>
                            </media>
                        </file>
                        <compositemode>normal</compositemode>
                        <filter>
                            <enabled>true</enabled>
                            <start>0</start>
                            <end>130</end>
                            <effect>
                                <name>Opacity</name>
                                <effectid>opacity</effectid>
                                <effecttype>motion</effecttype>
                                <mediatype>video</mediatype>
                                <effectcategory>motion</effectcategory>
                                <parameter>
                                    <name>opacity</name>
                                    <parameterid>opacity</parameterid>
                                    <value>100</value>
                                    <valuemin>0</valuemin>
                                    <valuemax>100</valuemax>
                                </parameter>
                            </effect>
                        </filter>
                    </clipitem>
                    <clipitem id="972_0438_01_2_61CFB405395047169292.mov 0">
                        <name>972_0438_01_2_61CFB405395047169292.mov</name>
                        <duration>199</duration>
                        <rate>
                            <timebase>25</timebase>
                            <ntsc>false</ntsc>
                        </rate>
                        <start>87398</start>
                        <end>87597</end>
                        <enabled>true</enabled>
                        <in>0</in>
                        <out>199</out>
                        <file id="972_0438_01_2_61CFB405395047169292.mov 2">
                            <duration>199</duration>
                            <rate>
                                <timebase>25</timebase>
                                <ntsc>false</ntsc>
                            </rate>
                            <name>972_0438_01_2_61CFB405395047169292.mov</name>
                            <pathurl>file:///Capture1/EDIUS/EDIUS7_Color/colored/pasyans_v3/972_0438_01_2_61CFB405395047169292_V1-0251.mov</pathurl>
                            <timecode>
                                <string>00:58:15:23</string>
                                <displayformat>NDF</displayformat>
                                <rate>
                                    <timebase>25</timebase>
                                    <ntsc>false</ntsc>
                                </rate>
                            </timecode>
                            <media>
                                <video>
                                    <duration>199</duration>
                                    <samplecharacteristics>
                                        <width>1920</width>
                                        <height>1080</height>
                                    </samplecharacteristics>
                                </video>
                            </media>
                        </file>
                        <compositemode>normal</compositemode>
                        <filter>
                            <enabled>true</enabled>
                            <start>0</start>
                            <end>199</end>
                            <effect>
                                <name>Opacity</name>
                                <effectid>opacity</effectid>
                                <effecttype>motion</effecttype>
                                <mediatype>video</mediatype>
                                <effectcategory>motion</effectcategory>
                                <parameter>
                                    <name>opacity</name>
                                    <parameterid>opacity</parameterid>
                                    <value>100</value>
                                    <valuemin>0</valuemin>
                                    <valuemax>100</valuemax>
                                </parameter>
                            </effect>
                        </filter>
                    </clipitem>
                    <clipitem id="GOPR8364_2_F2C7E29B52D5468EAA0C.mov 0">
                        <name>GOPR8364_2_F2C7E29B52D5468EAA0C.mov</name>
                        <duration>112</duration>
                        <rate>
                            <timebase>25</timebase>
                            <ntsc>false</ntsc>
                        </rate>
                        <start>87699</start>
                        <end>87811</end>
                        <enabled>true</enabled>
                        <in>0</in>
                        <out>112</out>
                        <file id="GOPR8364_2_F2C7E29B52D5468EAA0C.mov 2">
                            <duration>112</duration>
                            <rate>
                                <timebase>25</timebase>
                                <ntsc>false</ntsc>
                            </rate>
                            <name>GOPR8364_2_F2C7E29B52D5468EAA0C.mov</name>
                            <pathurl>file:///Capture1/EDIUS/EDIUS7_Color/colored/pasyans_v3/GOPR8364_2_F2C7E29B52D5468EAA0C_V1-0252.mov</pathurl>
                            <timecode>
                                <string>00:58:27:24</string>
                                <displayformat>NDF</displayformat>
                                <rate>
                                    <timebase>25</timebase>
                                    <ntsc>false</ntsc>
                                </rate>
                            </timecode>
                            <media>
                                <video>
                                    <duration>112</duration>
                                    <samplecharacteristics>
                                        <width>1920</width>
                                        <height>1080</height>
                                    </samplecharacteristics>
                                </video>
                            </media>
                        </file>
                        <compositemode>normal</compositemode>
                        <filter>
                            <enabled>true</enabled>
                            <start>0</start>
                            <end>112</end>
                            <effect>
                                <name>Opacity</name>
                                <effectid>opacity</effectid>
                                <effecttype>motion</effecttype>
                                <mediatype>video</mediatype>
                                <effectcategory>motion</effectcategory>
                                <parameter>
                                    <name>opacity</name>
                                    <parameterid>opacity</parameterid>
                                    <value>100</value>
                                    <valuemin>0</valuemin>
                                    <valuemax>100</valuemax>
                                </parameter>
                            </effect>
                        </filter>
                    </clipitem>
                    <clipitem id="972_0438_01_3_04997223C4F442129670.mov 0">
                        <name>972_0438_01_3_04997223C4F442129670.mov</name>
                        <duration>111</duration>
                        <rate>
                            <timebase>25</timebase>
                            <ntsc>false</ntsc>
                        </rate>
                        <start>87811</start>
                        <end>87922</end>
                        <enabled>true</enabled>
                        <in>0</in>
                        <out>111</out>
                        <file id="972_0438_01_3_04997223C4F442129670.mov 2">
                            <duration>111</duration>
                            <rate>
                                <timebase>25</timebase>
                                <ntsc>false</ntsc>
                            </rate>
                            <name>972_0438_01_3_04997223C4F442129670.mov</name>
                            <pathurl>file:///Capture1/EDIUS/EDIUS7_Color/colored/pasyans_v3/972_0438_01_3_04997223C4F442129670_V1-0253.mov</pathurl>
                            <timecode>
                                <string>00:58:32:11</string>
                                <displayformat>NDF</displayformat>
                                <rate>
                                    <timebase>25</timebase>
                                    <ntsc>false</ntsc>
                                </rate>
                            </timecode>
                            <media>
                                <video>
                                    <duration>111</duration>
                                    <samplecharacteristics>
                                        <width>1920</width>
                                        <height>1080</height>
                                    </samplecharacteristics>
                                </video>
                            </media>
                        </file>
                        <compositemode>normal</compositemode>
                        <filter>
                            <enabled>true</enabled>
                            <start>0</start>
                            <end>111</end>
                            <effect>
                                <name>Opacity</name>
                                <effectid>opacity</effectid>
                                <effecttype>motion</effecttype>
                                <mediatype>video</mediatype>
                                <effectcategory>motion</effectcategory>
                                <parameter>
                                    <name>opacity</name>
                                    <parameterid>opacity</parameterid>
                                    <value>100</value>
                                    <valuemin>0</valuemin>
                                    <valuemax>100</valuemax>
                                </parameter>
                            </effect>
                        </filter>
                    </clipitem>
                    <clipitem id="GOPR8364_3_4A5636580C244C83B26B.mov 0">
                        <name>GOPR8364_3_4A5636580C244C83B26B.mov</name>
                        <duration>125</duration>
                        <rate>
                            <timebase>25</timebase>
                            <ntsc>false</ntsc>
                        </rate>
                        <start>87922</start>
                        <end>88048</end>
                        <enabled>true</enabled>
                        <in>0</in>
                        <out>126</out>
                        <file id="GOPR8364_3_4A5636580C244C83B26B.mov 2">
                            <duration>126</duration>
                            <rate>
                                <timebase>25</timebase>
                                <ntsc>false</ntsc>
                            </rate>
                            <name>GOPR8364_3_4A5636580C244C83B26B.mov</name>
                            <pathurl>file:///Capture1/EDIUS/EDIUS7_Color/colored/pasyans_v3/GOPR8364_3_4A5636580C244C83B26B_V1-0254.mov</pathurl>
                            <timecode>
                                <string>00:58:36:22</string>
                                <displayformat>NDF</displayformat>
                                <rate>
                                    <timebase>25</timebase>
                                    <ntsc>false</ntsc>
                                </rate>
                            </timecode>
                            <media>
                                <video>
                                    <duration>126</duration>
                                    <samplecharacteristics>
                                        <width>1920</width>
                                        <height>1080</height>
                                    </samplecharacteristics>
                                </video>
                            </media>
                        </file>
                        <compositemode>normal</compositemode>
                        <filter>
                            <enabled>true</enabled>
                            <start>0</start>
                            <end>125</end>
                            <effect>
                                <name>Opacity</name>
                                <effectid>opacity</effectid>
                                <effecttype>motion</effecttype>
                                <mediatype>video</mediatype>
                                <effectcategory>motion</effectcategory>
                                <parameter>
                                    <name>opacity</name>
                                    <parameterid>opacity</parameterid>
                                    <value>100</value>
                                    <valuemin>0</valuemin>
                                    <valuemax>100</valuemax>
                                </parameter>
                            </effect>
                        </filter>
                    </clipitem>
                    <clipitem id="КАССЕТНАЯ КАМЕРА 2_4_C5EB178935A949369090.mov 0">
                        <name>КАССЕТНАЯ КАМЕРА 2_4_C5EB178935A949369090.mov</name>
                        <duration>186</duration>
                        <rate>
                            <timebase>25</timebase>
                            <ntsc>false</ntsc>
                        </rate>
                        <start>88048</start>
                        <end>88234</end>
                        <enabled>true</enabled>
                        <in>0</in>
                        <out>186</out>
                        <file id="КАССЕТНАЯ КАМЕРА 2_4_C5EB178935A949369090.mov 2">
                            <duration>186</duration>
                            <rate>
                                <timebase>25</timebase>
                                <ntsc>false</ntsc>
                            </rate>
                            <name>КАССЕТНАЯ КАМЕРА 2_4_C5EB178935A949369090.mov</name>
                            <pathurl>file:///Capture1/EDIUS/EDIUS7_Color/colored/pasyans_v3/%D0%9A%D0%90%D0%A1%D0%A1%D0%95%D0%A2%D0%9D%D0%90%D0%AF%20%D0%9A%D0%90%D0%9C%D0%95%D0%A0%D0%90%202_4_C5EB178935A949369090_V1-0255.mov</pathurl>
                            <timecode>
                                <string>00:58:41:23</string>
                                <displayformat>NDF</displayformat>
                                <rate>
                                    <timebase>25</timebase>
                                    <ntsc>false</ntsc>
                                </rate>
                            </timecode>
                            <media>
                                <video>
                                    <duration>186</duration>
                                    <samplecharacteristics>
                                        <width>1920</width>
                                        <height>1080</height>
                                    </samplecharacteristics>
                                </video>
                            </media>
                        </file>
                        <compositemode>normal</compositemode>
                        <filter>
                            <enabled>true</enabled>
                            <start>0</start>
                            <end>186</end>
                            <effect>
                                <name>Opacity</name>
                                <effectid>opacity</effectid>
                                <effecttype>motion</effecttype>
                                <mediatype>video</mediatype>
                                <effectcategory>motion</effectcategory>
                                <parameter>
                                    <name>opacity</name>
                                    <parameterid>opacity</parameterid>
                                    <value>100</value>
                                    <valuemin>0</valuemin>
                                    <valuemax>100</valuemax>
                                </parameter>
                            </effect>
                        </filter>
                    </clipitem>
                    <clipitem id="GOPR8364_4_88F027896B0947E9ADBA.mov 0">
                        <name>GOPR8364_4_88F027896B0947E9ADBA.mov</name>
                        <duration>155</duration>
                        <rate>
                            <timebase>25</timebase>
                            <ntsc>false</ntsc>
                        </rate>
                        <start>88234</start>
                        <end>88390</end>
                        <enabled>true</enabled>
                        <in>0</in>
                        <out>156</out>
                        <file id="GOPR8364_4_88F027896B0947E9ADBA.mov 2">
                            <duration>156</duration>
                            <rate>
                                <timebase>25</timebase>
                                <ntsc>false</ntsc>
                            </rate>
                            <name>GOPR8364_4_88F027896B0947E9ADBA.mov</name>
                            <pathurl>file:///Capture1/EDIUS/EDIUS7_Color/colored/pasyans_v3/GOPR8364_4_88F027896B0947E9ADBA_V1-0256.mov</pathurl>
                            <timecode>
                                <string>00:58:49:09</string>
                                <displayformat>NDF</displayformat>
                                <rate>
                                    <timebase>25</timebase>
                                    <ntsc>false</ntsc>
                                </rate>
                            </timecode>
                            <media>
                                <video>
                                    <duration>156</duration>
                                    <samplecharacteristics>
                                        <width>1920</width>
                                        <height>1080</height>
                                    </samplecharacteristics>
                                </video>
                            </media>
                        </file>
                        <compositemode>normal</compositemode>
                        <filter>
                            <enabled>true</enabled>
                            <start>0</start>
                            <end>155</end>
                            <effect>
                                <name>Opacity</name>
                                <effectid>opacity</effectid>
                                <effecttype>motion</effecttype>
                                <mediatype>video</mediatype>
                                <effectcategory>motion</effectcategory>
                                <parameter>
                                    <name>opacity</name>
                                    <parameterid>opacity</parameterid>
                                    <value>100</value>
                                    <valuemin>0</valuemin>
                                    <valuemax>100</valuemax>
                                </parameter>
                            </effect>
                        </filter>
                    </clipitem>
                    <clipitem id="972_0438_01_4_06875B89EFED4CCD83B0.mov 0">
                        <name>972_0438_01_4_06875B89EFED4CCD83B0.mov</name>
                        <duration>137</duration>
                        <rate>
                            <timebase>25</timebase>
                            <ntsc>false</ntsc>
                        </rate>
                        <start>88390</start>
                        <end>88527</end>
                        <enabled>true</enabled>
                        <in>0</in>
                        <out>137</out>
                        <file id="972_0438_01_4_06875B89EFED4CCD83B0.mov 2">
                            <duration>137</duration>
                            <rate>
                                <timebase>25</timebase>
                                <ntsc>false</ntsc>
                            </rate>
                            <name>972_0438_01_4_06875B89EFED4CCD83B0.mov</name>
                            <pathurl>file:///Capture1/EDIUS/EDIUS7_Color/colored/pasyans_v3/972_0438_01_4_06875B89EFED4CCD83B0_V1-0257.mov</pathurl>
                            <timecode>
                                <string>00:58:55:15</string>
                                <displayformat>NDF</displayformat>
                                <rate>
                                    <timebase>25</timebase>
                                    <ntsc>false</ntsc>
                                </rate>
                            </timecode>
                            <media>
                                <video>
                                    <duration>137</duration>
                                    <samplecharacteristics>
                                        <width>1920</width>
                                        <height>1080</height>
                                    </samplecharacteristics>
                                </video>
                            </media>
                        </file>
                        <compositemode>normal</compositemode>
                        <filter>
                            <enabled>true</enabled>
                            <start>0</start>
                            <end>137</end>
                            <effect>
                                <name>Opacity</name>
                                <effectid>opacity</effectid>
                                <effecttype>motion</effecttype>
                                <mediatype>video</mediatype>
                                <effectcategory>motion</effectcategory>
                                <parameter>
                                    <name>opacity</name>
                                    <parameterid>opacity</parameterid>
                                    <value>100</value>
                                    <valuemin>0</valuemin>
                                    <valuemax>100</valuemax>
                                </parameter>
                            </effect>
                        </filter>
                    </clipitem>
                    <clipitem id="246_0923_01_2_79CE518DFB6446AE81B6.mov 0">
                        <name>246_0923_01_2_79CE518DFB6446AE81B6.mov</name>
                        <duration>162</duration>
                        <rate>
                            <timebase>25</timebase>
                            <ntsc>false</ntsc>
                        </rate>
                        <start>88527</start>
                        <end>88690</end>
                        <enabled>true</enabled>
                        <in>0</in>
                        <out>163</out>
                        <file id="246_0923_01_2_79CE518DFB6446AE81B6.mov 2">
                            <duration>163</duration>
                            <rate>
                                <timebase>25</timebase>
                                <ntsc>false</ntsc>
                            </rate>
                            <name>246_0923_01_2_79CE518DFB6446AE81B6.mov</name>
                            <pathurl>file:///Capture1/EDIUS/EDIUS7_Color/colored/pasyans_v3/246_0923_01_2_79CE518DFB6446AE81B6_V1-0258.mov</pathurl>
                            <timecode>
                                <string>00:59:01:02</string>
                                <displayformat>NDF</displayformat>
                                <rate>
                                    <timebase>25</timebase>
                                    <ntsc>false</ntsc>
                                </rate>
                            </timecode>
                            <media>
                                <video>
                                    <duration>163</duration>
                                    <samplecharacteristics>
                                        <width>1920</width>
                                        <height>1080</height>
                                    </samplecharacteristics>
                                </video>
                            </media>
                        </file>
                        <compositemode>normal</compositemode>
                        <filter>
                            <enabled>true</enabled>
                            <start>0</start>
                            <end>162</end>
                            <effect>
                                <name>Opacity</name>
                                <effectid>opacity</effectid>
                                <effecttype>motion</effecttype>
                                <mediatype>video</mediatype>
                                <effectcategory>motion</effectcategory>
                                <parameter>
                                    <name>opacity</name>
                                    <parameterid>opacity</parameterid>
                                    <value>100</value>
                                    <valuemin>0</valuemin>
                                    <valuemax>100</valuemax>
                                </parameter>
                            </effect>
                        </filter>
                    </clipitem>
                    <clipitem id="972_0438_01_5_0120F5AFD97944C4912C.mov 0">
                        <name>972_0438_01_5_0120F5AFD97944C4912C.mov</name>
                        <duration>192</duration>
                        <rate>
                            <timebase>25</timebase>
                            <ntsc>false</ntsc>
                        </rate>
                        <start>88690</start>
                        <end>88883</end>
                        <enabled>true</enabled>
                        <in>0</in>
                        <out>193</out>
                        <file id="972_0438_01_5_0120F5AFD97944C4912C.mov 2">
                            <duration>193</duration>
                            <rate>
                                <timebase>25</timebase>
                                <ntsc>false</ntsc>
                            </rate>
                            <name>972_0438_01_5_0120F5AFD97944C4912C.mov</name>
                            <pathurl>file:///Capture1/EDIUS/EDIUS7_Color/colored/pasyans_v3/972_0438_01_5_0120F5AFD97944C4912C_V1-0259.mov</pathurl>
                            <timecode>
                                <string>00:59:07:15</string>
                                <displayformat>NDF</displayformat>
                                <rate>
                                    <timebase>25</timebase>
                                    <ntsc>false</ntsc>
                                </rate>
                            </timecode>
                            <media>
                                <video>
                                    <duration>193</duration>
                                    <samplecharacteristics>
                                        <width>1920</width>
                                        <height>1080</height>
                                    </samplecharacteristics>
                                </video>
                            </media>
                        </file>
                        <compositemode>normal</compositemode>
                        <filter>
                            <enabled>true</enabled>
                            <start>0</start>
                            <end>192</end>
                            <effect>
                                <name>Opacity</name>
                                <effectid>opacity</effectid>
                                <effecttype>motion</effecttype>
                                <mediatype>video</mediatype>
                                <effectcategory>motion</effectcategory>
                                <parameter>
                                    <name>opacity</name>
                                    <parameterid>opacity</parameterid>
                                    <value>100</value>
                                    <valuemin>0</valuemin>
                                    <valuemax>100</valuemax>
                                </parameter>
                            </effect>
                        </filter>
                    </clipitem>
                    <clipitem id="КАССЕТНАЯ КАМЕРА 2_5_90E6C2D25D3744F39E82.mov 0">
                        <name>КАССЕТНАЯ КАМЕРА 2_5_90E6C2D25D3744F39E82.mov</name>
                        <duration>250</duration>
                        <rate>
                            <timebase>25</timebase>
                            <ntsc>false</ntsc>
                        </rate>
                        <start>88883</start>
                        <end>89134</end>
                        <enabled>true</enabled>
                        <in>0</in>
                        <out>251</out>
                        <file id="КАССЕТНАЯ КАМЕРА 2_5_90E6C2D25D3744F39E82.mov 2">
                            <duration>251</duration>
                            <rate>
                                <timebase>25</timebase>
                                <ntsc>false</ntsc>
                            </rate>
                            <name>КАССЕТНАЯ КАМЕРА 2_5_90E6C2D25D3744F39E82.mov</name>
                            <pathurl>file:///Capture1/EDIUS/EDIUS7_Color/colored/pasyans_v3/%D0%9A%D0%90%D0%A1%D0%A1%D0%95%D0%A2%D0%9D%D0%90%D0%AF%20%D0%9A%D0%90%D0%9C%D0%95%D0%A0%D0%90%202_5_90E6C2D25D3744F39E82_V1-0260.mov</pathurl>
                            <timecode>
                                <string>00:59:15:08</string>
                                <displayformat>NDF</displayformat>
                                <rate>
                                    <timebase>25</timebase>
                                    <ntsc>false</ntsc>
                                </rate>
                            </timecode>
                            <media>
                                <video>
                                    <duration>251</duration>
                                    <samplecharacteristics>
                                        <width>1920</width>
                                        <height>1080</height>
                                    </samplecharacteristics>
                                </video>
                            </media>
                        </file>
                        <compositemode>normal</compositemode>
                        <filter>
                            <enabled>true</enabled>
                            <start>0</start>
                            <end>250</end>
                            <effect>
                                <name>Opacity</name>
                                <effectid>opacity</effectid>
                                <effecttype>motion</effecttype>
                                <mediatype>video</mediatype>
                                <effectcategory>motion</effectcategory>
                                <parameter>
                                    <name>opacity</name>
                                    <parameterid>opacity</parameterid>
                                    <value>100</value>
                                    <valuemin>0</valuemin>
                                    <valuemax>100</valuemax>
                                </parameter>
                            </effect>
                        </filter>
                    </clipitem>
                    <clipitem id="972_0438_01_6_8DE1CB7983864F5E877D.mov 0">
                        <name>972_0438_01_6_8DE1CB7983864F5E877D.mov</name>
                        <duration>148</duration>
                        <rate>
                            <timebase>25</timebase>
                            <ntsc>false</ntsc>
                        </rate>
                        <start>89134</start>
                        <end>89282</end>
                        <enabled>true</enabled>
                        <in>0</in>
                        <out>148</out>
                        <file id="972_0438_01_6_8DE1CB7983864F5E877D.mov 2">
                            <duration>148</duration>
                            <rate>
                                <timebase>25</timebase>
                                <ntsc>false</ntsc>
                            </rate>
                            <name>972_0438_01_6_8DE1CB7983864F5E877D.mov</name>
                            <pathurl>file:///Capture1/EDIUS/EDIUS7_Color/colored/pasyans_v3/972_0438_01_6_8DE1CB7983864F5E877D_V1-0261.mov</pathurl>
                            <timecode>
                                <string>00:59:25:09</string>
                                <displayformat>NDF</displayformat>
                                <rate>
                                    <timebase>25</timebase>
                                    <ntsc>false</ntsc>
                                </rate>
                            </timecode>
                            <media>
                                <video>
                                    <duration>148</duration>
                                    <samplecharacteristics>
                                        <width>1920</width>
                                        <height>1080</height>
                                    </samplecharacteristics>
                                </video>
                            </media>
                        </file>
                        <compositemode>normal</compositemode>
                        <filter>
                            <enabled>true</enabled>
                            <start>0</start>
                            <end>148</end>
                            <effect>
                                <name>Opacity</name>
                                <effectid>opacity</effectid>
                                <effecttype>motion</effecttype>
                                <mediatype>video</mediatype>
                                <effectcategory>motion</effectcategory>
                                <parameter>
                                    <name>opacity</name>
                                    <parameterid>opacity</parameterid>
                                    <value>100</value>
                                    <valuemin>0</valuemin>
                                    <valuemax>100</valuemax>
                                </parameter>
                            </effect>
                        </filter>
                    </clipitem>
                    <clipitem id="246_0923_01_3_EA28B3A6405C480D8ABC.mov 0">
                        <name>246_0923_01_3_EA28B3A6405C480D8ABC.mov</name>
                        <duration>153</duration>
                        <rate>
                            <timebase>25</timebase>
                            <ntsc>false</ntsc>
                        </rate>
                        <start>89282</start>
                        <end>89436</end>
                        <enabled>true</enabled>
                        <in>0</in>
                        <out>154</out>
                        <file id="246_0923_01_3_EA28B3A6405C480D8ABC.mov 2">
                            <duration>154</duration>
                            <rate>
                                <timebase>25</timebase>
                                <ntsc>false</ntsc>
                            </rate>
                            <name>246_0923_01_3_EA28B3A6405C480D8ABC.mov</name>
                            <pathurl>file:///Capture1/EDIUS/EDIUS7_Color/colored/pasyans_v3/246_0923_01_3_EA28B3A6405C480D8ABC_V1-0262.mov</pathurl>
                            <timecode>
                                <string>00:59:31:07</string>
                                <displayformat>NDF</displayformat>
                                <rate>
                                    <timebase>25</timebase>
                                    <ntsc>false</ntsc>
                                </rate>
                            </timecode>
                            <media>
                                <video>
                                    <duration>154</duration>
                                    <samplecharacteristics>
                                        <width>1920</width>
                                        <height>1080</height>
                                    </samplecharacteristics>
                                </video>
                            </media>
                        </file>
                        <compositemode>normal</compositemode>
                        <filter>
                            <enabled>true</enabled>
                            <start>0</start>
                            <end>153</end>
                            <effect>
                                <name>Opacity</name>
                                <effectid>opacity</effectid>
                                <effecttype>motion</effecttype>
                                <mediatype>video</mediatype>
                                <effectcategory>motion</effectcategory>
                                <parameter>
                                    <name>opacity</name>
                                    <parameterid>opacity</parameterid>
                                    <value>100</value>
                                    <valuemin>0</valuemin>
                                    <valuemax>100</valuemax>
                                </parameter>
                            </effect>
                        </filter>
                    </clipitem>
                    <clipitem id="КАССЕТНАЯ КАМЕРА 2_6_15163C96BD29471EAA99.mov 0">
                        <name>КАССЕТНАЯ КАМЕРА 2_6_15163C96BD29471EAA99.mov</name>
                        <duration>133</duration>
                        <rate>
                            <timebase>25</timebase>
                            <ntsc>false</ntsc>
                        </rate>
                        <start>89436</start>
                        <end>89569</end>
                        <enabled>true</enabled>
                        <in>0</in>
                        <out>133</out>
                        <file id="КАССЕТНАЯ КАМЕРА 2_6_15163C96BD29471EAA99.mov 2">
                            <duration>133</duration>
                            <rate>
                                <timebase>25</timebase>
                                <ntsc>false</ntsc>
                            </rate>
                            <name>КАССЕТНАЯ КАМЕРА 2_6_15163C96BD29471EAA99.mov</name>
                            <pathurl>file:///Capture1/EDIUS/EDIUS7_Color/colored/pasyans_v3/%D0%9A%D0%90%D0%A1%D0%A1%D0%95%D0%A2%D0%9D%D0%90%D0%AF%20%D0%9A%D0%90%D0%9C%D0%95%D0%A0%D0%90%202_6_15163C96BD29471EAA99_V1-0263.mov</pathurl>
                            <timecode>
                                <string>00:59:37:11</string>
                                <displayformat>NDF</displayformat>
                                <rate>
                                    <timebase>25</timebase>
                                    <ntsc>false</ntsc>
                                </rate>
                            </timecode>
                            <media>
                                <video>
                                    <duration>133</duration>
                                    <samplecharacteristics>
                                        <width>1920</width>
                                        <height>1080</height>
                                    </samplecharacteristics>
                                </video>
                            </media>
                        </file>
                        <compositemode>normal</compositemode>
                        <filter>
                            <enabled>true</enabled>
                            <start>0</start>
                            <end>133</end>
                            <effect>
                                <name>Opacity</name>
                                <effectid>opacity</effectid>
                                <effecttype>motion</effecttype>
                                <mediatype>video</mediatype>
                                <effectcategory>motion</effectcategory>
                                <parameter>
                                    <name>opacity</name>
                                    <parameterid>opacity</parameterid>
                                    <value>100</value>
                                    <valuemin>0</valuemin>
                                    <valuemax>100</valuemax>
                                </parameter>
                            </effect>
                        </filter>
                    </clipitem>
                    <clipitem id="GOPR8364_5_6F4EDBE247804430A452.mov 0">
                        <name>GOPR8364_5_6F4EDBE247804430A452.mov</name>
                        <duration>187</duration>
                        <rate>
                            <timebase>25</timebase>
                            <ntsc>false</ntsc>
                        </rate>
                        <start>89569</start>
                        <end>89756</end>
                        <enabled>true</enabled>
                        <in>0</in>
                        <out>187</out>
                        <file id="GOPR8364_5_6F4EDBE247804430A452.mov 2">
                            <duration>187</duration>
                            <rate>
                                <timebase>25</timebase>
                                <ntsc>false</ntsc>
                            </rate>
                            <name>GOPR8364_5_6F4EDBE247804430A452.mov</name>
                            <pathurl>file:///Capture1/EDIUS/EDIUS7_Color/colored/pasyans_v3/GOPR8364_5_6F4EDBE247804430A452_V1-0264.mov</pathurl>
                            <timecode>
                                <string>00:59:42:19</string>
                                <displayformat>NDF</displayformat>
                                <rate>
                                    <timebase>25</timebase>
                                    <ntsc>false</ntsc>
                                </rate>
                            </timecode>
                            <media>
                                <video>
                                    <duration>187</duration>
                                    <samplecharacteristics>
                                        <width>1920</width>
                                        <height>1080</height>
                                    </samplecharacteristics>
                                </video>
                            </media>
                        </file>
                        <compositemode>normal</compositemode>
                        <filter>
                            <enabled>true</enabled>
                            <start>0</start>
                            <end>187</end>
                            <effect>
                                <name>Opacity</name>
                                <effectid>opacity</effectid>
                                <effecttype>motion</effecttype>
                                <mediatype>video</mediatype>
                                <effectcategory>motion</effectcategory>
                                <parameter>
                                    <name>opacity</name>
                                    <parameterid>opacity</parameterid>
                                    <value>100</value>
                                    <valuemin>0</valuemin>
                                    <valuemax>100</valuemax>
                                </parameter>
                            </effect>
                        </filter>
                    </clipitem>
                    <clipitem id="972_0438_01_7_031B37F15E0A481EBD78.mov 0">
                        <name>972_0438_01_7_031B37F15E0A481EBD78.mov</name>
                        <duration>283</duration>
                        <rate>
                            <timebase>25</timebase>
                            <ntsc>false</ntsc>
                        </rate>
                        <start>89756</start>
                        <end>90039</end>
                        <enabled>true</enabled>
                        <in>0</in>
                        <out>283</out>
                        <file id="972_0438_01_7_031B37F15E0A481EBD78.mov 2">
                            <duration>283</duration>
                            <rate>
                                <timebase>25</timebase>
                                <ntsc>false</ntsc>
                            </rate>
                            <name>972_0438_01_7_031B37F15E0A481EBD78.mov</name>
                            <pathurl>file:///Capture1/EDIUS/EDIUS7_Color/colored/pasyans_v3/972_0438_01_7_031B37F15E0A481EBD78_V1-0265.mov</pathurl>
                            <timecode>
                                <string>00:59:50:06</string>
                                <displayformat>NDF</displayformat>
                                <rate>
                                    <timebase>25</timebase>
                                    <ntsc>false</ntsc>
                                </rate>
                            </timecode>
                            <media>
                                <video>
                                    <duration>283</duration>
                                    <samplecharacteristics>
                                        <width>1920</width>
                                        <height>1080</height>
                                    </samplecharacteristics>
                                </video>
                            </media>
                        </file>
                        <compositemode>normal</compositemode>
                        <filter>
                            <enabled>true</enabled>
                            <start>0</start>
                            <end>283</end>
                            <effect>
                                <name>Opacity</name>
                                <effectid>opacity</effectid>
                                <effecttype>motion</effecttype>
                                <mediatype>video</mediatype>
                                <effectcategory>motion</effectcategory>
                                <parameter>
                                    <name>opacity</name>
                                    <parameterid>opacity</parameterid>
                                    <value>100</value>
                                    <valuemin>0</valuemin>
                                    <valuemax>100</valuemax>
                                </parameter>
                            </effect>
                        </filter>
                    </clipitem>
                    <clipitem id="GOPR8364_6_CF4F429FF19745FFA08F.mov 0">
                        <name>GOPR8364_6_CF4F429FF19745FFA08F.mov</name>
                        <duration>151</duration>
                        <rate>
                            <timebase>25</timebase>
                            <ntsc>false</ntsc>
                        </rate>
                        <start>90039</start>
                        <end>90191</end>
                        <enabled>true</enabled>
                        <in>0</in>
                        <out>152</out>
                        <file id="GOPR8364_6_CF4F429FF19745FFA08F.mov 2">
                            <duration>152</duration>
                            <rate>
                                <timebase>25</timebase>
                                <ntsc>false</ntsc>
                            </rate>
                            <name>GOPR8364_6_CF4F429FF19745FFA08F.mov</name>
                            <pathurl>file:///Capture1/EDIUS/EDIUS7_Color/colored/pasyans_v3/GOPR8364_6_CF4F429FF19745FFA08F_V1-0266.mov</pathurl>
                            <timecode>
                                <string>01:00:01:14</string>
                                <displayformat>NDF</displayformat>
                                <rate>
                                    <timebase>25</timebase>
                                    <ntsc>false</ntsc>
                                </rate>
                            </timecode>
                            <media>
                                <video>
                                    <duration>152</duration>
                                    <samplecharacteristics>
                                        <width>1920</width>
                                        <height>1080</height>
                                    </samplecharacteristics>
                                </video>
                            </media>
                        </file>
                        <compositemode>normal</compositemode>
                        <filter>
                            <enabled>true</enabled>
                            <start>0</start>
                            <end>151</end>
                            <effect>
                                <name>Opacity</name>
                                <effectid>opacity</effectid>
                                <effecttype>motion</effecttype>
                                <mediatype>video</mediatype>
                                <effectcategory>motion</effectcategory>
                                <parameter>
                                    <name>opacity</name>
                                    <parameterid>opacity</parameterid>
                                    <value>100</value>
                                    <valuemin>0</valuemin>
                                    <valuemax>100</valuemax>
                                </parameter>
                            </effect>
                        </filter>
                    </clipitem>
                    <clipitem id="КАССЕТНАЯ КАМЕРА 2_7_B5863158D9A74563BB64.mov 0">
                        <name>КАССЕТНАЯ КАМЕРА 2_7_B5863158D9A74563BB64.mov</name>
                        <duration>162</duration>
                        <rate>
                            <timebase>25</timebase>
                            <ntsc>false</ntsc>
                        </rate>
                        <start>90191</start>
                        <end>90354</end>
                        <enabled>true</enabled>
                        <in>0</in>
                        <out>163</out>
                        <file id="КАССЕТНАЯ КАМЕРА 2_7_B5863158D9A74563BB64.mov 2">
                            <duration>163</duration>
                            <rate>
                                <timebase>25</timebase>
                                <ntsc>false</ntsc>
                            </rate>
                            <name>КАССЕТНАЯ КАМЕРА 2_7_B5863158D9A74563BB64.mov</name>
                            <pathurl>file:///Capture1/EDIUS/EDIUS7_Color/colored/pasyans_v3/%D0%9A%D0%90%D0%A1%D0%A1%D0%95%D0%A2%D0%9D%D0%90%D0%AF%20%D0%9A%D0%90%D0%9C%D0%95%D0%A0%D0%90%202_7_B5863158D9A74563BB64_V1-0267.mov</pathurl>
                            <timecode>
                                <string>01:00:07:16</string>
                                <displayformat>NDF</displayformat>
                                <rate>
                                    <timebase>25</timebase>
                                    <ntsc>false</ntsc>
                                </rate>
                            </timecode>
                            <media>
                                <video>
                                    <duration>163</duration>
                                    <samplecharacteristics>
                                        <width>1920</width>
                                        <height>1080</height>
                                    </samplecharacteristics>
                                </video>
                            </media>
                        </file>
                        <compositemode>normal</compositemode>
                        <filter>
                            <enabled>true</enabled>
                            <start>0</start>
                            <end>162</end>
                            <effect>
                                <name>Opacity</name>
                                <effectid>opacity</effectid>
                                <effecttype>motion</effecttype>
                                <mediatype>video</mediatype>
                                <effectcategory>motion</effectcategory>
                                <parameter>
                                    <name>opacity</name>
                                    <parameterid>opacity</parameterid>
                                    <value>100</value>
                                    <valuemin>0</valuemin>
                                    <valuemax>100</valuemax>
                                </parameter>
                            </effect>
                        </filter>
                    </clipitem>
                    <clipitem id="972_0438_01_8_5810A09F72F9431FA8D4.mov 0">
                        <name>972_0438_01_8_5810A09F72F9431FA8D4.mov</name>
                        <duration>151</duration>
                        <rate>
                            <timebase>25</timebase>
                            <ntsc>false</ntsc>
                        </rate>
                        <start>90354</start>
                        <end>90506</end>
                        <enabled>true</enabled>
                        <in>0</in>
                        <out>152</out>
                        <file id="972_0438_01_8_5810A09F72F9431FA8D4.mov 2">
                            <duration>152</duration>
                            <rate>
                                <timebase>25</timebase>
                                <ntsc>false</ntsc>
                            </rate>
                            <name>972_0438_01_8_5810A09F72F9431FA8D4.mov</name>
                            <pathurl>file:///Capture1/EDIUS/EDIUS7_Color/colored/pasyans_v3/972_0438_01_8_5810A09F72F9431FA8D4_V1-0268.mov</pathurl>
                            <timecode>
                                <string>01:00:14:04</string>
                                <displayformat>NDF</displayformat>
                                <rate>
                                    <timebase>25</timebase>
                                    <ntsc>false</ntsc>
                                </rate>
                            </timecode>
                            <media>
                                <video>
                                    <duration>152</duration>
                                    <samplecharacteristics>
                                        <width>1920</width>
                                        <height>1080</height>
                                    </samplecharacteristics>
                                </video>
                            </media>
                        </file>
                        <compositemode>normal</compositemode>
                        <filter>
                            <enabled>true</enabled>
                            <start>0</start>
                            <end>151</end>
                            <effect>
                                <name>Opacity</name>
                                <effectid>opacity</effectid>
                                <effecttype>motion</effecttype>
                                <mediatype>video</mediatype>
                                <effectcategory>motion</effectcategory>
                                <parameter>
                                    <name>opacity</name>
                                    <parameterid>opacity</parameterid>
                                    <value>100</value>
                                    <valuemin>0</valuemin>
                                    <valuemax>100</valuemax>
                                </parameter>
                            </effect>
                        </filter>
                    </clipitem>
                    <clipitem id="КАССЕТНАЯ КАМЕРА 2_8_EAF4E45AA56A44F4A9E7.mov 0">
                        <name>КАССЕТНАЯ КАМЕРА 2_8_EAF4E45AA56A44F4A9E7.mov</name>
                        <duration>115</duration>
                        <rate>
                            <timebase>25</timebase>
                            <ntsc>false</ntsc>
                        </rate>
                        <start>90506</start>
                        <end>90622</end>
                        <enabled>true</enabled>
                        <in>0</in>
                        <out>116</out>
                        <file id="КАССЕТНАЯ КАМЕРА 2_8_EAF4E45AA56A44F4A9E7.mov 2">
                            <duration>116</duration>
                            <rate>
                                <timebase>25</timebase>
                                <ntsc>false</ntsc>
                            </rate>
                            <name>КАССЕТНАЯ КАМЕРА 2_8_EAF4E45AA56A44F4A9E7.mov</name>
                            <pathurl>file:///Capture1/EDIUS/EDIUS7_Color/colored/pasyans_v3/%D0%9A%D0%90%D0%A1%D0%A1%D0%95%D0%A2%D0%9D%D0%90%D0%AF%20%D0%9A%D0%90%D0%9C%D0%95%D0%A0%D0%90%202_8_EAF4E45AA56A44F4A9E7_V1-0269.mov</pathurl>
                            <timecode>
                                <string>01:00:20:06</string>
                                <displayformat>NDF</displayformat>
                                <rate>
                                    <timebase>25</timebase>
                                    <ntsc>false</ntsc>
                                </rate>
                            </timecode>
                            <media>
                                <video>
                                    <duration>116</duration>
                                    <samplecharacteristics>
                                        <width>1920</width>
                                        <height>1080</height>
                                    </samplecharacteristics>
                                </video>
                            </media>
                        </file>
                        <compositemode>normal</compositemode>
                        <filter>
                            <enabled>true</enabled>
                            <start>0</start>
                            <end>115</end>
                            <effect>
                                <name>Opacity</name>
                                <effectid>opacity</effectid>
                                <effecttype>motion</effecttype>
                                <mediatype>video</mediatype>
                                <effectcategory>motion</effectcategory>
                                <parameter>
                                    <name>opacity</name>
                                    <parameterid>opacity</parameterid>
                                    <value>100</value>
                                    <valuemin>0</valuemin>
                                    <valuemax>100</valuemax>
                                </parameter>
                            </effect>
                        </filter>
                    </clipitem>
                    <clipitem id="GOPR8364_7_FEF99DE7EF7A4FC6B074.mov 0">
                        <name>GOPR8364_7_FEF99DE7EF7A4FC6B074.mov</name>
                        <duration>147</duration>
                        <rate>
                            <timebase>25</timebase>
                            <ntsc>false</ntsc>
                        </rate>
                        <start>94777</start>
                        <end>94924</end>
                        <enabled>true</enabled>
                        <in>0</in>
                        <out>147</out>
                        <file id="GOPR8364_7_FEF99DE7EF7A4FC6B074.mov 2">
                            <duration>147</duration>
                            <rate>
                                <timebase>25</timebase>
                                <ntsc>false</ntsc>
                            </rate>
                            <name>GOPR8364_7_FEF99DE7EF7A4FC6B074.mov</name>
                            <pathurl>file:///Capture1/EDIUS/EDIUS7_Color/colored/pasyans_v3/GOPR8364_7_FEF99DE7EF7A4FC6B074_V1-0270.mov</pathurl>
                            <timecode>
                                <string>01:03:11:02</string>
                                <displayformat>NDF</displayformat>
                                <rate>
                                    <timebase>25</timebase>
                                    <ntsc>false</ntsc>
                                </rate>
                            </timecode>
                            <media>
                                <video>
                                    <duration>147</duration>
                                    <samplecharacteristics>
                                        <width>1920</width>
                                        <height>1080</height>
                                    </samplecharacteristics>
                                </video>
                            </media>
                        </file>
                        <compositemode>normal</compositemode>
                        <filter>
                            <enabled>true</enabled>
                            <start>0</start>
                            <end>147</end>
                            <effect>
                                <name>Opacity</name>
                                <effectid>opacity</effectid>
                                <effecttype>motion</effecttype>
                                <mediatype>video</mediatype>
                                <effectcategory>motion</effectcategory>
                                <parameter>
                                    <name>opacity</name>
                                    <parameterid>opacity</parameterid>
                                    <value>100</value>
                                    <valuemin>0</valuemin>
                                    <valuemax>100</valuemax>
                                </parameter>
                            </effect>
                        </filter>
                    </clipitem>
                    <clipitem id="КАССЕТНАЯ КАМЕРА 2_9_5FC78EDC563A449F8534.mov 0">
                        <name>КАССЕТНАЯ КАМЕРА 2_9_5FC78EDC563A449F8534.mov</name>
                        <duration>75</duration>
                        <rate>
                            <timebase>25</timebase>
                            <ntsc>false</ntsc>
                        </rate>
                        <start>95014</start>
                        <end>95089</end>
                        <enabled>true</enabled>
                        <in>0</in>
                        <out>75</out>
                        <file id="КАССЕТНАЯ КАМЕРА 2_9_5FC78EDC563A449F8534.mov 2">
                            <duration>75</duration>
                            <rate>
                                <timebase>25</timebase>
                                <ntsc>false</ntsc>
                            </rate>
                            <name>КАССЕТНАЯ КАМЕРА 2_9_5FC78EDC563A449F8534.mov</name>
                            <pathurl>file:///Capture1/EDIUS/EDIUS7_Color/colored/pasyans_v3/%D0%9A%D0%90%D0%A1%D0%A1%D0%95%D0%A2%D0%9D%D0%90%D0%AF%20%D0%9A%D0%90%D0%9C%D0%95%D0%A0%D0%90%202_9_5FC78EDC563A449F8534_V1-0271.mov</pathurl>
                            <timecode>
                                <string>01:03:20:14</string>
                                <displayformat>NDF</displayformat>
                                <rate>
                                    <timebase>25</timebase>
                                    <ntsc>false</ntsc>
                                </rate>
                            </timecode>
                            <media>
                                <video>
                                    <duration>75</duration>
                                    <samplecharacteristics>
                                        <width>1920</width>
                                        <height>1080</height>
                                    </samplecharacteristics>
                                </video>
                            </media>
                        </file>
                        <compositemode>normal</compositemode>
                        <filter>
                            <enabled>true</enabled>
                            <start>0</start>
                            <end>75</end>
                            <effect>
                                <name>Opacity</name>
                                <effectid>opacity</effectid>
                                <effecttype>motion</effecttype>
                                <mediatype>video</mediatype>
                                <effectcategory>motion</effectcategory>
                                <parameter>
                                    <name>opacity</name>
                                    <parameterid>opacity</parameterid>
                                    <value>100</value>
                                    <valuemin>0</valuemin>
                                    <valuemax>100</valuemax>
                                </parameter>
                            </effect>
                        </filter>
                    </clipitem>
                    <clipitem id="972_0438_01_9_D5FDF7EE7132418983BE.mov 0">
                        <name>972_0438_01_9_D5FDF7EE7132418983BE.mov</name>
                        <duration>75</duration>
                        <rate>
                            <timebase>25</timebase>
                            <ntsc>false</ntsc>
                        </rate>
                        <start>95089</start>
                        <end>95165</end>
                        <enabled>true</enabled>
                        <in>0</in>
                        <out>76</out>
                        <file id="972_0438_01_9_D5FDF7EE7132418983BE.mov 2">
                            <duration>76</duration>
                            <rate>
                                <timebase>25</timebase>
                                <ntsc>false</ntsc>
                            </rate>
                            <name>972_0438_01_9_D5FDF7EE7132418983BE.mov</name>
                            <pathurl>file:///Capture1/EDIUS/EDIUS7_Color/colored/pasyans_v3/972_0438_01_9_D5FDF7EE7132418983BE_V1-0272.mov</pathurl>
                            <timecode>
                                <string>01:03:23:14</string>
                                <displayformat>NDF</displayformat>
                                <rate>
                                    <timebase>25</timebase>
                                    <ntsc>false</ntsc>
                                </rate>
                            </timecode>
                            <media>
                                <video>
                                    <duration>76</duration>
                                    <samplecharacteristics>
                                        <width>1920</width>
                                        <height>1080</height>
                                    </samplecharacteristics>
                                </video>
                            </media>
                        </file>
                        <compositemode>normal</compositemode>
                        <filter>
                            <enabled>true</enabled>
                            <start>0</start>
                            <end>75</end>
                            <effect>
                                <name>Opacity</name>
                                <effectid>opacity</effectid>
                                <effecttype>motion</effecttype>
                                <mediatype>video</mediatype>
                                <effectcategory>motion</effectcategory>
                                <parameter>
                                    <name>opacity</name>
                                    <parameterid>opacity</parameterid>
                                    <value>100</value>
                                    <valuemin>0</valuemin>
                                    <valuemax>100</valuemax>
                                </parameter>
                            </effect>
                        </filter>
                    </clipitem>
                    <clipitem id="КАССЕТНАЯ КАМЕРА 2_10_1EC4C608D6444B0B8E83.mov 0">
                        <name>КАССЕТНАЯ КАМЕРА 2_10_1EC4C608D6444B0B8E83.mov</name>
                        <duration>73</duration>
                        <rate>
                            <timebase>25</timebase>
                            <ntsc>false</ntsc>
                        </rate>
                        <start>95165</start>
                        <end>95238</end>
                        <enabled>true</enabled>
                        <in>0</in>
                        <out>73</out>
                        <file id="КАССЕТНАЯ КАМЕРА 2_10_1EC4C608D6444B0B8E83.mov 2">
                            <duration>73</duration>
                            <rate>
                                <timebase>25</timebase>
                                <ntsc>false</ntsc>
                            </rate>
                            <name>КАССЕТНАЯ КАМЕРА 2_10_1EC4C608D6444B0B8E83.mov</name>
                            <pathurl>file:///Capture1/EDIUS/EDIUS7_Color/colored/pasyans_v3/%D0%9A%D0%90%D0%A1%D0%A1%D0%95%D0%A2%D0%9D%D0%90%D0%AF%20%D0%9A%D0%90%D0%9C%D0%95%D0%A0%D0%90%202_10_1EC4C608D6444B0B8E83_V1-0273.mov</pathurl>
                            <timecode>
                                <string>01:03:26:15</string>
                                <displayformat>NDF</displayformat>
                                <rate>
                                    <timebase>25</timebase>
                                    <ntsc>false</ntsc>
                                </rate>
                            </timecode>
                            <media>
                                <video>
                                    <duration>73</duration>
                                    <samplecharacteristics>
                                        <width>1920</width>
                                        <height>1080</height>
                                    </samplecharacteristics>
                                </video>
                            </media>
                        </file>
                        <compositemode>normal</compositemode>
                        <filter>
                            <enabled>true</enabled>
                            <start>0</start>
                            <end>73</end>
                            <effect>
                                <name>Opacity</name>
                                <effectid>opacity</effectid>
                                <effecttype>motion</effecttype>
                                <mediatype>video</mediatype>
                                <effectcategory>motion</effectcategory>
                                <parameter>
                                    <name>opacity</name>
                                    <parameterid>opacity</parameterid>
                                    <value>100</value>
                                    <valuemin>0</valuemin>
                                    <valuemax>100</valuemax>
                                </parameter>
                            </effect>
                        </filter>
                    </clipitem>
                    <clipitem id="КАССЕТНАЯ КАМЕРА 2_11_A74CD02962694C638B37.mov 0">
                        <name>КАССЕТНАЯ КАМЕРА 2_11_A74CD02962694C638B37.mov</name>
                        <duration>212</duration>
                        <rate>
                            <timebase>25</timebase>
                            <ntsc>false</ntsc>
                        </rate>
                        <start>95238</start>
                        <end>95450</end>
                        <enabled>true</enabled>
                        <in>0</in>
                        <out>212</out>
                        <file id="КАССЕТНАЯ КАМЕРА 2_11_A74CD02962694C638B37.mov 2">
                            <duration>212</duration>
                            <rate>
                                <timebase>25</timebase>
                                <ntsc>false</ntsc>
                            </rate>
                            <name>КАССЕТНАЯ КАМЕРА 2_11_A74CD02962694C638B37.mov</name>
                            <pathurl>file:///Capture1/EDIUS/EDIUS7_Color/colored/pasyans_v3/%D0%9A%D0%90%D0%A1%D0%A1%D0%95%D0%A2%D0%9D%D0%90%D0%AF%20%D0%9A%D0%90%D0%9C%D0%95%D0%A0%D0%90%202_11_A74CD02962694C638B37_V1-0274.mov</pathurl>
                            <timecode>
                                <string>01:03:29:13</string>
                                <displayformat>NDF</displayformat>
                                <rate>
                                    <timebase>25</timebase>
                                    <ntsc>false</ntsc>
                                </rate>
                            </timecode>
                            <media>
                                <video>
                                    <duration>212</duration>
                                    <samplecharacteristics>
                                        <width>1920</width>
                                        <height>1080</height>
                                    </samplecharacteristics>
                                </video>
                            </media>
                        </file>
                        <compositemode>normal</compositemode>
                        <filter>
                            <enabled>true</enabled>
                            <start>0</start>
                            <end>212</end>
                            <effect>
                                <name>Opacity</name>
                                <effectid>opacity</effectid>
                                <effecttype>motion</effecttype>
                                <mediatype>video</mediatype>
                                <effectcategory>motion</effectcategory>
                                <parameter>
                                    <name>opacity</name>
                                    <parameterid>opacity</parameterid>
                                    <value>100</value>
                                    <valuemin>0</valuemin>
                                    <valuemax>100</valuemax>
                                </parameter>
                            </effect>
                        </filter>
                    </clipitem>
                    <clipitem id="GOPR8504_1_3BA8C0268131432BB9B4.mov 0">
                        <name>GOPR8504_1_3BA8C0268131432BB9B4.mov</name>
                        <duration>186</duration>
                        <rate>
                            <timebase>25</timebase>
                            <ntsc>false</ntsc>
                        </rate>
                        <start>95450</start>
                        <end>95636</end>
                        <enabled>true</enabled>
                        <in>0</in>
                        <out>186</out>
                        <file id="GOPR8504_1_3BA8C0268131432BB9B4.mov 2">
                            <duration>186</duration>
                            <rate>
                                <timebase>25</timebase>
                                <ntsc>false</ntsc>
                            </rate>
                            <name>GOPR8504_1_3BA8C0268131432BB9B4.mov</name>
                            <pathurl>file:///Capture1/EDIUS/EDIUS7_Color/colored/pasyans_v3/GOPR8504_1_3BA8C0268131432BB9B4_V1-0275.mov</pathurl>
                            <timecode>
                                <string>01:03:38:00</string>
                                <displayformat>NDF</displayformat>
                                <rate>
                                    <timebase>25</timebase>
                                    <ntsc>false</ntsc>
                                </rate>
                            </timecode>
                            <media>
                                <video>
                                    <duration>186</duration>
                                    <samplecharacteristics>
                                        <width>1920</width>
                                        <height>1080</height>
                                    </samplecharacteristics>
                                </video>
                            </media>
                        </file>
                        <compositemode>normal</compositemode>
                        <filter>
                            <enabled>true</enabled>
                            <start>0</start>
                            <end>186</end>
                            <effect>
                                <name>Opacity</name>
                                <effectid>opacity</effectid>
                                <effecttype>motion</effecttype>
                                <mediatype>video</mediatype>
                                <effectcategory>motion</effectcategory>
                                <parameter>
                                    <name>opacity</name>
                                    <parameterid>opacity</parameterid>
                                    <value>100</value>
                                    <valuemin>0</valuemin>
                                    <valuemax>100</valuemax>
                                </parameter>
                            </effect>
                        </filter>
                    </clipitem>
                    <clipitem id="КАССЕТНАЯ КАМЕРА 2_12_67298AC9C6984D7EAF56.mov 0">
                        <name>КАССЕТНАЯ КАМЕРА 2_12_67298AC9C6984D7EAF56.mov</name>
                        <duration>70</duration>
                        <rate>
                            <timebase>25</timebase>
                            <ntsc>false</ntsc>
                        </rate>
                        <start>95636</start>
                        <end>95706</end>
                        <enabled>true</enabled>
                        <in>0</in>
                        <out>70</out>
                        <file id="КАССЕТНАЯ КАМЕРА 2_12_67298AC9C6984D7EAF56.mov 2">
                            <duration>70</duration>
                            <rate>
                                <timebase>25</timebase>
                                <ntsc>false</ntsc>
                            </rate>
                            <name>КАССЕТНАЯ КАМЕРА 2_12_67298AC9C6984D7EAF56.mov</name>
                            <pathurl>file:///Capture1/EDIUS/EDIUS7_Color/colored/pasyans_v3/%D0%9A%D0%90%D0%A1%D0%A1%D0%95%D0%A2%D0%9D%D0%90%D0%AF%20%D0%9A%D0%90%D0%9C%D0%95%D0%A0%D0%90%202_12_67298AC9C6984D7EAF56_V1-0276.mov</pathurl>
                            <timecode>
                                <string>01:03:45:11</string>
                                <displayformat>NDF</displayformat>
                                <rate>
                                    <timebase>25</timebase>
                                    <ntsc>false</ntsc>
                                </rate>
                            </timecode>
                            <media>
                                <video>
                                    <duration>70</duration>
                                    <samplecharacteristics>
                                        <width>1920</width>
                                        <height>1080</height>
                                    </samplecharacteristics>
                                </video>
                            </media>
                        </file>
                        <compositemode>normal</compositemode>
                        <filter>
                            <enabled>true</enabled>
                            <start>0</start>
                            <end>70</end>
                            <effect>
                                <name>Opacity</name>
                                <effectid>opacity</effectid>
                                <effecttype>motion</effecttype>
                                <mediatype>video</mediatype>
                                <effectcategory>motion</effectcategory>
                                <parameter>
                                    <name>opacity</name>
                                    <parameterid>opacity</parameterid>
                                    <value>100</value>
                                    <valuemin>0</valuemin>
                                    <valuemax>100</valuemax>
                                </parameter>
                            </effect>
                        </filter>
                    </clipitem>
                    <clipitem id="GOPR8504_2_F9CD77E6976E4313A9D6.mov 0">
                        <name>GOPR8504_2_F9CD77E6976E4313A9D6.mov</name>
                        <duration>165</duration>
                        <rate>
                            <timebase>25</timebase>
                            <ntsc>false</ntsc>
                        </rate>
                        <start>95706</start>
                        <end>95872</end>
                        <enabled>true</enabled>
                        <in>0</in>
                        <out>166</out>
                        <file id="GOPR8504_2_F9CD77E6976E4313A9D6.mov 2">
                            <duration>166</duration>
                            <rate>
                                <timebase>25</timebase>
                                <ntsc>false</ntsc>
                            </rate>
                            <name>GOPR8504_2_F9CD77E6976E4313A9D6.mov</name>
                            <pathurl>file:///Capture1/EDIUS/EDIUS7_Color/colored/pasyans_v3/GOPR8504_2_F9CD77E6976E4313A9D6_V1-0277.mov</pathurl>
                            <timecode>
                                <string>01:03:48:06</string>
                                <displayformat>NDF</displayformat>
                                <rate>
                                    <timebase>25</timebase>
                                    <ntsc>false</ntsc>
                                </rate>
                            </timecode>
                            <media>
                                <video>
                                    <duration>166</duration>
                                    <samplecharacteristics>
                                        <width>1920</width>
                                        <height>1080</height>
                                    </samplecharacteristics>
                                </video>
                            </media>
                        </file>
                        <compositemode>normal</compositemode>
                        <filter>
                            <enabled>true</enabled>
                            <start>0</start>
                            <end>165</end>
                            <effect>
                                <name>Opacity</name>
                                <effectid>opacity</effectid>
                                <effecttype>motion</effecttype>
                                <mediatype>video</mediatype>
                                <effectcategory>motion</effectcategory>
                                <parameter>
                                    <name>opacity</name>
                                    <parameterid>opacity</parameterid>
                                    <value>100</value>
                                    <valuemin>0</valuemin>
                                    <valuemax>100</valuemax>
                                </parameter>
                            </effect>
                        </filter>
                    </clipitem>
                    <clipitem id="КАССЕТНАЯ КАМЕРА 2_13_8CC89B968DAB4A25B595.mov 0">
                        <name>КАССЕТНАЯ КАМЕРА 2_13_8CC89B968DAB4A25B595.mov</name>
                        <duration>104</duration>
                        <rate>
                            <timebase>25</timebase>
                            <ntsc>false</ntsc>
                        </rate>
                        <start>95872</start>
                        <end>95977</end>
                        <enabled>true</enabled>
                        <in>0</in>
                        <out>105</out>
                        <file id="КАССЕТНАЯ КАМЕРА 2_13_8CC89B968DAB4A25B595.mov 2">
                            <duration>105</duration>
                            <rate>
                                <timebase>25</timebase>
                                <ntsc>false</ntsc>
                            </rate>
                            <name>КАССЕТНАЯ КАМЕРА 2_13_8CC89B968DAB4A25B595.mov</name>
                            <pathurl>file:///Capture1/EDIUS/EDIUS7_Color/colored/pasyans_v3/%D0%9A%D0%90%D0%A1%D0%A1%D0%95%D0%A2%D0%9D%D0%90%D0%AF%20%D0%9A%D0%90%D0%9C%D0%95%D0%A0%D0%90%202_13_8CC89B968DAB4A25B595_V1-0278.mov</pathurl>
                            <timecode>
                                <string>01:03:54:22</string>
                                <displayformat>NDF</displayformat>
                                <rate>
                                    <timebase>25</timebase>
                                    <ntsc>false</ntsc>
                                </rate>
                            </timecode>
                            <media>
                                <video>
                                    <duration>105</duration>
                                    <samplecharacteristics>
                                        <width>1920</width>
                                        <height>1080</height>
                                    </samplecharacteristics>
                                </video>
                            </media>
                        </file>
                        <compositemode>normal</compositemode>
                        <filter>
                            <enabled>true</enabled>
                            <start>0</start>
                            <end>104</end>
                            <effect>
                                <name>Opacity</name>
                                <effectid>opacity</effectid>
                                <effecttype>motion</effecttype>
                                <mediatype>video</mediatype>
                                <effectcategory>motion</effectcategory>
                                <parameter>
                                    <name>opacity</name>
                                    <parameterid>opacity</parameterid>
                                    <value>100</value>
                                    <valuemin>0</valuemin>
                                    <valuemax>100</valuemax>
                                </parameter>
                            </effect>
                        </filter>
                    </clipitem>
                    <clipitem id="GOPR8504_3_C7A1A9E5A8354F93B9B0.mov 0">
                        <name>GOPR8504_3_C7A1A9E5A8354F93B9B0.mov</name>
                        <duration>88</duration>
                        <rate>
                            <timebase>25</timebase>
                            <ntsc>false</ntsc>
                        </rate>
                        <start>95977</start>
                        <end>96066</end>
                        <enabled>true</enabled>
                        <in>0</in>
                        <out>89</out>
                        <file id="GOPR8504_3_C7A1A9E5A8354F93B9B0.mov 2">
                            <duration>89</duration>
                            <rate>
                                <timebase>25</timebase>
                                <ntsc>false</ntsc>
                            </rate>
                            <name>GOPR8504_3_C7A1A9E5A8354F93B9B0.mov</name>
                            <pathurl>file:///Capture1/EDIUS/EDIUS7_Color/colored/pasyans_v3/GOPR8504_3_C7A1A9E5A8354F93B9B0_V1-0279.mov</pathurl>
                            <timecode>
                                <string>01:03:59:02</string>
                                <displayformat>NDF</displayformat>
                                <rate>
                                    <timebase>25</timebase>
                                    <ntsc>false</ntsc>
                                </rate>
                            </timecode>
                            <media>
                                <video>
                                    <duration>89</duration>
                                    <samplecharacteristics>
                                        <width>1920</width>
                                        <height>1080</height>
                                    </samplecharacteristics>
                                </video>
                            </media>
                        </file>
                        <compositemode>normal</compositemode>
                        <filter>
                            <enabled>true</enabled>
                            <start>0</start>
                            <end>88</end>
                            <effect>
                                <name>Opacity</name>
                                <effectid>opacity</effectid>
                                <effecttype>motion</effecttype>
                                <mediatype>video</mediatype>
                                <effectcategory>motion</effectcategory>
                                <parameter>
                                    <name>opacity</name>
                                    <parameterid>opacity</parameterid>
                                    <value>100</value>
                                    <valuemin>0</valuemin>
                                    <valuemax>100</valuemax>
                                </parameter>
                            </effect>
                        </filter>
                    </clipitem>
                    <clipitem id="GOPR8364_8_7E40989E0B734730BF28.mov 0">
                        <name>GOPR8364_8_7E40989E0B734730BF28.mov</name>
                        <duration>83</duration>
                        <rate>
                            <timebase>25</timebase>
                            <ntsc>false</ntsc>
                        </rate>
                        <start>96148</start>
                        <end>96231</end>
                        <enabled>true</enabled>
                        <in>0</in>
                        <out>83</out>
                        <file id="GOPR8364_8_7E40989E0B734730BF28.mov 2">
                            <duration>83</duration>
                            <rate>
                                <timebase>25</timebase>
                                <ntsc>false</ntsc>
                            </rate>
                            <name>GOPR8364_8_7E40989E0B734730BF28.mov</name>
                            <pathurl>file:///Capture1/EDIUS/EDIUS7_Color/colored/pasyans_v3/GOPR8364_8_7E40989E0B734730BF28_V1-0280.mov</pathurl>
                            <timecode>
                                <string>01:04:05:23</string>
                                <displayformat>NDF</displayformat>
                                <rate>
                                    <timebase>25</timebase>
                                    <ntsc>false</ntsc>
                                </rate>
                            </timecode>
                            <media>
                                <video>
                                    <duration>83</duration>
                                    <samplecharacteristics>
                                        <width>1920</width>
                                        <height>1080</height>
                                    </samplecharacteristics>
                                </video>
                            </media>
                        </file>
                        <compositemode>normal</compositemode>
                        <filter>
                            <enabled>true</enabled>
                            <start>0</start>
                            <end>83</end>
                            <effect>
                                <name>Opacity</name>
                                <effectid>opacity</effectid>
                                <effecttype>motion</effecttype>
                                <mediatype>video</mediatype>
                                <effectcategory>motion</effectcategory>
                                <parameter>
                                    <name>opacity</name>
                                    <parameterid>opacity</parameterid>
                                    <value>100</value>
                                    <valuemin>0</valuemin>
                                    <valuemax>100</valuemax>
                                </parameter>
                            </effect>
                        </filter>
                    </clipitem>
                    <clipitem id="КАССЕТНАЯ КАМЕРА 2_14_A23B681F543C4372BEFD.mov 0">
                        <name>КАССЕТНАЯ КАМЕРА 2_14_A23B681F543C4372BEFD.mov</name>
                        <duration>122</duration>
                        <rate>
                            <timebase>25</timebase>
                            <ntsc>false</ntsc>
                        </rate>
                        <start>96231</start>
                        <end>96353</end>
                        <enabled>true</enabled>
                        <in>0</in>
                        <out>122</out>
                        <file id="КАССЕТНАЯ КАМЕРА 2_14_A23B681F543C4372BEFD.mov 2">
                            <duration>122</duration>
                            <rate>
                                <timebase>25</timebase>
                                <ntsc>false</ntsc>
                            </rate>
                            <name>КАССЕТНАЯ КАМЕРА 2_14_A23B681F543C4372BEFD.mov</name>
                            <pathurl>file:///Capture1/EDIUS/EDIUS7_Color/colored/pasyans_v3/%D0%9A%D0%90%D0%A1%D0%A1%D0%95%D0%A2%D0%9D%D0%90%D0%AF%20%D0%9A%D0%90%D0%9C%D0%95%D0%A0%D0%90%202_14_A23B681F543C4372BEFD_V1-0281.mov</pathurl>
                            <timecode>
                                <string>01:04:09:06</string>
                                <displayformat>NDF</displayformat>
                                <rate>
                                    <timebase>25</timebase>
                                    <ntsc>false</ntsc>
                                </rate>
                            </timecode>
                            <media>
                                <video>
                                    <duration>122</duration>
                                    <samplecharacteristics>
                                        <width>1920</width>
                                        <height>1080</height>
                                    </samplecharacteristics>
                                </video>
                            </media>
                        </file>
                        <compositemode>normal</compositemode>
                        <filter>
                            <enabled>true</enabled>
                            <start>0</start>
                            <end>122</end>
                            <effect>
                                <name>Opacity</name>
                                <effectid>opacity</effectid>
                                <effecttype>motion</effecttype>
                                <mediatype>video</mediatype>
                                <effectcategory>motion</effectcategory>
                                <parameter>
                                    <name>opacity</name>
                                    <parameterid>opacity</parameterid>
                                    <value>100</value>
                                    <valuemin>0</valuemin>
                                    <valuemax>100</valuemax>
                                </parameter>
                            </effect>
                        </filter>
                    </clipitem>
                    <clipitem id="GOPR8504_4_E1E130F511F345E49EB1.mov 0">
                        <name>GOPR8504_4_E1E130F511F345E49EB1.mov</name>
                        <duration>109</duration>
                        <rate>
                            <timebase>25</timebase>
                            <ntsc>false</ntsc>
                        </rate>
                        <start>96353</start>
                        <end>96462</end>
                        <enabled>true</enabled>
                        <in>0</in>
                        <out>109</out>
                        <file id="GOPR8504_4_E1E130F511F345E49EB1.mov 2">
                            <duration>109</duration>
                            <rate>
                                <timebase>25</timebase>
                                <ntsc>false</ntsc>
                            </rate>
                            <name>GOPR8504_4_E1E130F511F345E49EB1.mov</name>
                            <pathurl>file:///Capture1/EDIUS/EDIUS7_Color/colored/pasyans_v3/GOPR8504_4_E1E130F511F345E49EB1_V1-0282.mov</pathurl>
                            <timecode>
                                <string>01:04:14:03</string>
                                <displayformat>NDF</displayformat>
                                <rate>
                                    <timebase>25</timebase>
                                    <ntsc>false</ntsc>
                                </rate>
                            </timecode>
                            <media>
                                <video>
                                    <duration>109</duration>
                                    <samplecharacteristics>
                                        <width>1920</width>
                                        <height>1080</height>
                                    </samplecharacteristics>
                                </video>
                            </media>
                        </file>
                        <compositemode>normal</compositemode>
                        <filter>
                            <enabled>true</enabled>
                            <start>0</start>
                            <end>109</end>
                            <effect>
                                <name>Opacity</name>
                                <effectid>opacity</effectid>
                                <effecttype>motion</effecttype>
                                <mediatype>video</mediatype>
                                <effectcategory>motion</effectcategory>
                                <parameter>
                                    <name>opacity</name>
                                    <parameterid>opacity</parameterid>
                                    <value>100</value>
                                    <valuemin>0</valuemin>
                                    <valuemax>100</valuemax>
                                </parameter>
                            </effect>
                        </filter>
                    </clipitem>
                    <clipitem id="КАССЕТНАЯ КАМЕРА 2_15_A69AA17662F2476F95C6.mov 0">
                        <name>КАССЕТНАЯ КАМЕРА 2_15_A69AA17662F2476F95C6.mov</name>
                        <duration>124</duration>
                        <rate>
                            <timebase>25</timebase>
                            <ntsc>false</ntsc>
                        </rate>
                        <start>96462</start>
                        <end>96586</end>
                        <enabled>true</enabled>
                        <in>0</in>
                        <out>124</out>
                        <file id="КАССЕТНАЯ КАМЕРА 2_15_A69AA17662F2476F95C6.mov 2">
                            <duration>124</duration>
                            <rate>
                                <timebase>25</timebase>
                                <ntsc>false</ntsc>
                            </rate>
                            <name>КАССЕТНАЯ КАМЕРА 2_15_A69AA17662F2476F95C6.mov</name>
                            <pathurl>file:///Capture1/EDIUS/EDIUS7_Color/colored/pasyans_v3/%D0%9A%D0%90%D0%A1%D0%A1%D0%95%D0%A2%D0%9D%D0%90%D0%AF%20%D0%9A%D0%90%D0%9C%D0%95%D0%A0%D0%90%202_15_A69AA17662F2476F95C6_V1-0283.mov</pathurl>
                            <timecode>
                                <string>01:04:18:12</string>
                                <displayformat>NDF</displayformat>
                                <rate>
                                    <timebase>25</timebase>
                                    <ntsc>false</ntsc>
                                </rate>
                            </timecode>
                            <media>
                                <video>
                                    <duration>124</duration>
                                    <samplecharacteristics>
                                        <width>1920</width>
                                        <height>1080</height>
                                    </samplecharacteristics>
                                </video>
                            </media>
                        </file>
                        <compositemode>normal</compositemode>
                        <filter>
                            <enabled>true</enabled>
                            <start>0</start>
                            <end>124</end>
                            <effect>
                                <name>Opacity</name>
                                <effectid>opacity</effectid>
                                <effecttype>motion</effecttype>
                                <mediatype>video</mediatype>
                                <effectcategory>motion</effectcategory>
                                <parameter>
                                    <name>opacity</name>
                                    <parameterid>opacity</parameterid>
                                    <value>100</value>
                                    <valuemin>0</valuemin>
                                    <valuemax>100</valuemax>
                                </parameter>
                            </effect>
                        </filter>
                    </clipitem>
                    <clipitem id="GOPR8504_5_BA988072322C4747A33A.mov 0">
                        <name>GOPR8504_5_BA988072322C4747A33A.mov</name>
                        <duration>120</duration>
                        <rate>
                            <timebase>25</timebase>
                            <ntsc>false</ntsc>
                        </rate>
                        <start>96586</start>
                        <end>96706</end>
                        <enabled>true</enabled>
                        <in>0</in>
                        <out>120</out>
                        <file id="GOPR8504_5_BA988072322C4747A33A.mov 2">
                            <duration>120</duration>
                            <rate>
                                <timebase>25</timebase>
                                <ntsc>false</ntsc>
                            </rate>
                            <name>GOPR8504_5_BA988072322C4747A33A.mov</name>
                            <pathurl>file:///Capture1/EDIUS/EDIUS7_Color/colored/pasyans_v3/GOPR8504_5_BA988072322C4747A33A_V1-0284.mov</pathurl>
                            <timecode>
                                <string>01:04:23:11</string>
                                <displayformat>NDF</displayformat>
                                <rate>
                                    <timebase>25</timebase>
                                    <ntsc>false</ntsc>
                                </rate>
                            </timecode>
                            <media>
                                <video>
                                    <duration>120</duration>
                                    <samplecharacteristics>
                                        <width>1920</width>
                                        <height>1080</height>
                                    </samplecharacteristics>
                                </video>
                            </media>
                        </file>
                        <compositemode>normal</compositemode>
                        <filter>
                            <enabled>true</enabled>
                            <start>0</start>
                            <end>120</end>
                            <effect>
                                <name>Opacity</name>
                                <effectid>opacity</effectid>
                                <effecttype>motion</effecttype>
                                <mediatype>video</mediatype>
                                <effectcategory>motion</effectcategory>
                                <parameter>
                                    <name>opacity</name>
                                    <parameterid>opacity</parameterid>
                                    <value>100</value>
                                    <valuemin>0</valuemin>
                                    <valuemax>100</valuemax>
                                </parameter>
                            </effect>
                        </filter>
                    </clipitem>
                    <clipitem id="972_0438_01_10_5CDA2B7DBAD34B019DAB.mov 0">
                        <name>972_0438_01_10_5CDA2B7DBAD34B019DAB.mov</name>
                        <duration>80</duration>
                        <rate>
                            <timebase>25</timebase>
                            <ntsc>false</ntsc>
                        </rate>
                        <start>96706</start>
                        <end>96787</end>
                        <enabled>true</enabled>
                        <in>0</in>
                        <out>81</out>
                        <file id="972_0438_01_10_5CDA2B7DBAD34B019DAB.mov 2">
                            <duration>81</duration>
                            <rate>
                                <timebase>25</timebase>
                                <ntsc>false</ntsc>
                            </rate>
                            <name>972_0438_01_10_5CDA2B7DBAD34B019DAB.mov</name>
                            <pathurl>file:///Capture1/EDIUS/EDIUS7_Color/colored/pasyans_v3/972_0438_01_10_5CDA2B7DBAD34B019DAB_V1-0285.mov</pathurl>
                            <timecode>
                                <string>01:04:28:06</string>
                                <displayformat>NDF</displayformat>
                                <rate>
                                    <timebase>25</timebase>
                                    <ntsc>false</ntsc>
                                </rate>
                            </timecode>
                            <media>
                                <video>
                                    <duration>81</duration>
                                    <samplecharacteristics>
                                        <width>1920</width>
                                        <height>1080</height>
                                    </samplecharacteristics>
                                </video>
                            </media>
                        </file>
                        <compositemode>normal</compositemode>
                        <filter>
                            <enabled>true</enabled>
                            <start>0</start>
                            <end>80</end>
                            <effect>
                                <name>Opacity</name>
                                <effectid>opacity</effectid>
                                <effecttype>motion</effecttype>
                                <mediatype>video</mediatype>
                                <effectcategory>motion</effectcategory>
                                <parameter>
                                    <name>opacity</name>
                                    <parameterid>opacity</parameterid>
                                    <value>100</value>
                                    <valuemin>0</valuemin>
                                    <valuemax>100</valuemax>
                                </parameter>
                            </effect>
                        </filter>
                    </clipitem>
                    <clipitem id="КАССЕТНАЯ КАМЕРА 2_16_F94DF7228B404D749C5C.mov 0">
                        <name>КАССЕТНАЯ КАМЕРА 2_16_F94DF7228B404D749C5C.mov</name>
                        <duration>148</duration>
                        <rate>
                            <timebase>25</timebase>
                            <ntsc>false</ntsc>
                        </rate>
                        <start>96787</start>
                        <end>96935</end>
                        <enabled>true</enabled>
                        <in>0</in>
                        <out>148</out>
                        <file id="КАССЕТНАЯ КАМЕРА 2_16_F94DF7228B404D749C5C.mov 2">
                            <duration>148</duration>
                            <rate>
                                <timebase>25</timebase>
                                <ntsc>false</ntsc>
                            </rate>
                            <name>КАССЕТНАЯ КАМЕРА 2_16_F94DF7228B404D749C5C.mov</name>
                            <pathurl>file:///Capture1/EDIUS/EDIUS7_Color/colored/pasyans_v3/%D0%9A%D0%90%D0%A1%D0%A1%D0%95%D0%A2%D0%9D%D0%90%D0%AF%20%D0%9A%D0%90%D0%9C%D0%95%D0%A0%D0%90%202_16_F94DF7228B404D749C5C_V1-0286.mov</pathurl>
                            <timecode>
                                <string>01:04:31:12</string>
                                <displayformat>NDF</displayformat>
                                <rate>
                                    <timebase>25</timebase>
                                    <ntsc>false</ntsc>
                                </rate>
                            </timecode>
                            <media>
                                <video>
                                    <duration>148</duration>
                                    <samplecharacteristics>
                                        <width>1920</width>
                                        <height>1080</height>
                                    </samplecharacteristics>
                                </video>
                            </media>
                        </file>
                        <compositemode>normal</compositemode>
                        <filter>
                            <enabled>true</enabled>
                            <start>0</start>
                            <end>148</end>
                            <effect>
                                <name>Opacity</name>
                                <effectid>opacity</effectid>
                                <effecttype>motion</effecttype>
                                <mediatype>video</mediatype>
                                <effectcategory>motion</effectcategory>
                                <parameter>
                                    <name>opacity</name>
                                    <parameterid>opacity</parameterid>
                                    <value>100</value>
                                    <valuemin>0</valuemin>
                                    <valuemax>100</valuemax>
                                </parameter>
                            </effect>
                        </filter>
                    </clipitem>
                    <clipitem id="GOPR8364_9_3F5A2F78CBCC40B7AD4A.mov 0">
                        <name>GOPR8364_9_3F5A2F78CBCC40B7AD4A.mov</name>
                        <duration>137</duration>
                        <rate>
                            <timebase>25</timebase>
                            <ntsc>false</ntsc>
                        </rate>
                        <start>96935</start>
                        <end>97073</end>
                        <enabled>true</enabled>
                        <in>0</in>
                        <out>138</out>
                        <file id="GOPR8364_9_3F5A2F78CBCC40B7AD4A.mov 2">
                            <duration>138</duration>
                            <rate>
                                <timebase>25</timebase>
                                <ntsc>false</ntsc>
                            </rate>
                            <name>GOPR8364_9_3F5A2F78CBCC40B7AD4A.mov</name>
                            <pathurl>file:///Capture1/EDIUS/EDIUS7_Color/colored/pasyans_v3/GOPR8364_9_3F5A2F78CBCC40B7AD4A_V1-0287.mov</pathurl>
                            <timecode>
                                <string>01:04:37:10</string>
                                <displayformat>NDF</displayformat>
                                <rate>
                                    <timebase>25</timebase>
                                    <ntsc>false</ntsc>
                                </rate>
                            </timecode>
                            <media>
                                <video>
                                    <duration>138</duration>
                                    <samplecharacteristics>
                                        <width>1920</width>
                                        <height>1080</height>
                                    </samplecharacteristics>
                                </video>
                            </media>
                        </file>
                        <compositemode>normal</compositemode>
                        <filter>
                            <enabled>true</enabled>
                            <start>0</start>
                            <end>137</end>
                            <effect>
                                <name>Opacity</name>
                                <effectid>opacity</effectid>
                                <effecttype>motion</effecttype>
                                <mediatype>video</mediatype>
                                <effectcategory>motion</effectcategory>
                                <parameter>
                                    <name>opacity</name>
                                    <parameterid>opacity</parameterid>
                                    <value>100</value>
                                    <valuemin>0</valuemin>
                                    <valuemax>100</valuemax>
                                </parameter>
                            </effect>
                        </filter>
                    </clipitem>
                    <clipitem id="КАССЕТНАЯ КАМЕРА 2_17_F0E4AD62F0E0440C9550.mov 0">
                        <name>КАССЕТНАЯ КАМЕРА 2_17_F0E4AD62F0E0440C9550.mov</name>
                        <duration>69</duration>
                        <rate>
                            <timebase>25</timebase>
                            <ntsc>false</ntsc>
                        </rate>
                        <start>97073</start>
                        <end>97142</end>
                        <enabled>true</enabled>
                        <in>0</in>
                        <out>69</out>
                        <file id="КАССЕТНАЯ КАМЕРА 2_17_F0E4AD62F0E0440C9550.mov 2">
                            <duration>69</duration>
                            <rate>
                                <timebase>25</timebase>
                                <ntsc>false</ntsc>
                            </rate>
                            <name>КАССЕТНАЯ КАМЕРА 2_17_F0E4AD62F0E0440C9550.mov</name>
                            <pathurl>file:///Capture1/EDIUS/EDIUS7_Color/colored/pasyans_v3/%D0%9A%D0%90%D0%A1%D0%A1%D0%95%D0%A2%D0%9D%D0%90%D0%AF%20%D0%9A%D0%90%D0%9C%D0%95%D0%A0%D0%90%202_17_F0E4AD62F0E0440C9550_V1-0288.mov</pathurl>
                            <timecode>
                                <string>01:04:42:23</string>
                                <displayformat>NDF</displayformat>
                                <rate>
                                    <timebase>25</timebase>
                                    <ntsc>false</ntsc>
                                </rate>
                            </timecode>
                            <media>
                                <video>
                                    <duration>69</duration>
                                    <samplecharacteristics>
                                        <width>1920</width>
                                        <height>1080</height>
                                    </samplecharacteristics>
                                </video>
                            </media>
                        </file>
                        <compositemode>normal</compositemode>
                        <filter>
                            <enabled>true</enabled>
                            <start>0</start>
                            <end>69</end>
                            <effect>
                                <name>Opacity</name>
                                <effectid>opacity</effectid>
                                <effecttype>motion</effecttype>
                                <mediatype>video</mediatype>
                                <effectcategory>motion</effectcategory>
                                <parameter>
                                    <name>opacity</name>
                                    <parameterid>opacity</parameterid>
                                    <value>100</value>
                                    <valuemin>0</valuemin>
                                    <valuemax>100</valuemax>
                                </parameter>
                            </effect>
                        </filter>
                    </clipitem>
                    <clipitem id="246_0923_01_4_66D17C56AE0544CFB4C0.mov 0">
                        <name>246_0923_01_4_66D17C56AE0544CFB4C0.mov</name>
                        <duration>125</duration>
                        <rate>
                            <timebase>25</timebase>
                            <ntsc>false</ntsc>
                        </rate>
                        <start>97142</start>
                        <end>97267</end>
                        <enabled>true</enabled>
                        <in>0</in>
                        <out>125</out>
                        <file id="246_0923_01_4_66D17C56AE0544CFB4C0.mov 2">
                            <duration>125</duration>
                            <rate>
                                <timebase>25</timebase>
                                <ntsc>false</ntsc>
                            </rate>
                            <name>246_0923_01_4_66D17C56AE0544CFB4C0.mov</name>
                            <pathurl>file:///Capture1/EDIUS/EDIUS7_Color/colored/pasyans_v3/246_0923_01_4_66D17C56AE0544CFB4C0_V1-0289.mov</pathurl>
                            <timecode>
                                <string>01:04:45:17</string>
                                <displayformat>NDF</displayformat>
                                <rate>
                                    <timebase>25</timebase>
                                    <ntsc>false</ntsc>
                                </rate>
                            </timecode>
                            <media>
                                <video>
                                    <duration>125</duration>
                                    <samplecharacteristics>
                                        <width>1920</width>
                                        <height>1080</height>
                                    </samplecharacteristics>
                                </video>
                            </media>
                        </file>
                        <compositemode>normal</compositemode>
                        <filter>
                            <enabled>true</enabled>
                            <start>0</start>
                            <end>125</end>
                            <effect>
                                <name>Opacity</name>
                                <effectid>opacity</effectid>
                                <effecttype>motion</effecttype>
                                <mediatype>video</mediatype>
                                <effectcategory>motion</effectcategory>
                                <parameter>
                                    <name>opacity</name>
                                    <parameterid>opacity</parameterid>
                                    <value>100</value>
                                    <valuemin>0</valuemin>
                                    <valuemax>100</valuemax>
                                </parameter>
                            </effect>
                        </filter>
                    </clipitem>
                    <clipitem id="972_0438_01_11_AC780436340D4FD59523.mov 0">
                        <name>972_0438_01_11_AC780436340D4FD59523.mov</name>
                        <duration>112</duration>
                        <rate>
                            <timebase>25</timebase>
                            <ntsc>false</ntsc>
                        </rate>
                        <start>97267</start>
                        <end>97380</end>
                        <enabled>true</enabled>
                        <in>0</in>
                        <out>113</out>
                        <file id="972_0438_01_11_AC780436340D4FD59523.mov 2">
                            <duration>113</duration>
                            <rate>
                                <timebase>25</timebase>
                                <ntsc>false</ntsc>
                            </rate>
                            <name>972_0438_01_11_AC780436340D4FD59523.mov</name>
                            <pathurl>file:///Capture1/EDIUS/EDIUS7_Color/colored/pasyans_v3/972_0438_01_11_AC780436340D4FD59523_V1-0290.mov</pathurl>
                            <timecode>
                                <string>01:04:50:17</string>
                                <displayformat>NDF</displayformat>
                                <rate>
                                    <timebase>25</timebase>
                                    <ntsc>false</ntsc>
                                </rate>
                            </timecode>
                            <media>
                                <video>
                                    <duration>113</duration>
                                    <samplecharacteristics>
                                        <width>1920</width>
                                        <height>1080</height>
                                    </samplecharacteristics>
                                </video>
                            </media>
                        </file>
                        <compositemode>normal</compositemode>
                        <filter>
                            <enabled>true</enabled>
                            <start>0</start>
                            <end>112</end>
                            <effect>
                                <name>Opacity</name>
                                <effectid>opacity</effectid>
                                <effecttype>motion</effecttype>
                                <mediatype>video</mediatype>
                                <effectcategory>motion</effectcategory>
                                <parameter>
                                    <name>opacity</name>
                                    <parameterid>opacity</parameterid>
                                    <value>100</value>
                                    <valuemin>0</valuemin>
                                    <valuemax>100</valuemax>
                                </parameter>
                            </effect>
                        </filter>
                    </clipitem>
                    <clipitem id="КАССЕТНАЯ КАМЕРА 2_18_58A199E3EB8A4FE6AB2F.mov 0">
                        <name>КАССЕТНАЯ КАМЕРА 2_18_58A199E3EB8A4FE6AB2F.mov</name>
                        <duration>295</duration>
                        <rate>
                            <timebase>25</timebase>
                            <ntsc>false</ntsc>
                        </rate>
                        <start>97380</start>
                        <end>97675</end>
                        <enabled>true</enabled>
                        <in>0</in>
                        <out>295</out>
                        <file id="КАССЕТНАЯ КАМЕРА 2_18_58A199E3EB8A4FE6AB2F.mov 2">
                            <duration>295</duration>
                            <rate>
                                <timebase>25</timebase>
                                <ntsc>false</ntsc>
                            </rate>
                            <name>КАССЕТНАЯ КАМЕРА 2_18_58A199E3EB8A4FE6AB2F.mov</name>
                            <pathurl>file:///Capture1/EDIUS/EDIUS7_Color/colored/pasyans_v3/%D0%9A%D0%90%D0%A1%D0%A1%D0%95%D0%A2%D0%9D%D0%90%D0%AF%20%D0%9A%D0%90%D0%9C%D0%95%D0%A0%D0%90%202_18_58A199E3EB8A4FE6AB2F_V1-0291.mov</pathurl>
                            <timecode>
                                <string>01:04:55:05</string>
                                <displayformat>NDF</displayformat>
                                <rate>
                                    <timebase>25</timebase>
                                    <ntsc>false</ntsc>
                                </rate>
                            </timecode>
                            <media>
                                <video>
                                    <duration>295</duration>
                                    <samplecharacteristics>
                                        <width>1920</width>
                                        <height>1080</height>
                                    </samplecharacteristics>
                                </video>
                            </media>
                        </file>
                        <compositemode>normal</compositemode>
                        <filter>
                            <enabled>true</enabled>
                            <start>0</start>
                            <end>295</end>
                            <effect>
                                <name>Opacity</name>
                                <effectid>opacity</effectid>
                                <effecttype>motion</effecttype>
                                <mediatype>video</mediatype>
                                <effectcategory>motion</effectcategory>
                                <parameter>
                                    <name>opacity</name>
                                    <parameterid>opacity</parameterid>
                                    <value>100</value>
                                    <valuemin>0</valuemin>
                                    <valuemax>100</valuemax>
                                </parameter>
                            </effect>
                        </filter>
                    </clipitem>
                    <clipitem id="GOPR8504_6_08E489DB8C0D46BA9212.mov 0">
                        <name>GOPR8504_6_08E489DB8C0D46BA9212.mov</name>
                        <duration>185</duration>
                        <rate>
                            <timebase>25</timebase>
                            <ntsc>false</ntsc>
                        </rate>
                        <start>97675</start>
                        <end>97860</end>
                        <enabled>true</enabled>
                        <in>0</in>
                        <out>185</out>
                        <file id="GOPR8504_6_08E489DB8C0D46BA9212.mov 2">
                            <duration>185</duration>
                            <rate>
                                <timebase>25</timebase>
                                <ntsc>false</ntsc>
                            </rate>
                            <name>GOPR8504_6_08E489DB8C0D46BA9212.mov</name>
                            <pathurl>file:///Capture1/EDIUS/EDIUS7_Color/colored/pasyans_v3/GOPR8504_6_08E489DB8C0D46BA9212_V1-0292.mov</pathurl>
                            <timecode>
                                <string>01:05:07:00</string>
                                <displayformat>NDF</displayformat>
                                <rate>
                                    <timebase>25</timebase>
                                    <ntsc>false</ntsc>
                                </rate>
                            </timecode>
                            <media>
                                <video>
                                    <duration>185</duration>
                                    <samplecharacteristics>
                                        <width>1920</width>
                                        <height>1080</height>
                                    </samplecharacteristics>
                                </video>
                            </media>
                        </file>
                        <compositemode>normal</compositemode>
                        <filter>
                            <enabled>true</enabled>
                            <start>0</start>
                            <end>185</end>
                            <effect>
                                <name>Opacity</name>
                                <effectid>opacity</effectid>
                                <effecttype>motion</effecttype>
                                <mediatype>video</mediatype>
                                <effectcategory>motion</effectcategory>
                                <parameter>
                                    <name>opacity</name>
                                    <parameterid>opacity</parameterid>
                                    <value>100</value>
                                    <valuemin>0</valuemin>
                                    <valuemax>100</valuemax>
                                </parameter>
                            </effect>
                        </filter>
                    </clipitem>
                    <clipitem id="972_0438_01_12_0B3B76A113DA44C0A0DF.mov 0">
                        <name>972_0438_01_12_0B3B76A113DA44C0A0DF.mov</name>
                        <duration>355</duration>
                        <rate>
                            <timebase>25</timebase>
                            <ntsc>false</ntsc>
                        </rate>
                        <start>97860</start>
                        <end>98216</end>
                        <enabled>true</enabled>
                        <in>0</in>
                        <out>356</out>
                        <file id="972_0438_01_12_0B3B76A113DA44C0A0DF.mov 2">
                            <duration>356</duration>
                            <rate>
                                <timebase>25</timebase>
                                <ntsc>false</ntsc>
                            </rate>
                            <name>972_0438_01_12_0B3B76A113DA44C0A0DF.mov</name>
                            <pathurl>file:///Capture1/EDIUS/EDIUS7_Color/colored/pasyans_v3/972_0438_01_12_0B3B76A113DA44C0A0DF_V1-0293.mov</pathurl>
                            <timecode>
                                <string>01:05:14:10</string>
                                <displayformat>NDF</displayformat>
                                <rate>
                                    <timebase>25</timebase>
                                    <ntsc>false</ntsc>
                                </rate>
                            </timecode>
                            <media>
                                <video>
                                    <duration>356</duration>
                                    <samplecharacteristics>
                                        <width>1920</width>
                                        <height>1080</height>
                                    </samplecharacteristics>
                                </video>
                            </media>
                        </file>
                        <compositemode>normal</compositemode>
                        <filter>
                            <enabled>true</enabled>
                            <start>0</start>
                            <end>355</end>
                            <effect>
                                <name>Opacity</name>
                                <effectid>opacity</effectid>
                                <effecttype>motion</effecttype>
                                <mediatype>video</mediatype>
                                <effectcategory>motion</effectcategory>
                                <parameter>
                                    <name>opacity</name>
                                    <parameterid>opacity</parameterid>
                                    <value>100</value>
                                    <valuemin>0</valuemin>
                                    <valuemax>100</valuemax>
                                </parameter>
                            </effect>
                        </filter>
                    </clipitem>
                    <clipitem id="246_0923_01_5_8261CD2FE2744E568C57.mov 0">
                        <name>246_0923_01_5_8261CD2FE2744E568C57.mov</name>
                        <duration>287</duration>
                        <rate>
                            <timebase>25</timebase>
                            <ntsc>false</ntsc>
                        </rate>
                        <start>98216</start>
                        <end>98503</end>
                        <enabled>true</enabled>
                        <in>0</in>
                        <out>287</out>
                        <file id="246_0923_01_5_8261CD2FE2744E568C57.mov 2">
                            <duration>287</duration>
                            <rate>
                                <timebase>25</timebase>
                                <ntsc>false</ntsc>
                            </rate>
                            <name>246_0923_01_5_8261CD2FE2744E568C57.mov</name>
                            <pathurl>file:///Capture1/EDIUS/EDIUS7_Color/colored/pasyans_v3/246_0923_01_5_8261CD2FE2744E568C57_V1-0294.mov</pathurl>
                            <timecode>
                                <string>01:05:28:16</string>
                                <displayformat>NDF</displayformat>
                                <rate>
                                    <timebase>25</timebase>
                                    <ntsc>false</ntsc>
                                </rate>
                            </timecode>
                            <media>
                                <video>
                                    <duration>287</duration>
                                    <samplecharacteristics>
                                        <width>1920</width>
                                        <height>1080</height>
                                    </samplecharacteristics>
                                </video>
                            </media>
                        </file>
                        <compositemode>normal</compositemode>
                        <filter>
                            <enabled>true</enabled>
                            <start>0</start>
                            <end>287</end>
                            <effect>
                                <name>Opacity</name>
                                <effectid>opacity</effectid>
                                <effecttype>motion</effecttype>
                                <mediatype>video</mediatype>
                                <effectcategory>motion</effectcategory>
                                <parameter>
                                    <name>opacity</name>
                                    <parameterid>opacity</parameterid>
                                    <value>100</value>
                                    <valuemin>0</valuemin>
                                    <valuemax>100</valuemax>
                                </parameter>
                            </effect>
                        </filter>
                    </clipitem>
                    <clipitem id="972_0438_01_13_81E474DB652242DCA48D.mov 0">
                        <name>972_0438_01_13_81E474DB652242DCA48D.mov</name>
                        <duration>104</duration>
                        <rate>
                            <timebase>25</timebase>
                            <ntsc>false</ntsc>
                        </rate>
                        <start>98503</start>
                        <end>98608</end>
                        <enabled>true</enabled>
                        <in>0</in>
                        <out>105</out>
                        <file id="972_0438_01_13_81E474DB652242DCA48D.mov 2">
                            <duration>105</duration>
                            <rate>
                                <timebase>25</timebase>
                                <ntsc>false</ntsc>
                            </rate>
                            <name>972_0438_01_13_81E474DB652242DCA48D.mov</name>
                            <pathurl>file:///Capture1/EDIUS/EDIUS7_Color/colored/pasyans_v3/972_0438_01_13_81E474DB652242DCA48D_V1-0295.mov</pathurl>
                            <timecode>
                                <string>01:05:40:03</string>
                                <displayformat>NDF</displayformat>
                                <rate>
                                    <timebase>25</timebase>
                                    <ntsc>false</ntsc>
                                </rate>
                            </timecode>
                            <media>
                                <video>
                                    <duration>105</duration>
                                    <samplecharacteristics>
                                        <width>1920</width>
                                        <height>1080</height>
                                    </samplecharacteristics>
                                </video>
                            </media>
                        </file>
                        <compositemode>normal</compositemode>
                        <filter>
                            <enabled>true</enabled>
                            <start>0</start>
                            <end>104</end>
                            <effect>
                                <name>Opacity</name>
                                <effectid>opacity</effectid>
                                <effecttype>motion</effecttype>
                                <mediatype>video</mediatype>
                                <effectcategory>motion</effectcategory>
                                <parameter>
                                    <name>opacity</name>
                                    <parameterid>opacity</parameterid>
                                    <value>100</value>
                                    <valuemin>0</valuemin>
                                    <valuemax>100</valuemax>
                                </parameter>
                            </effect>
                        </filter>
                    </clipitem>
                    <clipitem id="КАССЕТНАЯ КАМЕРА 2_19_E2305A71A36C40AFB89F.mov 0">
                        <name>КАССЕТНАЯ КАМЕРА 2_19_E2305A71A36C40AFB89F.mov</name>
                        <duration>129</duration>
                        <rate>
                            <timebase>25</timebase>
                            <ntsc>false</ntsc>
                        </rate>
                        <start>98608</start>
                        <end>98738</end>
                        <enabled>true</enabled>
                        <in>0</in>
                        <out>130</out>
                        <file id="КАССЕТНАЯ КАМЕРА 2_19_E2305A71A36C40AFB89F.mov 2">
                            <duration>130</duration>
                            <rate>
                                <timebase>25</timebase>
                                <ntsc>false</ntsc>
                            </rate>
                            <name>КАССЕТНАЯ КАМЕРА 2_19_E2305A71A36C40AFB89F.mov</name>
                            <pathurl>file:///Capture1/EDIUS/EDIUS7_Color/colored/pasyans_v3/%D0%9A%D0%90%D0%A1%D0%A1%D0%95%D0%A2%D0%9D%D0%90%D0%AF%20%D0%9A%D0%90%D0%9C%D0%95%D0%A0%D0%90%202_19_E2305A71A36C40AFB89F_V1-0296.mov</pathurl>
                            <timecode>
                                <string>01:05:44:08</string>
                                <displayformat>NDF</displayformat>
                                <rate>
                                    <timebase>25</timebase>
                                    <ntsc>false</ntsc>
                                </rate>
                            </timecode>
                            <media>
                                <video>
                                    <duration>130</duration>
                                    <samplecharacteristics>
                                        <width>1920</width>
                                        <height>1080</height>
                                    </samplecharacteristics>
                                </video>
                            </media>
                        </file>
                        <compositemode>normal</compositemode>
                        <filter>
                            <enabled>true</enabled>
                            <start>0</start>
                            <end>129</end>
                            <effect>
                                <name>Opacity</name>
                                <effectid>opacity</effectid>
                                <effecttype>motion</effecttype>
                                <mediatype>video</mediatype>
                                <effectcategory>motion</effectcategory>
                                <parameter>
                                    <name>opacity</name>
                                    <parameterid>opacity</parameterid>
                                    <value>100</value>
                                    <valuemin>0</valuemin>
                                    <valuemax>100</valuemax>
                                </parameter>
                            </effect>
                        </filter>
                    </clipitem>
                    <clipitem id="246_0923_01_6_4605C25D838340E18F6F.mov 0">
                        <name>246_0923_01_6_4605C25D838340E18F6F.mov</name>
                        <duration>321</duration>
                        <rate>
                            <timebase>25</timebase>
                            <ntsc>false</ntsc>
                        </rate>
                        <start>98738</start>
                        <end>99059</end>
                        <enabled>true</enabled>
                        <in>0</in>
                        <out>321</out>
                        <file id="246_0923_01_6_4605C25D838340E18F6F.mov 2">
                            <duration>321</duration>
                            <rate>
                                <timebase>25</timebase>
                                <ntsc>false</ntsc>
                            </rate>
                            <name>246_0923_01_6_4605C25D838340E18F6F.mov</name>
                            <pathurl>file:///Capture1/EDIUS/EDIUS7_Color/colored/pasyans_v3/246_0923_01_6_4605C25D838340E18F6F_V1-0297.mov</pathurl>
                            <timecode>
                                <string>01:05:49:13</string>
                                <displayformat>NDF</displayformat>
                                <rate>
                                    <timebase>25</timebase>
                                    <ntsc>false</ntsc>
                                </rate>
                            </timecode>
                            <media>
                                <video>
                                    <duration>321</duration>
                                    <samplecharacteristics>
                                        <width>1920</width>
                                        <height>1080</height>
                                    </samplecharacteristics>
                                </video>
                            </media>
                        </file>
                        <compositemode>normal</compositemode>
                        <filter>
                            <enabled>true</enabled>
                            <start>0</start>
                            <end>321</end>
                            <effect>
                                <name>Opacity</name>
                                <effectid>opacity</effectid>
                                <effecttype>motion</effecttype>
                                <mediatype>video</mediatype>
                                <effectcategory>motion</effectcategory>
                                <parameter>
                                    <name>opacity</name>
                                    <parameterid>opacity</parameterid>
                                    <value>100</value>
                                    <valuemin>0</valuemin>
                                    <valuemax>100</valuemax>
                                </parameter>
                            </effect>
                        </filter>
                    </clipitem>
                    <clipitem id="972_0438_01_14_189F1DC2570945C287AE.mov 0">
                        <name>972_0438_01_14_189F1DC2570945C287AE.mov</name>
                        <duration>98</duration>
                        <rate>
                            <timebase>25</timebase>
                            <ntsc>false</ntsc>
                        </rate>
                        <start>99059</start>
                        <end>99157</end>
                        <enabled>true</enabled>
                        <in>0</in>
                        <out>98</out>
                        <file id="972_0438_01_14_189F1DC2570945C287AE.mov 2">
                            <duration>98</duration>
                            <rate>
                                <timebase>25</timebase>
                                <ntsc>false</ntsc>
                            </rate>
                            <name>972_0438_01_14_189F1DC2570945C287AE.mov</name>
                            <pathurl>file:///Capture1/EDIUS/EDIUS7_Color/colored/pasyans_v3/972_0438_01_14_189F1DC2570945C287AE_V1-0298.mov</pathurl>
                            <timecode>
                                <string>01:06:02:09</string>
                                <displayformat>NDF</displayformat>
                                <rate>
                                    <timebase>25</timebase>
                                    <ntsc>false</ntsc>
                                </rate>
                            </timecode>
                            <media>
                                <video>
                                    <duration>98</duration>
                                    <samplecharacteristics>
                                        <width>1920</width>
                                        <height>1080</height>
                                    </samplecharacteristics>
                                </video>
                            </media>
                        </file>
                        <compositemode>normal</compositemode>
                        <filter>
                            <enabled>true</enabled>
                            <start>0</start>
                            <end>98</end>
                            <effect>
                                <name>Opacity</name>
                                <effectid>opacity</effectid>
                                <effecttype>motion</effecttype>
                                <mediatype>video</mediatype>
                                <effectcategory>motion</effectcategory>
                                <parameter>
                                    <name>opacity</name>
                                    <parameterid>opacity</parameterid>
                                    <value>100</value>
                                    <valuemin>0</valuemin>
                                    <valuemax>100</valuemax>
                                </parameter>
                            </effect>
                        </filter>
                    </clipitem>
                    <clipitem id="972_0438_01_15_9AFE789085244AFC8544.mov 0">
                        <name>972_0438_01_15_9AFE789085244AFC8544.mov</name>
                        <duration>129</duration>
                        <rate>
                            <timebase>25</timebase>
                            <ntsc>false</ntsc>
                        </rate>
                        <start>99219</start>
                        <end>99349</end>
                        <enabled>true</enabled>
                        <in>0</in>
                        <out>130</out>
                        <file id="972_0438_01_15_9AFE789085244AFC8544.mov 2">
                            <duration>130</duration>
                            <rate>
                                <timebase>25</timebase>
                                <ntsc>false</ntsc>
                            </rate>
                            <name>972_0438_01_15_9AFE789085244AFC8544.mov</name>
                            <pathurl>file:///Capture1/EDIUS/EDIUS7_Color/colored/pasyans_v3/972_0438_01_15_9AFE789085244AFC8544_V1-0299.mov</pathurl>
                            <timecode>
                                <string>01:06:08:19</string>
                                <displayformat>NDF</displayformat>
                                <rate>
                                    <timebase>25</timebase>
                                    <ntsc>false</ntsc>
                                </rate>
                            </timecode>
                            <media>
                                <video>
                                    <duration>130</duration>
                                    <samplecharacteristics>
                                        <width>1920</width>
                                        <height>1080</height>
                                    </samplecharacteristics>
                                </video>
                            </media>
                        </file>
                        <compositemode>normal</compositemode>
                        <filter>
                            <enabled>true</enabled>
                            <start>0</start>
                            <end>129</end>
                            <effect>
                                <name>Opacity</name>
                                <effectid>opacity</effectid>
                                <effecttype>motion</effecttype>
                                <mediatype>video</mediatype>
                                <effectcategory>motion</effectcategory>
                                <parameter>
                                    <name>opacity</name>
                                    <parameterid>opacity</parameterid>
                                    <value>100</value>
                                    <valuemin>0</valuemin>
                                    <valuemax>100</valuemax>
                                </parameter>
                            </effect>
                        </filter>
                    </clipitem>
                    <clipitem id="КАССЕТНАЯ КАМЕРА 2_20_15935302E1D84342B85E.mov 0">
                        <name>КАССЕТНАЯ КАМЕРА 2_20_15935302E1D84342B85E.mov</name>
                        <duration>228</duration>
                        <rate>
                            <timebase>25</timebase>
                            <ntsc>false</ntsc>
                        </rate>
                        <start>99349</start>
                        <end>99578</end>
                        <enabled>true</enabled>
                        <in>0</in>
                        <out>229</out>
                        <file id="КАССЕТНАЯ КАМЕРА 2_20_15935302E1D84342B85E.mov 2">
                            <duration>229</duration>
                            <rate>
                                <timebase>25</timebase>
                                <ntsc>false</ntsc>
                            </rate>
                            <name>КАССЕТНАЯ КАМЕРА 2_20_15935302E1D84342B85E.mov</name>
                            <pathurl>file:///Capture1/EDIUS/EDIUS7_Color/colored/pasyans_v3/%D0%9A%D0%90%D0%A1%D0%A1%D0%95%D0%A2%D0%9D%D0%90%D0%AF%20%D0%9A%D0%90%D0%9C%D0%95%D0%A0%D0%90%202_20_15935302E1D84342B85E_V1-0300.mov</pathurl>
                            <timecode>
                                <string>01:06:13:24</string>
                                <displayformat>NDF</displayformat>
                                <rate>
                                    <timebase>25</timebase>
                                    <ntsc>false</ntsc>
                                </rate>
                            </timecode>
                            <media>
                                <video>
                                    <duration>229</duration>
                                    <samplecharacteristics>
                                        <width>1920</width>
                                        <height>1080</height>
                                    </samplecharacteristics>
                                </video>
                            </media>
                        </file>
                        <compositemode>normal</compositemode>
                        <filter>
                            <enabled>true</enabled>
                            <start>0</start>
                            <end>228</end>
                            <effect>
                                <name>Opacity</name>
                                <effectid>opacity</effectid>
                                <effecttype>motion</effecttype>
                                <mediatype>video</mediatype>
                                <effectcategory>motion</effectcategory>
                                <parameter>
                                    <name>opacity</name>
                                    <parameterid>opacity</parameterid>
                                    <value>100</value>
                                    <valuemin>0</valuemin>
                                    <valuemax>100</valuemax>
                                </parameter>
                            </effect>
                        </filter>
                    </clipitem>
                    <clipitem id="972_0438_01_16_C01390A5047A4E42A11F.mov 0">
                        <name>972_0438_01_16_C01390A5047A4E42A11F.mov</name>
                        <duration>75</duration>
                        <rate>
                            <timebase>25</timebase>
                            <ntsc>false</ntsc>
                        </rate>
                        <start>99578</start>
                        <end>99653</end>
                        <enabled>true</enabled>
                        <in>0</in>
                        <out>75</out>
                        <file id="972_0438_01_16_C01390A5047A4E42A11F.mov 2">
                            <duration>75</duration>
                            <rate>
                                <timebase>25</timebase>
                                <ntsc>false</ntsc>
                            </rate>
                            <name>972_0438_01_16_C01390A5047A4E42A11F.mov</name>
                            <pathurl>file:///Capture1/EDIUS/EDIUS7_Color/colored/pasyans_v3/972_0438_01_16_C01390A5047A4E42A11F_V1-0301.mov</pathurl>
                            <timecode>
                                <string>01:06:23:03</string>
                                <displayformat>NDF</displayformat>
                                <rate>
                                    <timebase>25</timebase>
                                    <ntsc>false</ntsc>
                                </rate>
                            </timecode>
                            <media>
                                <video>
                                    <duration>75</duration>
                                    <samplecharacteristics>
                                        <width>1920</width>
                                        <height>1080</height>
                                    </samplecharacteristics>
                                </video>
                            </media>
                        </file>
                        <compositemode>normal</compositemode>
                        <filter>
                            <enabled>true</enabled>
                            <start>0</start>
                            <end>75</end>
                            <effect>
                                <name>Opacity</name>
                                <effectid>opacity</effectid>
                                <effecttype>motion</effecttype>
                                <mediatype>video</mediatype>
                                <effectcategory>motion</effectcategory>
                                <parameter>
                                    <name>opacity</name>
                                    <parameterid>opacity</parameterid>
                                    <value>100</value>
                                    <valuemin>0</valuemin>
                                    <valuemax>100</valuemax>
                                </parameter>
                            </effect>
                        </filter>
                    </clipitem>
                    <clipitem id="972_0438_01_17_1DFFA90BC6D545888450.mov 0">
                        <name>972_0438_01_17_1DFFA90BC6D545888450.mov</name>
                        <duration>308</duration>
                        <rate>
                            <timebase>25</timebase>
                            <ntsc>false</ntsc>
                        </rate>
                        <start>103520</start>
                        <end>103829</end>
                        <enabled>true</enabled>
                        <in>0</in>
                        <out>309</out>
                        <file id="972_0438_01_17_1DFFA90BC6D545888450.mov 2">
                            <duration>309</duration>
                            <rate>
                                <timebase>25</timebase>
                                <ntsc>false</ntsc>
                            </rate>
                            <name>972_0438_01_17_1DFFA90BC6D545888450.mov</name>
                            <pathurl>file:///Capture1/EDIUS/EDIUS7_Color/colored/pasyans_v3/972_0438_01_17_1DFFA90BC6D545888450_V1-0302.mov</pathurl>
                            <timecode>
                                <string>01:09:00:20</string>
                                <displayformat>NDF</displayformat>
                                <rate>
                                    <timebase>25</timebase>
                                    <ntsc>false</ntsc>
                                </rate>
                            </timecode>
                            <media>
                                <video>
                                    <duration>309</duration>
                                    <samplecharacteristics>
                                        <width>1920</width>
                                        <height>1080</height>
                                    </samplecharacteristics>
                                </video>
                            </media>
                        </file>
                        <compositemode>normal</compositemode>
                        <filter>
                            <enabled>true</enabled>
                            <start>0</start>
                            <end>308</end>
                            <effect>
                                <name>Opacity</name>
                                <effectid>opacity</effectid>
                                <effecttype>motion</effecttype>
                                <mediatype>video</mediatype>
                                <effectcategory>motion</effectcategory>
                                <parameter>
                                    <name>opacity</name>
                                    <parameterid>opacity</parameterid>
                                    <value>100</value>
                                    <valuemin>0</valuemin>
                                    <valuemax>100</valuemax>
                                </parameter>
                            </effect>
                        </filter>
                    </clipitem>
                    <clipitem id="246_0923_01_7_BF34DAD67AC84AD7A96F.mov 0">
                        <name>246_0923_01_7_BF34DAD67AC84AD7A96F.mov</name>
                        <duration>200</duration>
                        <rate>
                            <timebase>25</timebase>
                            <ntsc>false</ntsc>
                        </rate>
                        <start>103829</start>
                        <end>104030</end>
                        <enabled>true</enabled>
                        <in>0</in>
                        <out>201</out>
                        <file id="246_0923_01_7_BF34DAD67AC84AD7A96F.mov 2">
                            <duration>201</duration>
                            <rate>
                                <timebase>25</timebase>
                                <ntsc>false</ntsc>
                            </rate>
                            <name>246_0923_01_7_BF34DAD67AC84AD7A96F.mov</name>
                            <pathurl>file:///Capture1/EDIUS/EDIUS7_Color/colored/pasyans_v3/246_0923_01_7_BF34DAD67AC84AD7A96F_V1-0303.mov</pathurl>
                            <timecode>
                                <string>01:09:13:04</string>
                                <displayformat>NDF</displayformat>
                                <rate>
                                    <timebase>25</timebase>
                                    <ntsc>false</ntsc>
                                </rate>
                            </timecode>
                            <media>
                                <video>
                                    <duration>201</duration>
                                    <samplecharacteristics>
                                        <width>1920</width>
                                        <height>1080</height>
                                    </samplecharacteristics>
                                </video>
                            </media>
                        </file>
                        <compositemode>normal</compositemode>
                        <filter>
                            <enabled>true</enabled>
                            <start>0</start>
                            <end>200</end>
                            <effect>
                                <name>Opacity</name>
                                <effectid>opacity</effectid>
                                <effecttype>motion</effecttype>
                                <mediatype>video</mediatype>
                                <effectcategory>motion</effectcategory>
                                <parameter>
                                    <name>opacity</name>
                                    <parameterid>opacity</parameterid>
                                    <value>100</value>
                                    <valuemin>0</valuemin>
                                    <valuemax>100</valuemax>
                                </parameter>
                            </effect>
                        </filter>
                    </clipitem>
                    <clipitem id="КАССЕТНАЯ КАМЕРА 2_21_763C04970AAA478DA29B.mov 0">
                        <name>КАССЕТНАЯ КАМЕРА 2_21_763C04970AAA478DA29B.mov</name>
                        <duration>564</duration>
                        <rate>
                            <timebase>25</timebase>
                            <ntsc>false</ntsc>
                        </rate>
                        <start>104102</start>
                        <end>104666</end>
                        <enabled>true</enabled>
                        <in>0</in>
                        <out>564</out>
                        <file id="КАССЕТНАЯ КАМЕРА 2_21_763C04970AAA478DA29B.mov 2">
                            <duration>564</duration>
                            <rate>
                                <timebase>25</timebase>
                                <ntsc>false</ntsc>
                            </rate>
                            <name>КАССЕТНАЯ КАМЕРА 2_21_763C04970AAA478DA29B.mov</name>
                            <pathurl>file:///Capture1/EDIUS/EDIUS7_Color/colored/pasyans_v3/%D0%9A%D0%90%D0%A1%D0%A1%D0%95%D0%A2%D0%9D%D0%90%D0%AF%20%D0%9A%D0%90%D0%9C%D0%95%D0%A0%D0%90%202_21_763C04970AAA478DA29B_V1-0304.mov</pathurl>
                            <timecode>
                                <string>01:09:24:02</string>
                                <displayformat>NDF</displayformat>
                                <rate>
                                    <timebase>25</timebase>
                                    <ntsc>false</ntsc>
                                </rate>
                            </timecode>
                            <media>
                                <video>
                                    <duration>564</duration>
                                    <samplecharacteristics>
                                        <width>1920</width>
                                        <height>1080</height>
                                    </samplecharacteristics>
                                </video>
                            </media>
                        </file>
                        <compositemode>normal</compositemode>
                        <filter>
                            <enabled>true</enabled>
                            <start>0</start>
                            <end>564</end>
                            <effect>
                                <name>Opacity</name>
                                <effectid>opacity</effectid>
                                <effecttype>motion</effecttype>
                                <mediatype>video</mediatype>
                                <effectcategory>motion</effectcategory>
                                <parameter>
                                    <name>opacity</name>
                                    <parameterid>opacity</parameterid>
                                    <value>100</value>
                                    <valuemin>0</valuemin>
                                    <valuemax>100</valuemax>
                                </parameter>
                            </effect>
                        </filter>
                    </clipitem>
                    <clipitem id="972_0438_01_18_141D3088A7B948EFAA69.mov 0">
                        <name>972_0438_01_18_141D3088A7B948EFAA69.mov</name>
                        <duration>175</duration>
                        <rate>
                            <timebase>25</timebase>
                            <ntsc>false</ntsc>
                        </rate>
                        <start>104666</start>
                        <end>104842</end>
                        <enabled>true</enabled>
                        <in>0</in>
                        <out>176</out>
                        <file id="972_0438_01_18_141D3088A7B948EFAA69.mov 2">
                            <duration>176</duration>
                            <rate>
                                <timebase>25</timebase>
                                <ntsc>false</ntsc>
                            </rate>
                            <name>972_0438_01_18_141D3088A7B948EFAA69.mov</name>
                            <pathurl>file:///Capture1/EDIUS/EDIUS7_Color/colored/pasyans_v3/972_0438_01_18_141D3088A7B948EFAA69_V1-0305.mov</pathurl>
                            <timecode>
                                <string>01:09:46:16</string>
                                <displayformat>NDF</displayformat>
                                <rate>
                                    <timebase>25</timebase>
                                    <ntsc>false</ntsc>
                                </rate>
                            </timecode>
                            <media>
                                <video>
                                    <duration>176</duration>
                                    <samplecharacteristics>
                                        <width>1920</width>
                                        <height>1080</height>
                                    </samplecharacteristics>
                                </video>
                            </media>
                        </file>
                        <compositemode>normal</compositemode>
                        <filter>
                            <enabled>true</enabled>
                            <start>0</start>
                            <end>175</end>
                            <effect>
                                <name>Opacity</name>
                                <effectid>opacity</effectid>
                                <effecttype>motion</effecttype>
                                <mediatype>video</mediatype>
                                <effectcategory>motion</effectcategory>
                                <parameter>
                                    <name>opacity</name>
                                    <parameterid>opacity</parameterid>
                                    <value>100</value>
                                    <valuemin>0</valuemin>
                                    <valuemax>100</valuemax>
                                </parameter>
                            </effect>
                        </filter>
                    </clipitem>
                    <clipitem id="КАССЕТНАЯ КАМЕРА 2_22_47D4D4022C084DEF8886.mov 0">
                        <name>КАССЕТНАЯ КАМЕРА 2_22_47D4D4022C084DEF8886.mov</name>
                        <duration>286</duration>
                        <rate>
                            <timebase>25</timebase>
                            <ntsc>false</ntsc>
                        </rate>
                        <start>104842</start>
                        <end>105129</end>
                        <enabled>true</enabled>
                        <in>0</in>
                        <out>287</out>
                        <file id="КАССЕТНАЯ КАМЕРА 2_22_47D4D4022C084DEF8886.mov 2">
                            <duration>287</duration>
                            <rate>
                                <timebase>25</timebase>
                                <ntsc>false</ntsc>
                            </rate>
                            <name>КАССЕТНАЯ КАМЕРА 2_22_47D4D4022C084DEF8886.mov</name>
                            <pathurl>file:///Capture1/EDIUS/EDIUS7_Color/colored/pasyans_v3/%D0%9A%D0%90%D0%A1%D0%A1%D0%95%D0%A2%D0%9D%D0%90%D0%AF%20%D0%9A%D0%90%D0%9C%D0%95%D0%A0%D0%90%202_22_47D4D4022C084DEF8886_V1-0306.mov</pathurl>
                            <timecode>
                                <string>01:09:53:17</string>
                                <displayformat>NDF</displayformat>
                                <rate>
                                    <timebase>25</timebase>
                                    <ntsc>false</ntsc>
                                </rate>
                            </timecode>
                            <media>
                                <video>
                                    <duration>287</duration>
                                    <samplecharacteristics>
                                        <width>1920</width>
                                        <height>1080</height>
                                    </samplecharacteristics>
                                </video>
                            </media>
                        </file>
                        <compositemode>normal</compositemode>
                        <filter>
                            <enabled>true</enabled>
                            <start>0</start>
                            <end>286</end>
                            <effect>
                                <name>Opacity</name>
                                <effectid>opacity</effectid>
                                <effecttype>motion</effecttype>
                                <mediatype>video</mediatype>
                                <effectcategory>motion</effectcategory>
                                <parameter>
                                    <name>opacity</name>
                                    <parameterid>opacity</parameterid>
                                    <value>100</value>
                                    <valuemin>0</valuemin>
                                    <valuemax>100</valuemax>
                                </parameter>
                            </effect>
                        </filter>
                    </clipitem>
                    <clipitem id="КАССЕТНАЯ КАМЕРА 2_23_8FF2BC35F0CD4F9384C9.mov 0">
                        <name>КАССЕТНАЯ КАМЕРА 2_23_8FF2BC35F0CD4F9384C9.mov</name>
                        <duration>116</duration>
                        <rate>
                            <timebase>25</timebase>
                            <ntsc>false</ntsc>
                        </rate>
                        <start>105279</start>
                        <end>105395</end>
                        <enabled>true</enabled>
                        <in>0</in>
                        <out>116</out>
                        <file id="КАССЕТНАЯ КАМЕРА 2_23_8FF2BC35F0CD4F9384C9.mov 2">
                            <duration>116</duration>
                            <rate>
                                <timebase>25</timebase>
                                <ntsc>false</ntsc>
                            </rate>
                            <name>КАССЕТНАЯ КАМЕРА 2_23_8FF2BC35F0CD4F9384C9.mov</name>
                            <pathurl>file:///Capture1/EDIUS/EDIUS7_Color/colored/pasyans_v3/%D0%9A%D0%90%D0%A1%D0%A1%D0%95%D0%A2%D0%9D%D0%90%D0%AF%20%D0%9A%D0%90%D0%9C%D0%95%D0%A0%D0%90%202_23_8FF2BC35F0CD4F9384C9_V1-0307.mov</pathurl>
                            <timecode>
                                <string>01:10:11:04</string>
                                <displayformat>NDF</displayformat>
                                <rate>
                                    <timebase>25</timebase>
                                    <ntsc>false</ntsc>
                                </rate>
                            </timecode>
                            <media>
                                <video>
                                    <duration>116</duration>
                                    <samplecharacteristics>
                                        <width>1920</width>
                                        <height>1080</height>
                                    </samplecharacteristics>
                                </video>
                            </media>
                        </file>
                        <compositemode>normal</compositemode>
                        <filter>
                            <enabled>true</enabled>
                            <start>0</start>
                            <end>116</end>
                            <effect>
                                <name>Opacity</name>
                                <effectid>opacity</effectid>
                                <effecttype>motion</effecttype>
                                <mediatype>video</mediatype>
                                <effectcategory>motion</effectcategory>
                                <parameter>
                                    <name>opacity</name>
                                    <parameterid>opacity</parameterid>
                                    <value>100</value>
                                    <valuemin>0</valuemin>
                                    <valuemax>100</valuemax>
                                </parameter>
                            </effect>
                        </filter>
                    </clipitem>
                    <clipitem id="972_0438_01_19_7902857C15C84CA4A349.mov 0">
                        <name>972_0438_01_19_7902857C15C84CA4A349.mov</name>
                        <duration>73</duration>
                        <rate>
                            <timebase>25</timebase>
                            <ntsc>false</ntsc>
                        </rate>
                        <start>105395</start>
                        <end>105468</end>
                        <enabled>true</enabled>
                        <in>0</in>
                        <out>73</out>
                        <file id="972_0438_01_19_7902857C15C84CA4A349.mov 2">
                            <duration>73</duration>
                            <rate>
                                <timebase>25</timebase>
                                <ntsc>false</ntsc>
                            </rate>
                            <name>972_0438_01_19_7902857C15C84CA4A349.mov</name>
                            <pathurl>file:///Capture1/EDIUS/EDIUS7_Color/colored/pasyans_v3/972_0438_01_19_7902857C15C84CA4A349_V1-0308.mov</pathurl>
                            <timecode>
                                <string>01:10:15:20</string>
                                <displayformat>NDF</displayformat>
                                <rate>
                                    <timebase>25</timebase>
                                    <ntsc>false</ntsc>
                                </rate>
                            </timecode>
                            <media>
                                <video>
                                    <duration>73</duration>
                                    <samplecharacteristics>
                                        <width>1920</width>
                                        <height>1080</height>
                                    </samplecharacteristics>
                                </video>
                            </media>
                        </file>
                        <compositemode>normal</compositemode>
                        <filter>
                            <enabled>true</enabled>
                            <start>0</start>
                            <end>73</end>
                            <effect>
                                <name>Opacity</name>
                                <effectid>opacity</effectid>
                                <effecttype>motion</effecttype>
                                <mediatype>video</mediatype>
                                <effectcategory>motion</effectcategory>
                                <parameter>
                                    <name>opacity</name>
                                    <parameterid>opacity</parameterid>
                                    <value>100</value>
                                    <valuemin>0</valuemin>
                                    <valuemax>100</valuemax>
                                </parameter>
                            </effect>
                        </filter>
                    </clipitem>
                    <clipitem id="КАССЕТНАЯ КАМЕРА 2_24_1F65C4EACEF64D56B48D.mov 0">
                        <name>КАССЕТНАЯ КАМЕРА 2_24_1F65C4EACEF64D56B48D.mov</name>
                        <duration>126</duration>
                        <rate>
                            <timebase>25</timebase>
                            <ntsc>false</ntsc>
                        </rate>
                        <start>105468</start>
                        <end>105595</end>
                        <enabled>true</enabled>
                        <in>0</in>
                        <out>127</out>
                        <file id="КАССЕТНАЯ КАМЕРА 2_24_1F65C4EACEF64D56B48D.mov 2">
                            <duration>127</duration>
                            <rate>
                                <timebase>25</timebase>
                                <ntsc>false</ntsc>
                            </rate>
                            <name>КАССЕТНАЯ КАМЕРА 2_24_1F65C4EACEF64D56B48D.mov</name>
                            <pathurl>file:///Capture1/EDIUS/EDIUS7_Color/colored/pasyans_v3/%D0%9A%D0%90%D0%A1%D0%A1%D0%95%D0%A2%D0%9D%D0%90%D0%AF%20%D0%9A%D0%90%D0%9C%D0%95%D0%A0%D0%90%202_24_1F65C4EACEF64D56B48D_V1-0309.mov</pathurl>
                            <timecode>
                                <string>01:10:18:18</string>
                                <displayformat>NDF</displayformat>
                                <rate>
                                    <timebase>25</timebase>
                                    <ntsc>false</ntsc>
                                </rate>
                            </timecode>
                            <media>
                                <video>
                                    <duration>127</duration>
                                    <samplecharacteristics>
                                        <width>1920</width>
                                        <height>1080</height>
                                    </samplecharacteristics>
                                </video>
                            </media>
                        </file>
                        <compositemode>normal</compositemode>
                        <filter>
                            <enabled>true</enabled>
                            <start>0</start>
                            <end>126</end>
                            <effect>
                                <name>Opacity</name>
                                <effectid>opacity</effectid>
                                <effecttype>motion</effecttype>
                                <mediatype>video</mediatype>
                                <effectcategory>motion</effectcategory>
                                <parameter>
                                    <name>opacity</name>
                                    <parameterid>opacity</parameterid>
                                    <value>100</value>
                                    <valuemin>0</valuemin>
                                    <valuemax>100</valuemax>
                                </parameter>
                            </effect>
                        </filter>
                    </clipitem>
                    <clipitem id="КАССЕТНАЯ КАМЕРА 2_25_80C1B04B59BF4D9E9BB2.mov 0">
                        <name>КАССЕТНАЯ КАМЕРА 2_25_80C1B04B59BF4D9E9BB2.mov</name>
                        <duration>169</duration>
                        <rate>
                            <timebase>25</timebase>
                            <ntsc>false</ntsc>
                        </rate>
                        <start>105756</start>
                        <end>105925</end>
                        <enabled>true</enabled>
                        <in>0</in>
                        <out>169</out>
                        <file id="КАССЕТНАЯ КАМЕРА 2_25_80C1B04B59BF4D9E9BB2.mov 2">
                            <duration>169</duration>
                            <rate>
                                <timebase>25</timebase>
                                <ntsc>false</ntsc>
                            </rate>
                            <name>КАССЕТНАЯ КАМЕРА 2_25_80C1B04B59BF4D9E9BB2.mov</name>
                            <pathurl>file:///Capture1/EDIUS/EDIUS7_Color/colored/pasyans_v3/%D0%9A%D0%90%D0%A1%D0%A1%D0%95%D0%A2%D0%9D%D0%90%D0%AF%20%D0%9A%D0%90%D0%9C%D0%95%D0%A0%D0%90%202_25_80C1B04B59BF4D9E9BB2_V1-0310.mov</pathurl>
                            <timecode>
                                <string>01:10:30:06</string>
                                <displayformat>NDF</displayformat>
                                <rate>
                                    <timebase>25</timebase>
                                    <ntsc>false</ntsc>
                                </rate>
                            </timecode>
                            <media>
                                <video>
                                    <duration>169</duration>
                                    <samplecharacteristics>
                                        <width>1920</width>
                                        <height>1080</height>
                                    </samplecharacteristics>
                                </video>
                            </media>
                        </file>
                        <compositemode>normal</compositemode>
                        <filter>
                            <enabled>true</enabled>
                            <start>0</start>
                            <end>169</end>
                            <effect>
                                <name>Opacity</name>
                                <effectid>opacity</effectid>
                                <effecttype>motion</effecttype>
                                <mediatype>video</mediatype>
                                <effectcategory>motion</effectcategory>
                                <parameter>
                                    <name>opacity</name>
                                    <parameterid>opacity</parameterid>
                                    <value>100</value>
                                    <valuemin>0</valuemin>
                                    <valuemax>100</valuemax>
                                </parameter>
                            </effect>
                        </filter>
                    </clipitem>
                    <clipitem id="GOPR8364_10_B58D00E32D7D4F21BF39.mov 0">
                        <name>GOPR8364_10_B58D00E32D7D4F21BF39.mov</name>
                        <duration>100</duration>
                        <rate>
                            <timebase>25</timebase>
                            <ntsc>false</ntsc>
                        </rate>
                        <start>105925</start>
                        <end>106025</end>
                        <enabled>true</enabled>
                        <in>0</in>
                        <out>100</out>
                        <file id="GOPR8364_10_B58D00E32D7D4F21BF39.mov 2">
                            <duration>100</duration>
                            <rate>
                                <timebase>25</timebase>
                                <ntsc>false</ntsc>
                            </rate>
                            <name>GOPR8364_10_B58D00E32D7D4F21BF39.mov</name>
                            <pathurl>file:///Capture1/EDIUS/EDIUS7_Color/colored/pasyans_v3/GOPR8364_10_B58D00E32D7D4F21BF39_V1-0311.mov</pathurl>
                            <timecode>
                                <string>01:10:37:00</string>
                                <displayformat>NDF</displayformat>
                                <rate>
                                    <timebase>25</timebase>
                                    <ntsc>false</ntsc>
                                </rate>
                            </timecode>
                            <media>
                                <video>
                                    <duration>100</duration>
                                    <samplecharacteristics>
                                        <width>1920</width>
                                        <height>1080</height>
                                    </samplecharacteristics>
                                </video>
                            </media>
                        </file>
                        <compositemode>normal</compositemode>
                        <filter>
                            <enabled>true</enabled>
                            <start>0</start>
                            <end>100</end>
                            <effect>
                                <name>Opacity</name>
                                <effectid>opacity</effectid>
                                <effecttype>motion</effecttype>
                                <mediatype>video</mediatype>
                                <effectcategory>motion</effectcategory>
                                <parameter>
                                    <name>opacity</name>
                                    <parameterid>opacity</parameterid>
                                    <value>100</value>
                                    <valuemin>0</valuemin>
                                    <valuemax>100</valuemax>
                                </parameter>
                            </effect>
                        </filter>
                    </clipitem>
                    <clipitem id="972_0438_01_20_0BA086FA58A74EE19D32.mov 0">
                        <name>972_0438_01_20_0BA086FA58A74EE19D32.mov</name>
                        <duration>81</duration>
                        <rate>
                            <timebase>25</timebase>
                            <ntsc>false</ntsc>
                        </rate>
                        <start>106025</start>
                        <end>106107</end>
                        <enabled>true</enabled>
                        <in>0</in>
                        <out>82</out>
                        <file id="972_0438_01_20_0BA086FA58A74EE19D32.mov 2">
                            <duration>82</duration>
                            <rate>
                                <timebase>25</timebase>
                                <ntsc>false</ntsc>
                            </rate>
                            <name>972_0438_01_20_0BA086FA58A74EE19D32.mov</name>
                            <pathurl>file:///Capture1/EDIUS/EDIUS7_Color/colored/pasyans_v3/972_0438_01_20_0BA086FA58A74EE19D32_V1-0312.mov</pathurl>
                            <timecode>
                                <string>01:10:41:00</string>
                                <displayformat>NDF</displayformat>
                                <rate>
                                    <timebase>25</timebase>
                                    <ntsc>false</ntsc>
                                </rate>
                            </timecode>
                            <media>
                                <video>
                                    <duration>82</duration>
                                    <samplecharacteristics>
                                        <width>1920</width>
                                        <height>1080</height>
                                    </samplecharacteristics>
                                </video>
                            </media>
                        </file>
                        <compositemode>normal</compositemode>
                        <filter>
                            <enabled>true</enabled>
                            <start>0</start>
                            <end>81</end>
                            <effect>
                                <name>Opacity</name>
                                <effectid>opacity</effectid>
                                <effecttype>motion</effecttype>
                                <mediatype>video</mediatype>
                                <effectcategory>motion</effectcategory>
                                <parameter>
                                    <name>opacity</name>
                                    <parameterid>opacity</parameterid>
                                    <value>100</value>
                                    <valuemin>0</valuemin>
                                    <valuemax>100</valuemax>
                                </parameter>
                            </effect>
                        </filter>
                    </clipitem>
                    <clipitem id="GOPR8504_7_978F8B5C228A4218A89F.mov 0">
                        <name>GOPR8504_7_978F8B5C228A4218A89F.mov</name>
                        <duration>83</duration>
                        <rate>
                            <timebase>25</timebase>
                            <ntsc>false</ntsc>
                        </rate>
                        <start>106107</start>
                        <end>106191</end>
                        <enabled>true</enabled>
                        <in>0</in>
                        <out>84</out>
                        <file id="GOPR8504_7_978F8B5C228A4218A89F.mov 2">
                            <duration>84</duration>
                            <rate>
                                <timebase>25</timebase>
                                <ntsc>false</ntsc>
                            </rate>
                            <name>GOPR8504_7_978F8B5C228A4218A89F.mov</name>
                            <pathurl>file:///Capture1/EDIUS/EDIUS7_Color/colored/pasyans_v3/GOPR8504_7_978F8B5C228A4218A89F_V1-0313.mov</pathurl>
                            <timecode>
                                <string>01:10:44:07</string>
                                <displayformat>NDF</displayformat>
                                <rate>
                                    <timebase>25</timebase>
                                    <ntsc>false</ntsc>
                                </rate>
                            </timecode>
                            <media>
                                <video>
                                    <duration>84</duration>
                                    <samplecharacteristics>
                                        <width>1920</width>
                                        <height>1080</height>
                                    </samplecharacteristics>
                                </video>
                            </media>
                        </file>
                        <compositemode>normal</compositemode>
                        <filter>
                            <enabled>true</enabled>
                            <start>0</start>
                            <end>83</end>
                            <effect>
                                <name>Opacity</name>
                                <effectid>opacity</effectid>
                                <effecttype>motion</effecttype>
                                <mediatype>video</mediatype>
                                <effectcategory>motion</effectcategory>
                                <parameter>
                                    <name>opacity</name>
                                    <parameterid>opacity</parameterid>
                                    <value>100</value>
                                    <valuemin>0</valuemin>
                                    <valuemax>100</valuemax>
                                </parameter>
                            </effect>
                        </filter>
                    </clipitem>
                    <clipitem id="246_0923_01_8_39C27588EDCD44B7B7AB.mov 0">
                        <name>246_0923_01_8_39C27588EDCD44B7B7AB.mov</name>
                        <duration>94</duration>
                        <rate>
                            <timebase>25</timebase>
                            <ntsc>false</ntsc>
                        </rate>
                        <start>106191</start>
                        <end>106285</end>
                        <enabled>true</enabled>
                        <in>0</in>
                        <out>94</out>
                        <file id="246_0923_01_8_39C27588EDCD44B7B7AB.mov 2">
                            <duration>94</duration>
                            <rate>
                                <timebase>25</timebase>
                                <ntsc>false</ntsc>
                            </rate>
                            <name>246_0923_01_8_39C27588EDCD44B7B7AB.mov</name>
                            <pathurl>file:///Capture1/EDIUS/EDIUS7_Color/colored/pasyans_v3/246_0923_01_8_39C27588EDCD44B7B7AB_V1-0314.mov</pathurl>
                            <timecode>
                                <string>01:10:47:16</string>
                                <displayformat>NDF</displayformat>
                                <rate>
                                    <timebase>25</timebase>
                                    <ntsc>false</ntsc>
                                </rate>
                            </timecode>
                            <media>
                                <video>
                                    <duration>94</duration>
                                    <samplecharacteristics>
                                        <width>1920</width>
                                        <height>1080</height>
                                    </samplecharacteristics>
                                </video>
                            </media>
                        </file>
                        <compositemode>normal</compositemode>
                        <filter>
                            <enabled>true</enabled>
                            <start>0</start>
                            <end>94</end>
                            <effect>
                                <name>Opacity</name>
                                <effectid>opacity</effectid>
                                <effecttype>motion</effecttype>
                                <mediatype>video</mediatype>
                                <effectcategory>motion</effectcategory>
                                <parameter>
                                    <name>opacity</name>
                                    <parameterid>opacity</parameterid>
                                    <value>100</value>
                                    <valuemin>0</valuemin>
                                    <valuemax>100</valuemax>
                                </parameter>
                            </effect>
                        </filter>
                    </clipitem>
                    <clipitem id="GOPR8364_11_A49A0DE94F674A6FADE9.mov 0">
                        <name>GOPR8364_11_A49A0DE94F674A6FADE9.mov</name>
                        <duration>117</duration>
                        <rate>
                            <timebase>25</timebase>
                            <ntsc>false</ntsc>
                        </rate>
                        <start>106285</start>
                        <end>106402</end>
                        <enabled>true</enabled>
                        <in>0</in>
                        <out>117</out>
                        <file id="GOPR8364_11_A49A0DE94F674A6FADE9.mov 2">
                            <duration>117</duration>
                            <rate>
                                <timebase>25</timebase>
                                <ntsc>false</ntsc>
                            </rate>
                            <name>GOPR8364_11_A49A0DE94F674A6FADE9.mov</name>
                            <pathurl>file:///Capture1/EDIUS/EDIUS7_Color/colored/pasyans_v3/GOPR8364_11_A49A0DE94F674A6FADE9_V1-0315.mov</pathurl>
                            <timecode>
                                <string>01:10:51:10</string>
                                <displayformat>NDF</displayformat>
                                <rate>
                                    <timebase>25</timebase>
                                    <ntsc>false</ntsc>
                                </rate>
                            </timecode>
                            <media>
                                <video>
                                    <duration>117</duration>
                                    <samplecharacteristics>
                                        <width>1920</width>
                                        <height>1080</height>
                                    </samplecharacteristics>
                                </video>
                            </media>
                        </file>
                        <compositemode>normal</compositemode>
                        <filter>
                            <enabled>true</enabled>
                            <start>0</start>
                            <end>117</end>
                            <effect>
                                <name>Opacity</name>
                                <effectid>opacity</effectid>
                                <effecttype>motion</effecttype>
                                <mediatype>video</mediatype>
                                <effectcategory>motion</effectcategory>
                                <parameter>
                                    <name>opacity</name>
                                    <parameterid>opacity</parameterid>
                                    <value>100</value>
                                    <valuemin>0</valuemin>
                                    <valuemax>100</valuemax>
                                </parameter>
                            </effect>
                        </filter>
                    </clipitem>
                    <clipitem id="КАССЕТНАЯ КАМЕРА 2_26_1A7A0CB241D94485B0AC.mov 0">
                        <name>КАССЕТНАЯ КАМЕРА 2_26_1A7A0CB241D94485B0AC.mov</name>
                        <duration>127</duration>
                        <rate>
                            <timebase>25</timebase>
                            <ntsc>false</ntsc>
                        </rate>
                        <start>106402</start>
                        <end>106530</end>
                        <enabled>true</enabled>
                        <in>0</in>
                        <out>128</out>
                        <file id="КАССЕТНАЯ КАМЕРА 2_26_1A7A0CB241D94485B0AC.mov 2">
                            <duration>128</duration>
                            <rate>
                                <timebase>25</timebase>
                                <ntsc>false</ntsc>
                            </rate>
                            <name>КАССЕТНАЯ КАМЕРА 2_26_1A7A0CB241D94485B0AC.mov</name>
                            <pathurl>file:///Capture1/EDIUS/EDIUS7_Color/colored/pasyans_v3/%D0%9A%D0%90%D0%A1%D0%A1%D0%95%D0%A2%D0%9D%D0%90%D0%AF%20%D0%9A%D0%90%D0%9C%D0%95%D0%A0%D0%90%202_26_1A7A0CB241D94485B0AC_V1-0316.mov</pathurl>
                            <timecode>
                                <string>01:10:56:02</string>
                                <displayformat>NDF</displayformat>
                                <rate>
                                    <timebase>25</timebase>
                                    <ntsc>false</ntsc>
                                </rate>
                            </timecode>
                            <media>
                                <video>
                                    <duration>128</duration>
                                    <samplecharacteristics>
                                        <width>1920</width>
                                        <height>1080</height>
                                    </samplecharacteristics>
                                </video>
                            </media>
                        </file>
                        <compositemode>normal</compositemode>
                        <filter>
                            <enabled>true</enabled>
                            <start>0</start>
                            <end>127</end>
                            <effect>
                                <name>Opacity</name>
                                <effectid>opacity</effectid>
                                <effecttype>motion</effecttype>
                                <mediatype>video</mediatype>
                                <effectcategory>motion</effectcategory>
                                <parameter>
                                    <name>opacity</name>
                                    <parameterid>opacity</parameterid>
                                    <value>100</value>
                                    <valuemin>0</valuemin>
                                    <valuemax>100</valuemax>
                                </parameter>
                            </effect>
                        </filter>
                    </clipitem>
                    <clipitem id="972_0438_01_21_3CE94B80C5F54E3EAB1C.mov 0">
                        <name>972_0438_01_21_3CE94B80C5F54E3EAB1C.mov</name>
                        <duration>119</duration>
                        <rate>
                            <timebase>25</timebase>
                            <ntsc>false</ntsc>
                        </rate>
                        <start>106530</start>
                        <end>106649</end>
                        <enabled>true</enabled>
                        <in>0</in>
                        <out>119</out>
                        <file id="972_0438_01_21_3CE94B80C5F54E3EAB1C.mov 2">
                            <duration>119</duration>
                            <rate>
                                <timebase>25</timebase>
                                <ntsc>false</ntsc>
                            </rate>
                            <name>972_0438_01_21_3CE94B80C5F54E3EAB1C.mov</name>
                            <pathurl>file:///Capture1/EDIUS/EDIUS7_Color/colored/pasyans_v3/972_0438_01_21_3CE94B80C5F54E3EAB1C_V1-0317.mov</pathurl>
                            <timecode>
                                <string>01:11:01:05</string>
                                <displayformat>NDF</displayformat>
                                <rate>
                                    <timebase>25</timebase>
                                    <ntsc>false</ntsc>
                                </rate>
                            </timecode>
                            <media>
                                <video>
                                    <duration>119</duration>
                                    <samplecharacteristics>
                                        <width>1920</width>
                                        <height>1080</height>
                                    </samplecharacteristics>
                                </video>
                            </media>
                        </file>
                        <compositemode>normal</compositemode>
                        <filter>
                            <enabled>true</enabled>
                            <start>0</start>
                            <end>119</end>
                            <effect>
                                <name>Opacity</name>
                                <effectid>opacity</effectid>
                                <effecttype>motion</effecttype>
                                <mediatype>video</mediatype>
                                <effectcategory>motion</effectcategory>
                                <parameter>
                                    <name>opacity</name>
                                    <parameterid>opacity</parameterid>
                                    <value>100</value>
                                    <valuemin>0</valuemin>
                                    <valuemax>100</valuemax>
                                </parameter>
                            </effect>
                        </filter>
                    </clipitem>
                    <clipitem id="246_0923_01_9_C5D87EEF482240F8AE93.mov 0">
                        <name>246_0923_01_9_C5D87EEF482240F8AE93.mov</name>
                        <duration>113</duration>
                        <rate>
                            <timebase>25</timebase>
                            <ntsc>false</ntsc>
                        </rate>
                        <start>106649</start>
                        <end>106762</end>
                        <enabled>true</enabled>
                        <in>0</in>
                        <out>113</out>
                        <file id="246_0923_01_9_C5D87EEF482240F8AE93.mov 2">
                            <duration>113</duration>
                            <rate>
                                <timebase>25</timebase>
                                <ntsc>false</ntsc>
                            </rate>
                            <name>246_0923_01_9_C5D87EEF482240F8AE93.mov</name>
                            <pathurl>file:///Capture1/EDIUS/EDIUS7_Color/colored/pasyans_v3/246_0923_01_9_C5D87EEF482240F8AE93_V1-0318.mov</pathurl>
                            <timecode>
                                <string>01:11:05:24</string>
                                <displayformat>NDF</displayformat>
                                <rate>
                                    <timebase>25</timebase>
                                    <ntsc>false</ntsc>
                                </rate>
                            </timecode>
                            <media>
                                <video>
                                    <duration>113</duration>
                                    <samplecharacteristics>
                                        <width>1920</width>
                                        <height>1080</height>
                                    </samplecharacteristics>
                                </video>
                            </media>
                        </file>
                        <compositemode>normal</compositemode>
                        <filter>
                            <enabled>true</enabled>
                            <start>0</start>
                            <end>113</end>
                            <effect>
                                <name>Opacity</name>
                                <effectid>opacity</effectid>
                                <effecttype>motion</effecttype>
                                <mediatype>video</mediatype>
                                <effectcategory>motion</effectcategory>
                                <parameter>
                                    <name>opacity</name>
                                    <parameterid>opacity</parameterid>
                                    <value>100</value>
                                    <valuemin>0</valuemin>
                                    <valuemax>100</valuemax>
                                </parameter>
                            </effect>
                        </filter>
                    </clipitem>
                    <clipitem id="КАССЕТНАЯ КАМЕРА 2_27_95AF6FE969A749F08A09.mov 0">
                        <name>КАССЕТНАЯ КАМЕРА 2_27_95AF6FE969A749F08A09.mov</name>
                        <duration>194</duration>
                        <rate>
                            <timebase>25</timebase>
                            <ntsc>false</ntsc>
                        </rate>
                        <start>106762</start>
                        <end>106956</end>
                        <enabled>true</enabled>
                        <in>0</in>
                        <out>194</out>
                        <file id="КАССЕТНАЯ КАМЕРА 2_27_95AF6FE969A749F08A09.mov 2">
                            <duration>194</duration>
                            <rate>
                                <timebase>25</timebase>
                                <ntsc>false</ntsc>
                            </rate>
                            <name>КАССЕТНАЯ КАМЕРА 2_27_95AF6FE969A749F08A09.mov</name>
                            <pathurl>file:///Capture1/EDIUS/EDIUS7_Color/colored/pasyans_v3/%D0%9A%D0%90%D0%A1%D0%A1%D0%95%D0%A2%D0%9D%D0%90%D0%AF%20%D0%9A%D0%90%D0%9C%D0%95%D0%A0%D0%90%202_27_95AF6FE969A749F08A09_V1-0319.mov</pathurl>
                            <timecode>
                                <string>01:11:10:12</string>
                                <displayformat>NDF</displayformat>
                                <rate>
                                    <timebase>25</timebase>
                                    <ntsc>false</ntsc>
                                </rate>
                            </timecode>
                            <media>
                                <video>
                                    <duration>194</duration>
                                    <samplecharacteristics>
                                        <width>1920</width>
                                        <height>1080</height>
                                    </samplecharacteristics>
                                </video>
                            </media>
                        </file>
                        <compositemode>normal</compositemode>
                        <filter>
                            <enabled>true</enabled>
                            <start>0</start>
                            <end>194</end>
                            <effect>
                                <name>Opacity</name>
                                <effectid>opacity</effectid>
                                <effecttype>motion</effecttype>
                                <mediatype>video</mediatype>
                                <effectcategory>motion</effectcategory>
                                <parameter>
                                    <name>opacity</name>
                                    <parameterid>opacity</parameterid>
                                    <value>100</value>
                                    <valuemin>0</valuemin>
                                    <valuemax>100</valuemax>
                                </parameter>
                            </effect>
                        </filter>
                    </clipitem>
                    <clipitem id="972_0438_01_22_15DCBF4B721E46B7A41C.mov 0">
                        <name>972_0438_01_22_15DCBF4B721E46B7A41C.mov</name>
                        <duration>192</duration>
                        <rate>
                            <timebase>25</timebase>
                            <ntsc>false</ntsc>
                        </rate>
                        <start>106956</start>
                        <end>107148</end>
                        <enabled>true</enabled>
                        <in>0</in>
                        <out>192</out>
                        <file id="972_0438_01_22_15DCBF4B721E46B7A41C.mov 2">
                            <duration>192</duration>
                            <rate>
                                <timebase>25</timebase>
                                <ntsc>false</ntsc>
                            </rate>
                            <name>972_0438_01_22_15DCBF4B721E46B7A41C.mov</name>
                            <pathurl>file:///Capture1/EDIUS/EDIUS7_Color/colored/pasyans_v3/972_0438_01_22_15DCBF4B721E46B7A41C_V1-0320.mov</pathurl>
                            <timecode>
                                <string>01:11:18:06</string>
                                <displayformat>NDF</displayformat>
                                <rate>
                                    <timebase>25</timebase>
                                    <ntsc>false</ntsc>
                                </rate>
                            </timecode>
                            <media>
                                <video>
                                    <duration>192</duration>
                                    <samplecharacteristics>
                                        <width>1920</width>
                                        <height>1080</height>
                                    </samplecharacteristics>
                                </video>
                            </media>
                        </file>
                        <compositemode>normal</compositemode>
                        <filter>
                            <enabled>true</enabled>
                            <start>0</start>
                            <end>192</end>
                            <effect>
                                <name>Opacity</name>
                                <effectid>opacity</effectid>
                                <effecttype>motion</effecttype>
                                <mediatype>video</mediatype>
                                <effectcategory>motion</effectcategory>
                                <parameter>
                                    <name>opacity</name>
                                    <parameterid>opacity</parameterid>
                                    <value>100</value>
                                    <valuemin>0</valuemin>
                                    <valuemax>100</valuemax>
                                </parameter>
                            </effect>
                        </filter>
                    </clipitem>
                    <clipitem id="GOPR8364_12_E702D8C041C245D08280.mov 0">
                        <name>GOPR8364_12_E702D8C041C245D08280.mov</name>
                        <duration>161</duration>
                        <rate>
                            <timebase>25</timebase>
                            <ntsc>false</ntsc>
                        </rate>
                        <start>107148</start>
                        <end>107310</end>
                        <enabled>true</enabled>
                        <in>0</in>
                        <out>162</out>
                        <file id="GOPR8364_12_E702D8C041C245D08280.mov 2">
                            <duration>162</duration>
                            <rate>
                                <timebase>25</timebase>
                                <ntsc>false</ntsc>
                            </rate>
                            <name>GOPR8364_12_E702D8C041C245D08280.mov</name>
                            <pathurl>file:///Capture1/EDIUS/EDIUS7_Color/colored/pasyans_v3/GOPR8364_12_E702D8C041C245D08280_V1-0321.mov</pathurl>
                            <timecode>
                                <string>01:11:25:23</string>
                                <displayformat>NDF</displayformat>
                                <rate>
                                    <timebase>25</timebase>
                                    <ntsc>false</ntsc>
                                </rate>
                            </timecode>
                            <media>
                                <video>
                                    <duration>162</duration>
                                    <samplecharacteristics>
                                        <width>1920</width>
                                        <height>1080</height>
                                    </samplecharacteristics>
                                </video>
                            </media>
                        </file>
                        <compositemode>normal</compositemode>
                        <filter>
                            <enabled>true</enabled>
                            <start>0</start>
                            <end>161</end>
                            <effect>
                                <name>Opacity</name>
                                <effectid>opacity</effectid>
                                <effecttype>motion</effecttype>
                                <mediatype>video</mediatype>
                                <effectcategory>motion</effectcategory>
                                <parameter>
                                    <name>opacity</name>
                                    <parameterid>opacity</parameterid>
                                    <value>100</value>
                                    <valuemin>0</valuemin>
                                    <valuemax>100</valuemax>
                                </parameter>
                            </effect>
                        </filter>
                    </clipitem>
                    <clipitem id="КАССЕТНАЯ КАМЕРА 2_28_68E27CBB52774A4FB686.mov 0">
                        <name>КАССЕТНАЯ КАМЕРА 2_28_68E27CBB52774A4FB686.mov</name>
                        <duration>159</duration>
                        <rate>
                            <timebase>25</timebase>
                            <ntsc>false</ntsc>
                        </rate>
                        <start>107439</start>
                        <end>107599</end>
                        <enabled>true</enabled>
                        <in>0</in>
                        <out>160</out>
                        <file id="КАССЕТНАЯ КАМЕРА 2_28_68E27CBB52774A4FB686.mov 2">
                            <duration>160</duration>
                            <rate>
                                <timebase>25</timebase>
                                <ntsc>false</ntsc>
                            </rate>
                            <name>КАССЕТНАЯ КАМЕРА 2_28_68E27CBB52774A4FB686.mov</name>
                            <pathurl>file:///Capture1/EDIUS/EDIUS7_Color/colored/pasyans_v3/%D0%9A%D0%90%D0%A1%D0%A1%D0%95%D0%A2%D0%9D%D0%90%D0%AF%20%D0%9A%D0%90%D0%9C%D0%95%D0%A0%D0%90%202_28_68E27CBB52774A4FB686_V1-0322.mov</pathurl>
                            <timecode>
                                <string>01:11:37:14</string>
                                <displayformat>NDF</displayformat>
                                <rate>
                                    <timebase>25</timebase>
                                    <ntsc>false</ntsc>
                                </rate>
                            </timecode>
                            <media>
                                <video>
                                    <duration>160</duration>
                                    <samplecharacteristics>
                                        <width>1920</width>
                                        <height>1080</height>
                                    </samplecharacteristics>
                                </video>
                            </media>
                        </file>
                        <compositemode>normal</compositemode>
                        <filter>
                            <enabled>true</enabled>
                            <start>0</start>
                            <end>159</end>
                            <effect>
                                <name>Opacity</name>
                                <effectid>opacity</effectid>
                                <effecttype>motion</effecttype>
                                <mediatype>video</mediatype>
                                <effectcategory>motion</effectcategory>
                                <parameter>
                                    <name>opacity</name>
                                    <parameterid>opacity</parameterid>
                                    <value>100</value>
                                    <valuemin>0</valuemin>
                                    <valuemax>100</valuemax>
                                </parameter>
                            </effect>
                        </filter>
                    </clipitem>
                    <clipitem id="246_0923_02_1_D7FD99EC47534315A80C.mov 0">
                        <name>246_0923_02_1_D7FD99EC47534315A80C.mov</name>
                        <duration>152</duration>
                        <rate>
                            <timebase>25</timebase>
                            <ntsc>false</ntsc>
                        </rate>
                        <start>107599</start>
                        <end>107752</end>
                        <enabled>true</enabled>
                        <in>0</in>
                        <out>153</out>
                        <file id="246_0923_02_1_D7FD99EC47534315A80C.mov 2">
                            <duration>153</duration>
                            <rate>
                                <timebase>25</timebase>
                                <ntsc>false</ntsc>
                            </rate>
                            <name>246_0923_02_1_D7FD99EC47534315A80C.mov</name>
                            <pathurl>file:///Capture1/EDIUS/EDIUS7_Color/colored/pasyans_v3/246_0923_02_1_D7FD99EC47534315A80C_V1-0323.mov</pathurl>
                            <timecode>
                                <string>01:11:43:24</string>
                                <displayformat>NDF</displayformat>
                                <rate>
                                    <timebase>25</timebase>
                                    <ntsc>false</ntsc>
                                </rate>
                            </timecode>
                            <media>
                                <video>
                                    <duration>153</duration>
                                    <samplecharacteristics>
                                        <width>1920</width>
                                        <height>1080</height>
                                    </samplecharacteristics>
                                </video>
                            </media>
                        </file>
                        <compositemode>normal</compositemode>
                        <filter>
                            <enabled>true</enabled>
                            <start>0</start>
                            <end>152</end>
                            <effect>
                                <name>Opacity</name>
                                <effectid>opacity</effectid>
                                <effecttype>motion</effecttype>
                                <mediatype>video</mediatype>
                                <effectcategory>motion</effectcategory>
                                <parameter>
                                    <name>opacity</name>
                                    <parameterid>opacity</parameterid>
                                    <value>100</value>
                                    <valuemin>0</valuemin>
                                    <valuemax>100</valuemax>
                                </parameter>
                            </effect>
                        </filter>
                    </clipitem>
                    <clipitem id="972_0438_01_23_92A123F458394174A9FF.mov 0">
                        <name>972_0438_01_23_92A123F458394174A9FF.mov</name>
                        <duration>284</duration>
                        <rate>
                            <timebase>25</timebase>
                            <ntsc>false</ntsc>
                        </rate>
                        <start>107752</start>
                        <end>108037</end>
                        <enabled>true</enabled>
                        <in>0</in>
                        <out>285</out>
                        <file id="972_0438_01_23_92A123F458394174A9FF.mov 2">
                            <duration>285</duration>
                            <rate>
                                <timebase>25</timebase>
                                <ntsc>false</ntsc>
                            </rate>
                            <name>972_0438_01_23_92A123F458394174A9FF.mov</name>
                            <pathurl>file:///Capture1/EDIUS/EDIUS7_Color/colored/pasyans_v3/972_0438_01_23_92A123F458394174A9FF_V1-0324.mov</pathurl>
                            <timecode>
                                <string>01:11:50:02</string>
                                <displayformat>NDF</displayformat>
                                <rate>
                                    <timebase>25</timebase>
                                    <ntsc>false</ntsc>
                                </rate>
                            </timecode>
                            <media>
                                <video>
                                    <duration>285</duration>
                                    <samplecharacteristics>
                                        <width>1920</width>
                                        <height>1080</height>
                                    </samplecharacteristics>
                                </video>
                            </media>
                        </file>
                        <compositemode>normal</compositemode>
                        <filter>
                            <enabled>true</enabled>
                            <start>0</start>
                            <end>284</end>
                            <effect>
                                <name>Opacity</name>
                                <effectid>opacity</effectid>
                                <effecttype>motion</effecttype>
                                <mediatype>video</mediatype>
                                <effectcategory>motion</effectcategory>
                                <parameter>
                                    <name>opacity</name>
                                    <parameterid>opacity</parameterid>
                                    <value>100</value>
                                    <valuemin>0</valuemin>
                                    <valuemax>100</valuemax>
                                </parameter>
                            </effect>
                        </filter>
                    </clipitem>
                    <clipitem id="GOPR8364_13_084E1CD5BF98475FACB9.mov 0">
                        <name>GOPR8364_13_084E1CD5BF98475FACB9.mov</name>
                        <duration>122</duration>
                        <rate>
                            <timebase>25</timebase>
                            <ntsc>false</ntsc>
                        </rate>
                        <start>108037</start>
                        <end>108159</end>
                        <enabled>true</enabled>
                        <in>0</in>
                        <out>122</out>
                        <file id="GOPR8364_13_084E1CD5BF98475FACB9.mov 2">
                            <duration>122</duration>
                            <rate>
                                <timebase>25</timebase>
                                <ntsc>false</ntsc>
                            </rate>
                            <name>GOPR8364_13_084E1CD5BF98475FACB9.mov</name>
                            <pathurl>file:///Capture1/EDIUS/EDIUS7_Color/colored/pasyans_v3/GOPR8364_13_084E1CD5BF98475FACB9_V1-0325.mov</pathurl>
                            <timecode>
                                <string>01:12:01:12</string>
                                <displayformat>NDF</displayformat>
                                <rate>
                                    <timebase>25</timebase>
                                    <ntsc>false</ntsc>
                                </rate>
                            </timecode>
                            <media>
                                <video>
                                    <duration>122</duration>
                                    <samplecharacteristics>
                                        <width>1920</width>
                                        <height>1080</height>
                                    </samplecharacteristics>
                                </video>
                            </media>
                        </file>
                        <compositemode>normal</compositemode>
                        <filter>
                            <enabled>true</enabled>
                            <start>0</start>
                            <end>122</end>
                            <effect>
                                <name>Opacity</name>
                                <effectid>opacity</effectid>
                                <effecttype>motion</effecttype>
                                <mediatype>video</mediatype>
                                <effectcategory>motion</effectcategory>
                                <parameter>
                                    <name>opacity</name>
                                    <parameterid>opacity</parameterid>
                                    <value>100</value>
                                    <valuemin>0</valuemin>
                                    <valuemax>100</valuemax>
                                </parameter>
                            </effect>
                        </filter>
                    </clipitem>
                    <clipitem id="972_0438_02_1_40644D7BB3704ED7B2E7.mov 0">
                        <name>972_0438_02_1_40644D7BB3704ED7B2E7.mov</name>
                        <duration>122</duration>
                        <rate>
                            <timebase>25</timebase>
                            <ntsc>false</ntsc>
                        </rate>
                        <start>108159</start>
                        <end>108281</end>
                        <enabled>true</enabled>
                        <in>0</in>
                        <out>122</out>
                        <file id="972_0438_02_1_40644D7BB3704ED7B2E7.mov 2">
                            <duration>122</duration>
                            <rate>
                                <timebase>25</timebase>
                                <ntsc>false</ntsc>
                            </rate>
                            <name>972_0438_02_1_40644D7BB3704ED7B2E7.mov</name>
                            <pathurl>file:///Capture1/EDIUS/EDIUS7_Color/colored/pasyans_v3/972_0438_02_1_40644D7BB3704ED7B2E7_V1-0326.mov</pathurl>
                            <timecode>
                                <string>01:12:06:09</string>
                                <displayformat>NDF</displayformat>
                                <rate>
                                    <timebase>25</timebase>
                                    <ntsc>false</ntsc>
                                </rate>
                            </timecode>
                            <media>
                                <video>
                                    <duration>122</duration>
                                    <samplecharacteristics>
                                        <width>1920</width>
                                        <height>1080</height>
                                    </samplecharacteristics>
                                </video>
                            </media>
                        </file>
                        <compositemode>normal</compositemode>
                        <filter>
                            <enabled>true</enabled>
                            <start>0</start>
                            <end>122</end>
                            <effect>
                                <name>Opacity</name>
                                <effectid>opacity</effectid>
                                <effecttype>motion</effecttype>
                                <mediatype>video</mediatype>
                                <effectcategory>motion</effectcategory>
                                <parameter>
                                    <name>opacity</name>
                                    <parameterid>opacity</parameterid>
                                    <value>100</value>
                                    <valuemin>0</valuemin>
                                    <valuemax>100</valuemax>
                                </parameter>
                            </effect>
                        </filter>
                    </clipitem>
                    <clipitem id="246_0923_02_2_91E5A06E42494EBF8350.mov 0">
                        <name>246_0923_02_2_91E5A06E42494EBF8350.mov</name>
                        <duration>88</duration>
                        <rate>
                            <timebase>25</timebase>
                            <ntsc>false</ntsc>
                        </rate>
                        <start>108281</start>
                        <end>108369</end>
                        <enabled>true</enabled>
                        <in>0</in>
                        <out>88</out>
                        <file id="246_0923_02_2_91E5A06E42494EBF8350.mov 2">
                            <duration>88</duration>
                            <rate>
                                <timebase>25</timebase>
                                <ntsc>false</ntsc>
                            </rate>
                            <name>246_0923_02_2_91E5A06E42494EBF8350.mov</name>
                            <pathurl>file:///Capture1/EDIUS/EDIUS7_Color/colored/pasyans_v3/246_0923_02_2_91E5A06E42494EBF8350_V1-0327.mov</pathurl>
                            <timecode>
                                <string>01:12:11:06</string>
                                <displayformat>NDF</displayformat>
                                <rate>
                                    <timebase>25</timebase>
                                    <ntsc>false</ntsc>
                                </rate>
                            </timecode>
                            <media>
                                <video>
                                    <duration>88</duration>
                                    <samplecharacteristics>
                                        <width>1920</width>
                                        <height>1080</height>
                                    </samplecharacteristics>
                                </video>
                            </media>
                        </file>
                        <compositemode>normal</compositemode>
                        <filter>
                            <enabled>true</enabled>
                            <start>0</start>
                            <end>88</end>
                            <effect>
                                <name>Opacity</name>
                                <effectid>opacity</effectid>
                                <effecttype>motion</effecttype>
                                <mediatype>video</mediatype>
                                <effectcategory>motion</effectcategory>
                                <parameter>
                                    <name>opacity</name>
                                    <parameterid>opacity</parameterid>
                                    <value>100</value>
                                    <valuemin>0</valuemin>
                                    <valuemax>100</valuemax>
                                </parameter>
                            </effect>
                        </filter>
                    </clipitem>
                    <clipitem id="246_0923_02_3_F339D588B1A441DEBE65.mov 0">
                        <name>246_0923_02_3_F339D588B1A441DEBE65.mov</name>
                        <duration>78</duration>
                        <rate>
                            <timebase>25</timebase>
                            <ntsc>false</ntsc>
                        </rate>
                        <start>108428</start>
                        <end>108507</end>
                        <enabled>true</enabled>
                        <in>0</in>
                        <out>79</out>
                        <file id="246_0923_02_3_F339D588B1A441DEBE65.mov 2">
                            <duration>79</duration>
                            <rate>
                                <timebase>25</timebase>
                                <ntsc>false</ntsc>
                            </rate>
                            <name>246_0923_02_3_F339D588B1A441DEBE65.mov</name>
                            <pathurl>file:///Capture1/EDIUS/EDIUS7_Color/colored/pasyans_v3/246_0923_02_3_F339D588B1A441DEBE65_V1-0328.mov</pathurl>
                            <timecode>
                                <string>01:12:17:03</string>
                                <displayformat>NDF</displayformat>
                                <rate>
                                    <timebase>25</timebase>
                                    <ntsc>false</ntsc>
                                </rate>
                            </timecode>
                            <media>
                                <video>
                                    <duration>79</duration>
                                    <samplecharacteristics>
                                        <width>1920</width>
                                        <height>1080</height>
                                    </samplecharacteristics>
                                </video>
                            </media>
                        </file>
                        <compositemode>normal</compositemode>
                        <filter>
                            <enabled>true</enabled>
                            <start>0</start>
                            <end>78</end>
                            <effect>
                                <name>Opacity</name>
                                <effectid>opacity</effectid>
                                <effecttype>motion</effecttype>
                                <mediatype>video</mediatype>
                                <effectcategory>motion</effectcategory>
                                <parameter>
                                    <name>opacity</name>
                                    <parameterid>opacity</parameterid>
                                    <value>100</value>
                                    <valuemin>0</valuemin>
                                    <valuemax>100</valuemax>
                                </parameter>
                            </effect>
                        </filter>
                    </clipitem>
                    <clipitem id="КАССЕТНАЯ КАМЕРА 2_29_A2733BF6F8BC486DBE2D.mov 0">
                        <name>КАССЕТНАЯ КАМЕРА 2_29_A2733BF6F8BC486DBE2D.mov</name>
                        <duration>193</duration>
                        <rate>
                            <timebase>25</timebase>
                            <ntsc>false</ntsc>
                        </rate>
                        <start>108507</start>
                        <end>108700</end>
                        <enabled>true</enabled>
                        <in>0</in>
                        <out>193</out>
                        <file id="КАССЕТНАЯ КАМЕРА 2_29_A2733BF6F8BC486DBE2D.mov 2">
                            <duration>193</duration>
                            <rate>
                                <timebase>25</timebase>
                                <ntsc>false</ntsc>
                            </rate>
                            <name>КАССЕТНАЯ КАМЕРА 2_29_A2733BF6F8BC486DBE2D.mov</name>
                            <pathurl>file:///Capture1/EDIUS/EDIUS7_Color/colored/pasyans_v3/%D0%9A%D0%90%D0%A1%D0%A1%D0%95%D0%A2%D0%9D%D0%90%D0%AF%20%D0%9A%D0%90%D0%9C%D0%95%D0%A0%D0%90%202_29_A2733BF6F8BC486DBE2D_V1-0329.mov</pathurl>
                            <timecode>
                                <string>01:12:20:07</string>
                                <displayformat>NDF</displayformat>
                                <rate>
                                    <timebase>25</timebase>
                                    <ntsc>false</ntsc>
                                </rate>
                            </timecode>
                            <media>
                                <video>
                                    <duration>193</duration>
                                    <samplecharacteristics>
                                        <width>1920</width>
                                        <height>1080</height>
                                    </samplecharacteristics>
                                </video>
                            </media>
                        </file>
                        <compositemode>normal</compositemode>
                        <filter>
                            <enabled>true</enabled>
                            <start>0</start>
                            <end>193</end>
                            <effect>
                                <name>Opacity</name>
                                <effectid>opacity</effectid>
                                <effecttype>motion</effecttype>
                                <mediatype>video</mediatype>
                                <effectcategory>motion</effectcategory>
                                <parameter>
                                    <name>opacity</name>
                                    <parameterid>opacity</parameterid>
                                    <value>100</value>
                                    <valuemin>0</valuemin>
                                    <valuemax>100</valuemax>
                                </parameter>
                            </effect>
                        </filter>
                    </clipitem>
                    <clipitem id="972_0438_02_2_DF0B4255367049A9BADF.mov 0">
                        <name>972_0438_02_2_DF0B4255367049A9BADF.mov</name>
                        <duration>195</duration>
                        <rate>
                            <timebase>25</timebase>
                            <ntsc>false</ntsc>
                        </rate>
                        <start>108851</start>
                        <end>109046</end>
                        <enabled>true</enabled>
                        <in>0</in>
                        <out>195</out>
                        <file id="972_0438_02_2_DF0B4255367049A9BADF.mov 2">
                            <duration>195</duration>
                            <rate>
                                <timebase>25</timebase>
                                <ntsc>false</ntsc>
                            </rate>
                            <name>972_0438_02_2_DF0B4255367049A9BADF.mov</name>
                            <pathurl>file:///Capture1/EDIUS/EDIUS7_Color/colored/pasyans_v3/972_0438_02_2_DF0B4255367049A9BADF_V1-0330.mov</pathurl>
                            <timecode>
                                <string>01:12:34:01</string>
                                <displayformat>NDF</displayformat>
                                <rate>
                                    <timebase>25</timebase>
                                    <ntsc>false</ntsc>
                                </rate>
                            </timecode>
                            <media>
                                <video>
                                    <duration>195</duration>
                                    <samplecharacteristics>
                                        <width>1920</width>
                                        <height>1080</height>
                                    </samplecharacteristics>
                                </video>
                            </media>
                        </file>
                        <compositemode>normal</compositemode>
                        <filter>
                            <enabled>true</enabled>
                            <start>0</start>
                            <end>195</end>
                            <effect>
                                <name>Opacity</name>
                                <effectid>opacity</effectid>
                                <effecttype>motion</effecttype>
                                <mediatype>video</mediatype>
                                <effectcategory>motion</effectcategory>
                                <parameter>
                                    <name>opacity</name>
                                    <parameterid>opacity</parameterid>
                                    <value>100</value>
                                    <valuemin>0</valuemin>
                                    <valuemax>100</valuemax>
                                </parameter>
                            </effect>
                        </filter>
                    </clipitem>
                    <clipitem id="246_0923_02_4_3D22A74095C948F89A68.mov 0">
                        <name>246_0923_02_4_3D22A74095C948F89A68.mov</name>
                        <duration>148</duration>
                        <rate>
                            <timebase>25</timebase>
                            <ntsc>false</ntsc>
                        </rate>
                        <start>109046</start>
                        <end>109194</end>
                        <enabled>true</enabled>
                        <in>0</in>
                        <out>148</out>
                        <file id="246_0923_02_4_3D22A74095C948F89A68.mov 2">
                            <duration>148</duration>
                            <rate>
                                <timebase>25</timebase>
                                <ntsc>false</ntsc>
                            </rate>
                            <name>246_0923_02_4_3D22A74095C948F89A68.mov</name>
                            <pathurl>file:///Capture1/EDIUS/EDIUS7_Color/colored/pasyans_v3/246_0923_02_4_3D22A74095C948F89A68_V1-0331.mov</pathurl>
                            <timecode>
                                <string>01:12:41:21</string>
                                <displayformat>NDF</displayformat>
                                <rate>
                                    <timebase>25</timebase>
                                    <ntsc>false</ntsc>
                                </rate>
                            </timecode>
                            <media>
                                <video>
                                    <duration>148</duration>
                                    <samplecharacteristics>
                                        <width>1920</width>
                                        <height>1080</height>
                                    </samplecharacteristics>
                                </video>
                            </media>
                        </file>
                        <compositemode>normal</compositemode>
                        <filter>
                            <enabled>true</enabled>
                            <start>0</start>
                            <end>148</end>
                            <effect>
                                <name>Opacity</name>
                                <effectid>opacity</effectid>
                                <effecttype>motion</effecttype>
                                <mediatype>video</mediatype>
                                <effectcategory>motion</effectcategory>
                                <parameter>
                                    <name>opacity</name>
                                    <parameterid>opacity</parameterid>
                                    <value>100</value>
                                    <valuemin>0</valuemin>
                                    <valuemax>100</valuemax>
                                </parameter>
                            </effect>
                        </filter>
                    </clipitem>
                    <clipitem id="972_0438_02_3_5BCD30F0B4B3472DA0B0.mov 0">
                        <name>972_0438_02_3_5BCD30F0B4B3472DA0B0.mov</name>
                        <duration>156</duration>
                        <rate>
                            <timebase>25</timebase>
                            <ntsc>false</ntsc>
                        </rate>
                        <start>109194</start>
                        <end>109351</end>
                        <enabled>true</enabled>
                        <in>0</in>
                        <out>157</out>
                        <file id="972_0438_02_3_5BCD30F0B4B3472DA0B0.mov 2">
                            <duration>157</duration>
                            <rate>
                                <timebase>25</timebase>
                                <ntsc>false</ntsc>
                            </rate>
                            <name>972_0438_02_3_5BCD30F0B4B3472DA0B0.mov</name>
                            <pathurl>file:///Capture1/EDIUS/EDIUS7_Color/colored/pasyans_v3/972_0438_02_3_5BCD30F0B4B3472DA0B0_V1-0332.mov</pathurl>
                            <timecode>
                                <string>01:12:47:19</string>
                                <displayformat>NDF</displayformat>
                                <rate>
                                    <timebase>25</timebase>
                                    <ntsc>false</ntsc>
                                </rate>
                            </timecode>
                            <media>
                                <video>
                                    <duration>157</duration>
                                    <samplecharacteristics>
                                        <width>1920</width>
                                        <height>1080</height>
                                    </samplecharacteristics>
                                </video>
                            </media>
                        </file>
                        <compositemode>normal</compositemode>
                        <filter>
                            <enabled>true</enabled>
                            <start>0</start>
                            <end>156</end>
                            <effect>
                                <name>Opacity</name>
                                <effectid>opacity</effectid>
                                <effecttype>motion</effecttype>
                                <mediatype>video</mediatype>
                                <effectcategory>motion</effectcategory>
                                <parameter>
                                    <name>opacity</name>
                                    <parameterid>opacity</parameterid>
                                    <value>100</value>
                                    <valuemin>0</valuemin>
                                    <valuemax>100</valuemax>
                                </parameter>
                            </effect>
                        </filter>
                    </clipitem>
                    <clipitem id="КАССЕТНАЯ КАМЕРА 2_30_3585C8C4D7CA4B66B781.mov 0">
                        <name>КАССЕТНАЯ КАМЕРА 2_30_3585C8C4D7CA4B66B781.mov</name>
                        <duration>236</duration>
                        <rate>
                            <timebase>25</timebase>
                            <ntsc>false</ntsc>
                        </rate>
                        <start>113635</start>
                        <end>113872</end>
                        <enabled>true</enabled>
                        <in>0</in>
                        <out>237</out>
                        <file id="КАССЕТНАЯ КАМЕРА 2_30_3585C8C4D7CA4B66B781.mov 2">
                            <duration>237</duration>
                            <rate>
                                <timebase>25</timebase>
                                <ntsc>false</ntsc>
                            </rate>
                            <name>КАССЕТНАЯ КАМЕРА 2_30_3585C8C4D7CA4B66B781.mov</name>
                            <pathurl>file:///Capture1/EDIUS/EDIUS7_Color/colored/pasyans_v3/%D0%9A%D0%90%D0%A1%D0%A1%D0%95%D0%A2%D0%9D%D0%90%D0%AF%20%D0%9A%D0%90%D0%9C%D0%95%D0%A0%D0%90%202_30_3585C8C4D7CA4B66B781_V1-0333.mov</pathurl>
                            <timecode>
                                <string>01:15:45:10</string>
                                <displayformat>NDF</displayformat>
                                <rate>
                                    <timebase>25</timebase>
                                    <ntsc>false</ntsc>
                                </rate>
                            </timecode>
                            <media>
                                <video>
                                    <duration>237</duration>
                                    <samplecharacteristics>
                                        <width>1920</width>
                                        <height>1080</height>
                                    </samplecharacteristics>
                                </video>
                            </media>
                        </file>
                        <compositemode>normal</compositemode>
                        <filter>
                            <enabled>true</enabled>
                            <start>0</start>
                            <end>236</end>
                            <effect>
                                <name>Opacity</name>
                                <effectid>opacity</effectid>
                                <effecttype>motion</effecttype>
                                <mediatype>video</mediatype>
                                <effectcategory>motion</effectcategory>
                                <parameter>
                                    <name>opacity</name>
                                    <parameterid>opacity</parameterid>
                                    <value>100</value>
                                    <valuemin>0</valuemin>
                                    <valuemax>100</valuemax>
                                </parameter>
                            </effect>
                        </filter>
                    </clipitem>
                    <clipitem id="972_0438_02_4_478C023362DA41C0BB64.mov 0">
                        <name>972_0438_02_4_478C023362DA41C0BB64.mov</name>
                        <duration>65</duration>
                        <rate>
                            <timebase>25</timebase>
                            <ntsc>false</ntsc>
                        </rate>
                        <start>113872</start>
                        <end>113937</end>
                        <enabled>true</enabled>
                        <in>0</in>
                        <out>65</out>
                        <file id="972_0438_02_4_478C023362DA41C0BB64.mov 2">
                            <duration>65</duration>
                            <rate>
                                <timebase>25</timebase>
                                <ntsc>false</ntsc>
                            </rate>
                            <name>972_0438_02_4_478C023362DA41C0BB64.mov</name>
                            <pathurl>file:///Capture1/EDIUS/EDIUS7_Color/colored/pasyans_v3/972_0438_02_4_478C023362DA41C0BB64_V1-0334.mov</pathurl>
                            <timecode>
                                <string>01:15:54:22</string>
                                <displayformat>NDF</displayformat>
                                <rate>
                                    <timebase>25</timebase>
                                    <ntsc>false</ntsc>
                                </rate>
                            </timecode>
                            <media>
                                <video>
                                    <duration>65</duration>
                                    <samplecharacteristics>
                                        <width>1920</width>
                                        <height>1080</height>
                                    </samplecharacteristics>
                                </video>
                            </media>
                        </file>
                        <compositemode>normal</compositemode>
                        <filter>
                            <enabled>true</enabled>
                            <start>0</start>
                            <end>65</end>
                            <effect>
                                <name>Opacity</name>
                                <effectid>opacity</effectid>
                                <effecttype>motion</effecttype>
                                <mediatype>video</mediatype>
                                <effectcategory>motion</effectcategory>
                                <parameter>
                                    <name>opacity</name>
                                    <parameterid>opacity</parameterid>
                                    <value>100</value>
                                    <valuemin>0</valuemin>
                                    <valuemax>100</valuemax>
                                </parameter>
                            </effect>
                        </filter>
                    </clipitem>
                    <clipitem id="GOPR8504_8_A9546333AEFD4CC1AA0A.mov 0">
                        <name>GOPR8504_8_A9546333AEFD4CC1AA0A.mov</name>
                        <duration>64</duration>
                        <rate>
                            <timebase>25</timebase>
                            <ntsc>false</ntsc>
                        </rate>
                        <start>113937</start>
                        <end>114001</end>
                        <enabled>true</enabled>
                        <in>0</in>
                        <out>64</out>
                        <file id="GOPR8504_8_A9546333AEFD4CC1AA0A.mov 2">
                            <duration>64</duration>
                            <rate>
                                <timebase>25</timebase>
                                <ntsc>false</ntsc>
                            </rate>
                            <name>GOPR8504_8_A9546333AEFD4CC1AA0A.mov</name>
                            <pathurl>file:///Capture1/EDIUS/EDIUS7_Color/colored/pasyans_v3/GOPR8504_8_A9546333AEFD4CC1AA0A_V1-0335.mov</pathurl>
                            <timecode>
                                <string>01:15:57:12</string>
                                <displayformat>NDF</displayformat>
                                <rate>
                                    <timebase>25</timebase>
                                    <ntsc>false</ntsc>
                                </rate>
                            </timecode>
                            <media>
                                <video>
                                    <duration>64</duration>
                                    <samplecharacteristics>
                                        <width>1920</width>
                                        <height>1080</height>
                                    </samplecharacteristics>
                                </video>
                            </media>
                        </file>
                        <compositemode>normal</compositemode>
                        <filter>
                            <enabled>true</enabled>
                            <start>0</start>
                            <end>64</end>
                            <effect>
                                <name>Opacity</name>
                                <effectid>opacity</effectid>
                                <effecttype>motion</effecttype>
                                <mediatype>video</mediatype>
                                <effectcategory>motion</effectcategory>
                                <parameter>
                                    <name>opacity</name>
                                    <parameterid>opacity</parameterid>
                                    <value>100</value>
                                    <valuemin>0</valuemin>
                                    <valuemax>100</valuemax>
                                </parameter>
                            </effect>
                        </filter>
                    </clipitem>
                    <clipitem id="КАССЕТНАЯ КАМЕРА 2_31_3859D128396F457DBAE7.mov 0">
                        <name>КАССЕТНАЯ КАМЕРА 2_31_3859D128396F457DBAE7.mov</name>
                        <duration>75</duration>
                        <rate>
                            <timebase>25</timebase>
                            <ntsc>false</ntsc>
                        </rate>
                        <start>114001</start>
                        <end>114076</end>
                        <enabled>true</enabled>
                        <in>0</in>
                        <out>75</out>
                        <file id="КАССЕТНАЯ КАМЕРА 2_31_3859D128396F457DBAE7.mov 2">
                            <duration>75</duration>
                            <rate>
                                <timebase>25</timebase>
                                <ntsc>false</ntsc>
                            </rate>
                            <name>КАССЕТНАЯ КАМЕРА 2_31_3859D128396F457DBAE7.mov</name>
                            <pathurl>file:///Capture1/EDIUS/EDIUS7_Color/colored/pasyans_v3/%D0%9A%D0%90%D0%A1%D0%A1%D0%95%D0%A2%D0%9D%D0%90%D0%AF%20%D0%9A%D0%90%D0%9C%D0%95%D0%A0%D0%90%202_31_3859D128396F457DBAE7_V1-0336.mov</pathurl>
                            <timecode>
                                <string>01:16:00:01</string>
                                <displayformat>NDF</displayformat>
                                <rate>
                                    <timebase>25</timebase>
                                    <ntsc>false</ntsc>
                                </rate>
                            </timecode>
                            <media>
                                <video>
                                    <duration>75</duration>
                                    <samplecharacteristics>
                                        <width>1920</width>
                                        <height>1080</height>
                                    </samplecharacteristics>
                                </video>
                            </media>
                        </file>
                        <compositemode>normal</compositemode>
                        <filter>
                            <enabled>true</enabled>
                            <start>0</start>
                            <end>75</end>
                            <effect>
                                <name>Opacity</name>
                                <effectid>opacity</effectid>
                                <effecttype>motion</effecttype>
                                <mediatype>video</mediatype>
                                <effectcategory>motion</effectcategory>
                                <parameter>
                                    <name>opacity</name>
                                    <parameterid>opacity</parameterid>
                                    <value>100</value>
                                    <valuemin>0</valuemin>
                                    <valuemax>100</valuemax>
                                </parameter>
                            </effect>
                        </filter>
                    </clipitem>
                    <clipitem id="246_0923_02_5_173A50F50C974B75A630.mov 0">
                        <name>246_0923_02_5_173A50F50C974B75A630.mov</name>
                        <duration>205</duration>
                        <rate>
                            <timebase>25</timebase>
                            <ntsc>false</ntsc>
                        </rate>
                        <start>114076</start>
                        <end>114282</end>
                        <enabled>true</enabled>
                        <in>0</in>
                        <out>206</out>
                        <file id="246_0923_02_5_173A50F50C974B75A630.mov 2">
                            <duration>206</duration>
                            <rate>
                                <timebase>25</timebase>
                                <ntsc>false</ntsc>
                            </rate>
                            <name>246_0923_02_5_173A50F50C974B75A630.mov</name>
                            <pathurl>file:///Capture1/EDIUS/EDIUS7_Color/colored/pasyans_v3/246_0923_02_5_173A50F50C974B75A630_V1-0337.mov</pathurl>
                            <timecode>
                                <string>01:16:03:01</string>
                                <displayformat>NDF</displayformat>
                                <rate>
                                    <timebase>25</timebase>
                                    <ntsc>false</ntsc>
                                </rate>
                            </timecode>
                            <media>
                                <video>
                                    <duration>206</duration>
                                    <samplecharacteristics>
                                        <width>1920</width>
                                        <height>1080</height>
                                    </samplecharacteristics>
                                </video>
                            </media>
                        </file>
                        <compositemode>normal</compositemode>
                        <filter>
                            <enabled>true</enabled>
                            <start>0</start>
                            <end>205</end>
                            <effect>
                                <name>Opacity</name>
                                <effectid>opacity</effectid>
                                <effecttype>motion</effecttype>
                                <mediatype>video</mediatype>
                                <effectcategory>motion</effectcategory>
                                <parameter>
                                    <name>opacity</name>
                                    <parameterid>opacity</parameterid>
                                    <value>100</value>
                                    <valuemin>0</valuemin>
                                    <valuemax>100</valuemax>
                                </parameter>
                            </effect>
                        </filter>
                    </clipitem>
                    <clipitem id="КАССЕТНАЯ КАМЕРА 2_32_0AF9A34FECCD421E8DC7.mov 0">
                        <name>КАССЕТНАЯ КАМЕРА 2_32_0AF9A34FECCD421E8DC7.mov</name>
                        <duration>175</duration>
                        <rate>
                            <timebase>25</timebase>
                            <ntsc>false</ntsc>
                        </rate>
                        <start>114282</start>
                        <end>114458</end>
                        <enabled>true</enabled>
                        <in>0</in>
                        <out>176</out>
                        <file id="КАССЕТНАЯ КАМЕРА 2_32_0AF9A34FECCD421E8DC7.mov 2">
                            <duration>176</duration>
                            <rate>
                                <timebase>25</timebase>
                                <ntsc>false</ntsc>
                            </rate>
                            <name>КАССЕТНАЯ КАМЕРА 2_32_0AF9A34FECCD421E8DC7.mov</name>
                            <pathurl>file:///Capture1/EDIUS/EDIUS7_Color/colored/pasyans_v3/%D0%9A%D0%90%D0%A1%D0%A1%D0%95%D0%A2%D0%9D%D0%90%D0%AF%20%D0%9A%D0%90%D0%9C%D0%95%D0%A0%D0%90%202_32_0AF9A34FECCD421E8DC7_V1-0338.mov</pathurl>
                            <timecode>
                                <string>01:16:11:07</string>
                                <displayformat>NDF</displayformat>
                                <rate>
                                    <timebase>25</timebase>
                                    <ntsc>false</ntsc>
                                </rate>
                            </timecode>
                            <media>
                                <video>
                                    <duration>176</duration>
                                    <samplecharacteristics>
                                        <width>1920</width>
                                        <height>1080</height>
                                    </samplecharacteristics>
                                </video>
                            </media>
                        </file>
                        <compositemode>normal</compositemode>
                        <filter>
                            <enabled>true</enabled>
                            <start>0</start>
                            <end>175</end>
                            <effect>
                                <name>Opacity</name>
                                <effectid>opacity</effectid>
                                <effecttype>motion</effecttype>
                                <mediatype>video</mediatype>
                                <effectcategory>motion</effectcategory>
                                <parameter>
                                    <name>opacity</name>
                                    <parameterid>opacity</parameterid>
                                    <value>100</value>
                                    <valuemin>0</valuemin>
                                    <valuemax>100</valuemax>
                                </parameter>
                            </effect>
                        </filter>
                    </clipitem>
                    <clipitem id="972_0438_02_5_1194315C41BF428488D8.mov 0">
                        <name>972_0438_02_5_1194315C41BF428488D8.mov</name>
                        <duration>113</duration>
                        <rate>
                            <timebase>25</timebase>
                            <ntsc>false</ntsc>
                        </rate>
                        <start>114458</start>
                        <end>114571</end>
                        <enabled>true</enabled>
                        <in>0</in>
                        <out>113</out>
                        <file id="972_0438_02_5_1194315C41BF428488D8.mov 2">
                            <duration>113</duration>
                            <rate>
                                <timebase>25</timebase>
                                <ntsc>false</ntsc>
                            </rate>
                            <name>972_0438_02_5_1194315C41BF428488D8.mov</name>
                            <pathurl>file:///Capture1/EDIUS/EDIUS7_Color/colored/pasyans_v3/972_0438_02_5_1194315C41BF428488D8_V1-0339.mov</pathurl>
                            <timecode>
                                <string>01:16:18:08</string>
                                <displayformat>NDF</displayformat>
                                <rate>
                                    <timebase>25</timebase>
                                    <ntsc>false</ntsc>
                                </rate>
                            </timecode>
                            <media>
                                <video>
                                    <duration>113</duration>
                                    <samplecharacteristics>
                                        <width>1920</width>
                                        <height>1080</height>
                                    </samplecharacteristics>
                                </video>
                            </media>
                        </file>
                        <compositemode>normal</compositemode>
                        <filter>
                            <enabled>true</enabled>
                            <start>0</start>
                            <end>113</end>
                            <effect>
                                <name>Opacity</name>
                                <effectid>opacity</effectid>
                                <effecttype>motion</effecttype>
                                <mediatype>video</mediatype>
                                <effectcategory>motion</effectcategory>
                                <parameter>
                                    <name>opacity</name>
                                    <parameterid>opacity</parameterid>
                                    <value>100</value>
                                    <valuemin>0</valuemin>
                                    <valuemax>100</valuemax>
                                </parameter>
                            </effect>
                        </filter>
                    </clipitem>
                    <clipitem id="КАССЕТНАЯ КАМЕРА 2_33_44ADA4E1502D428BA29D.mov 0">
                        <name>КАССЕТНАЯ КАМЕРА 2_33_44ADA4E1502D428BA29D.mov</name>
                        <duration>210</duration>
                        <rate>
                            <timebase>25</timebase>
                            <ntsc>false</ntsc>
                        </rate>
                        <start>114571</start>
                        <end>114782</end>
                        <enabled>true</enabled>
                        <in>0</in>
                        <out>211</out>
                        <file id="КАССЕТНАЯ КАМЕРА 2_33_44ADA4E1502D428BA29D.mov 2">
                            <duration>211</duration>
                            <rate>
                                <timebase>25</timebase>
                                <ntsc>false</ntsc>
                            </rate>
                            <name>КАССЕТНАЯ КАМЕРА 2_33_44ADA4E1502D428BA29D.mov</name>
                            <pathurl>file:///Capture1/EDIUS/EDIUS7_Color/colored/pasyans_v3/%D0%9A%D0%90%D0%A1%D0%A1%D0%95%D0%A2%D0%9D%D0%90%D0%AF%20%D0%9A%D0%90%D0%9C%D0%95%D0%A0%D0%90%202_33_44ADA4E1502D428BA29D_V1-0340.mov</pathurl>
                            <timecode>
                                <string>01:16:22:21</string>
                                <displayformat>NDF</displayformat>
                                <rate>
                                    <timebase>25</timebase>
                                    <ntsc>false</ntsc>
                                </rate>
                            </timecode>
                            <media>
                                <video>
                                    <duration>211</duration>
                                    <samplecharacteristics>
                                        <width>1920</width>
                                        <height>1080</height>
                                    </samplecharacteristics>
                                </video>
                            </media>
                        </file>
                        <compositemode>normal</compositemode>
                        <filter>
                            <enabled>true</enabled>
                            <start>0</start>
                            <end>210</end>
                            <effect>
                                <name>Opacity</name>
                                <effectid>opacity</effectid>
                                <effecttype>motion</effecttype>
                                <mediatype>video</mediatype>
                                <effectcategory>motion</effectcategory>
                                <parameter>
                                    <name>opacity</name>
                                    <parameterid>opacity</parameterid>
                                    <value>100</value>
                                    <valuemin>0</valuemin>
                                    <valuemax>100</valuemax>
                                </parameter>
                            </effect>
                        </filter>
                    </clipitem>
                    <clipitem id="972_0438_02_6_723F38377B8A44848866.mov 0">
                        <name>972_0438_02_6_723F38377B8A44848866.mov</name>
                        <duration>99</duration>
                        <rate>
                            <timebase>25</timebase>
                            <ntsc>false</ntsc>
                        </rate>
                        <start>114782</start>
                        <end>114881</end>
                        <enabled>true</enabled>
                        <in>0</in>
                        <out>99</out>
                        <file id="972_0438_02_6_723F38377B8A44848866.mov 2">
                            <duration>99</duration>
                            <rate>
                                <timebase>25</timebase>
                                <ntsc>false</ntsc>
                            </rate>
                            <name>972_0438_02_6_723F38377B8A44848866.mov</name>
                            <pathurl>file:///Capture1/EDIUS/EDIUS7_Color/colored/pasyans_v3/972_0438_02_6_723F38377B8A44848866_V1-0341.mov</pathurl>
                            <timecode>
                                <string>01:16:31:07</string>
                                <displayformat>NDF</displayformat>
                                <rate>
                                    <timebase>25</timebase>
                                    <ntsc>false</ntsc>
                                </rate>
                            </timecode>
                            <media>
                                <video>
                                    <duration>99</duration>
                                    <samplecharacteristics>
                                        <width>1920</width>
                                        <height>1080</height>
                                    </samplecharacteristics>
                                </video>
                            </media>
                        </file>
                        <compositemode>normal</compositemode>
                        <filter>
                            <enabled>true</enabled>
                            <start>0</start>
                            <end>99</end>
                            <effect>
                                <name>Opacity</name>
                                <effectid>opacity</effectid>
                                <effecttype>motion</effecttype>
                                <mediatype>video</mediatype>
                                <effectcategory>motion</effectcategory>
                                <parameter>
                                    <name>opacity</name>
                                    <parameterid>opacity</parameterid>
                                    <value>100</value>
                                    <valuemin>0</valuemin>
                                    <valuemax>100</valuemax>
                                </parameter>
                            </effect>
                        </filter>
                    </clipitem>
                    <clipitem id="246_0923_02_6_71F29CFDF74547F7BE85.mov 0">
                        <name>246_0923_02_6_71F29CFDF74547F7BE85.mov</name>
                        <duration>202</duration>
                        <rate>
                            <timebase>25</timebase>
                            <ntsc>false</ntsc>
                        </rate>
                        <start>114983</start>
                        <end>115186</end>
                        <enabled>true</enabled>
                        <in>0</in>
                        <out>203</out>
                        <file id="246_0923_02_6_71F29CFDF74547F7BE85.mov 2">
                            <duration>203</duration>
                            <rate>
                                <timebase>25</timebase>
                                <ntsc>false</ntsc>
                            </rate>
                            <name>246_0923_02_6_71F29CFDF74547F7BE85.mov</name>
                            <pathurl>file:///Capture1/EDIUS/EDIUS7_Color/colored/pasyans_v3/246_0923_02_6_71F29CFDF74547F7BE85_V1-0342.mov</pathurl>
                            <timecode>
                                <string>01:16:39:08</string>
                                <displayformat>NDF</displayformat>
                                <rate>
                                    <timebase>25</timebase>
                                    <ntsc>false</ntsc>
                                </rate>
                            </timecode>
                            <media>
                                <video>
                                    <duration>203</duration>
                                    <samplecharacteristics>
                                        <width>1920</width>
                                        <height>1080</height>
                                    </samplecharacteristics>
                                </video>
                            </media>
                        </file>
                        <compositemode>normal</compositemode>
                        <filter>
                            <enabled>true</enabled>
                            <start>0</start>
                            <end>202</end>
                            <effect>
                                <name>Opacity</name>
                                <effectid>opacity</effectid>
                                <effecttype>motion</effecttype>
                                <mediatype>video</mediatype>
                                <effectcategory>motion</effectcategory>
                                <parameter>
                                    <name>opacity</name>
                                    <parameterid>opacity</parameterid>
                                    <value>100</value>
                                    <valuemin>0</valuemin>
                                    <valuemax>100</valuemax>
                                </parameter>
                            </effect>
                        </filter>
                    </clipitem>
                    <clipitem id="GOPR8504_9_E1571A0855B54F5D8081.mov 0">
                        <name>GOPR8504_9_E1571A0855B54F5D8081.mov</name>
                        <duration>250</duration>
                        <rate>
                            <timebase>25</timebase>
                            <ntsc>false</ntsc>
                        </rate>
                        <start>115186</start>
                        <end>115437</end>
                        <enabled>true</enabled>
                        <in>0</in>
                        <out>251</out>
                        <file id="GOPR8504_9_E1571A0855B54F5D8081.mov 2">
                            <duration>251</duration>
                            <rate>
                                <timebase>25</timebase>
                                <ntsc>false</ntsc>
                            </rate>
                            <name>GOPR8504_9_E1571A0855B54F5D8081.mov</name>
                            <pathurl>file:///Capture1/EDIUS/EDIUS7_Color/colored/pasyans_v3/GOPR8504_9_E1571A0855B54F5D8081_V1-0343.mov</pathurl>
                            <timecode>
                                <string>01:16:47:11</string>
                                <displayformat>NDF</displayformat>
                                <rate>
                                    <timebase>25</timebase>
                                    <ntsc>false</ntsc>
                                </rate>
                            </timecode>
                            <media>
                                <video>
                                    <duration>251</duration>
                                    <samplecharacteristics>
                                        <width>1920</width>
                                        <height>1080</height>
                                    </samplecharacteristics>
                                </video>
                            </media>
                        </file>
                        <compositemode>normal</compositemode>
                        <filter>
                            <enabled>true</enabled>
                            <start>0</start>
                            <end>250</end>
                            <effect>
                                <name>Opacity</name>
                                <effectid>opacity</effectid>
                                <effecttype>motion</effecttype>
                                <mediatype>video</mediatype>
                                <effectcategory>motion</effectcategory>
                                <parameter>
                                    <name>opacity</name>
                                    <parameterid>opacity</parameterid>
                                    <value>100</value>
                                    <valuemin>0</valuemin>
                                    <valuemax>100</valuemax>
                                </parameter>
                            </effect>
                        </filter>
                    </clipitem>
                    <clipitem id="972_0438_02_7_23C9E5AC768B45ADB07A.mov 0">
                        <name>972_0438_02_7_23C9E5AC768B45ADB07A.mov</name>
                        <duration>235</duration>
                        <rate>
                            <timebase>25</timebase>
                            <ntsc>false</ntsc>
                        </rate>
                        <start>115437</start>
                        <end>115673</end>
                        <enabled>true</enabled>
                        <in>0</in>
                        <out>236</out>
                        <file id="972_0438_02_7_23C9E5AC768B45ADB07A.mov 2">
                            <duration>236</duration>
                            <rate>
                                <timebase>25</timebase>
                                <ntsc>false</ntsc>
                            </rate>
                            <name>972_0438_02_7_23C9E5AC768B45ADB07A.mov</name>
                            <pathurl>file:///Capture1/EDIUS/EDIUS7_Color/colored/pasyans_v3/972_0438_02_7_23C9E5AC768B45ADB07A_V1-0344.mov</pathurl>
                            <timecode>
                                <string>01:16:57:12</string>
                                <displayformat>NDF</displayformat>
                                <rate>
                                    <timebase>25</timebase>
                                    <ntsc>false</ntsc>
                                </rate>
                            </timecode>
                            <media>
                                <video>
                                    <duration>236</duration>
                                    <samplecharacteristics>
                                        <width>1920</width>
                                        <height>1080</height>
                                    </samplecharacteristics>
                                </video>
                            </media>
                        </file>
                        <compositemode>normal</compositemode>
                        <filter>
                            <enabled>true</enabled>
                            <start>0</start>
                            <end>235</end>
                            <effect>
                                <name>Opacity</name>
                                <effectid>opacity</effectid>
                                <effecttype>motion</effecttype>
                                <mediatype>video</mediatype>
                                <effectcategory>motion</effectcategory>
                                <parameter>
                                    <name>opacity</name>
                                    <parameterid>opacity</parameterid>
                                    <value>100</value>
                                    <valuemin>0</valuemin>
                                    <valuemax>100</valuemax>
                                </parameter>
                            </effect>
                        </filter>
                    </clipitem>
                    <clipitem id="972_0438_02_8_45C14E1750CC426CA3DD.mov 0">
                        <name>972_0438_02_8_45C14E1750CC426CA3DD.mov</name>
                        <duration>226</duration>
                        <rate>
                            <timebase>25</timebase>
                            <ntsc>false</ntsc>
                        </rate>
                        <start>115764</start>
                        <end>115991</end>
                        <enabled>true</enabled>
                        <in>0</in>
                        <out>227</out>
                        <file id="972_0438_02_8_45C14E1750CC426CA3DD.mov 2">
                            <duration>227</duration>
                            <rate>
                                <timebase>25</timebase>
                                <ntsc>false</ntsc>
                            </rate>
                            <name>972_0438_02_8_45C14E1750CC426CA3DD.mov</name>
                            <pathurl>file:///Capture1/EDIUS/EDIUS7_Color/colored/pasyans_v3/972_0438_02_8_45C14E1750CC426CA3DD_V1-0345.mov</pathurl>
                            <timecode>
                                <string>01:17:10:14</string>
                                <displayformat>NDF</displayformat>
                                <rate>
                                    <timebase>25</timebase>
                                    <ntsc>false</ntsc>
                                </rate>
                            </timecode>
                            <media>
                                <video>
                                    <duration>227</duration>
                                    <samplecharacteristics>
                                        <width>1920</width>
                                        <height>1080</height>
                                    </samplecharacteristics>
                                </video>
                            </media>
                        </file>
                        <compositemode>normal</compositemode>
                        <filter>
                            <enabled>true</enabled>
                            <start>0</start>
                            <end>226</end>
                            <effect>
                                <name>Opacity</name>
                                <effectid>opacity</effectid>
                                <effecttype>motion</effecttype>
                                <mediatype>video</mediatype>
                                <effectcategory>motion</effectcategory>
                                <parameter>
                                    <name>opacity</name>
                                    <parameterid>opacity</parameterid>
                                    <value>100</value>
                                    <valuemin>0</valuemin>
                                    <valuemax>100</valuemax>
                                </parameter>
                            </effect>
                        </filter>
                    </clipitem>
                    <clipitem id="КАССЕТНАЯ КАМЕРА 2_34_35A482A2CCEF4C4BB3B3.mov 0">
                        <name>КАССЕТНАЯ КАМЕРА 2_34_35A482A2CCEF4C4BB3B3.mov</name>
                        <duration>75</duration>
                        <rate>
                            <timebase>25</timebase>
                            <ntsc>false</ntsc>
                        </rate>
                        <start>120640</start>
                        <end>120715</end>
                        <enabled>true</enabled>
                        <in>0</in>
                        <out>75</out>
                        <file id="КАССЕТНАЯ КАМЕРА 2_34_35A482A2CCEF4C4BB3B3.mov 2">
                            <duration>75</duration>
                            <rate>
                                <timebase>25</timebase>
                                <ntsc>false</ntsc>
                            </rate>
                            <name>КАССЕТНАЯ КАМЕРА 2_34_35A482A2CCEF4C4BB3B3.mov</name>
                            <pathurl>file:///Capture1/EDIUS/EDIUS7_Color/colored/pasyans_v3/%D0%9A%D0%90%D0%A1%D0%A1%D0%95%D0%A2%D0%9D%D0%90%D0%AF%20%D0%9A%D0%90%D0%9C%D0%95%D0%A0%D0%90%202_34_35A482A2CCEF4C4BB3B3_V1-0346.mov</pathurl>
                            <timecode>
                                <string>01:20:25:15</string>
                                <displayformat>NDF</displayformat>
                                <rate>
                                    <timebase>25</timebase>
                                    <ntsc>false</ntsc>
                                </rate>
                            </timecode>
                            <media>
                                <video>
                                    <duration>75</duration>
                                    <samplecharacteristics>
                                        <width>1920</width>
                                        <height>1080</height>
                                    </samplecharacteristics>
                                </video>
                            </media>
                        </file>
                        <compositemode>normal</compositemode>
                        <filter>
                            <enabled>true</enabled>
                            <start>0</start>
                            <end>75</end>
                            <effect>
                                <name>Opacity</name>
                                <effectid>opacity</effectid>
                                <effecttype>motion</effecttype>
                                <mediatype>video</mediatype>
                                <effectcategory>motion</effectcategory>
                                <parameter>
                                    <name>opacity</name>
                                    <parameterid>opacity</parameterid>
                                    <value>100</value>
                                    <valuemin>0</valuemin>
                                    <valuemax>100</valuemax>
                                </parameter>
                            </effect>
                        </filter>
                    </clipitem>
                    <clipitem id="246_0923_02_7_239E907BAD7F428BB5F3.mov 0">
                        <name>246_0923_02_7_239E907BAD7F428BB5F3.mov</name>
                        <duration>100</duration>
                        <rate>
                            <timebase>25</timebase>
                            <ntsc>false</ntsc>
                        </rate>
                        <start>120811</start>
                        <end>120912</end>
                        <enabled>true</enabled>
                        <in>0</in>
                        <out>101</out>
                        <file id="246_0923_02_7_239E907BAD7F428BB5F3.mov 2">
                            <duration>101</duration>
                            <rate>
                                <timebase>25</timebase>
                                <ntsc>false</ntsc>
                            </rate>
                            <name>246_0923_02_7_239E907BAD7F428BB5F3.mov</name>
                            <pathurl>file:///Capture1/EDIUS/EDIUS7_Color/colored/pasyans_v3/246_0923_02_7_239E907BAD7F428BB5F3_V1-0347.mov</pathurl>
                            <timecode>
                                <string>01:20:32:11</string>
                                <displayformat>NDF</displayformat>
                                <rate>
                                    <timebase>25</timebase>
                                    <ntsc>false</ntsc>
                                </rate>
                            </timecode>
                            <media>
                                <video>
                                    <duration>101</duration>
                                    <samplecharacteristics>
                                        <width>1920</width>
                                        <height>1080</height>
                                    </samplecharacteristics>
                                </video>
                            </media>
                        </file>
                        <compositemode>normal</compositemode>
                        <filter>
                            <enabled>true</enabled>
                            <start>0</start>
                            <end>100</end>
                            <effect>
                                <name>Opacity</name>
                                <effectid>opacity</effectid>
                                <effecttype>motion</effecttype>
                                <mediatype>video</mediatype>
                                <effectcategory>motion</effectcategory>
                                <parameter>
                                    <name>opacity</name>
                                    <parameterid>opacity</parameterid>
                                    <value>100</value>
                                    <valuemin>0</valuemin>
                                    <valuemax>100</valuemax>
                                </parameter>
                            </effect>
                        </filter>
                    </clipitem>
                    <clipitem id="972_0438_02_9_554178614C234CBBA762.mov 0">
                        <name>972_0438_02_9_554178614C234CBBA762.mov</name>
                        <duration>102</duration>
                        <rate>
                            <timebase>25</timebase>
                            <ntsc>false</ntsc>
                        </rate>
                        <start>120912</start>
                        <end>121015</end>
                        <enabled>true</enabled>
                        <in>0</in>
                        <out>103</out>
                        <file id="972_0438_02_9_554178614C234CBBA762.mov 2">
                            <duration>103</duration>
                            <rate>
                                <timebase>25</timebase>
                                <ntsc>false</ntsc>
                            </rate>
                            <name>972_0438_02_9_554178614C234CBBA762.mov</name>
                            <pathurl>file:///Capture1/EDIUS/EDIUS7_Color/colored/pasyans_v3/972_0438_02_9_554178614C234CBBA762_V1-0348.mov</pathurl>
                            <timecode>
                                <string>01:20:36:12</string>
                                <displayformat>NDF</displayformat>
                                <rate>
                                    <timebase>25</timebase>
                                    <ntsc>false</ntsc>
                                </rate>
                            </timecode>
                            <media>
                                <video>
                                    <duration>103</duration>
                                    <samplecharacteristics>
                                        <width>1920</width>
                                        <height>1080</height>
                                    </samplecharacteristics>
                                </video>
                            </media>
                        </file>
                        <compositemode>normal</compositemode>
                        <filter>
                            <enabled>true</enabled>
                            <start>0</start>
                            <end>102</end>
                            <effect>
                                <name>Opacity</name>
                                <effectid>opacity</effectid>
                                <effecttype>motion</effecttype>
                                <mediatype>video</mediatype>
                                <effectcategory>motion</effectcategory>
                                <parameter>
                                    <name>opacity</name>
                                    <parameterid>opacity</parameterid>
                                    <value>100</value>
                                    <valuemin>0</valuemin>
                                    <valuemax>100</valuemax>
                                </parameter>
                            </effect>
                        </filter>
                    </clipitem>
                    <clipitem id="КАССЕТНАЯ КАМЕРА 2_35_B5A70FB376BD44B6B563.mov 0">
                        <name>КАССЕТНАЯ КАМЕРА 2_35_B5A70FB376BD44B6B563.mov</name>
                        <duration>113</duration>
                        <rate>
                            <timebase>25</timebase>
                            <ntsc>false</ntsc>
                        </rate>
                        <start>121015</start>
                        <end>121128</end>
                        <enabled>true</enabled>
                        <in>0</in>
                        <out>113</out>
                        <file id="КАССЕТНАЯ КАМЕРА 2_35_B5A70FB376BD44B6B563.mov 2">
                            <duration>113</duration>
                            <rate>
                                <timebase>25</timebase>
                                <ntsc>false</ntsc>
                            </rate>
                            <name>КАССЕТНАЯ КАМЕРА 2_35_B5A70FB376BD44B6B563.mov</name>
                            <pathurl>file:///Capture1/EDIUS/EDIUS7_Color/colored/pasyans_v3/%D0%9A%D0%90%D0%A1%D0%A1%D0%95%D0%A2%D0%9D%D0%90%D0%AF%20%D0%9A%D0%90%D0%9C%D0%95%D0%A0%D0%90%202_35_B5A70FB376BD44B6B563_V1-0349.mov</pathurl>
                            <timecode>
                                <string>01:20:40:15</string>
                                <displayformat>NDF</displayformat>
                                <rate>
                                    <timebase>25</timebase>
                                    <ntsc>false</ntsc>
                                </rate>
                            </timecode>
                            <media>
                                <video>
                                    <duration>113</duration>
                                    <samplecharacteristics>
                                        <width>1920</width>
                                        <height>1080</height>
                                    </samplecharacteristics>
                                </video>
                            </media>
                        </file>
                        <compositemode>normal</compositemode>
                        <filter>
                            <enabled>true</enabled>
                            <start>0</start>
                            <end>113</end>
                            <effect>
                                <name>Opacity</name>
                                <effectid>opacity</effectid>
                                <effecttype>motion</effecttype>
                                <mediatype>video</mediatype>
                                <effectcategory>motion</effectcategory>
                                <parameter>
                                    <name>opacity</name>
                                    <parameterid>opacity</parameterid>
                                    <value>100</value>
                                    <valuemin>0</valuemin>
                                    <valuemax>100</valuemax>
                                </parameter>
                            </effect>
                        </filter>
                    </clipitem>
                    <clipitem id="972_0438_02_10_672F38DB033F4C95AEF1.mov 0">
                        <name>972_0438_02_10_672F38DB033F4C95AEF1.mov</name>
                        <duration>123</duration>
                        <rate>
                            <timebase>25</timebase>
                            <ntsc>false</ntsc>
                        </rate>
                        <start>121128</start>
                        <end>121251</end>
                        <enabled>true</enabled>
                        <in>0</in>
                        <out>123</out>
                        <file id="972_0438_02_10_672F38DB033F4C95AEF1.mov 2">
                            <duration>123</duration>
                            <rate>
                                <timebase>25</timebase>
                                <ntsc>false</ntsc>
                            </rate>
                            <name>972_0438_02_10_672F38DB033F4C95AEF1.mov</name>
                            <pathurl>file:///Capture1/EDIUS/EDIUS7_Color/colored/pasyans_v3/972_0438_02_10_672F38DB033F4C95AEF1_V1-0350.mov</pathurl>
                            <timecode>
                                <string>01:20:45:03</string>
                                <displayformat>NDF</displayformat>
                                <rate>
                                    <timebase>25</timebase>
                                    <ntsc>false</ntsc>
                                </rate>
                            </timecode>
                            <media>
                                <video>
                                    <duration>123</duration>
                                    <samplecharacteristics>
                                        <width>1920</width>
                                        <height>1080</height>
                                    </samplecharacteristics>
                                </video>
                            </media>
                        </file>
                        <compositemode>normal</compositemode>
                        <filter>
                            <enabled>true</enabled>
                            <start>0</start>
                            <end>123</end>
                            <effect>
                                <name>Opacity</name>
                                <effectid>opacity</effectid>
                                <effecttype>motion</effecttype>
                                <mediatype>video</mediatype>
                                <effectcategory>motion</effectcategory>
                                <parameter>
                                    <name>opacity</name>
                                    <parameterid>opacity</parameterid>
                                    <value>100</value>
                                    <valuemin>0</valuemin>
                                    <valuemax>100</valuemax>
                                </parameter>
                            </effect>
                        </filter>
                    </clipitem>
                    <clipitem id="КАССЕТНАЯ КАМЕРА 2_36_5D2B7C3193764E53A0C3.mov 0">
                        <name>КАССЕТНАЯ КАМЕРА 2_36_5D2B7C3193764E53A0C3.mov</name>
                        <duration>211</duration>
                        <rate>
                            <timebase>25</timebase>
                            <ntsc>false</ntsc>
                        </rate>
                        <start>121251</start>
                        <end>121463</end>
                        <enabled>true</enabled>
                        <in>0</in>
                        <out>212</out>
                        <file id="КАССЕТНАЯ КАМЕРА 2_36_5D2B7C3193764E53A0C3.mov 2">
                            <duration>212</duration>
                            <rate>
                                <timebase>25</timebase>
                                <ntsc>false</ntsc>
                            </rate>
                            <name>КАССЕТНАЯ КАМЕРА 2_36_5D2B7C3193764E53A0C3.mov</name>
                            <pathurl>file:///Capture1/EDIUS/EDIUS7_Color/colored/pasyans_v3/%D0%9A%D0%90%D0%A1%D0%A1%D0%95%D0%A2%D0%9D%D0%90%D0%AF%20%D0%9A%D0%90%D0%9C%D0%95%D0%A0%D0%90%202_36_5D2B7C3193764E53A0C3_V1-0351.mov</pathurl>
                            <timecode>
                                <string>01:20:50:01</string>
                                <displayformat>NDF</displayformat>
                                <rate>
                                    <timebase>25</timebase>
                                    <ntsc>false</ntsc>
                                </rate>
                            </timecode>
                            <media>
                                <video>
                                    <duration>212</duration>
                                    <samplecharacteristics>
                                        <width>1920</width>
                                        <height>1080</height>
                                    </samplecharacteristics>
                                </video>
                            </media>
                        </file>
                        <compositemode>normal</compositemode>
                        <filter>
                            <enabled>true</enabled>
                            <start>0</start>
                            <end>211</end>
                            <effect>
                                <name>Opacity</name>
                                <effectid>opacity</effectid>
                                <effecttype>motion</effecttype>
                                <mediatype>video</mediatype>
                                <effectcategory>motion</effectcategory>
                                <parameter>
                                    <name>opacity</name>
                                    <parameterid>opacity</parameterid>
                                    <value>100</value>
                                    <valuemin>0</valuemin>
                                    <valuemax>100</valuemax>
                                </parameter>
                            </effect>
                        </filter>
                    </clipitem>
                    <clipitem id="972_0438_02_11_C0D5DF23F62249508A94.mov 0">
                        <name>972_0438_02_11_C0D5DF23F62249508A94.mov</name>
                        <duration>106</duration>
                        <rate>
                            <timebase>25</timebase>
                            <ntsc>false</ntsc>
                        </rate>
                        <start>121463</start>
                        <end>121570</end>
                        <enabled>true</enabled>
                        <in>0</in>
                        <out>107</out>
                        <file id="972_0438_02_11_C0D5DF23F62249508A94.mov 2">
                            <duration>107</duration>
                            <rate>
                                <timebase>25</timebase>
                                <ntsc>false</ntsc>
                            </rate>
                            <name>972_0438_02_11_C0D5DF23F62249508A94.mov</name>
                            <pathurl>file:///Capture1/EDIUS/EDIUS7_Color/colored/pasyans_v3/972_0438_02_11_C0D5DF23F62249508A94_V1-0352.mov</pathurl>
                            <timecode>
                                <string>01:20:58:13</string>
                                <displayformat>NDF</displayformat>
                                <rate>
                                    <timebase>25</timebase>
                                    <ntsc>false</ntsc>
                                </rate>
                            </timecode>
                            <media>
                                <video>
                                    <duration>107</duration>
                                    <samplecharacteristics>
                                        <width>1920</width>
                                        <height>1080</height>
                                    </samplecharacteristics>
                                </video>
                            </media>
                        </file>
                        <compositemode>normal</compositemode>
                        <filter>
                            <enabled>true</enabled>
                            <start>0</start>
                            <end>106</end>
                            <effect>
                                <name>Opacity</name>
                                <effectid>opacity</effectid>
                                <effecttype>motion</effecttype>
                                <mediatype>video</mediatype>
                                <effectcategory>motion</effectcategory>
                                <parameter>
                                    <name>opacity</name>
                                    <parameterid>opacity</parameterid>
                                    <value>100</value>
                                    <valuemin>0</valuemin>
                                    <valuemax>100</valuemax>
                                </parameter>
                            </effect>
                        </filter>
                    </clipitem>
                    <clipitem id="общий план 11_1_EEF7E9F1D47349CE8AFF.mov 0">
                        <name>общий план 11_1_EEF7E9F1D47349CE8AFF.mov</name>
                        <duration>281</duration>
                        <rate>
                            <timebase>25</timebase>
                            <ntsc>false</ntsc>
                        </rate>
                        <start>121570</start>
                        <end>121852</end>
                        <enabled>true</enabled>
                        <in>0</in>
                        <out>282</out>
                        <file id="общий план 11_1_EEF7E9F1D47349CE8AFF.mov 2">
                            <duration>282</duration>
                            <rate>
                                <timebase>25</timebase>
                                <ntsc>false</ntsc>
                            </rate>
                            <name>общий план 11_1_EEF7E9F1D47349CE8AFF.mov</name>
                            <pathurl>file:///Capture1/EDIUS/EDIUS7_Color/colored/pasyans_v3/%D0%BE%D0%B1%D1%89%D0%B8%D0%B9%20%D0%BF%D0%BB%D0%B0%D0%BD%2011_1_EEF7E9F1D47349CE8AFF_V1-0353.mov</pathurl>
                            <timecode>
                                <string>01:21:02:20</string>
                                <displayformat>NDF</displayformat>
                                <rate>
                                    <timebase>25</timebase>
                                    <ntsc>false</ntsc>
                                </rate>
                            </timecode>
                            <media>
                                <video>
                                    <duration>282</duration>
                                    <samplecharacteristics>
                                        <width>1920</width>
                                        <height>1080</height>
                                    </samplecharacteristics>
                                </video>
                            </media>
                        </file>
                        <compositemode>normal</compositemode>
                        <filter>
                            <enabled>true</enabled>
                            <start>0</start>
                            <end>281</end>
                            <effect>
                                <name>Opacity</name>
                                <effectid>opacity</effectid>
                                <effecttype>motion</effecttype>
                                <mediatype>video</mediatype>
                                <effectcategory>motion</effectcategory>
                                <parameter>
                                    <name>opacity</name>
                                    <parameterid>opacity</parameterid>
                                    <value>100</value>
                                    <valuemin>0</valuemin>
                                    <valuemax>100</valuemax>
                                </parameter>
                            </effect>
                        </filter>
                    </clipitem>
                    <clipitem id="972_0438_02_12_3555CBB79F2F41029275.mov 0">
                        <name>972_0438_02_12_3555CBB79F2F41029275.mov</name>
                        <duration>335</duration>
                        <rate>
                            <timebase>25</timebase>
                            <ntsc>false</ntsc>
                        </rate>
                        <start>121852</start>
                        <end>122188</end>
                        <enabled>true</enabled>
                        <in>0</in>
                        <out>336</out>
                        <file id="972_0438_02_12_3555CBB79F2F41029275.mov 2">
                            <duration>336</duration>
                            <rate>
                                <timebase>25</timebase>
                                <ntsc>false</ntsc>
                            </rate>
                            <name>972_0438_02_12_3555CBB79F2F41029275.mov</name>
                            <pathurl>file:///Capture1/EDIUS/EDIUS7_Color/colored/pasyans_v3/972_0438_02_12_3555CBB79F2F41029275_V1-0354.mov</pathurl>
                            <timecode>
                                <string>01:21:14:02</string>
                                <displayformat>NDF</displayformat>
                                <rate>
                                    <timebase>25</timebase>
                                    <ntsc>false</ntsc>
                                </rate>
                            </timecode>
                            <media>
                                <video>
                                    <duration>336</duration>
                                    <samplecharacteristics>
                                        <width>1920</width>
                                        <height>1080</height>
                                    </samplecharacteristics>
                                </video>
                            </media>
                        </file>
                        <compositemode>normal</compositemode>
                        <filter>
                            <enabled>true</enabled>
                            <start>0</start>
                            <end>335</end>
                            <effect>
                                <name>Opacity</name>
                                <effectid>opacity</effectid>
                                <effecttype>motion</effecttype>
                                <mediatype>video</mediatype>
                                <effectcategory>motion</effectcategory>
                                <parameter>
                                    <name>opacity</name>
                                    <parameterid>opacity</parameterid>
                                    <value>100</value>
                                    <valuemin>0</valuemin>
                                    <valuemax>100</valuemax>
                                </parameter>
                            </effect>
                        </filter>
                    </clipitem>
                    <clipitem id="246_0923_02_8_CEDD5E54E805466A9695.mov 0">
                        <name>246_0923_02_8_CEDD5E54E805466A9695.mov</name>
                        <duration>150</duration>
                        <rate>
                            <timebase>25</timebase>
                            <ntsc>false</ntsc>
                        </rate>
                        <start>122188</start>
                        <end>122338</end>
                        <enabled>true</enabled>
                        <in>0</in>
                        <out>150</out>
                        <file id="246_0923_02_8_CEDD5E54E805466A9695.mov 2">
                            <duration>150</duration>
                            <rate>
                                <timebase>25</timebase>
                                <ntsc>false</ntsc>
                            </rate>
                            <name>246_0923_02_8_CEDD5E54E805466A9695.mov</name>
                            <pathurl>file:///Capture1/EDIUS/EDIUS7_Color/colored/pasyans_v3/246_0923_02_8_CEDD5E54E805466A9695_V1-0355.mov</pathurl>
                            <timecode>
                                <string>01:21:27:13</string>
                                <displayformat>NDF</displayformat>
                                <rate>
                                    <timebase>25</timebase>
                                    <ntsc>false</ntsc>
                                </rate>
                            </timecode>
                            <media>
                                <video>
                                    <duration>150</duration>
                                    <samplecharacteristics>
                                        <width>1920</width>
                                        <height>1080</height>
                                    </samplecharacteristics>
                                </video>
                            </media>
                        </file>
                        <compositemode>normal</compositemode>
                        <filter>
                            <enabled>true</enabled>
                            <start>0</start>
                            <end>150</end>
                            <effect>
                                <name>Opacity</name>
                                <effectid>opacity</effectid>
                                <effecttype>motion</effecttype>
                                <mediatype>video</mediatype>
                                <effectcategory>motion</effectcategory>
                                <parameter>
                                    <name>opacity</name>
                                    <parameterid>opacity</parameterid>
                                    <value>100</value>
                                    <valuemin>0</valuemin>
                                    <valuemax>100</valuemax>
                                </parameter>
                            </effect>
                        </filter>
                    </clipitem>
                    <clipitem id="КАССЕТНАЯ КАМЕРА 2_37_6E92E38D3A124649878D.mov 0">
                        <name>КАССЕТНАЯ КАМЕРА 2_37_6E92E38D3A124649878D.mov</name>
                        <duration>102</duration>
                        <rate>
                            <timebase>25</timebase>
                            <ntsc>false</ntsc>
                        </rate>
                        <start>122338</start>
                        <end>122441</end>
                        <enabled>true</enabled>
                        <in>0</in>
                        <out>103</out>
                        <file id="КАССЕТНАЯ КАМЕРА 2_37_6E92E38D3A124649878D.mov 2">
                            <duration>103</duration>
                            <rate>
                                <timebase>25</timebase>
                                <ntsc>false</ntsc>
                            </rate>
                            <name>КАССЕТНАЯ КАМЕРА 2_37_6E92E38D3A124649878D.mov</name>
                            <pathurl>file:///Capture1/EDIUS/EDIUS7_Color/colored/pasyans_v3/%D0%9A%D0%90%D0%A1%D0%A1%D0%95%D0%A2%D0%9D%D0%90%D0%AF%20%D0%9A%D0%90%D0%9C%D0%95%D0%A0%D0%90%202_37_6E92E38D3A124649878D_V1-0356.mov</pathurl>
                            <timecode>
                                <string>01:21:33:13</string>
                                <displayformat>NDF</displayformat>
                                <rate>
                                    <timebase>25</timebase>
                                    <ntsc>false</ntsc>
                                </rate>
                            </timecode>
                            <media>
                                <video>
                                    <duration>103</duration>
                                    <samplecharacteristics>
                                        <width>1920</width>
                                        <height>1080</height>
                                    </samplecharacteristics>
                                </video>
                            </media>
                        </file>
                        <compositemode>normal</compositemode>
                        <filter>
                            <enabled>true</enabled>
                            <start>0</start>
                            <end>102</end>
                            <effect>
                                <name>Opacity</name>
                                <effectid>opacity</effectid>
                                <effecttype>motion</effecttype>
                                <mediatype>video</mediatype>
                                <effectcategory>motion</effectcategory>
                                <parameter>
                                    <name>opacity</name>
                                    <parameterid>opacity</parameterid>
                                    <value>100</value>
                                    <valuemin>0</valuemin>
                                    <valuemax>100</valuemax>
                                </parameter>
                            </effect>
                        </filter>
                    </clipitem>
                    <clipitem id="общий план 11_2_DA6F155345544BA49439.mov 0">
                        <name>общий план 11_2_DA6F155345544BA49439.mov</name>
                        <duration>305</duration>
                        <rate>
                            <timebase>25</timebase>
                            <ntsc>false</ntsc>
                        </rate>
                        <start>122441</start>
                        <end>122747</end>
                        <enabled>true</enabled>
                        <in>0</in>
                        <out>306</out>
                        <file id="общий план 11_2_DA6F155345544BA49439.mov 2">
                            <duration>306</duration>
                            <rate>
                                <timebase>25</timebase>
                                <ntsc>false</ntsc>
                            </rate>
                            <name>общий план 11_2_DA6F155345544BA49439.mov</name>
                            <pathurl>file:///Capture1/EDIUS/EDIUS7_Color/colored/pasyans_v3/%D0%BE%D0%B1%D1%89%D0%B8%D0%B9%20%D0%BF%D0%BB%D0%B0%D0%BD%2011_2_DA6F155345544BA49439_V1-0357.mov</pathurl>
                            <timecode>
                                <string>01:21:37:16</string>
                                <displayformat>NDF</displayformat>
                                <rate>
                                    <timebase>25</timebase>
                                    <ntsc>false</ntsc>
                                </rate>
                            </timecode>
                            <media>
                                <video>
                                    <duration>306</duration>
                                    <samplecharacteristics>
                                        <width>1920</width>
                                        <height>1080</height>
                                    </samplecharacteristics>
                                </video>
                            </media>
                        </file>
                        <compositemode>normal</compositemode>
                        <filter>
                            <enabled>true</enabled>
                            <start>0</start>
                            <end>305</end>
                            <effect>
                                <name>Opacity</name>
                                <effectid>opacity</effectid>
                                <effecttype>motion</effecttype>
                                <mediatype>video</mediatype>
                                <effectcategory>motion</effectcategory>
                                <parameter>
                                    <name>opacity</name>
                                    <parameterid>opacity</parameterid>
                                    <value>100</value>
                                    <valuemin>0</valuemin>
                                    <valuemax>100</valuemax>
                                </parameter>
                            </effect>
                        </filter>
                    </clipitem>
                    <clipitem id="972_0438_02_13_CC1F2D8DE1CD4172815E.mov 0">
                        <name>972_0438_02_13_CC1F2D8DE1CD4172815E.mov</name>
                        <duration>89</duration>
                        <rate>
                            <timebase>25</timebase>
                            <ntsc>false</ntsc>
                        </rate>
                        <start>122747</start>
                        <end>122836</end>
                        <enabled>true</enabled>
                        <in>0</in>
                        <out>89</out>
                        <file id="972_0438_02_13_CC1F2D8DE1CD4172815E.mov 2">
                            <duration>89</duration>
                            <rate>
                                <timebase>25</timebase>
                                <ntsc>false</ntsc>
                            </rate>
                            <name>972_0438_02_13_CC1F2D8DE1CD4172815E.mov</name>
                            <pathurl>file:///Capture1/EDIUS/EDIUS7_Color/colored/pasyans_v3/972_0438_02_13_CC1F2D8DE1CD4172815E_V1-0358.mov</pathurl>
                            <timecode>
                                <string>01:21:49:22</string>
                                <displayformat>NDF</displayformat>
                                <rate>
                                    <timebase>25</timebase>
                                    <ntsc>false</ntsc>
                                </rate>
                            </timecode>
                            <media>
                                <video>
                                    <duration>89</duration>
                                    <samplecharacteristics>
                                        <width>1920</width>
                                        <height>1080</height>
                                    </samplecharacteristics>
                                </video>
                            </media>
                        </file>
                        <compositemode>normal</compositemode>
                        <filter>
                            <enabled>true</enabled>
                            <start>0</start>
                            <end>89</end>
                            <effect>
                                <name>Opacity</name>
                                <effectid>opacity</effectid>
                                <effecttype>motion</effecttype>
                                <mediatype>video</mediatype>
                                <effectcategory>motion</effectcategory>
                                <parameter>
                                    <name>opacity</name>
                                    <parameterid>opacity</parameterid>
                                    <value>100</value>
                                    <valuemin>0</valuemin>
                                    <valuemax>100</valuemax>
                                </parameter>
                            </effect>
                        </filter>
                    </clipitem>
                    <clipitem id="246_0923_02_9_8FD878E9D93E4C998655.mov 0">
                        <name>246_0923_02_9_8FD878E9D93E4C998655.mov</name>
                        <duration>101</duration>
                        <rate>
                            <timebase>25</timebase>
                            <ntsc>false</ntsc>
                        </rate>
                        <start>122836</start>
                        <end>122938</end>
                        <enabled>true</enabled>
                        <in>0</in>
                        <out>102</out>
                        <file id="246_0923_02_9_8FD878E9D93E4C998655.mov 2">
                            <duration>102</duration>
                            <rate>
                                <timebase>25</timebase>
                                <ntsc>false</ntsc>
                            </rate>
                            <name>246_0923_02_9_8FD878E9D93E4C998655.mov</name>
                            <pathurl>file:///Capture1/EDIUS/EDIUS7_Color/colored/pasyans_v3/246_0923_02_9_8FD878E9D93E4C998655_V1-0359.mov</pathurl>
                            <timecode>
                                <string>01:21:53:11</string>
                                <displayformat>NDF</displayformat>
                                <rate>
                                    <timebase>25</timebase>
                                    <ntsc>false</ntsc>
                                </rate>
                            </timecode>
                            <media>
                                <video>
                                    <duration>102</duration>
                                    <samplecharacteristics>
                                        <width>1920</width>
                                        <height>1080</height>
                                    </samplecharacteristics>
                                </video>
                            </media>
                        </file>
                        <compositemode>normal</compositemode>
                        <filter>
                            <enabled>true</enabled>
                            <start>0</start>
                            <end>101</end>
                            <effect>
                                <name>Opacity</name>
                                <effectid>opacity</effectid>
                                <effecttype>motion</effecttype>
                                <mediatype>video</mediatype>
                                <effectcategory>motion</effectcategory>
                                <parameter>
                                    <name>opacity</name>
                                    <parameterid>opacity</parameterid>
                                    <value>100</value>
                                    <valuemin>0</valuemin>
                                    <valuemax>100</valuemax>
                                </parameter>
                            </effect>
                        </filter>
                    </clipitem>
                    <clipitem id="972_0438_02_14_66812409496249BBAC41.mov 0">
                        <name>972_0438_02_14_66812409496249BBAC41.mov</name>
                        <duration>86</duration>
                        <rate>
                            <timebase>25</timebase>
                            <ntsc>false</ntsc>
                        </rate>
                        <start>122938</start>
                        <end>123025</end>
                        <enabled>true</enabled>
                        <in>0</in>
                        <out>87</out>
                        <file id="972_0438_02_14_66812409496249BBAC41.mov 2">
                            <duration>87</duration>
                            <rate>
                                <timebase>25</timebase>
                                <ntsc>false</ntsc>
                            </rate>
                            <name>972_0438_02_14_66812409496249BBAC41.mov</name>
                            <pathurl>file:///Capture1/EDIUS/EDIUS7_Color/colored/pasyans_v3/972_0438_02_14_66812409496249BBAC41_V1-0360.mov</pathurl>
                            <timecode>
                                <string>01:21:57:13</string>
                                <displayformat>NDF</displayformat>
                                <rate>
                                    <timebase>25</timebase>
                                    <ntsc>false</ntsc>
                                </rate>
                            </timecode>
                            <media>
                                <video>
                                    <duration>87</duration>
                                    <samplecharacteristics>
                                        <width>1920</width>
                                        <height>1080</height>
                                    </samplecharacteristics>
                                </video>
                            </media>
                        </file>
                        <compositemode>normal</compositemode>
                        <filter>
                            <enabled>true</enabled>
                            <start>0</start>
                            <end>86</end>
                            <effect>
                                <name>Opacity</name>
                                <effectid>opacity</effectid>
                                <effecttype>motion</effecttype>
                                <mediatype>video</mediatype>
                                <effectcategory>motion</effectcategory>
                                <parameter>
                                    <name>opacity</name>
                                    <parameterid>opacity</parameterid>
                                    <value>100</value>
                                    <valuemin>0</valuemin>
                                    <valuemax>100</valuemax>
                                </parameter>
                            </effect>
                        </filter>
                    </clipitem>
                    <clipitem id="246_0923_02_10_EDD158E2B0B74140AFFE.mov 0">
                        <name>246_0923_02_10_EDD158E2B0B74140AFFE.mov</name>
                        <duration>84</duration>
                        <rate>
                            <timebase>25</timebase>
                            <ntsc>false</ntsc>
                        </rate>
                        <start>123025</start>
                        <end>123110</end>
                        <enabled>true</enabled>
                        <in>0</in>
                        <out>85</out>
                        <file id="246_0923_02_10_EDD158E2B0B74140AFFE.mov 2">
                            <duration>85</duration>
                            <rate>
                                <timebase>25</timebase>
                                <ntsc>false</ntsc>
                            </rate>
                            <name>246_0923_02_10_EDD158E2B0B74140AFFE.mov</name>
                            <pathurl>file:///Capture1/EDIUS/EDIUS7_Color/colored/pasyans_v3/246_0923_02_10_EDD158E2B0B74140AFFE_V1-0361.mov</pathurl>
                            <timecode>
                                <string>01:22:01:00</string>
                                <displayformat>NDF</displayformat>
                                <rate>
                                    <timebase>25</timebase>
                                    <ntsc>false</ntsc>
                                </rate>
                            </timecode>
                            <media>
                                <video>
                                    <duration>85</duration>
                                    <samplecharacteristics>
                                        <width>1920</width>
                                        <height>1080</height>
                                    </samplecharacteristics>
                                </video>
                            </media>
                        </file>
                        <compositemode>normal</compositemode>
                        <filter>
                            <enabled>true</enabled>
                            <start>0</start>
                            <end>84</end>
                            <effect>
                                <name>Opacity</name>
                                <effectid>opacity</effectid>
                                <effecttype>motion</effecttype>
                                <mediatype>video</mediatype>
                                <effectcategory>motion</effectcategory>
                                <parameter>
                                    <name>opacity</name>
                                    <parameterid>opacity</parameterid>
                                    <value>100</value>
                                    <valuemin>0</valuemin>
                                    <valuemax>100</valuemax>
                                </parameter>
                            </effect>
                        </filter>
                    </clipitem>
                    <clipitem id="общий план 11_3_F1DE87668BE14E879A88.mov 0">
                        <name>общий план 11_3_F1DE87668BE14E879A88.mov</name>
                        <duration>124</duration>
                        <rate>
                            <timebase>25</timebase>
                            <ntsc>false</ntsc>
                        </rate>
                        <start>123110</start>
                        <end>123234</end>
                        <enabled>true</enabled>
                        <in>0</in>
                        <out>124</out>
                        <file id="общий план 11_3_F1DE87668BE14E879A88.mov 2">
                            <duration>124</duration>
                            <rate>
                                <timebase>25</timebase>
                                <ntsc>false</ntsc>
                            </rate>
                            <name>общий план 11_3_F1DE87668BE14E879A88.mov</name>
                            <pathurl>file:///Capture1/EDIUS/EDIUS7_Color/colored/pasyans_v3/%D0%BE%D0%B1%D1%89%D0%B8%D0%B9%20%D0%BF%D0%BB%D0%B0%D0%BD%2011_3_F1DE87668BE14E879A88_V1-0362.mov</pathurl>
                            <timecode>
                                <string>01:22:04:10</string>
                                <displayformat>NDF</displayformat>
                                <rate>
                                    <timebase>25</timebase>
                                    <ntsc>false</ntsc>
                                </rate>
                            </timecode>
                            <media>
                                <video>
                                    <duration>124</duration>
                                    <samplecharacteristics>
                                        <width>1920</width>
                                        <height>1080</height>
                                    </samplecharacteristics>
                                </video>
                            </media>
                        </file>
                        <compositemode>normal</compositemode>
                        <filter>
                            <enabled>true</enabled>
                            <start>0</start>
                            <end>124</end>
                            <effect>
                                <name>Opacity</name>
                                <effectid>opacity</effectid>
                                <effecttype>motion</effecttype>
                                <mediatype>video</mediatype>
                                <effectcategory>motion</effectcategory>
                                <parameter>
                                    <name>opacity</name>
                                    <parameterid>opacity</parameterid>
                                    <value>100</value>
                                    <valuemin>0</valuemin>
                                    <valuemax>100</valuemax>
                                </parameter>
                            </effect>
                        </filter>
                    </clipitem>
                    <clipitem id="972_0438_02_15_698FFBFA579741DC8714.mov 0">
                        <name>972_0438_02_15_698FFBFA579741DC8714.mov</name>
                        <duration>117</duration>
                        <rate>
                            <timebase>25</timebase>
                            <ntsc>false</ntsc>
                        </rate>
                        <start>123234</start>
                        <end>123351</end>
                        <enabled>true</enabled>
                        <in>0</in>
                        <out>117</out>
                        <file id="972_0438_02_15_698FFBFA579741DC8714.mov 2">
                            <duration>117</duration>
                            <rate>
                                <timebase>25</timebase>
                                <ntsc>false</ntsc>
                            </rate>
                            <name>972_0438_02_15_698FFBFA579741DC8714.mov</name>
                            <pathurl>file:///Capture1/EDIUS/EDIUS7_Color/colored/pasyans_v3/972_0438_02_15_698FFBFA579741DC8714_V1-0363.mov</pathurl>
                            <timecode>
                                <string>01:22:09:09</string>
                                <displayformat>NDF</displayformat>
                                <rate>
                                    <timebase>25</timebase>
                                    <ntsc>false</ntsc>
                                </rate>
                            </timecode>
                            <media>
                                <video>
                                    <duration>117</duration>
                                    <samplecharacteristics>
                                        <width>1920</width>
                                        <height>1080</height>
                                    </samplecharacteristics>
                                </video>
                            </media>
                        </file>
                        <compositemode>normal</compositemode>
                        <filter>
                            <enabled>true</enabled>
                            <start>0</start>
                            <end>117</end>
                            <effect>
                                <name>Opacity</name>
                                <effectid>opacity</effectid>
                                <effecttype>motion</effecttype>
                                <mediatype>video</mediatype>
                                <effectcategory>motion</effectcategory>
                                <parameter>
                                    <name>opacity</name>
                                    <parameterid>opacity</parameterid>
                                    <value>100</value>
                                    <valuemin>0</valuemin>
                                    <valuemax>100</valuemax>
                                </parameter>
                            </effect>
                        </filter>
                    </clipitem>
                    <clipitem id="общий план 11_4_FF90E093A7564350B40E.mov 0">
                        <name>общий план 11_4_FF90E093A7564350B40E.mov</name>
                        <duration>208</duration>
                        <rate>
                            <timebase>25</timebase>
                            <ntsc>false</ntsc>
                        </rate>
                        <start>123351</start>
                        <end>123560</end>
                        <enabled>true</enabled>
                        <in>0</in>
                        <out>209</out>
                        <file id="общий план 11_4_FF90E093A7564350B40E.mov 2">
                            <duration>209</duration>
                            <rate>
                                <timebase>25</timebase>
                                <ntsc>false</ntsc>
                            </rate>
                            <name>общий план 11_4_FF90E093A7564350B40E.mov</name>
                            <pathurl>file:///Capture1/EDIUS/EDIUS7_Color/colored/pasyans_v3/%D0%BE%D0%B1%D1%89%D0%B8%D0%B9%20%D0%BF%D0%BB%D0%B0%D0%BD%2011_4_FF90E093A7564350B40E_V1-0364.mov</pathurl>
                            <timecode>
                                <string>01:22:14:01</string>
                                <displayformat>NDF</displayformat>
                                <rate>
                                    <timebase>25</timebase>
                                    <ntsc>false</ntsc>
                                </rate>
                            </timecode>
                            <media>
                                <video>
                                    <duration>209</duration>
                                    <samplecharacteristics>
                                        <width>1920</width>
                                        <height>1080</height>
                                    </samplecharacteristics>
                                </video>
                            </media>
                        </file>
                        <compositemode>normal</compositemode>
                        <filter>
                            <enabled>true</enabled>
                            <start>0</start>
                            <end>208</end>
                            <effect>
                                <name>Opacity</name>
                                <effectid>opacity</effectid>
                                <effecttype>motion</effecttype>
                                <mediatype>video</mediatype>
                                <effectcategory>motion</effectcategory>
                                <parameter>
                                    <name>opacity</name>
                                    <parameterid>opacity</parameterid>
                                    <value>100</value>
                                    <valuemin>0</valuemin>
                                    <valuemax>100</valuemax>
                                </parameter>
                            </effect>
                        </filter>
                    </clipitem>
                    <clipitem id="КАССЕТНАЯ КАМЕРА 2_38_E02BC28E18E34071B070.mov 0">
                        <name>КАССЕТНАЯ КАМЕРА 2_38_E02BC28E18E34071B070.mov</name>
                        <duration>175</duration>
                        <rate>
                            <timebase>25</timebase>
                            <ntsc>false</ntsc>
                        </rate>
                        <start>123560</start>
                        <end>123736</end>
                        <enabled>true</enabled>
                        <in>0</in>
                        <out>176</out>
                        <file id="КАССЕТНАЯ КАМЕРА 2_38_E02BC28E18E34071B070.mov 2">
                            <duration>176</duration>
                            <rate>
                                <timebase>25</timebase>
                                <ntsc>false</ntsc>
                            </rate>
                            <name>КАССЕТНАЯ КАМЕРА 2_38_E02BC28E18E34071B070.mov</name>
                            <pathurl>file:///Capture1/EDIUS/EDIUS7_Color/colored/pasyans_v3/%D0%9A%D0%90%D0%A1%D0%A1%D0%95%D0%A2%D0%9D%D0%90%D0%AF%20%D0%9A%D0%90%D0%9C%D0%95%D0%A0%D0%90%202_38_E02BC28E18E34071B070_V1-0365.mov</pathurl>
                            <timecode>
                                <string>01:22:22:10</string>
                                <displayformat>NDF</displayformat>
                                <rate>
                                    <timebase>25</timebase>
                                    <ntsc>false</ntsc>
                                </rate>
                            </timecode>
                            <media>
                                <video>
                                    <duration>176</duration>
                                    <samplecharacteristics>
                                        <width>1920</width>
                                        <height>1080</height>
                                    </samplecharacteristics>
                                </video>
                            </media>
                        </file>
                        <compositemode>normal</compositemode>
                        <filter>
                            <enabled>true</enabled>
                            <start>0</start>
                            <end>175</end>
                            <effect>
                                <name>Opacity</name>
                                <effectid>opacity</effectid>
                                <effecttype>motion</effecttype>
                                <mediatype>video</mediatype>
                                <effectcategory>motion</effectcategory>
                                <parameter>
                                    <name>opacity</name>
                                    <parameterid>opacity</parameterid>
                                    <value>100</value>
                                    <valuemin>0</valuemin>
                                    <valuemax>100</valuemax>
                                </parameter>
                            </effect>
                        </filter>
                    </clipitem>
                    <clipitem id="972_0438_02_16_0D718DD007834E00AC37.mov 0">
                        <name>972_0438_02_16_0D718DD007834E00AC37.mov</name>
                        <duration>83</duration>
                        <rate>
                            <timebase>25</timebase>
                            <ntsc>false</ntsc>
                        </rate>
                        <start>123736</start>
                        <end>123820</end>
                        <enabled>true</enabled>
                        <in>0</in>
                        <out>84</out>
                        <file id="972_0438_02_16_0D718DD007834E00AC37.mov 2">
                            <duration>84</duration>
                            <rate>
                                <timebase>25</timebase>
                                <ntsc>false</ntsc>
                            </rate>
                            <name>972_0438_02_16_0D718DD007834E00AC37.mov</name>
                            <pathurl>file:///Capture1/EDIUS/EDIUS7_Color/colored/pasyans_v3/972_0438_02_16_0D718DD007834E00AC37_V1-0366.mov</pathurl>
                            <timecode>
                                <string>01:22:29:11</string>
                                <displayformat>NDF</displayformat>
                                <rate>
                                    <timebase>25</timebase>
                                    <ntsc>false</ntsc>
                                </rate>
                            </timecode>
                            <media>
                                <video>
                                    <duration>84</duration>
                                    <samplecharacteristics>
                                        <width>1920</width>
                                        <height>1080</height>
                                    </samplecharacteristics>
                                </video>
                            </media>
                        </file>
                        <compositemode>normal</compositemode>
                        <filter>
                            <enabled>true</enabled>
                            <start>0</start>
                            <end>83</end>
                            <effect>
                                <name>Opacity</name>
                                <effectid>opacity</effectid>
                                <effecttype>motion</effecttype>
                                <mediatype>video</mediatype>
                                <effectcategory>motion</effectcategory>
                                <parameter>
                                    <name>opacity</name>
                                    <parameterid>opacity</parameterid>
                                    <value>100</value>
                                    <valuemin>0</valuemin>
                                    <valuemax>100</valuemax>
                                </parameter>
                            </effect>
                        </filter>
                    </clipitem>
                    <clipitem id="КАССЕТНАЯ КАМЕРА 2_39_C43055D7F528402DAE2D.mov 0">
                        <name>КАССЕТНАЯ КАМЕРА 2_39_C43055D7F528402DAE2D.mov</name>
                        <duration>220</duration>
                        <rate>
                            <timebase>25</timebase>
                            <ntsc>false</ntsc>
                        </rate>
                        <start>123820</start>
                        <end>124040</end>
                        <enabled>true</enabled>
                        <in>0</in>
                        <out>220</out>
                        <file id="КАССЕТНАЯ КАМЕРА 2_39_C43055D7F528402DAE2D.mov 2">
                            <duration>220</duration>
                            <rate>
                                <timebase>25</timebase>
                                <ntsc>false</ntsc>
                            </rate>
                            <name>КАССЕТНАЯ КАМЕРА 2_39_C43055D7F528402DAE2D.mov</name>
                            <pathurl>file:///Capture1/EDIUS/EDIUS7_Color/colored/pasyans_v3/%D0%9A%D0%90%D0%A1%D0%A1%D0%95%D0%A2%D0%9D%D0%90%D0%AF%20%D0%9A%D0%90%D0%9C%D0%95%D0%A0%D0%90%202_39_C43055D7F528402DAE2D_V1-0367.mov</pathurl>
                            <timecode>
                                <string>01:22:32:20</string>
                                <displayformat>NDF</displayformat>
                                <rate>
                                    <timebase>25</timebase>
                                    <ntsc>false</ntsc>
                                </rate>
                            </timecode>
                            <media>
                                <video>
                                    <duration>220</duration>
                                    <samplecharacteristics>
                                        <width>1920</width>
                                        <height>1080</height>
                                    </samplecharacteristics>
                                </video>
                            </media>
                        </file>
                        <compositemode>normal</compositemode>
                        <filter>
                            <enabled>true</enabled>
                            <start>0</start>
                            <end>220</end>
                            <effect>
                                <name>Opacity</name>
                                <effectid>opacity</effectid>
                                <effecttype>motion</effecttype>
                                <mediatype>video</mediatype>
                                <effectcategory>motion</effectcategory>
                                <parameter>
                                    <name>opacity</name>
                                    <parameterid>opacity</parameterid>
                                    <value>100</value>
                                    <valuemin>0</valuemin>
                                    <valuemax>100</valuemax>
                                </parameter>
                            </effect>
                        </filter>
                    </clipitem>
                    <clipitem id="ОТБИВКА ЗВЕЗДНЫЙ ПАСЬЯНС 06_1_31C4163AEC8647C08B84.mov 0">
                        <name>ОТБИВКА ЗВЕЗДНЫЙ ПАСЬЯНС 06_1_31C4163AEC8647C08B84.mov</name>
                        <duration>145</duration>
                        <rate>
                            <timebase>25</timebase>
                            <ntsc>false</ntsc>
                        </rate>
                        <start>124040</start>
                        <end>124185</end>
                        <enabled>true</enabled>
                        <in>0</in>
                        <out>145</out>
                        <file id="ОТБИВКА ЗВЕЗДНЫЙ ПАСЬЯНС 06_1_31C4163AEC8647C08B84.mov 2">
                            <duration>145</duration>
                            <rate>
                                <timebase>25</timebase>
                                <ntsc>false</ntsc>
                            </rate>
                            <name>ОТБИВКА ЗВЕЗДНЫЙ ПАСЬЯНС 06_1_31C4163AEC8647C08B84.mov</name>
                            <pathurl>file:///Capture1/EDIUS/EDIUS7_Color/colored/pasyans_v3/%D0%9E%D0%A2%D0%91%D0%98%D0%92%D0%9A%D0%90%20%D0%97%D0%92%D0%95%D0%97%D0%94%D0%9D%D0%AB%D0%99%20%D0%9F%D0%90%D0%A1%D0%AC%D0%AF%D0%9D%D0%A1%2006_1_31C4163AEC8647C08B84_V1-0368.mov</pathurl>
                            <timecode>
                                <string>01:22:41:15</string>
                                <displayformat>NDF</displayformat>
                                <rate>
                                    <timebase>25</timebase>
                                    <ntsc>false</ntsc>
                                </rate>
                            </timecode>
                            <media>
                                <video>
                                    <duration>145</duration>
                                    <samplecharacteristics>
                                        <width>1920</width>
                                        <height>1080</height>
                                    </samplecharacteristics>
                                </video>
                            </media>
                        </file>
                        <compositemode>normal</compositemode>
                        <filter>
                            <enabled>true</enabled>
                            <start>0</start>
                            <end>145</end>
                            <effect>
                                <name>Opacity</name>
                                <effectid>opacity</effectid>
                                <effecttype>motion</effecttype>
                                <mediatype>video</mediatype>
                                <effectcategory>motion</effectcategory>
                                <parameter>
                                    <name>opacity</name>
                                    <parameterid>opacity</parameterid>
                                    <value>100</value>
                                    <valuemin>0</valuemin>
                                    <valuemax>100</valuemax>
                                </parameter>
                            </effect>
                        </filter>
                    </clipitem>
                    <clipitem id="КАССЕТНАЯ КАМЕРА 2_40_379A7D05043C4DFC868B.mov 0">
                        <name>КАССЕТНАЯ КАМЕРА 2_40_379A7D05043C4DFC868B.mov</name>
                        <duration>295</duration>
                        <rate>
                            <timebase>25</timebase>
                            <ntsc>false</ntsc>
                        </rate>
                        <start>124185</start>
                        <end>124480</end>
                        <enabled>true</enabled>
                        <in>0</in>
                        <out>295</out>
                        <file id="КАССЕТНАЯ КАМЕРА 2_40_379A7D05043C4DFC868B.mov 2">
                            <duration>295</duration>
                            <rate>
                                <timebase>25</timebase>
                                <ntsc>false</ntsc>
                            </rate>
                            <name>КАССЕТНАЯ КАМЕРА 2_40_379A7D05043C4DFC868B.mov</name>
                            <pathurl>file:///Capture1/EDIUS/EDIUS7_Color/colored/pasyans_v3/%D0%9A%D0%90%D0%A1%D0%A1%D0%95%D0%A2%D0%9D%D0%90%D0%AF%20%D0%9A%D0%90%D0%9C%D0%95%D0%A0%D0%90%202_40_379A7D05043C4DFC868B_V1-0369.mov</pathurl>
                            <timecode>
                                <string>01:22:47:10</string>
                                <displayformat>NDF</displayformat>
                                <rate>
                                    <timebase>25</timebase>
                                    <ntsc>false</ntsc>
                                </rate>
                            </timecode>
                            <media>
                                <video>
                                    <duration>295</duration>
                                    <samplecharacteristics>
                                        <width>1920</width>
                                        <height>1080</height>
                                    </samplecharacteristics>
                                </video>
                            </media>
                        </file>
                        <compositemode>normal</compositemode>
                        <filter>
                            <enabled>true</enabled>
                            <start>0</start>
                            <end>295</end>
                            <effect>
                                <name>Opacity</name>
                                <effectid>opacity</effectid>
                                <effecttype>motion</effecttype>
                                <mediatype>video</mediatype>
                                <effectcategory>motion</effectcategory>
                                <parameter>
                                    <name>opacity</name>
                                    <parameterid>opacity</parameterid>
                                    <value>100</value>
                                    <valuemin>0</valuemin>
                                    <valuemax>100</valuemax>
                                </parameter>
                            </effect>
                        </filter>
                    </clipitem>
                    <clipitem id="КАССЕТНАЯ КАМЕРА 2_41_2E32A9FA503240219448.mov 0">
                        <name>КАССЕТНАЯ КАМЕРА 2_41_2E32A9FA503240219448.mov</name>
                        <duration>322</duration>
                        <rate>
                            <timebase>25</timebase>
                            <ntsc>false</ntsc>
                        </rate>
                        <start>124480</start>
                        <end>124802</end>
                        <enabled>true</enabled>
                        <in>0</in>
                        <out>322</out>
                        <file id="КАССЕТНАЯ КАМЕРА 2_41_2E32A9FA503240219448.mov 2">
                            <duration>322</duration>
                            <rate>
                                <timebase>25</timebase>
                                <ntsc>false</ntsc>
                            </rate>
                            <name>КАССЕТНАЯ КАМЕРА 2_41_2E32A9FA503240219448.mov</name>
                            <pathurl>file:///Capture1/EDIUS/EDIUS7_Color/colored/pasyans_v3/%D0%9A%D0%90%D0%A1%D0%A1%D0%95%D0%A2%D0%9D%D0%90%D0%AF%20%D0%9A%D0%90%D0%9C%D0%95%D0%A0%D0%90%202_41_2E32A9FA503240219448_V1-0370.mov</pathurl>
                            <timecode>
                                <string>01:22:59:05</string>
                                <displayformat>NDF</displayformat>
                                <rate>
                                    <timebase>25</timebase>
                                    <ntsc>false</ntsc>
                                </rate>
                            </timecode>
                            <media>
                                <video>
                                    <duration>322</duration>
                                    <samplecharacteristics>
                                        <width>1920</width>
                                        <height>1080</height>
                                    </samplecharacteristics>
                                </video>
                            </media>
                        </file>
                        <compositemode>normal</compositemode>
                        <filter>
                            <enabled>true</enabled>
                            <start>0</start>
                            <end>322</end>
                            <effect>
                                <name>Opacity</name>
                                <effectid>opacity</effectid>
                                <effecttype>motion</effecttype>
                                <mediatype>video</mediatype>
                                <effectcategory>motion</effectcategory>
                                <parameter>
                                    <name>opacity</name>
                                    <parameterid>opacity</parameterid>
                                    <value>100</value>
                                    <valuemin>0</valuemin>
                                    <valuemax>100</valuemax>
                                </parameter>
                            </effect>
                        </filter>
                    </clipitem>
                    <clipitem id="972_0438_03_1_01F3AFC6819D446BBB72.mov 0">
                        <name>972_0438_03_1_01F3AFC6819D446BBB72.mov</name>
                        <duration>533</duration>
                        <rate>
                            <timebase>25</timebase>
                            <ntsc>false</ntsc>
                        </rate>
                        <start>124802</start>
                        <end>125336</end>
                        <enabled>true</enabled>
                        <in>0</in>
                        <out>534</out>
                        <file id="972_0438_03_1_01F3AFC6819D446BBB72.mov 2">
                            <duration>534</duration>
                            <rate>
                                <timebase>25</timebase>
                                <ntsc>false</ntsc>
                            </rate>
                            <name>972_0438_03_1_01F3AFC6819D446BBB72.mov</name>
                            <pathurl>file:///Capture1/EDIUS/EDIUS7_Color/colored/pasyans_v3/972_0438_03_1_01F3AFC6819D446BBB72_V1-0371.mov</pathurl>
                            <timecode>
                                <string>01:23:12:02</string>
                                <displayformat>NDF</displayformat>
                                <rate>
                                    <timebase>25</timebase>
                                    <ntsc>false</ntsc>
                                </rate>
                            </timecode>
                            <media>
                                <video>
                                    <duration>534</duration>
                                    <samplecharacteristics>
                                        <width>1920</width>
                                        <height>1080</height>
                                    </samplecharacteristics>
                                </video>
                            </media>
                        </file>
                        <compositemode>normal</compositemode>
                        <filter>
                            <enabled>true</enabled>
                            <start>0</start>
                            <end>533</end>
                            <effect>
                                <name>Opacity</name>
                                <effectid>opacity</effectid>
                                <effecttype>motion</effecttype>
                                <mediatype>video</mediatype>
                                <effectcategory>motion</effectcategory>
                                <parameter>
                                    <name>opacity</name>
                                    <parameterid>opacity</parameterid>
                                    <value>100</value>
                                    <valuemin>0</valuemin>
                                    <valuemax>100</valuemax>
                                </parameter>
                            </effect>
                        </filter>
                    </clipitem>
                    <clipitem id="общий план 12_1_D327A70E3CC94391BEFF.mov 0">
                        <name>общий план 12_1_D327A70E3CC94391BEFF.mov</name>
                        <duration>407</duration>
                        <rate>
                            <timebase>25</timebase>
                            <ntsc>false</ntsc>
                        </rate>
                        <start>125336</start>
                        <end>125744</end>
                        <enabled>true</enabled>
                        <in>0</in>
                        <out>408</out>
                        <file id="общий план 12_1_D327A70E3CC94391BEFF.mov 2">
                            <duration>408</duration>
                            <rate>
                                <timebase>25</timebase>
                                <ntsc>false</ntsc>
                            </rate>
                            <name>общий план 12_1_D327A70E3CC94391BEFF.mov</name>
                            <pathurl>file:///Capture1/EDIUS/EDIUS7_Color/colored/pasyans_v3/%D0%BE%D0%B1%D1%89%D0%B8%D0%B9%20%D0%BF%D0%BB%D0%B0%D0%BD%2012_1_D327A70E3CC94391BEFF_V1-0372.mov</pathurl>
                            <timecode>
                                <string>01:23:33:11</string>
                                <displayformat>NDF</displayformat>
                                <rate>
                                    <timebase>25</timebase>
                                    <ntsc>false</ntsc>
                                </rate>
                            </timecode>
                            <media>
                                <video>
                                    <duration>408</duration>
                                    <samplecharacteristics>
                                        <width>1920</width>
                                        <height>1080</height>
                                    </samplecharacteristics>
                                </video>
                            </media>
                        </file>
                        <compositemode>normal</compositemode>
                        <filter>
                            <enabled>true</enabled>
                            <start>0</start>
                            <end>407</end>
                            <effect>
                                <name>Opacity</name>
                                <effectid>opacity</effectid>
                                <effecttype>motion</effecttype>
                                <mediatype>video</mediatype>
                                <effectcategory>motion</effectcategory>
                                <parameter>
                                    <name>opacity</name>
                                    <parameterid>opacity</parameterid>
                                    <value>100</value>
                                    <valuemin>0</valuemin>
                                    <valuemax>100</valuemax>
                                </parameter>
                            </effect>
                        </filter>
                    </clipitem>
                    <enabled>true</enabled>
                    <locked>false</locked>
                </track>
                <format>
                    <samplecharacteristics>
                        <width>1920</width>
                        <height>1080</height>
                        <pixelaspectratio>square</pixelaspectratio>
                        <rate>
                            <timebase>25</timebase>
                            <ntsc>false</ntsc>
                        </rate>
                        <codec>
                            <appspecificdata>
                                <appname>Final Cut Pro</appname>
                                <appmanufacturer>Apple Inc.</appmanufacturer>
                                <data>
                                    <qtcodec />
                                </data>
                            </appspecificdata>
                        </codec>
                        <fielddominance>upper</fielddominance>
                    </samplecharacteristics>
                </format>
            </video>
            <audio>
                <track>
                    <enabled>true</enabled>
                    <locked>false</locked>
                </track>
            </audio>
        </media>
    </sequence>
</xmeml>
